%TF.GenerationSoftware,KiCad,Pcbnew,6.0.11+dfsg-1*%
%TF.CreationDate,2024-04-01T21:30:18-07:00*%
%TF.ProjectId,car-logger,6361722d-6c6f-4676-9765-722e6b696361,v1*%
%TF.SameCoordinates,Original*%
%TF.FileFunction,Drillmap*%
%TF.FilePolarity,Positive*%
%FSLAX45Y45*%
G04 Gerber Fmt 4.5, Leading zero omitted, Abs format (unit mm)*
G04 Created by KiCad (PCBNEW 6.0.11+dfsg-1) date 2024-04-01 21:30:18*
%MOMM*%
%LPD*%
G01*
G04 APERTURE LIST*
%ADD10C,0.100000*%
%ADD11C,0.200000*%
%ADD12C,0.040000*%
%ADD13C,0.120000*%
%ADD14C,0.140000*%
%ADD15C,0.220000*%
%ADD16C,0.320000*%
G04 APERTURE END LIST*
D10*
X9398000Y-5791200D02*
X18034000Y-5791200D01*
X18034000Y-5791200D02*
X18034000Y-11176000D01*
X18034000Y-11176000D02*
X9398000Y-11176000D01*
X9398000Y-11176000D02*
X9398000Y-5791200D01*
D11*
D12*
X9632000Y-9886000D02*
X9672000Y-9926000D01*
X9672000Y-9886000D02*
X9632000Y-9926000D01*
X9632000Y-10394000D02*
X9672000Y-10434000D01*
X9672000Y-10394000D02*
X9632000Y-10434000D01*
X9759000Y-7346000D02*
X9799000Y-7386000D01*
X9799000Y-7346000D02*
X9759000Y-7386000D01*
X9759000Y-7854000D02*
X9799000Y-7894000D01*
X9799000Y-7854000D02*
X9759000Y-7894000D01*
X9759000Y-8362000D02*
X9799000Y-8402000D01*
X9799000Y-8362000D02*
X9759000Y-8402000D01*
X9759000Y-8870000D02*
X9799000Y-8910000D01*
X9799000Y-8870000D02*
X9759000Y-8910000D01*
X9886000Y-6838000D02*
X9926000Y-6878000D01*
X9926000Y-6838000D02*
X9886000Y-6878000D01*
X9886000Y-9124000D02*
X9926000Y-9164000D01*
X9926000Y-9124000D02*
X9886000Y-9164000D01*
X9886000Y-9886000D02*
X9926000Y-9926000D01*
X9926000Y-9886000D02*
X9886000Y-9926000D01*
X9886000Y-10394000D02*
X9926000Y-10434000D01*
X9926000Y-10394000D02*
X9886000Y-10434000D01*
X10140000Y-6076000D02*
X10180000Y-6116000D01*
X10180000Y-6076000D02*
X10140000Y-6116000D01*
X10140000Y-6330000D02*
X10180000Y-6370000D01*
X10180000Y-6330000D02*
X10140000Y-6370000D01*
X10470200Y-10889300D02*
X10510200Y-10929300D01*
X10510200Y-10889300D02*
X10470200Y-10929300D01*
X10521000Y-10076500D02*
X10561000Y-10116500D01*
X10561000Y-10076500D02*
X10521000Y-10116500D01*
X10648000Y-6076000D02*
X10688000Y-6116000D01*
X10688000Y-6076000D02*
X10648000Y-6116000D01*
X10648000Y-6330000D02*
X10688000Y-6370000D01*
X10688000Y-6330000D02*
X10648000Y-6370000D01*
X10648000Y-9124000D02*
X10688000Y-9164000D01*
X10688000Y-9124000D02*
X10648000Y-9164000D01*
X10648000Y-9784400D02*
X10688000Y-9824400D01*
X10688000Y-9784400D02*
X10648000Y-9824400D01*
X10775000Y-8870000D02*
X10815000Y-8910000D01*
X10815000Y-8870000D02*
X10775000Y-8910000D01*
X10863900Y-10889300D02*
X10903900Y-10929300D01*
X10903900Y-10889300D02*
X10863900Y-10929300D01*
X10914700Y-10673400D02*
X10954700Y-10713400D01*
X10954700Y-10673400D02*
X10914700Y-10713400D01*
X11007000Y-8746400D02*
X11047000Y-8786400D01*
X11047000Y-8746400D02*
X11007000Y-8786400D01*
X11079800Y-7396800D02*
X11119800Y-7436800D01*
X11119800Y-7396800D02*
X11079800Y-7436800D01*
X11156000Y-6076000D02*
X11196000Y-6116000D01*
X11196000Y-6076000D02*
X11156000Y-6116000D01*
X11156000Y-6330000D02*
X11196000Y-6370000D01*
X11196000Y-6330000D02*
X11156000Y-6370000D01*
X11156000Y-8362000D02*
X11196000Y-8402000D01*
X11196000Y-8362000D02*
X11156000Y-8402000D01*
X11156000Y-9632000D02*
X11196000Y-9672000D01*
X11196000Y-9632000D02*
X11156000Y-9672000D01*
X11181400Y-7117400D02*
X11221400Y-7157400D01*
X11221400Y-7117400D02*
X11181400Y-7157400D01*
X11181400Y-7739700D02*
X11221400Y-7779700D01*
X11221400Y-7739700D02*
X11181400Y-7779700D01*
X11181400Y-8857300D02*
X11221400Y-8897300D01*
X11221400Y-8857300D02*
X11181400Y-8897300D01*
X11346500Y-6761800D02*
X11386500Y-6801800D01*
X11386500Y-6761800D02*
X11346500Y-6801800D01*
X11346500Y-6914200D02*
X11386500Y-6954200D01*
X11386500Y-6914200D02*
X11346500Y-6954200D01*
X11346500Y-10355900D02*
X11386500Y-10395900D01*
X11386500Y-10355900D02*
X11346500Y-10395900D01*
X11537000Y-10317800D02*
X11577000Y-10357800D01*
X11577000Y-10317800D02*
X11537000Y-10357800D01*
X11613200Y-7904800D02*
X11653200Y-7944800D01*
X11653200Y-7904800D02*
X11613200Y-7944800D01*
X11616200Y-8069900D02*
X11656200Y-8109900D01*
X11656200Y-8069900D02*
X11616200Y-8109900D01*
X11664000Y-6076000D02*
X11704000Y-6116000D01*
X11704000Y-6076000D02*
X11664000Y-6116000D01*
X11664000Y-6330000D02*
X11704000Y-6370000D01*
X11704000Y-6330000D02*
X11664000Y-6370000D01*
X11664000Y-8362000D02*
X11704000Y-8402000D01*
X11704000Y-8362000D02*
X11664000Y-8402000D01*
X11676700Y-8908100D02*
X11716700Y-8948100D01*
X11716700Y-8908100D02*
X11676700Y-8948100D01*
X11727500Y-6647500D02*
X11767500Y-6687500D01*
X11767500Y-6647500D02*
X11727500Y-6687500D01*
X11791000Y-9886000D02*
X11831000Y-9926000D01*
X11831000Y-9886000D02*
X11791000Y-9926000D01*
X11791000Y-10521000D02*
X11831000Y-10561000D01*
X11831000Y-10521000D02*
X11791000Y-10561000D01*
X11943400Y-9619300D02*
X11983400Y-9659300D01*
X11983400Y-9619300D02*
X11943400Y-9659300D01*
X11981500Y-6647500D02*
X12021500Y-6687500D01*
X12021500Y-6647500D02*
X11981500Y-6687500D01*
X11981500Y-8184200D02*
X12021500Y-8224200D01*
X12021500Y-8184200D02*
X11981500Y-8224200D01*
X12159300Y-7282500D02*
X12199300Y-7322500D01*
X12199300Y-7282500D02*
X12159300Y-7322500D01*
X12159300Y-7409500D02*
X12199300Y-7449500D01*
X12199300Y-7409500D02*
X12159300Y-7449500D01*
X12159300Y-7536500D02*
X12199300Y-7576500D01*
X12199300Y-7536500D02*
X12159300Y-7576500D01*
X12172000Y-6076000D02*
X12212000Y-6116000D01*
X12212000Y-6076000D02*
X12172000Y-6116000D01*
X12172000Y-6330000D02*
X12212000Y-6370000D01*
X12212000Y-6330000D02*
X12172000Y-6370000D01*
X12172000Y-8362000D02*
X12212000Y-8402000D01*
X12212000Y-8362000D02*
X12172000Y-8402000D01*
X12172000Y-8616000D02*
X12212000Y-8656000D01*
X12212000Y-8616000D02*
X12172000Y-8656000D01*
X12172000Y-9886000D02*
X12212000Y-9926000D01*
X12212000Y-9886000D02*
X12172000Y-9926000D01*
X12273600Y-9505000D02*
X12313600Y-9545000D01*
X12313600Y-9505000D02*
X12273600Y-9545000D01*
X12387900Y-9225600D02*
X12427900Y-9265600D01*
X12427900Y-9225600D02*
X12387900Y-9265600D01*
X12680000Y-6330000D02*
X12720000Y-6370000D01*
X12720000Y-6330000D02*
X12680000Y-6370000D01*
X12680000Y-8362000D02*
X12720000Y-8402000D01*
X12720000Y-8362000D02*
X12680000Y-8402000D01*
X12680000Y-8616000D02*
X12720000Y-8656000D01*
X12720000Y-8616000D02*
X12680000Y-8656000D01*
X12680000Y-9060500D02*
X12720000Y-9100500D01*
X12720000Y-9060500D02*
X12680000Y-9100500D01*
X13188000Y-6330000D02*
X13228000Y-6370000D01*
X13228000Y-6330000D02*
X13188000Y-6370000D01*
X13188000Y-8362000D02*
X13228000Y-8402000D01*
X13228000Y-8362000D02*
X13188000Y-8402000D01*
X13188000Y-8616000D02*
X13228000Y-8656000D01*
X13228000Y-8616000D02*
X13188000Y-8656000D01*
X13188000Y-9378000D02*
X13228000Y-9418000D01*
X13228000Y-9378000D02*
X13188000Y-9418000D01*
X13188000Y-9632000D02*
X13228000Y-9672000D01*
X13228000Y-9632000D02*
X13188000Y-9672000D01*
X13188000Y-9886000D02*
X13228000Y-9926000D01*
X13228000Y-9886000D02*
X13188000Y-9926000D01*
X13403900Y-8971600D02*
X13443900Y-9011600D01*
X13443900Y-8971600D02*
X13403900Y-9011600D01*
X13429300Y-7282500D02*
X13469300Y-7322500D01*
X13469300Y-7282500D02*
X13429300Y-7322500D01*
X13429300Y-7536500D02*
X13469300Y-7576500D01*
X13469300Y-7536500D02*
X13429300Y-7576500D01*
X13442000Y-8362000D02*
X13482000Y-8402000D01*
X13482000Y-8362000D02*
X13442000Y-8402000D01*
X13505500Y-10038400D02*
X13545500Y-10078400D01*
X13545500Y-10038400D02*
X13505500Y-10078400D01*
X13591000Y-8155400D02*
X13631000Y-8195400D01*
X13631000Y-8155400D02*
X13591000Y-8195400D01*
X13594400Y-6634800D02*
X13634400Y-6674800D01*
X13634400Y-6634800D02*
X13594400Y-6674800D01*
X13696000Y-6330000D02*
X13736000Y-6370000D01*
X13736000Y-6330000D02*
X13696000Y-6370000D01*
X13696000Y-9124000D02*
X13736000Y-9164000D01*
X13736000Y-9124000D02*
X13696000Y-9164000D01*
X13696000Y-9632000D02*
X13736000Y-9672000D01*
X13736000Y-9632000D02*
X13696000Y-9672000D01*
X13696000Y-9886000D02*
X13736000Y-9926000D01*
X13736000Y-9886000D02*
X13696000Y-9926000D01*
X13721400Y-10038400D02*
X13761400Y-10078400D01*
X13761400Y-10038400D02*
X13721400Y-10078400D01*
X13848400Y-6634800D02*
X13888400Y-6674800D01*
X13888400Y-6634800D02*
X13848400Y-6674800D01*
X13848400Y-8158800D02*
X13888400Y-8198800D01*
X13888400Y-8158800D02*
X13848400Y-8198800D01*
X13861100Y-7117400D02*
X13901100Y-7157400D01*
X13901100Y-7117400D02*
X13861100Y-7157400D01*
X13924600Y-10038400D02*
X13964600Y-10078400D01*
X13964600Y-10038400D02*
X13924600Y-10078400D01*
X13950000Y-8362000D02*
X13990000Y-8402000D01*
X13990000Y-8362000D02*
X13950000Y-8402000D01*
X13950000Y-8743000D02*
X13990000Y-8783000D01*
X13990000Y-8743000D02*
X13950000Y-8783000D01*
X14013500Y-10595900D02*
X14053500Y-10635900D01*
X14053500Y-10595900D02*
X14013500Y-10635900D01*
X14077000Y-9124000D02*
X14117000Y-9164000D01*
X14117000Y-9124000D02*
X14077000Y-9164000D01*
X14077000Y-9632000D02*
X14117000Y-9672000D01*
X14117000Y-9632000D02*
X14077000Y-9672000D01*
X14102400Y-6634800D02*
X14142400Y-6674800D01*
X14142400Y-6634800D02*
X14102400Y-6674800D01*
X14102400Y-8158800D02*
X14142400Y-8198800D01*
X14142400Y-8158800D02*
X14102400Y-8198800D01*
X14458000Y-8362000D02*
X14498000Y-8402000D01*
X14498000Y-8362000D02*
X14458000Y-8402000D01*
X14458000Y-9124000D02*
X14498000Y-9164000D01*
X14498000Y-9124000D02*
X14458000Y-9164000D01*
X14458000Y-9632000D02*
X14498000Y-9672000D01*
X14498000Y-9632000D02*
X14458000Y-9672000D01*
X14483400Y-8971600D02*
X14523400Y-9011600D01*
X14523400Y-8971600D02*
X14483400Y-9011600D01*
X14508800Y-6672900D02*
X14548800Y-6712900D01*
X14548800Y-6672900D02*
X14508800Y-6712900D01*
X14521500Y-6965000D02*
X14561500Y-7005000D01*
X14561500Y-6965000D02*
X14521500Y-7005000D01*
X14521500Y-8108000D02*
X14561500Y-8148000D01*
X14561500Y-8108000D02*
X14521500Y-8148000D01*
X14534200Y-7803200D02*
X14574200Y-7843200D01*
X14574200Y-7803200D02*
X14534200Y-7843200D01*
X14546900Y-10140000D02*
X14586900Y-10180000D01*
X14586900Y-10140000D02*
X14546900Y-10180000D01*
X14585000Y-10267000D02*
X14625000Y-10307000D01*
X14625000Y-10267000D02*
X14585000Y-10307000D01*
X14585000Y-10470200D02*
X14625000Y-10510200D01*
X14625000Y-10470200D02*
X14585000Y-10510200D01*
X14686600Y-10368600D02*
X14726600Y-10408600D01*
X14726600Y-10368600D02*
X14686600Y-10408600D01*
X14686600Y-10584500D02*
X14726600Y-10624500D01*
X14726600Y-10584500D02*
X14686600Y-10624500D01*
X14712000Y-6660200D02*
X14752000Y-6700200D01*
X14752000Y-6660200D02*
X14712000Y-6700200D01*
X14749670Y-8629130D02*
X14789670Y-8669130D01*
X14789670Y-8629130D02*
X14749670Y-8669130D01*
X14788200Y-10267000D02*
X14828200Y-10307000D01*
X14828200Y-10267000D02*
X14788200Y-10307000D01*
X14788200Y-10470200D02*
X14828200Y-10510200D01*
X14828200Y-10470200D02*
X14788200Y-10510200D01*
X14839000Y-6761800D02*
X14879000Y-6801800D01*
X14879000Y-6761800D02*
X14839000Y-6801800D01*
X14839000Y-9124000D02*
X14879000Y-9164000D01*
X14879000Y-9124000D02*
X14839000Y-9164000D01*
X14839000Y-9632000D02*
X14879000Y-9672000D01*
X14879000Y-9632000D02*
X14839000Y-9672000D01*
X14851700Y-7803200D02*
X14891700Y-7843200D01*
X14891700Y-7803200D02*
X14851700Y-7843200D01*
X14851700Y-7955600D02*
X14891700Y-7995600D01*
X14891700Y-7955600D02*
X14851700Y-7995600D01*
X14966000Y-6660200D02*
X15006000Y-6700200D01*
X15006000Y-6660200D02*
X14966000Y-6700200D01*
X14966000Y-7371400D02*
X15006000Y-7411400D01*
X15006000Y-7371400D02*
X14966000Y-7411400D01*
X15118400Y-7803200D02*
X15158400Y-7843200D01*
X15158400Y-7803200D02*
X15118400Y-7843200D01*
X15143800Y-10990900D02*
X15183800Y-11030900D01*
X15183800Y-10990900D02*
X15143800Y-11030900D01*
X15220000Y-6660200D02*
X15260000Y-6700200D01*
X15260000Y-6660200D02*
X15220000Y-6700200D01*
X15220000Y-8171500D02*
X15260000Y-8211500D01*
X15260000Y-8171500D02*
X15220000Y-8211500D01*
X15220000Y-9124000D02*
X15260000Y-9164000D01*
X15260000Y-9124000D02*
X15220000Y-9164000D01*
X15220000Y-9632000D02*
X15260000Y-9672000D01*
X15260000Y-9632000D02*
X15220000Y-9672000D01*
X15258100Y-7142800D02*
X15298100Y-7182800D01*
X15298100Y-7142800D02*
X15258100Y-7182800D01*
X15334300Y-10533700D02*
X15374300Y-10573700D01*
X15374300Y-10533700D02*
X15334300Y-10573700D01*
X15347000Y-6761800D02*
X15387000Y-6801800D01*
X15387000Y-6761800D02*
X15347000Y-6801800D01*
X15347000Y-8755700D02*
X15387000Y-8795700D01*
X15387000Y-8755700D02*
X15347000Y-8795700D01*
X15448600Y-9924100D02*
X15488600Y-9964100D01*
X15488600Y-9924100D02*
X15448600Y-9964100D01*
X15474000Y-6660200D02*
X15514000Y-6700200D01*
X15514000Y-6660200D02*
X15474000Y-6700200D01*
X15499400Y-6914200D02*
X15539400Y-6954200D01*
X15539400Y-6914200D02*
X15499400Y-6954200D01*
X15542908Y-7162792D02*
X15582908Y-7202792D01*
X15582908Y-7162792D02*
X15542908Y-7202792D01*
X15570950Y-10533700D02*
X15610950Y-10573700D01*
X15610950Y-10533700D02*
X15570950Y-10573700D01*
X15601000Y-8362000D02*
X15641000Y-8402000D01*
X15641000Y-8362000D02*
X15601000Y-8402000D01*
X15613700Y-10927400D02*
X15653700Y-10967400D01*
X15653700Y-10927400D02*
X15613700Y-10967400D01*
X15702600Y-9924100D02*
X15742600Y-9964100D01*
X15742600Y-9924100D02*
X15702600Y-9964100D01*
X15753400Y-8704900D02*
X15793400Y-8744900D01*
X15793400Y-8704900D02*
X15753400Y-8744900D01*
X15804200Y-10533700D02*
X15844200Y-10573700D01*
X15844200Y-10533700D02*
X15804200Y-10573700D01*
X15855000Y-9632000D02*
X15895000Y-9672000D01*
X15895000Y-9632000D02*
X15855000Y-9672000D01*
X15880400Y-6888800D02*
X15920400Y-6928800D01*
X15920400Y-6888800D02*
X15880400Y-6928800D01*
X15956600Y-9924100D02*
X15996600Y-9964100D01*
X15996600Y-9924100D02*
X15956600Y-9964100D01*
X15982000Y-7727000D02*
X16022000Y-7767000D01*
X16022000Y-7727000D02*
X15982000Y-7767000D01*
X15982000Y-7828600D02*
X16022000Y-7868600D01*
X16022000Y-7828600D02*
X15982000Y-7868600D01*
X16032800Y-8362000D02*
X16072800Y-8402000D01*
X16072800Y-8362000D02*
X16032800Y-8402000D01*
X16096300Y-6850700D02*
X16136300Y-6890700D01*
X16136300Y-6850700D02*
X16096300Y-6890700D01*
X16185200Y-8362000D02*
X16225200Y-8402000D01*
X16225200Y-8362000D02*
X16185200Y-8402000D01*
X16197900Y-10609900D02*
X16237900Y-10649900D01*
X16237900Y-10609900D02*
X16197900Y-10649900D01*
X16236000Y-9632000D02*
X16276000Y-9672000D01*
X16276000Y-9632000D02*
X16236000Y-9672000D01*
X16299500Y-8565200D02*
X16339500Y-8605200D01*
X16339500Y-8565200D02*
X16299500Y-8605200D01*
X16312200Y-10063800D02*
X16352200Y-10103800D01*
X16352200Y-10063800D02*
X16312200Y-10103800D01*
X16439200Y-7981000D02*
X16479200Y-8021000D01*
X16479200Y-7981000D02*
X16439200Y-8021000D01*
X16490000Y-9124000D02*
X16530000Y-9164000D01*
X16530000Y-9124000D02*
X16490000Y-9164000D01*
X16502700Y-9492300D02*
X16542700Y-9532300D01*
X16542700Y-9492300D02*
X16502700Y-9532300D01*
X16528100Y-6863400D02*
X16568100Y-6903400D01*
X16568100Y-6863400D02*
X16528100Y-6903400D01*
X16528100Y-7612700D02*
X16568100Y-7652700D01*
X16568100Y-7612700D02*
X16528100Y-7652700D01*
X16680500Y-10203500D02*
X16720500Y-10243500D01*
X16720500Y-10203500D02*
X16680500Y-10243500D01*
X16718600Y-7244400D02*
X16758600Y-7284400D01*
X16758600Y-7244400D02*
X16718600Y-7284400D01*
X16718600Y-7396800D02*
X16758600Y-7436800D01*
X16758600Y-7396800D02*
X16718600Y-7436800D01*
X16744000Y-8235000D02*
X16784000Y-8275000D01*
X16784000Y-8235000D02*
X16744000Y-8275000D01*
X16744000Y-8616000D02*
X16784000Y-8656000D01*
X16784000Y-8616000D02*
X16744000Y-8656000D01*
X16845600Y-7714300D02*
X16885600Y-7754300D01*
X16885600Y-7714300D02*
X16845600Y-7754300D01*
X16845600Y-9035100D02*
X16885600Y-9075100D01*
X16885600Y-9035100D02*
X16845600Y-9075100D01*
X16959900Y-6850700D02*
X16999900Y-6890700D01*
X16999900Y-6850700D02*
X16959900Y-6890700D01*
X16972600Y-7003100D02*
X17012600Y-7043100D01*
X17012600Y-7003100D02*
X16972600Y-7043100D01*
X16998000Y-6076000D02*
X17038000Y-6116000D01*
X17038000Y-6076000D02*
X16998000Y-6116000D01*
X16998000Y-6330000D02*
X17038000Y-6370000D01*
X17038000Y-6330000D02*
X16998000Y-6370000D01*
X16998000Y-10902000D02*
X17038000Y-10942000D01*
X17038000Y-10902000D02*
X16998000Y-10942000D01*
X17137700Y-10063800D02*
X17177700Y-10103800D01*
X17177700Y-10063800D02*
X17137700Y-10103800D01*
X17137700Y-10724200D02*
X17177700Y-10764200D01*
X17177700Y-10724200D02*
X17137700Y-10764200D01*
X17252000Y-6076000D02*
X17292000Y-6116000D01*
X17292000Y-6076000D02*
X17252000Y-6116000D01*
X17252000Y-6330000D02*
X17292000Y-6370000D01*
X17292000Y-6330000D02*
X17252000Y-6370000D01*
X17252000Y-6965000D02*
X17292000Y-7005000D01*
X17292000Y-6965000D02*
X17252000Y-7005000D01*
X17328200Y-7473000D02*
X17368200Y-7513000D01*
X17368200Y-7473000D02*
X17328200Y-7513000D01*
X17480600Y-7473000D02*
X17520600Y-7513000D01*
X17520600Y-7473000D02*
X17480600Y-7513000D01*
X17480600Y-8997000D02*
X17520600Y-9037000D01*
X17520600Y-8997000D02*
X17480600Y-9037000D01*
X17506000Y-8235000D02*
X17546000Y-8275000D01*
X17546000Y-8235000D02*
X17506000Y-8275000D01*
X17506000Y-8616000D02*
X17546000Y-8656000D01*
X17546000Y-8616000D02*
X17506000Y-8656000D01*
X17760000Y-6584000D02*
X17800000Y-6624000D01*
X17800000Y-6584000D02*
X17760000Y-6624000D01*
X17760000Y-7092000D02*
X17800000Y-7132000D01*
X17800000Y-7092000D02*
X17760000Y-7132000D01*
X17760000Y-7600000D02*
X17800000Y-7640000D01*
X17800000Y-7600000D02*
X17760000Y-7640000D01*
X17760000Y-8108000D02*
X17800000Y-8148000D01*
X17800000Y-8108000D02*
X17760000Y-8148000D01*
X17760000Y-8616000D02*
X17800000Y-8656000D01*
X17800000Y-8616000D02*
X17760000Y-8656000D01*
X17760000Y-9124000D02*
X17800000Y-9164000D01*
X17800000Y-9124000D02*
X17760000Y-9164000D01*
X17760000Y-9632000D02*
X17800000Y-9672000D01*
X17800000Y-9632000D02*
X17760000Y-9672000D01*
X17760000Y-10140000D02*
X17800000Y-10180000D01*
X17800000Y-10140000D02*
X17760000Y-10180000D01*
X9627452Y-10761000D02*
G75*
G03*
X9627452Y-10761000I-20000J0D01*
G01*
X9634000Y-6223000D02*
G75*
G03*
X9634000Y-6223000I-20000J0D01*
G01*
X9675779Y-10644327D02*
G75*
G03*
X9675779Y-10644327I-20000J0D01*
G01*
X9675779Y-10877673D02*
G75*
G03*
X9675779Y-10877673I-20000J0D01*
G01*
X9682327Y-6106327D02*
G75*
G03*
X9682327Y-6106327I-20000J0D01*
G01*
X9682327Y-6339673D02*
G75*
G03*
X9682327Y-6339673I-20000J0D01*
G01*
X9792452Y-10596000D02*
G75*
G03*
X9792452Y-10596000I-20000J0D01*
G01*
X9792452Y-10926000D02*
G75*
G03*
X9792452Y-10926000I-20000J0D01*
G01*
X9799000Y-6058000D02*
G75*
G03*
X9799000Y-6058000I-20000J0D01*
G01*
X9799000Y-6388000D02*
G75*
G03*
X9799000Y-6388000I-20000J0D01*
G01*
X9909124Y-10644327D02*
G75*
G03*
X9909124Y-10644327I-20000J0D01*
G01*
X9909124Y-10877673D02*
G75*
G03*
X9909124Y-10877673I-20000J0D01*
G01*
X9915673Y-6106327D02*
G75*
G03*
X9915673Y-6106327I-20000J0D01*
G01*
X9915673Y-6339673D02*
G75*
G03*
X9915673Y-6339673I-20000J0D01*
G01*
X9957452Y-10761000D02*
G75*
G03*
X9957452Y-10761000I-20000J0D01*
G01*
X9964000Y-6223000D02*
G75*
G03*
X9964000Y-6223000I-20000J0D01*
G01*
X17501452Y-6223000D02*
G75*
G03*
X17501452Y-6223000I-20000J0D01*
G01*
X17501452Y-10736000D02*
G75*
G03*
X17501452Y-10736000I-20000J0D01*
G01*
X17549779Y-6106327D02*
G75*
G03*
X17549779Y-6106327I-20000J0D01*
G01*
X17549779Y-6339673D02*
G75*
G03*
X17549779Y-6339673I-20000J0D01*
G01*
X17549779Y-10619327D02*
G75*
G03*
X17549779Y-10619327I-20000J0D01*
G01*
X17549779Y-10852673D02*
G75*
G03*
X17549779Y-10852673I-20000J0D01*
G01*
X17666452Y-6058000D02*
G75*
G03*
X17666452Y-6058000I-20000J0D01*
G01*
X17666452Y-6388000D02*
G75*
G03*
X17666452Y-6388000I-20000J0D01*
G01*
X17666452Y-10571000D02*
G75*
G03*
X17666452Y-10571000I-20000J0D01*
G01*
X17666452Y-10901000D02*
G75*
G03*
X17666452Y-10901000I-20000J0D01*
G01*
X17783124Y-6106327D02*
G75*
G03*
X17783124Y-6106327I-20000J0D01*
G01*
X17783124Y-6339673D02*
G75*
G03*
X17783124Y-6339673I-20000J0D01*
G01*
X17783124Y-10619327D02*
G75*
G03*
X17783124Y-10619327I-20000J0D01*
G01*
X17783124Y-10852673D02*
G75*
G03*
X17783124Y-10852673I-20000J0D01*
G01*
X17831452Y-6223000D02*
G75*
G03*
X17831452Y-6223000I-20000J0D01*
G01*
X17831452Y-10736000D02*
G75*
G03*
X17831452Y-10736000I-20000J0D01*
G01*
D10*
X10118419Y-7521500D02*
X10118419Y-7621500D01*
X10068419Y-7571500D02*
X10168419Y-7571500D01*
X10118419Y-7798500D02*
X10118419Y-7898500D01*
X10068419Y-7848500D02*
X10168419Y-7848500D01*
X10118419Y-8075500D02*
X10118419Y-8175500D01*
X10068419Y-8125500D02*
X10168419Y-8125500D01*
X10118419Y-8352500D02*
X10118419Y-8452500D01*
X10068419Y-8402500D02*
X10168419Y-8402500D01*
X10118419Y-8629500D02*
X10118419Y-8729500D01*
X10068419Y-8679500D02*
X10168419Y-8679500D01*
X10402419Y-7660000D02*
X10402419Y-7760000D01*
X10352419Y-7710000D02*
X10452419Y-7710000D01*
X10402419Y-7937000D02*
X10402419Y-8037000D01*
X10352419Y-7987000D02*
X10452419Y-7987000D01*
X10402419Y-8214000D02*
X10402419Y-8314000D01*
X10352419Y-8264000D02*
X10452419Y-8264000D01*
X10402419Y-8491000D02*
X10402419Y-8591000D01*
X10352419Y-8541000D02*
X10452419Y-8541000D01*
X14484000Y-6052000D02*
X14484000Y-6152000D01*
X14434000Y-6102000D02*
X14534000Y-6102000D01*
X14738000Y-6052000D02*
X14738000Y-6152000D01*
X14688000Y-6102000D02*
X14788000Y-6102000D01*
X14992000Y-6052000D02*
X14992000Y-6152000D01*
X14942000Y-6102000D02*
X15042000Y-6102000D01*
X15246000Y-6052000D02*
X15246000Y-6152000D01*
X15196000Y-6102000D02*
X15296000Y-6102000D01*
X15500000Y-6052000D02*
X15500000Y-6152000D01*
X15450000Y-6102000D02*
X15550000Y-6102000D01*
D13*
X16037927Y-6044427D02*
X16037927Y-5959573D01*
X15953073Y-5959573D01*
X15953073Y-6044427D01*
X16037927Y-6044427D01*
X16812927Y-6044427D02*
X16812927Y-5959573D01*
X16728073Y-5959573D01*
X16728073Y-6044427D01*
X16812927Y-6044427D01*
D14*
X16010500Y-6452000D02*
X16080500Y-6382000D01*
X16010500Y-6312000D01*
X15940500Y-6382000D01*
X16010500Y-6452000D01*
X16755500Y-6452000D02*
X16825500Y-6382000D01*
X16755500Y-6312000D01*
X16685500Y-6382000D01*
X16755500Y-6452000D01*
D15*
X9662452Y-10651000D02*
X9882452Y-10871000D01*
X9882452Y-10651000D02*
X9662452Y-10871000D01*
X9882452Y-10761000D02*
G75*
G03*
X9882452Y-10761000I-110000J0D01*
G01*
X9669000Y-6113000D02*
X9889000Y-6333000D01*
X9889000Y-6113000D02*
X9669000Y-6333000D01*
X9889000Y-6223000D02*
G75*
G03*
X9889000Y-6223000I-110000J0D01*
G01*
X17536452Y-6113000D02*
X17756452Y-6333000D01*
X17756452Y-6113000D02*
X17536452Y-6333000D01*
X17756452Y-6223000D02*
G75*
G03*
X17756452Y-6223000I-110000J0D01*
G01*
X17536452Y-10626000D02*
X17756452Y-10846000D01*
X17756452Y-10626000D02*
X17536452Y-10846000D01*
X17756452Y-10736000D02*
G75*
G03*
X17756452Y-10736000I-110000J0D01*
G01*
D16*
X10100419Y-6715500D02*
X10420419Y-7035500D01*
X10420419Y-6715500D02*
X10100419Y-7035500D01*
X10260419Y-6715500D02*
X10260419Y-7035500D01*
X10100419Y-6875500D02*
X10420419Y-6875500D01*
X10100419Y-9215500D02*
X10420419Y-9535500D01*
X10420419Y-9215500D02*
X10100419Y-9535500D01*
X10260419Y-9215500D02*
X10260419Y-9535500D01*
X10100419Y-9375500D02*
X10420419Y-9375500D01*
D11*
X9650619Y-11491476D02*
X9650619Y-11291476D01*
X9698238Y-11291476D01*
X9726810Y-11301000D01*
X9745857Y-11320048D01*
X9755381Y-11339095D01*
X9764905Y-11377190D01*
X9764905Y-11405762D01*
X9755381Y-11443857D01*
X9745857Y-11462905D01*
X9726810Y-11481952D01*
X9698238Y-11491476D01*
X9650619Y-11491476D01*
X9850619Y-11491476D02*
X9850619Y-11358143D01*
X9850619Y-11396238D02*
X9860143Y-11377190D01*
X9869667Y-11367667D01*
X9888714Y-11358143D01*
X9907762Y-11358143D01*
X9974429Y-11491476D02*
X9974429Y-11358143D01*
X9974429Y-11291476D02*
X9964905Y-11301000D01*
X9974429Y-11310524D01*
X9983952Y-11301000D01*
X9974429Y-11291476D01*
X9974429Y-11310524D01*
X10098238Y-11491476D02*
X10079190Y-11481952D01*
X10069667Y-11462905D01*
X10069667Y-11291476D01*
X10203000Y-11491476D02*
X10183952Y-11481952D01*
X10174429Y-11462905D01*
X10174429Y-11291476D01*
X10431571Y-11491476D02*
X10431571Y-11291476D01*
X10498238Y-11434333D01*
X10564905Y-11291476D01*
X10564905Y-11491476D01*
X10745857Y-11491476D02*
X10745857Y-11386714D01*
X10736333Y-11367667D01*
X10717286Y-11358143D01*
X10679190Y-11358143D01*
X10660143Y-11367667D01*
X10745857Y-11481952D02*
X10726810Y-11491476D01*
X10679190Y-11491476D01*
X10660143Y-11481952D01*
X10650619Y-11462905D01*
X10650619Y-11443857D01*
X10660143Y-11424809D01*
X10679190Y-11415286D01*
X10726810Y-11415286D01*
X10745857Y-11405762D01*
X10841095Y-11358143D02*
X10841095Y-11558143D01*
X10841095Y-11367667D02*
X10860143Y-11358143D01*
X10898238Y-11358143D01*
X10917286Y-11367667D01*
X10926810Y-11377190D01*
X10936333Y-11396238D01*
X10936333Y-11453381D01*
X10926810Y-11472428D01*
X10917286Y-11481952D01*
X10898238Y-11491476D01*
X10860143Y-11491476D01*
X10841095Y-11481952D01*
X11022048Y-11472428D02*
X11031571Y-11481952D01*
X11022048Y-11491476D01*
X11012524Y-11481952D01*
X11022048Y-11472428D01*
X11022048Y-11491476D01*
X11022048Y-11367667D02*
X11031571Y-11377190D01*
X11022048Y-11386714D01*
X11012524Y-11377190D01*
X11022048Y-11367667D01*
X11022048Y-11386714D01*
D12*
X9353000Y-11801000D02*
X9393000Y-11841000D01*
X9393000Y-11801000D02*
X9353000Y-11841000D01*
D11*
X9688714Y-11711476D02*
X9707762Y-11711476D01*
X9726810Y-11721000D01*
X9736333Y-11730524D01*
X9745857Y-11749571D01*
X9755381Y-11787667D01*
X9755381Y-11835286D01*
X9745857Y-11873381D01*
X9736333Y-11892428D01*
X9726810Y-11901952D01*
X9707762Y-11911476D01*
X9688714Y-11911476D01*
X9669667Y-11901952D01*
X9660143Y-11892428D01*
X9650619Y-11873381D01*
X9641095Y-11835286D01*
X9641095Y-11787667D01*
X9650619Y-11749571D01*
X9660143Y-11730524D01*
X9669667Y-11721000D01*
X9688714Y-11711476D01*
X9841095Y-11892428D02*
X9850619Y-11901952D01*
X9841095Y-11911476D01*
X9831571Y-11901952D01*
X9841095Y-11892428D01*
X9841095Y-11911476D01*
X10022048Y-11778143D02*
X10022048Y-11911476D01*
X9974429Y-11701952D02*
X9926810Y-11844809D01*
X10050619Y-11844809D01*
X10164905Y-11711476D02*
X10183952Y-11711476D01*
X10203000Y-11721000D01*
X10212524Y-11730524D01*
X10222048Y-11749571D01*
X10231571Y-11787667D01*
X10231571Y-11835286D01*
X10222048Y-11873381D01*
X10212524Y-11892428D01*
X10203000Y-11901952D01*
X10183952Y-11911476D01*
X10164905Y-11911476D01*
X10145857Y-11901952D01*
X10136333Y-11892428D01*
X10126810Y-11873381D01*
X10117286Y-11835286D01*
X10117286Y-11787667D01*
X10126810Y-11749571D01*
X10136333Y-11730524D01*
X10145857Y-11721000D01*
X10164905Y-11711476D01*
X10355381Y-11711476D02*
X10374429Y-11711476D01*
X10393476Y-11721000D01*
X10403000Y-11730524D01*
X10412524Y-11749571D01*
X10422048Y-11787667D01*
X10422048Y-11835286D01*
X10412524Y-11873381D01*
X10403000Y-11892428D01*
X10393476Y-11901952D01*
X10374429Y-11911476D01*
X10355381Y-11911476D01*
X10336333Y-11901952D01*
X10326810Y-11892428D01*
X10317286Y-11873381D01*
X10307762Y-11835286D01*
X10307762Y-11787667D01*
X10317286Y-11749571D01*
X10326810Y-11730524D01*
X10336333Y-11721000D01*
X10355381Y-11711476D01*
X10507762Y-11911476D02*
X10507762Y-11778143D01*
X10507762Y-11797190D02*
X10517286Y-11787667D01*
X10536333Y-11778143D01*
X10564905Y-11778143D01*
X10583952Y-11787667D01*
X10593476Y-11806714D01*
X10593476Y-11911476D01*
X10593476Y-11806714D02*
X10603000Y-11787667D01*
X10622048Y-11778143D01*
X10650619Y-11778143D01*
X10669667Y-11787667D01*
X10679190Y-11806714D01*
X10679190Y-11911476D01*
X10774429Y-11911476D02*
X10774429Y-11778143D01*
X10774429Y-11797190D02*
X10783952Y-11787667D01*
X10803000Y-11778143D01*
X10831571Y-11778143D01*
X10850619Y-11787667D01*
X10860143Y-11806714D01*
X10860143Y-11911476D01*
X10860143Y-11806714D02*
X10869667Y-11787667D01*
X10888714Y-11778143D01*
X10917286Y-11778143D01*
X10936333Y-11787667D01*
X10945857Y-11806714D01*
X10945857Y-11911476D01*
X11336333Y-11701952D02*
X11164905Y-11959095D01*
X11593476Y-11711476D02*
X11612524Y-11711476D01*
X11631571Y-11721000D01*
X11641095Y-11730524D01*
X11650619Y-11749571D01*
X11660143Y-11787667D01*
X11660143Y-11835286D01*
X11650619Y-11873381D01*
X11641095Y-11892428D01*
X11631571Y-11901952D01*
X11612524Y-11911476D01*
X11593476Y-11911476D01*
X11574428Y-11901952D01*
X11564905Y-11892428D01*
X11555381Y-11873381D01*
X11545857Y-11835286D01*
X11545857Y-11787667D01*
X11555381Y-11749571D01*
X11564905Y-11730524D01*
X11574428Y-11721000D01*
X11593476Y-11711476D01*
X11745857Y-11892428D02*
X11755381Y-11901952D01*
X11745857Y-11911476D01*
X11736333Y-11901952D01*
X11745857Y-11892428D01*
X11745857Y-11911476D01*
X11879190Y-11711476D02*
X11898238Y-11711476D01*
X11917286Y-11721000D01*
X11926809Y-11730524D01*
X11936333Y-11749571D01*
X11945857Y-11787667D01*
X11945857Y-11835286D01*
X11936333Y-11873381D01*
X11926809Y-11892428D01*
X11917286Y-11901952D01*
X11898238Y-11911476D01*
X11879190Y-11911476D01*
X11860143Y-11901952D01*
X11850619Y-11892428D01*
X11841095Y-11873381D01*
X11831571Y-11835286D01*
X11831571Y-11787667D01*
X11841095Y-11749571D01*
X11850619Y-11730524D01*
X11860143Y-11721000D01*
X11879190Y-11711476D01*
X12136333Y-11911476D02*
X12022048Y-11911476D01*
X12079190Y-11911476D02*
X12079190Y-11711476D01*
X12060143Y-11740048D01*
X12041095Y-11759095D01*
X12022048Y-11768619D01*
X12317286Y-11711476D02*
X12222048Y-11711476D01*
X12212524Y-11806714D01*
X12222048Y-11797190D01*
X12241095Y-11787667D01*
X12288714Y-11787667D01*
X12307762Y-11797190D01*
X12317286Y-11806714D01*
X12326809Y-11825762D01*
X12326809Y-11873381D01*
X12317286Y-11892428D01*
X12307762Y-11901952D01*
X12288714Y-11911476D01*
X12241095Y-11911476D01*
X12222048Y-11901952D01*
X12212524Y-11892428D01*
X12393476Y-11711476D02*
X12526809Y-11711476D01*
X12441095Y-11911476D01*
X12593476Y-11711476D02*
X12593476Y-11749571D01*
X12669667Y-11711476D02*
X12669667Y-11749571D01*
X12964905Y-11987667D02*
X12955381Y-11978143D01*
X12936333Y-11949571D01*
X12926809Y-11930524D01*
X12917286Y-11901952D01*
X12907762Y-11854333D01*
X12907762Y-11816238D01*
X12917286Y-11768619D01*
X12926809Y-11740048D01*
X12936333Y-11721000D01*
X12955381Y-11692428D01*
X12964905Y-11682905D01*
X13145857Y-11911476D02*
X13031571Y-11911476D01*
X13088714Y-11911476D02*
X13088714Y-11711476D01*
X13069667Y-11740048D01*
X13050619Y-11759095D01*
X13031571Y-11768619D01*
X13260143Y-11797190D02*
X13241095Y-11787667D01*
X13231571Y-11778143D01*
X13222048Y-11759095D01*
X13222048Y-11749571D01*
X13231571Y-11730524D01*
X13241095Y-11721000D01*
X13260143Y-11711476D01*
X13298238Y-11711476D01*
X13317286Y-11721000D01*
X13326809Y-11730524D01*
X13336333Y-11749571D01*
X13336333Y-11759095D01*
X13326809Y-11778143D01*
X13317286Y-11787667D01*
X13298238Y-11797190D01*
X13260143Y-11797190D01*
X13241095Y-11806714D01*
X13231571Y-11816238D01*
X13222048Y-11835286D01*
X13222048Y-11873381D01*
X13231571Y-11892428D01*
X13241095Y-11901952D01*
X13260143Y-11911476D01*
X13298238Y-11911476D01*
X13317286Y-11901952D01*
X13326809Y-11892428D01*
X13336333Y-11873381D01*
X13336333Y-11835286D01*
X13326809Y-11816238D01*
X13317286Y-11806714D01*
X13298238Y-11797190D01*
X13460143Y-11711476D02*
X13479190Y-11711476D01*
X13498238Y-11721000D01*
X13507762Y-11730524D01*
X13517286Y-11749571D01*
X13526809Y-11787667D01*
X13526809Y-11835286D01*
X13517286Y-11873381D01*
X13507762Y-11892428D01*
X13498238Y-11901952D01*
X13479190Y-11911476D01*
X13460143Y-11911476D01*
X13441095Y-11901952D01*
X13431571Y-11892428D01*
X13422048Y-11873381D01*
X13412524Y-11835286D01*
X13412524Y-11787667D01*
X13422048Y-11749571D01*
X13431571Y-11730524D01*
X13441095Y-11721000D01*
X13460143Y-11711476D01*
X13764905Y-11911476D02*
X13764905Y-11711476D01*
X13850619Y-11911476D02*
X13850619Y-11806714D01*
X13841095Y-11787667D01*
X13822048Y-11778143D01*
X13793476Y-11778143D01*
X13774428Y-11787667D01*
X13764905Y-11797190D01*
X13974428Y-11911476D02*
X13955381Y-11901952D01*
X13945857Y-11892428D01*
X13936333Y-11873381D01*
X13936333Y-11816238D01*
X13945857Y-11797190D01*
X13955381Y-11787667D01*
X13974428Y-11778143D01*
X14003000Y-11778143D01*
X14022048Y-11787667D01*
X14031571Y-11797190D01*
X14041095Y-11816238D01*
X14041095Y-11873381D01*
X14031571Y-11892428D01*
X14022048Y-11901952D01*
X14003000Y-11911476D01*
X13974428Y-11911476D01*
X14155381Y-11911476D02*
X14136333Y-11901952D01*
X14126809Y-11882905D01*
X14126809Y-11711476D01*
X14307762Y-11901952D02*
X14288714Y-11911476D01*
X14250619Y-11911476D01*
X14231571Y-11901952D01*
X14222048Y-11882905D01*
X14222048Y-11806714D01*
X14231571Y-11787667D01*
X14250619Y-11778143D01*
X14288714Y-11778143D01*
X14307762Y-11787667D01*
X14317286Y-11806714D01*
X14317286Y-11825762D01*
X14222048Y-11844809D01*
X14393476Y-11901952D02*
X14412524Y-11911476D01*
X14450619Y-11911476D01*
X14469667Y-11901952D01*
X14479190Y-11882905D01*
X14479190Y-11873381D01*
X14469667Y-11854333D01*
X14450619Y-11844809D01*
X14422048Y-11844809D01*
X14403000Y-11835286D01*
X14393476Y-11816238D01*
X14393476Y-11806714D01*
X14403000Y-11787667D01*
X14422048Y-11778143D01*
X14450619Y-11778143D01*
X14469667Y-11787667D01*
X14545857Y-11987667D02*
X14555381Y-11978143D01*
X14574428Y-11949571D01*
X14583952Y-11930524D01*
X14593476Y-11901952D01*
X14603000Y-11854333D01*
X14603000Y-11816238D01*
X14593476Y-11768619D01*
X14583952Y-11740048D01*
X14574428Y-11721000D01*
X14555381Y-11692428D01*
X14545857Y-11682905D01*
D12*
X9393000Y-12085000D02*
G75*
G03*
X9393000Y-12085000I-20000J0D01*
G01*
D11*
X9688714Y-11975476D02*
X9707762Y-11975476D01*
X9726810Y-11985000D01*
X9736333Y-11994524D01*
X9745857Y-12013571D01*
X9755381Y-12051667D01*
X9755381Y-12099286D01*
X9745857Y-12137381D01*
X9736333Y-12156428D01*
X9726810Y-12165952D01*
X9707762Y-12175476D01*
X9688714Y-12175476D01*
X9669667Y-12165952D01*
X9660143Y-12156428D01*
X9650619Y-12137381D01*
X9641095Y-12099286D01*
X9641095Y-12051667D01*
X9650619Y-12013571D01*
X9660143Y-11994524D01*
X9669667Y-11985000D01*
X9688714Y-11975476D01*
X9841095Y-12156428D02*
X9850619Y-12165952D01*
X9841095Y-12175476D01*
X9831571Y-12165952D01*
X9841095Y-12156428D01*
X9841095Y-12175476D01*
X10022048Y-12042143D02*
X10022048Y-12175476D01*
X9974429Y-11965952D02*
X9926810Y-12108809D01*
X10050619Y-12108809D01*
X10164905Y-11975476D02*
X10183952Y-11975476D01*
X10203000Y-11985000D01*
X10212524Y-11994524D01*
X10222048Y-12013571D01*
X10231571Y-12051667D01*
X10231571Y-12099286D01*
X10222048Y-12137381D01*
X10212524Y-12156428D01*
X10203000Y-12165952D01*
X10183952Y-12175476D01*
X10164905Y-12175476D01*
X10145857Y-12165952D01*
X10136333Y-12156428D01*
X10126810Y-12137381D01*
X10117286Y-12099286D01*
X10117286Y-12051667D01*
X10126810Y-12013571D01*
X10136333Y-11994524D01*
X10145857Y-11985000D01*
X10164905Y-11975476D01*
X10355381Y-11975476D02*
X10374429Y-11975476D01*
X10393476Y-11985000D01*
X10403000Y-11994524D01*
X10412524Y-12013571D01*
X10422048Y-12051667D01*
X10422048Y-12099286D01*
X10412524Y-12137381D01*
X10403000Y-12156428D01*
X10393476Y-12165952D01*
X10374429Y-12175476D01*
X10355381Y-12175476D01*
X10336333Y-12165952D01*
X10326810Y-12156428D01*
X10317286Y-12137381D01*
X10307762Y-12099286D01*
X10307762Y-12051667D01*
X10317286Y-12013571D01*
X10326810Y-11994524D01*
X10336333Y-11985000D01*
X10355381Y-11975476D01*
X10507762Y-12175476D02*
X10507762Y-12042143D01*
X10507762Y-12061190D02*
X10517286Y-12051667D01*
X10536333Y-12042143D01*
X10564905Y-12042143D01*
X10583952Y-12051667D01*
X10593476Y-12070714D01*
X10593476Y-12175476D01*
X10593476Y-12070714D02*
X10603000Y-12051667D01*
X10622048Y-12042143D01*
X10650619Y-12042143D01*
X10669667Y-12051667D01*
X10679190Y-12070714D01*
X10679190Y-12175476D01*
X10774429Y-12175476D02*
X10774429Y-12042143D01*
X10774429Y-12061190D02*
X10783952Y-12051667D01*
X10803000Y-12042143D01*
X10831571Y-12042143D01*
X10850619Y-12051667D01*
X10860143Y-12070714D01*
X10860143Y-12175476D01*
X10860143Y-12070714D02*
X10869667Y-12051667D01*
X10888714Y-12042143D01*
X10917286Y-12042143D01*
X10936333Y-12051667D01*
X10945857Y-12070714D01*
X10945857Y-12175476D01*
X11336333Y-11965952D02*
X11164905Y-12223095D01*
X11593476Y-11975476D02*
X11612524Y-11975476D01*
X11631571Y-11985000D01*
X11641095Y-11994524D01*
X11650619Y-12013571D01*
X11660143Y-12051667D01*
X11660143Y-12099286D01*
X11650619Y-12137381D01*
X11641095Y-12156428D01*
X11631571Y-12165952D01*
X11612524Y-12175476D01*
X11593476Y-12175476D01*
X11574428Y-12165952D01*
X11564905Y-12156428D01*
X11555381Y-12137381D01*
X11545857Y-12099286D01*
X11545857Y-12051667D01*
X11555381Y-12013571D01*
X11564905Y-11994524D01*
X11574428Y-11985000D01*
X11593476Y-11975476D01*
X11745857Y-12156428D02*
X11755381Y-12165952D01*
X11745857Y-12175476D01*
X11736333Y-12165952D01*
X11745857Y-12156428D01*
X11745857Y-12175476D01*
X11879190Y-11975476D02*
X11898238Y-11975476D01*
X11917286Y-11985000D01*
X11926809Y-11994524D01*
X11936333Y-12013571D01*
X11945857Y-12051667D01*
X11945857Y-12099286D01*
X11936333Y-12137381D01*
X11926809Y-12156428D01*
X11917286Y-12165952D01*
X11898238Y-12175476D01*
X11879190Y-12175476D01*
X11860143Y-12165952D01*
X11850619Y-12156428D01*
X11841095Y-12137381D01*
X11831571Y-12099286D01*
X11831571Y-12051667D01*
X11841095Y-12013571D01*
X11850619Y-11994524D01*
X11860143Y-11985000D01*
X11879190Y-11975476D01*
X12136333Y-12175476D02*
X12022048Y-12175476D01*
X12079190Y-12175476D02*
X12079190Y-11975476D01*
X12060143Y-12004048D01*
X12041095Y-12023095D01*
X12022048Y-12032619D01*
X12317286Y-11975476D02*
X12222048Y-11975476D01*
X12212524Y-12070714D01*
X12222048Y-12061190D01*
X12241095Y-12051667D01*
X12288714Y-12051667D01*
X12307762Y-12061190D01*
X12317286Y-12070714D01*
X12326809Y-12089762D01*
X12326809Y-12137381D01*
X12317286Y-12156428D01*
X12307762Y-12165952D01*
X12288714Y-12175476D01*
X12241095Y-12175476D01*
X12222048Y-12165952D01*
X12212524Y-12156428D01*
X12393476Y-11975476D02*
X12526809Y-11975476D01*
X12441095Y-12175476D01*
X12593476Y-11975476D02*
X12593476Y-12013571D01*
X12669667Y-11975476D02*
X12669667Y-12013571D01*
X12964905Y-12251667D02*
X12955381Y-12242143D01*
X12936333Y-12213571D01*
X12926809Y-12194524D01*
X12917286Y-12165952D01*
X12907762Y-12118333D01*
X12907762Y-12080238D01*
X12917286Y-12032619D01*
X12926809Y-12004048D01*
X12936333Y-11985000D01*
X12955381Y-11956428D01*
X12964905Y-11946905D01*
X13022048Y-11975476D02*
X13145857Y-11975476D01*
X13079190Y-12051667D01*
X13107762Y-12051667D01*
X13126809Y-12061190D01*
X13136333Y-12070714D01*
X13145857Y-12089762D01*
X13145857Y-12137381D01*
X13136333Y-12156428D01*
X13126809Y-12165952D01*
X13107762Y-12175476D01*
X13050619Y-12175476D01*
X13031571Y-12165952D01*
X13022048Y-12156428D01*
X13222048Y-11994524D02*
X13231571Y-11985000D01*
X13250619Y-11975476D01*
X13298238Y-11975476D01*
X13317286Y-11985000D01*
X13326809Y-11994524D01*
X13336333Y-12013571D01*
X13336333Y-12032619D01*
X13326809Y-12061190D01*
X13212524Y-12175476D01*
X13336333Y-12175476D01*
X13574428Y-12175476D02*
X13574428Y-11975476D01*
X13660143Y-12175476D02*
X13660143Y-12070714D01*
X13650619Y-12051667D01*
X13631571Y-12042143D01*
X13603000Y-12042143D01*
X13583952Y-12051667D01*
X13574428Y-12061190D01*
X13783952Y-12175476D02*
X13764905Y-12165952D01*
X13755381Y-12156428D01*
X13745857Y-12137381D01*
X13745857Y-12080238D01*
X13755381Y-12061190D01*
X13764905Y-12051667D01*
X13783952Y-12042143D01*
X13812524Y-12042143D01*
X13831571Y-12051667D01*
X13841095Y-12061190D01*
X13850619Y-12080238D01*
X13850619Y-12137381D01*
X13841095Y-12156428D01*
X13831571Y-12165952D01*
X13812524Y-12175476D01*
X13783952Y-12175476D01*
X13964905Y-12175476D02*
X13945857Y-12165952D01*
X13936333Y-12146905D01*
X13936333Y-11975476D01*
X14117286Y-12165952D02*
X14098238Y-12175476D01*
X14060143Y-12175476D01*
X14041095Y-12165952D01*
X14031571Y-12146905D01*
X14031571Y-12070714D01*
X14041095Y-12051667D01*
X14060143Y-12042143D01*
X14098238Y-12042143D01*
X14117286Y-12051667D01*
X14126809Y-12070714D01*
X14126809Y-12089762D01*
X14031571Y-12108809D01*
X14203000Y-12165952D02*
X14222048Y-12175476D01*
X14260143Y-12175476D01*
X14279190Y-12165952D01*
X14288714Y-12146905D01*
X14288714Y-12137381D01*
X14279190Y-12118333D01*
X14260143Y-12108809D01*
X14231571Y-12108809D01*
X14212524Y-12099286D01*
X14203000Y-12080238D01*
X14203000Y-12070714D01*
X14212524Y-12051667D01*
X14231571Y-12042143D01*
X14260143Y-12042143D01*
X14279190Y-12051667D01*
X14355381Y-12251667D02*
X14364905Y-12242143D01*
X14383952Y-12213571D01*
X14393476Y-12194524D01*
X14403000Y-12165952D01*
X14412524Y-12118333D01*
X14412524Y-12080238D01*
X14403000Y-12032619D01*
X14393476Y-12004048D01*
X14383952Y-11985000D01*
X14364905Y-11956428D01*
X14355381Y-11946905D01*
D10*
X9343000Y-12299000D02*
X9343000Y-12399000D01*
X9293000Y-12349000D02*
X9393000Y-12349000D01*
D11*
X9755381Y-12439476D02*
X9641095Y-12439476D01*
X9698238Y-12439476D02*
X9698238Y-12239476D01*
X9679190Y-12268048D01*
X9660143Y-12287095D01*
X9641095Y-12296619D01*
X9841095Y-12420428D02*
X9850619Y-12429952D01*
X9841095Y-12439476D01*
X9831571Y-12429952D01*
X9841095Y-12420428D01*
X9841095Y-12439476D01*
X9974429Y-12239476D02*
X9993476Y-12239476D01*
X10012524Y-12249000D01*
X10022048Y-12258524D01*
X10031571Y-12277571D01*
X10041095Y-12315667D01*
X10041095Y-12363286D01*
X10031571Y-12401381D01*
X10022048Y-12420428D01*
X10012524Y-12429952D01*
X9993476Y-12439476D01*
X9974429Y-12439476D01*
X9955381Y-12429952D01*
X9945857Y-12420428D01*
X9936333Y-12401381D01*
X9926810Y-12363286D01*
X9926810Y-12315667D01*
X9936333Y-12277571D01*
X9945857Y-12258524D01*
X9955381Y-12249000D01*
X9974429Y-12239476D01*
X10164905Y-12239476D02*
X10183952Y-12239476D01*
X10203000Y-12249000D01*
X10212524Y-12258524D01*
X10222048Y-12277571D01*
X10231571Y-12315667D01*
X10231571Y-12363286D01*
X10222048Y-12401381D01*
X10212524Y-12420428D01*
X10203000Y-12429952D01*
X10183952Y-12439476D01*
X10164905Y-12439476D01*
X10145857Y-12429952D01*
X10136333Y-12420428D01*
X10126810Y-12401381D01*
X10117286Y-12363286D01*
X10117286Y-12315667D01*
X10126810Y-12277571D01*
X10136333Y-12258524D01*
X10145857Y-12249000D01*
X10164905Y-12239476D01*
X10355381Y-12239476D02*
X10374429Y-12239476D01*
X10393476Y-12249000D01*
X10403000Y-12258524D01*
X10412524Y-12277571D01*
X10422048Y-12315667D01*
X10422048Y-12363286D01*
X10412524Y-12401381D01*
X10403000Y-12420428D01*
X10393476Y-12429952D01*
X10374429Y-12439476D01*
X10355381Y-12439476D01*
X10336333Y-12429952D01*
X10326810Y-12420428D01*
X10317286Y-12401381D01*
X10307762Y-12363286D01*
X10307762Y-12315667D01*
X10317286Y-12277571D01*
X10326810Y-12258524D01*
X10336333Y-12249000D01*
X10355381Y-12239476D01*
X10507762Y-12439476D02*
X10507762Y-12306143D01*
X10507762Y-12325190D02*
X10517286Y-12315667D01*
X10536333Y-12306143D01*
X10564905Y-12306143D01*
X10583952Y-12315667D01*
X10593476Y-12334714D01*
X10593476Y-12439476D01*
X10593476Y-12334714D02*
X10603000Y-12315667D01*
X10622048Y-12306143D01*
X10650619Y-12306143D01*
X10669667Y-12315667D01*
X10679190Y-12334714D01*
X10679190Y-12439476D01*
X10774429Y-12439476D02*
X10774429Y-12306143D01*
X10774429Y-12325190D02*
X10783952Y-12315667D01*
X10803000Y-12306143D01*
X10831571Y-12306143D01*
X10850619Y-12315667D01*
X10860143Y-12334714D01*
X10860143Y-12439476D01*
X10860143Y-12334714D02*
X10869667Y-12315667D01*
X10888714Y-12306143D01*
X10917286Y-12306143D01*
X10936333Y-12315667D01*
X10945857Y-12334714D01*
X10945857Y-12439476D01*
X11336333Y-12229952D02*
X11164905Y-12487095D01*
X11593476Y-12239476D02*
X11612524Y-12239476D01*
X11631571Y-12249000D01*
X11641095Y-12258524D01*
X11650619Y-12277571D01*
X11660143Y-12315667D01*
X11660143Y-12363286D01*
X11650619Y-12401381D01*
X11641095Y-12420428D01*
X11631571Y-12429952D01*
X11612524Y-12439476D01*
X11593476Y-12439476D01*
X11574428Y-12429952D01*
X11564905Y-12420428D01*
X11555381Y-12401381D01*
X11545857Y-12363286D01*
X11545857Y-12315667D01*
X11555381Y-12277571D01*
X11564905Y-12258524D01*
X11574428Y-12249000D01*
X11593476Y-12239476D01*
X11745857Y-12420428D02*
X11755381Y-12429952D01*
X11745857Y-12439476D01*
X11736333Y-12429952D01*
X11745857Y-12420428D01*
X11745857Y-12439476D01*
X11879190Y-12239476D02*
X11898238Y-12239476D01*
X11917286Y-12249000D01*
X11926809Y-12258524D01*
X11936333Y-12277571D01*
X11945857Y-12315667D01*
X11945857Y-12363286D01*
X11936333Y-12401381D01*
X11926809Y-12420428D01*
X11917286Y-12429952D01*
X11898238Y-12439476D01*
X11879190Y-12439476D01*
X11860143Y-12429952D01*
X11850619Y-12420428D01*
X11841095Y-12401381D01*
X11831571Y-12363286D01*
X11831571Y-12315667D01*
X11841095Y-12277571D01*
X11850619Y-12258524D01*
X11860143Y-12249000D01*
X11879190Y-12239476D01*
X12012524Y-12239476D02*
X12136333Y-12239476D01*
X12069667Y-12315667D01*
X12098238Y-12315667D01*
X12117286Y-12325190D01*
X12126809Y-12334714D01*
X12136333Y-12353762D01*
X12136333Y-12401381D01*
X12126809Y-12420428D01*
X12117286Y-12429952D01*
X12098238Y-12439476D01*
X12041095Y-12439476D01*
X12022048Y-12429952D01*
X12012524Y-12420428D01*
X12231571Y-12439476D02*
X12269667Y-12439476D01*
X12288714Y-12429952D01*
X12298238Y-12420428D01*
X12317286Y-12391857D01*
X12326809Y-12353762D01*
X12326809Y-12277571D01*
X12317286Y-12258524D01*
X12307762Y-12249000D01*
X12288714Y-12239476D01*
X12250619Y-12239476D01*
X12231571Y-12249000D01*
X12222048Y-12258524D01*
X12212524Y-12277571D01*
X12212524Y-12325190D01*
X12222048Y-12344238D01*
X12231571Y-12353762D01*
X12250619Y-12363286D01*
X12288714Y-12363286D01*
X12307762Y-12353762D01*
X12317286Y-12344238D01*
X12326809Y-12325190D01*
X12498238Y-12306143D02*
X12498238Y-12439476D01*
X12450619Y-12229952D02*
X12403000Y-12372809D01*
X12526809Y-12372809D01*
X12593476Y-12239476D02*
X12593476Y-12277571D01*
X12669667Y-12239476D02*
X12669667Y-12277571D01*
X12964905Y-12515667D02*
X12955381Y-12506143D01*
X12936333Y-12477571D01*
X12926809Y-12458524D01*
X12917286Y-12429952D01*
X12907762Y-12382333D01*
X12907762Y-12344238D01*
X12917286Y-12296619D01*
X12926809Y-12268048D01*
X12936333Y-12249000D01*
X12955381Y-12220428D01*
X12964905Y-12210905D01*
X13145857Y-12439476D02*
X13031571Y-12439476D01*
X13088714Y-12439476D02*
X13088714Y-12239476D01*
X13069667Y-12268048D01*
X13050619Y-12287095D01*
X13031571Y-12296619D01*
X13317286Y-12306143D02*
X13317286Y-12439476D01*
X13269667Y-12229952D02*
X13222048Y-12372809D01*
X13345857Y-12372809D01*
X13574428Y-12439476D02*
X13574428Y-12239476D01*
X13660143Y-12439476D02*
X13660143Y-12334714D01*
X13650619Y-12315667D01*
X13631571Y-12306143D01*
X13603000Y-12306143D01*
X13583952Y-12315667D01*
X13574428Y-12325190D01*
X13783952Y-12439476D02*
X13764905Y-12429952D01*
X13755381Y-12420428D01*
X13745857Y-12401381D01*
X13745857Y-12344238D01*
X13755381Y-12325190D01*
X13764905Y-12315667D01*
X13783952Y-12306143D01*
X13812524Y-12306143D01*
X13831571Y-12315667D01*
X13841095Y-12325190D01*
X13850619Y-12344238D01*
X13850619Y-12401381D01*
X13841095Y-12420428D01*
X13831571Y-12429952D01*
X13812524Y-12439476D01*
X13783952Y-12439476D01*
X13964905Y-12439476D02*
X13945857Y-12429952D01*
X13936333Y-12410905D01*
X13936333Y-12239476D01*
X14117286Y-12429952D02*
X14098238Y-12439476D01*
X14060143Y-12439476D01*
X14041095Y-12429952D01*
X14031571Y-12410905D01*
X14031571Y-12334714D01*
X14041095Y-12315667D01*
X14060143Y-12306143D01*
X14098238Y-12306143D01*
X14117286Y-12315667D01*
X14126809Y-12334714D01*
X14126809Y-12353762D01*
X14031571Y-12372809D01*
X14203000Y-12429952D02*
X14222048Y-12439476D01*
X14260143Y-12439476D01*
X14279190Y-12429952D01*
X14288714Y-12410905D01*
X14288714Y-12401381D01*
X14279190Y-12382333D01*
X14260143Y-12372809D01*
X14231571Y-12372809D01*
X14212524Y-12363286D01*
X14203000Y-12344238D01*
X14203000Y-12334714D01*
X14212524Y-12315667D01*
X14231571Y-12306143D01*
X14260143Y-12306143D01*
X14279190Y-12315667D01*
X14355381Y-12515667D02*
X14364905Y-12506143D01*
X14383952Y-12477571D01*
X14393476Y-12458524D01*
X14403000Y-12429952D01*
X14412524Y-12382333D01*
X14412524Y-12344238D01*
X14403000Y-12296619D01*
X14393476Y-12268048D01*
X14383952Y-12249000D01*
X14364905Y-12220428D01*
X14355381Y-12210905D01*
D13*
X9375427Y-12655427D02*
X9375427Y-12570573D01*
X9290573Y-12570573D01*
X9290573Y-12655427D01*
X9375427Y-12655427D01*
D11*
X9755381Y-12703476D02*
X9641095Y-12703476D01*
X9698238Y-12703476D02*
X9698238Y-12503476D01*
X9679190Y-12532048D01*
X9660143Y-12551095D01*
X9641095Y-12560619D01*
X9841095Y-12684428D02*
X9850619Y-12693952D01*
X9841095Y-12703476D01*
X9831571Y-12693952D01*
X9841095Y-12684428D01*
X9841095Y-12703476D01*
X9926810Y-12522524D02*
X9936333Y-12513000D01*
X9955381Y-12503476D01*
X10003000Y-12503476D01*
X10022048Y-12513000D01*
X10031571Y-12522524D01*
X10041095Y-12541571D01*
X10041095Y-12560619D01*
X10031571Y-12589190D01*
X9917286Y-12703476D01*
X10041095Y-12703476D01*
X10164905Y-12503476D02*
X10183952Y-12503476D01*
X10203000Y-12513000D01*
X10212524Y-12522524D01*
X10222048Y-12541571D01*
X10231571Y-12579667D01*
X10231571Y-12627286D01*
X10222048Y-12665381D01*
X10212524Y-12684428D01*
X10203000Y-12693952D01*
X10183952Y-12703476D01*
X10164905Y-12703476D01*
X10145857Y-12693952D01*
X10136333Y-12684428D01*
X10126810Y-12665381D01*
X10117286Y-12627286D01*
X10117286Y-12579667D01*
X10126810Y-12541571D01*
X10136333Y-12522524D01*
X10145857Y-12513000D01*
X10164905Y-12503476D01*
X10355381Y-12503476D02*
X10374429Y-12503476D01*
X10393476Y-12513000D01*
X10403000Y-12522524D01*
X10412524Y-12541571D01*
X10422048Y-12579667D01*
X10422048Y-12627286D01*
X10412524Y-12665381D01*
X10403000Y-12684428D01*
X10393476Y-12693952D01*
X10374429Y-12703476D01*
X10355381Y-12703476D01*
X10336333Y-12693952D01*
X10326810Y-12684428D01*
X10317286Y-12665381D01*
X10307762Y-12627286D01*
X10307762Y-12579667D01*
X10317286Y-12541571D01*
X10326810Y-12522524D01*
X10336333Y-12513000D01*
X10355381Y-12503476D01*
X10507762Y-12703476D02*
X10507762Y-12570143D01*
X10507762Y-12589190D02*
X10517286Y-12579667D01*
X10536333Y-12570143D01*
X10564905Y-12570143D01*
X10583952Y-12579667D01*
X10593476Y-12598714D01*
X10593476Y-12703476D01*
X10593476Y-12598714D02*
X10603000Y-12579667D01*
X10622048Y-12570143D01*
X10650619Y-12570143D01*
X10669667Y-12579667D01*
X10679190Y-12598714D01*
X10679190Y-12703476D01*
X10774429Y-12703476D02*
X10774429Y-12570143D01*
X10774429Y-12589190D02*
X10783952Y-12579667D01*
X10803000Y-12570143D01*
X10831571Y-12570143D01*
X10850619Y-12579667D01*
X10860143Y-12598714D01*
X10860143Y-12703476D01*
X10860143Y-12598714D02*
X10869667Y-12579667D01*
X10888714Y-12570143D01*
X10917286Y-12570143D01*
X10936333Y-12579667D01*
X10945857Y-12598714D01*
X10945857Y-12703476D01*
X11336333Y-12493952D02*
X11164905Y-12751095D01*
X11593476Y-12503476D02*
X11612524Y-12503476D01*
X11631571Y-12513000D01*
X11641095Y-12522524D01*
X11650619Y-12541571D01*
X11660143Y-12579667D01*
X11660143Y-12627286D01*
X11650619Y-12665381D01*
X11641095Y-12684428D01*
X11631571Y-12693952D01*
X11612524Y-12703476D01*
X11593476Y-12703476D01*
X11574428Y-12693952D01*
X11564905Y-12684428D01*
X11555381Y-12665381D01*
X11545857Y-12627286D01*
X11545857Y-12579667D01*
X11555381Y-12541571D01*
X11564905Y-12522524D01*
X11574428Y-12513000D01*
X11593476Y-12503476D01*
X11745857Y-12684428D02*
X11755381Y-12693952D01*
X11745857Y-12703476D01*
X11736333Y-12693952D01*
X11745857Y-12684428D01*
X11745857Y-12703476D01*
X11879190Y-12503476D02*
X11898238Y-12503476D01*
X11917286Y-12513000D01*
X11926809Y-12522524D01*
X11936333Y-12541571D01*
X11945857Y-12579667D01*
X11945857Y-12627286D01*
X11936333Y-12665381D01*
X11926809Y-12684428D01*
X11917286Y-12693952D01*
X11898238Y-12703476D01*
X11879190Y-12703476D01*
X11860143Y-12693952D01*
X11850619Y-12684428D01*
X11841095Y-12665381D01*
X11831571Y-12627286D01*
X11831571Y-12579667D01*
X11841095Y-12541571D01*
X11850619Y-12522524D01*
X11860143Y-12513000D01*
X11879190Y-12503476D01*
X12117286Y-12570143D02*
X12117286Y-12703476D01*
X12069667Y-12493952D02*
X12022048Y-12636809D01*
X12145857Y-12636809D01*
X12203000Y-12503476D02*
X12336333Y-12503476D01*
X12250619Y-12703476D01*
X12403000Y-12522524D02*
X12412524Y-12513000D01*
X12431571Y-12503476D01*
X12479190Y-12503476D01*
X12498238Y-12513000D01*
X12507762Y-12522524D01*
X12517286Y-12541571D01*
X12517286Y-12560619D01*
X12507762Y-12589190D01*
X12393476Y-12703476D01*
X12517286Y-12703476D01*
X12593476Y-12503476D02*
X12593476Y-12541571D01*
X12669667Y-12503476D02*
X12669667Y-12541571D01*
X12964905Y-12779667D02*
X12955381Y-12770143D01*
X12936333Y-12741571D01*
X12926809Y-12722524D01*
X12917286Y-12693952D01*
X12907762Y-12646333D01*
X12907762Y-12608238D01*
X12917286Y-12560619D01*
X12926809Y-12532048D01*
X12936333Y-12513000D01*
X12955381Y-12484428D01*
X12964905Y-12474905D01*
X13031571Y-12522524D02*
X13041095Y-12513000D01*
X13060143Y-12503476D01*
X13107762Y-12503476D01*
X13126809Y-12513000D01*
X13136333Y-12522524D01*
X13145857Y-12541571D01*
X13145857Y-12560619D01*
X13136333Y-12589190D01*
X13022048Y-12703476D01*
X13145857Y-12703476D01*
X13383952Y-12703476D02*
X13383952Y-12503476D01*
X13469667Y-12703476D02*
X13469667Y-12598714D01*
X13460143Y-12579667D01*
X13441095Y-12570143D01*
X13412524Y-12570143D01*
X13393476Y-12579667D01*
X13383952Y-12589190D01*
X13593476Y-12703476D02*
X13574428Y-12693952D01*
X13564905Y-12684428D01*
X13555381Y-12665381D01*
X13555381Y-12608238D01*
X13564905Y-12589190D01*
X13574428Y-12579667D01*
X13593476Y-12570143D01*
X13622048Y-12570143D01*
X13641095Y-12579667D01*
X13650619Y-12589190D01*
X13660143Y-12608238D01*
X13660143Y-12665381D01*
X13650619Y-12684428D01*
X13641095Y-12693952D01*
X13622048Y-12703476D01*
X13593476Y-12703476D01*
X13774428Y-12703476D02*
X13755381Y-12693952D01*
X13745857Y-12674905D01*
X13745857Y-12503476D01*
X13926809Y-12693952D02*
X13907762Y-12703476D01*
X13869667Y-12703476D01*
X13850619Y-12693952D01*
X13841095Y-12674905D01*
X13841095Y-12598714D01*
X13850619Y-12579667D01*
X13869667Y-12570143D01*
X13907762Y-12570143D01*
X13926809Y-12579667D01*
X13936333Y-12598714D01*
X13936333Y-12617762D01*
X13841095Y-12636809D01*
X14012524Y-12693952D02*
X14031571Y-12703476D01*
X14069667Y-12703476D01*
X14088714Y-12693952D01*
X14098238Y-12674905D01*
X14098238Y-12665381D01*
X14088714Y-12646333D01*
X14069667Y-12636809D01*
X14041095Y-12636809D01*
X14022048Y-12627286D01*
X14012524Y-12608238D01*
X14012524Y-12598714D01*
X14022048Y-12579667D01*
X14041095Y-12570143D01*
X14069667Y-12570143D01*
X14088714Y-12579667D01*
X14164905Y-12779667D02*
X14174428Y-12770143D01*
X14193476Y-12741571D01*
X14203000Y-12722524D01*
X14212524Y-12693952D01*
X14222048Y-12646333D01*
X14222048Y-12608238D01*
X14212524Y-12560619D01*
X14203000Y-12532048D01*
X14193476Y-12513000D01*
X14174428Y-12484428D01*
X14164905Y-12474905D01*
D14*
X9323000Y-12947000D02*
X9393000Y-12877000D01*
X9323000Y-12807000D01*
X9253000Y-12877000D01*
X9323000Y-12947000D01*
D11*
X9755381Y-12967476D02*
X9641095Y-12967476D01*
X9698238Y-12967476D02*
X9698238Y-12767476D01*
X9679190Y-12796048D01*
X9660143Y-12815095D01*
X9641095Y-12824619D01*
X9841095Y-12948428D02*
X9850619Y-12957952D01*
X9841095Y-12967476D01*
X9831571Y-12957952D01*
X9841095Y-12948428D01*
X9841095Y-12967476D01*
X10022048Y-12834143D02*
X10022048Y-12967476D01*
X9974429Y-12757952D02*
X9926810Y-12900809D01*
X10050619Y-12900809D01*
X10164905Y-12767476D02*
X10183952Y-12767476D01*
X10203000Y-12777000D01*
X10212524Y-12786524D01*
X10222048Y-12805571D01*
X10231571Y-12843667D01*
X10231571Y-12891286D01*
X10222048Y-12929381D01*
X10212524Y-12948428D01*
X10203000Y-12957952D01*
X10183952Y-12967476D01*
X10164905Y-12967476D01*
X10145857Y-12957952D01*
X10136333Y-12948428D01*
X10126810Y-12929381D01*
X10117286Y-12891286D01*
X10117286Y-12843667D01*
X10126810Y-12805571D01*
X10136333Y-12786524D01*
X10145857Y-12777000D01*
X10164905Y-12767476D01*
X10355381Y-12767476D02*
X10374429Y-12767476D01*
X10393476Y-12777000D01*
X10403000Y-12786524D01*
X10412524Y-12805571D01*
X10422048Y-12843667D01*
X10422048Y-12891286D01*
X10412524Y-12929381D01*
X10403000Y-12948428D01*
X10393476Y-12957952D01*
X10374429Y-12967476D01*
X10355381Y-12967476D01*
X10336333Y-12957952D01*
X10326810Y-12948428D01*
X10317286Y-12929381D01*
X10307762Y-12891286D01*
X10307762Y-12843667D01*
X10317286Y-12805571D01*
X10326810Y-12786524D01*
X10336333Y-12777000D01*
X10355381Y-12767476D01*
X10507762Y-12967476D02*
X10507762Y-12834143D01*
X10507762Y-12853190D02*
X10517286Y-12843667D01*
X10536333Y-12834143D01*
X10564905Y-12834143D01*
X10583952Y-12843667D01*
X10593476Y-12862714D01*
X10593476Y-12967476D01*
X10593476Y-12862714D02*
X10603000Y-12843667D01*
X10622048Y-12834143D01*
X10650619Y-12834143D01*
X10669667Y-12843667D01*
X10679190Y-12862714D01*
X10679190Y-12967476D01*
X10774429Y-12967476D02*
X10774429Y-12834143D01*
X10774429Y-12853190D02*
X10783952Y-12843667D01*
X10803000Y-12834143D01*
X10831571Y-12834143D01*
X10850619Y-12843667D01*
X10860143Y-12862714D01*
X10860143Y-12967476D01*
X10860143Y-12862714D02*
X10869667Y-12843667D01*
X10888714Y-12834143D01*
X10917286Y-12834143D01*
X10936333Y-12843667D01*
X10945857Y-12862714D01*
X10945857Y-12967476D01*
X11336333Y-12757952D02*
X11164905Y-13015095D01*
X11593476Y-12767476D02*
X11612524Y-12767476D01*
X11631571Y-12777000D01*
X11641095Y-12786524D01*
X11650619Y-12805571D01*
X11660143Y-12843667D01*
X11660143Y-12891286D01*
X11650619Y-12929381D01*
X11641095Y-12948428D01*
X11631571Y-12957952D01*
X11612524Y-12967476D01*
X11593476Y-12967476D01*
X11574428Y-12957952D01*
X11564905Y-12948428D01*
X11555381Y-12929381D01*
X11545857Y-12891286D01*
X11545857Y-12843667D01*
X11555381Y-12805571D01*
X11564905Y-12786524D01*
X11574428Y-12777000D01*
X11593476Y-12767476D01*
X11745857Y-12948428D02*
X11755381Y-12957952D01*
X11745857Y-12967476D01*
X11736333Y-12957952D01*
X11745857Y-12948428D01*
X11745857Y-12967476D01*
X11879190Y-12767476D02*
X11898238Y-12767476D01*
X11917286Y-12777000D01*
X11926809Y-12786524D01*
X11936333Y-12805571D01*
X11945857Y-12843667D01*
X11945857Y-12891286D01*
X11936333Y-12929381D01*
X11926809Y-12948428D01*
X11917286Y-12957952D01*
X11898238Y-12967476D01*
X11879190Y-12967476D01*
X11860143Y-12957952D01*
X11850619Y-12948428D01*
X11841095Y-12929381D01*
X11831571Y-12891286D01*
X11831571Y-12843667D01*
X11841095Y-12805571D01*
X11850619Y-12786524D01*
X11860143Y-12777000D01*
X11879190Y-12767476D01*
X12126809Y-12767476D02*
X12031571Y-12767476D01*
X12022048Y-12862714D01*
X12031571Y-12853190D01*
X12050619Y-12843667D01*
X12098238Y-12843667D01*
X12117286Y-12853190D01*
X12126809Y-12862714D01*
X12136333Y-12881762D01*
X12136333Y-12929381D01*
X12126809Y-12948428D01*
X12117286Y-12957952D01*
X12098238Y-12967476D01*
X12050619Y-12967476D01*
X12031571Y-12957952D01*
X12022048Y-12948428D01*
X12317286Y-12767476D02*
X12222048Y-12767476D01*
X12212524Y-12862714D01*
X12222048Y-12853190D01*
X12241095Y-12843667D01*
X12288714Y-12843667D01*
X12307762Y-12853190D01*
X12317286Y-12862714D01*
X12326809Y-12881762D01*
X12326809Y-12929381D01*
X12317286Y-12948428D01*
X12307762Y-12957952D01*
X12288714Y-12967476D01*
X12241095Y-12967476D01*
X12222048Y-12957952D01*
X12212524Y-12948428D01*
X12517286Y-12967476D02*
X12403000Y-12967476D01*
X12460143Y-12967476D02*
X12460143Y-12767476D01*
X12441095Y-12796048D01*
X12422048Y-12815095D01*
X12403000Y-12824619D01*
X12593476Y-12767476D02*
X12593476Y-12805571D01*
X12669667Y-12767476D02*
X12669667Y-12805571D01*
X12964905Y-13043667D02*
X12955381Y-13034143D01*
X12936333Y-13005571D01*
X12926809Y-12986524D01*
X12917286Y-12957952D01*
X12907762Y-12910333D01*
X12907762Y-12872238D01*
X12917286Y-12824619D01*
X12926809Y-12796048D01*
X12936333Y-12777000D01*
X12955381Y-12748428D01*
X12964905Y-12738905D01*
X13031571Y-12786524D02*
X13041095Y-12777000D01*
X13060143Y-12767476D01*
X13107762Y-12767476D01*
X13126809Y-12777000D01*
X13136333Y-12786524D01*
X13145857Y-12805571D01*
X13145857Y-12824619D01*
X13136333Y-12853190D01*
X13022048Y-12967476D01*
X13145857Y-12967476D01*
X13383952Y-12967476D02*
X13383952Y-12767476D01*
X13469667Y-12967476D02*
X13469667Y-12862714D01*
X13460143Y-12843667D01*
X13441095Y-12834143D01*
X13412524Y-12834143D01*
X13393476Y-12843667D01*
X13383952Y-12853190D01*
X13593476Y-12967476D02*
X13574428Y-12957952D01*
X13564905Y-12948428D01*
X13555381Y-12929381D01*
X13555381Y-12872238D01*
X13564905Y-12853190D01*
X13574428Y-12843667D01*
X13593476Y-12834143D01*
X13622048Y-12834143D01*
X13641095Y-12843667D01*
X13650619Y-12853190D01*
X13660143Y-12872238D01*
X13660143Y-12929381D01*
X13650619Y-12948428D01*
X13641095Y-12957952D01*
X13622048Y-12967476D01*
X13593476Y-12967476D01*
X13774428Y-12967476D02*
X13755381Y-12957952D01*
X13745857Y-12938905D01*
X13745857Y-12767476D01*
X13926809Y-12957952D02*
X13907762Y-12967476D01*
X13869667Y-12967476D01*
X13850619Y-12957952D01*
X13841095Y-12938905D01*
X13841095Y-12862714D01*
X13850619Y-12843667D01*
X13869667Y-12834143D01*
X13907762Y-12834143D01*
X13926809Y-12843667D01*
X13936333Y-12862714D01*
X13936333Y-12881762D01*
X13841095Y-12900809D01*
X14012524Y-12957952D02*
X14031571Y-12967476D01*
X14069667Y-12967476D01*
X14088714Y-12957952D01*
X14098238Y-12938905D01*
X14098238Y-12929381D01*
X14088714Y-12910333D01*
X14069667Y-12900809D01*
X14041095Y-12900809D01*
X14022048Y-12891286D01*
X14012524Y-12872238D01*
X14012524Y-12862714D01*
X14022048Y-12843667D01*
X14041095Y-12834143D01*
X14069667Y-12834143D01*
X14088714Y-12843667D01*
X14164905Y-13043667D02*
X14174428Y-13034143D01*
X14193476Y-13005571D01*
X14203000Y-12986524D01*
X14212524Y-12957952D01*
X14222048Y-12910333D01*
X14222048Y-12872238D01*
X14212524Y-12824619D01*
X14203000Y-12796048D01*
X14193476Y-12777000D01*
X14174428Y-12748428D01*
X14164905Y-12738905D01*
X9193000Y-13041000D02*
X9393000Y-13241000D01*
X9393000Y-13041000D02*
X9193000Y-13241000D01*
X9393000Y-13141000D02*
G75*
G03*
X9393000Y-13141000I-100000J0D01*
G01*
X9641095Y-13050524D02*
X9650619Y-13041000D01*
X9669667Y-13031476D01*
X9717286Y-13031476D01*
X9736333Y-13041000D01*
X9745857Y-13050524D01*
X9755381Y-13069571D01*
X9755381Y-13088619D01*
X9745857Y-13117190D01*
X9631571Y-13231476D01*
X9755381Y-13231476D01*
X9841095Y-13212428D02*
X9850619Y-13221952D01*
X9841095Y-13231476D01*
X9831571Y-13221952D01*
X9841095Y-13212428D01*
X9841095Y-13231476D01*
X9926810Y-13050524D02*
X9936333Y-13041000D01*
X9955381Y-13031476D01*
X10003000Y-13031476D01*
X10022048Y-13041000D01*
X10031571Y-13050524D01*
X10041095Y-13069571D01*
X10041095Y-13088619D01*
X10031571Y-13117190D01*
X9917286Y-13231476D01*
X10041095Y-13231476D01*
X10164905Y-13031476D02*
X10183952Y-13031476D01*
X10203000Y-13041000D01*
X10212524Y-13050524D01*
X10222048Y-13069571D01*
X10231571Y-13107667D01*
X10231571Y-13155286D01*
X10222048Y-13193381D01*
X10212524Y-13212428D01*
X10203000Y-13221952D01*
X10183952Y-13231476D01*
X10164905Y-13231476D01*
X10145857Y-13221952D01*
X10136333Y-13212428D01*
X10126810Y-13193381D01*
X10117286Y-13155286D01*
X10117286Y-13107667D01*
X10126810Y-13069571D01*
X10136333Y-13050524D01*
X10145857Y-13041000D01*
X10164905Y-13031476D01*
X10355381Y-13031476D02*
X10374429Y-13031476D01*
X10393476Y-13041000D01*
X10403000Y-13050524D01*
X10412524Y-13069571D01*
X10422048Y-13107667D01*
X10422048Y-13155286D01*
X10412524Y-13193381D01*
X10403000Y-13212428D01*
X10393476Y-13221952D01*
X10374429Y-13231476D01*
X10355381Y-13231476D01*
X10336333Y-13221952D01*
X10326810Y-13212428D01*
X10317286Y-13193381D01*
X10307762Y-13155286D01*
X10307762Y-13107667D01*
X10317286Y-13069571D01*
X10326810Y-13050524D01*
X10336333Y-13041000D01*
X10355381Y-13031476D01*
X10507762Y-13231476D02*
X10507762Y-13098143D01*
X10507762Y-13117190D02*
X10517286Y-13107667D01*
X10536333Y-13098143D01*
X10564905Y-13098143D01*
X10583952Y-13107667D01*
X10593476Y-13126714D01*
X10593476Y-13231476D01*
X10593476Y-13126714D02*
X10603000Y-13107667D01*
X10622048Y-13098143D01*
X10650619Y-13098143D01*
X10669667Y-13107667D01*
X10679190Y-13126714D01*
X10679190Y-13231476D01*
X10774429Y-13231476D02*
X10774429Y-13098143D01*
X10774429Y-13117190D02*
X10783952Y-13107667D01*
X10803000Y-13098143D01*
X10831571Y-13098143D01*
X10850619Y-13107667D01*
X10860143Y-13126714D01*
X10860143Y-13231476D01*
X10860143Y-13126714D02*
X10869667Y-13107667D01*
X10888714Y-13098143D01*
X10917286Y-13098143D01*
X10936333Y-13107667D01*
X10945857Y-13126714D01*
X10945857Y-13231476D01*
X11336333Y-13021952D02*
X11164905Y-13279095D01*
X11593476Y-13031476D02*
X11612524Y-13031476D01*
X11631571Y-13041000D01*
X11641095Y-13050524D01*
X11650619Y-13069571D01*
X11660143Y-13107667D01*
X11660143Y-13155286D01*
X11650619Y-13193381D01*
X11641095Y-13212428D01*
X11631571Y-13221952D01*
X11612524Y-13231476D01*
X11593476Y-13231476D01*
X11574428Y-13221952D01*
X11564905Y-13212428D01*
X11555381Y-13193381D01*
X11545857Y-13155286D01*
X11545857Y-13107667D01*
X11555381Y-13069571D01*
X11564905Y-13050524D01*
X11574428Y-13041000D01*
X11593476Y-13031476D01*
X11745857Y-13212428D02*
X11755381Y-13221952D01*
X11745857Y-13231476D01*
X11736333Y-13221952D01*
X11745857Y-13212428D01*
X11745857Y-13231476D01*
X11879190Y-13031476D02*
X11898238Y-13031476D01*
X11917286Y-13041000D01*
X11926809Y-13050524D01*
X11936333Y-13069571D01*
X11945857Y-13107667D01*
X11945857Y-13155286D01*
X11936333Y-13193381D01*
X11926809Y-13212428D01*
X11917286Y-13221952D01*
X11898238Y-13231476D01*
X11879190Y-13231476D01*
X11860143Y-13221952D01*
X11850619Y-13212428D01*
X11841095Y-13193381D01*
X11831571Y-13155286D01*
X11831571Y-13107667D01*
X11841095Y-13069571D01*
X11850619Y-13050524D01*
X11860143Y-13041000D01*
X11879190Y-13031476D01*
X12060143Y-13117190D02*
X12041095Y-13107667D01*
X12031571Y-13098143D01*
X12022048Y-13079095D01*
X12022048Y-13069571D01*
X12031571Y-13050524D01*
X12041095Y-13041000D01*
X12060143Y-13031476D01*
X12098238Y-13031476D01*
X12117286Y-13041000D01*
X12126809Y-13050524D01*
X12136333Y-13069571D01*
X12136333Y-13079095D01*
X12126809Y-13098143D01*
X12117286Y-13107667D01*
X12098238Y-13117190D01*
X12060143Y-13117190D01*
X12041095Y-13126714D01*
X12031571Y-13136238D01*
X12022048Y-13155286D01*
X12022048Y-13193381D01*
X12031571Y-13212428D01*
X12041095Y-13221952D01*
X12060143Y-13231476D01*
X12098238Y-13231476D01*
X12117286Y-13221952D01*
X12126809Y-13212428D01*
X12136333Y-13193381D01*
X12136333Y-13155286D01*
X12126809Y-13136238D01*
X12117286Y-13126714D01*
X12098238Y-13117190D01*
X12307762Y-13031476D02*
X12269667Y-13031476D01*
X12250619Y-13041000D01*
X12241095Y-13050524D01*
X12222048Y-13079095D01*
X12212524Y-13117190D01*
X12212524Y-13193381D01*
X12222048Y-13212428D01*
X12231571Y-13221952D01*
X12250619Y-13231476D01*
X12288714Y-13231476D01*
X12307762Y-13221952D01*
X12317286Y-13212428D01*
X12326809Y-13193381D01*
X12326809Y-13145762D01*
X12317286Y-13126714D01*
X12307762Y-13117190D01*
X12288714Y-13107667D01*
X12250619Y-13107667D01*
X12231571Y-13117190D01*
X12222048Y-13126714D01*
X12212524Y-13145762D01*
X12498238Y-13031476D02*
X12460143Y-13031476D01*
X12441095Y-13041000D01*
X12431571Y-13050524D01*
X12412524Y-13079095D01*
X12403000Y-13117190D01*
X12403000Y-13193381D01*
X12412524Y-13212428D01*
X12422048Y-13221952D01*
X12441095Y-13231476D01*
X12479190Y-13231476D01*
X12498238Y-13221952D01*
X12507762Y-13212428D01*
X12517286Y-13193381D01*
X12517286Y-13145762D01*
X12507762Y-13126714D01*
X12498238Y-13117190D01*
X12479190Y-13107667D01*
X12441095Y-13107667D01*
X12422048Y-13117190D01*
X12412524Y-13126714D01*
X12403000Y-13145762D01*
X12593476Y-13031476D02*
X12593476Y-13069571D01*
X12669667Y-13031476D02*
X12669667Y-13069571D01*
X12964905Y-13307667D02*
X12955381Y-13298143D01*
X12936333Y-13269571D01*
X12926809Y-13250524D01*
X12917286Y-13221952D01*
X12907762Y-13174333D01*
X12907762Y-13136238D01*
X12917286Y-13088619D01*
X12926809Y-13060048D01*
X12936333Y-13041000D01*
X12955381Y-13012428D01*
X12964905Y-13002905D01*
X13126809Y-13098143D02*
X13126809Y-13231476D01*
X13079190Y-13021952D02*
X13031571Y-13164809D01*
X13155381Y-13164809D01*
X13383952Y-13231476D02*
X13383952Y-13031476D01*
X13469667Y-13231476D02*
X13469667Y-13126714D01*
X13460143Y-13107667D01*
X13441095Y-13098143D01*
X13412524Y-13098143D01*
X13393476Y-13107667D01*
X13383952Y-13117190D01*
X13593476Y-13231476D02*
X13574428Y-13221952D01*
X13564905Y-13212428D01*
X13555381Y-13193381D01*
X13555381Y-13136238D01*
X13564905Y-13117190D01*
X13574428Y-13107667D01*
X13593476Y-13098143D01*
X13622048Y-13098143D01*
X13641095Y-13107667D01*
X13650619Y-13117190D01*
X13660143Y-13136238D01*
X13660143Y-13193381D01*
X13650619Y-13212428D01*
X13641095Y-13221952D01*
X13622048Y-13231476D01*
X13593476Y-13231476D01*
X13774428Y-13231476D02*
X13755381Y-13221952D01*
X13745857Y-13202905D01*
X13745857Y-13031476D01*
X13926809Y-13221952D02*
X13907762Y-13231476D01*
X13869667Y-13231476D01*
X13850619Y-13221952D01*
X13841095Y-13202905D01*
X13841095Y-13126714D01*
X13850619Y-13107667D01*
X13869667Y-13098143D01*
X13907762Y-13098143D01*
X13926809Y-13107667D01*
X13936333Y-13126714D01*
X13936333Y-13145762D01*
X13841095Y-13164809D01*
X14012524Y-13221952D02*
X14031571Y-13231476D01*
X14069667Y-13231476D01*
X14088714Y-13221952D01*
X14098238Y-13202905D01*
X14098238Y-13193381D01*
X14088714Y-13174333D01*
X14069667Y-13164809D01*
X14041095Y-13164809D01*
X14022048Y-13155286D01*
X14012524Y-13136238D01*
X14012524Y-13126714D01*
X14022048Y-13107667D01*
X14041095Y-13098143D01*
X14069667Y-13098143D01*
X14088714Y-13107667D01*
X14164905Y-13307667D02*
X14174428Y-13298143D01*
X14193476Y-13269571D01*
X14203000Y-13250524D01*
X14212524Y-13221952D01*
X14222048Y-13174333D01*
X14222048Y-13136238D01*
X14212524Y-13088619D01*
X14203000Y-13060048D01*
X14193476Y-13041000D01*
X14174428Y-13012428D01*
X14164905Y-13002905D01*
X9193000Y-13361000D02*
X9393000Y-13561000D01*
X9393000Y-13361000D02*
X9193000Y-13561000D01*
X9293000Y-13361000D02*
X9293000Y-13561000D01*
X9193000Y-13461000D02*
X9393000Y-13461000D01*
X9631571Y-13351476D02*
X9755381Y-13351476D01*
X9688714Y-13427667D01*
X9717286Y-13427667D01*
X9736333Y-13437190D01*
X9745857Y-13446714D01*
X9755381Y-13465762D01*
X9755381Y-13513381D01*
X9745857Y-13532428D01*
X9736333Y-13541952D01*
X9717286Y-13551476D01*
X9660143Y-13551476D01*
X9641095Y-13541952D01*
X9631571Y-13532428D01*
X9841095Y-13532428D02*
X9850619Y-13541952D01*
X9841095Y-13551476D01*
X9831571Y-13541952D01*
X9841095Y-13532428D01*
X9841095Y-13551476D01*
X9926810Y-13370524D02*
X9936333Y-13361000D01*
X9955381Y-13351476D01*
X10003000Y-13351476D01*
X10022048Y-13361000D01*
X10031571Y-13370524D01*
X10041095Y-13389571D01*
X10041095Y-13408619D01*
X10031571Y-13437190D01*
X9917286Y-13551476D01*
X10041095Y-13551476D01*
X10164905Y-13351476D02*
X10183952Y-13351476D01*
X10203000Y-13361000D01*
X10212524Y-13370524D01*
X10222048Y-13389571D01*
X10231571Y-13427667D01*
X10231571Y-13475286D01*
X10222048Y-13513381D01*
X10212524Y-13532428D01*
X10203000Y-13541952D01*
X10183952Y-13551476D01*
X10164905Y-13551476D01*
X10145857Y-13541952D01*
X10136333Y-13532428D01*
X10126810Y-13513381D01*
X10117286Y-13475286D01*
X10117286Y-13427667D01*
X10126810Y-13389571D01*
X10136333Y-13370524D01*
X10145857Y-13361000D01*
X10164905Y-13351476D01*
X10355381Y-13351476D02*
X10374429Y-13351476D01*
X10393476Y-13361000D01*
X10403000Y-13370524D01*
X10412524Y-13389571D01*
X10422048Y-13427667D01*
X10422048Y-13475286D01*
X10412524Y-13513381D01*
X10403000Y-13532428D01*
X10393476Y-13541952D01*
X10374429Y-13551476D01*
X10355381Y-13551476D01*
X10336333Y-13541952D01*
X10326810Y-13532428D01*
X10317286Y-13513381D01*
X10307762Y-13475286D01*
X10307762Y-13427667D01*
X10317286Y-13389571D01*
X10326810Y-13370524D01*
X10336333Y-13361000D01*
X10355381Y-13351476D01*
X10507762Y-13551476D02*
X10507762Y-13418143D01*
X10507762Y-13437190D02*
X10517286Y-13427667D01*
X10536333Y-13418143D01*
X10564905Y-13418143D01*
X10583952Y-13427667D01*
X10593476Y-13446714D01*
X10593476Y-13551476D01*
X10593476Y-13446714D02*
X10603000Y-13427667D01*
X10622048Y-13418143D01*
X10650619Y-13418143D01*
X10669667Y-13427667D01*
X10679190Y-13446714D01*
X10679190Y-13551476D01*
X10774429Y-13551476D02*
X10774429Y-13418143D01*
X10774429Y-13437190D02*
X10783952Y-13427667D01*
X10803000Y-13418143D01*
X10831571Y-13418143D01*
X10850619Y-13427667D01*
X10860143Y-13446714D01*
X10860143Y-13551476D01*
X10860143Y-13446714D02*
X10869667Y-13427667D01*
X10888714Y-13418143D01*
X10917286Y-13418143D01*
X10936333Y-13427667D01*
X10945857Y-13446714D01*
X10945857Y-13551476D01*
X11336333Y-13341952D02*
X11164905Y-13599095D01*
X11593476Y-13351476D02*
X11612524Y-13351476D01*
X11631571Y-13361000D01*
X11641095Y-13370524D01*
X11650619Y-13389571D01*
X11660143Y-13427667D01*
X11660143Y-13475286D01*
X11650619Y-13513381D01*
X11641095Y-13532428D01*
X11631571Y-13541952D01*
X11612524Y-13551476D01*
X11593476Y-13551476D01*
X11574428Y-13541952D01*
X11564905Y-13532428D01*
X11555381Y-13513381D01*
X11545857Y-13475286D01*
X11545857Y-13427667D01*
X11555381Y-13389571D01*
X11564905Y-13370524D01*
X11574428Y-13361000D01*
X11593476Y-13351476D01*
X11745857Y-13532428D02*
X11755381Y-13541952D01*
X11745857Y-13551476D01*
X11736333Y-13541952D01*
X11745857Y-13532428D01*
X11745857Y-13551476D01*
X11945857Y-13551476D02*
X11831571Y-13551476D01*
X11888714Y-13551476D02*
X11888714Y-13351476D01*
X11869667Y-13380048D01*
X11850619Y-13399095D01*
X11831571Y-13408619D01*
X12022048Y-13370524D02*
X12031571Y-13361000D01*
X12050619Y-13351476D01*
X12098238Y-13351476D01*
X12117286Y-13361000D01*
X12126809Y-13370524D01*
X12136333Y-13389571D01*
X12136333Y-13408619D01*
X12126809Y-13437190D01*
X12012524Y-13551476D01*
X12136333Y-13551476D01*
X12307762Y-13351476D02*
X12269667Y-13351476D01*
X12250619Y-13361000D01*
X12241095Y-13370524D01*
X12222048Y-13399095D01*
X12212524Y-13437190D01*
X12212524Y-13513381D01*
X12222048Y-13532428D01*
X12231571Y-13541952D01*
X12250619Y-13551476D01*
X12288714Y-13551476D01*
X12307762Y-13541952D01*
X12317286Y-13532428D01*
X12326809Y-13513381D01*
X12326809Y-13465762D01*
X12317286Y-13446714D01*
X12307762Y-13437190D01*
X12288714Y-13427667D01*
X12250619Y-13427667D01*
X12231571Y-13437190D01*
X12222048Y-13446714D01*
X12212524Y-13465762D01*
X12450619Y-13351476D02*
X12469667Y-13351476D01*
X12488714Y-13361000D01*
X12498238Y-13370524D01*
X12507762Y-13389571D01*
X12517286Y-13427667D01*
X12517286Y-13475286D01*
X12507762Y-13513381D01*
X12498238Y-13532428D01*
X12488714Y-13541952D01*
X12469667Y-13551476D01*
X12450619Y-13551476D01*
X12431571Y-13541952D01*
X12422048Y-13532428D01*
X12412524Y-13513381D01*
X12403000Y-13475286D01*
X12403000Y-13427667D01*
X12412524Y-13389571D01*
X12422048Y-13370524D01*
X12431571Y-13361000D01*
X12450619Y-13351476D01*
X12593476Y-13351476D02*
X12593476Y-13389571D01*
X12669667Y-13351476D02*
X12669667Y-13389571D01*
X12964905Y-13627667D02*
X12955381Y-13618143D01*
X12936333Y-13589571D01*
X12926809Y-13570524D01*
X12917286Y-13541952D01*
X12907762Y-13494333D01*
X12907762Y-13456238D01*
X12917286Y-13408619D01*
X12926809Y-13380048D01*
X12936333Y-13361000D01*
X12955381Y-13332428D01*
X12964905Y-13322905D01*
X13031571Y-13370524D02*
X13041095Y-13361000D01*
X13060143Y-13351476D01*
X13107762Y-13351476D01*
X13126809Y-13361000D01*
X13136333Y-13370524D01*
X13145857Y-13389571D01*
X13145857Y-13408619D01*
X13136333Y-13437190D01*
X13022048Y-13551476D01*
X13145857Y-13551476D01*
X13383952Y-13551476D02*
X13383952Y-13351476D01*
X13469667Y-13551476D02*
X13469667Y-13446714D01*
X13460143Y-13427667D01*
X13441095Y-13418143D01*
X13412524Y-13418143D01*
X13393476Y-13427667D01*
X13383952Y-13437190D01*
X13593476Y-13551476D02*
X13574428Y-13541952D01*
X13564905Y-13532428D01*
X13555381Y-13513381D01*
X13555381Y-13456238D01*
X13564905Y-13437190D01*
X13574428Y-13427667D01*
X13593476Y-13418143D01*
X13622048Y-13418143D01*
X13641095Y-13427667D01*
X13650619Y-13437190D01*
X13660143Y-13456238D01*
X13660143Y-13513381D01*
X13650619Y-13532428D01*
X13641095Y-13541952D01*
X13622048Y-13551476D01*
X13593476Y-13551476D01*
X13774428Y-13551476D02*
X13755381Y-13541952D01*
X13745857Y-13522905D01*
X13745857Y-13351476D01*
X13926809Y-13541952D02*
X13907762Y-13551476D01*
X13869667Y-13551476D01*
X13850619Y-13541952D01*
X13841095Y-13522905D01*
X13841095Y-13446714D01*
X13850619Y-13427667D01*
X13869667Y-13418143D01*
X13907762Y-13418143D01*
X13926809Y-13427667D01*
X13936333Y-13446714D01*
X13936333Y-13465762D01*
X13841095Y-13484809D01*
X14012524Y-13541952D02*
X14031571Y-13551476D01*
X14069667Y-13551476D01*
X14088714Y-13541952D01*
X14098238Y-13522905D01*
X14098238Y-13513381D01*
X14088714Y-13494333D01*
X14069667Y-13484809D01*
X14041095Y-13484809D01*
X14022048Y-13475286D01*
X14012524Y-13456238D01*
X14012524Y-13446714D01*
X14022048Y-13427667D01*
X14041095Y-13418143D01*
X14069667Y-13418143D01*
X14088714Y-13427667D01*
X14164905Y-13627667D02*
X14174428Y-13618143D01*
X14193476Y-13589571D01*
X14203000Y-13570524D01*
X14212524Y-13541952D01*
X14222048Y-13494333D01*
X14222048Y-13456238D01*
X14212524Y-13408619D01*
X14203000Y-13380048D01*
X14193476Y-13361000D01*
X14174428Y-13332428D01*
X14164905Y-13322905D01*
M02*
