%TF.GenerationSoftware,KiCad,Pcbnew,6.0.11+dfsg-1*%
%TF.CreationDate,2024-04-01T21:30:18-07:00*%
%TF.ProjectId,car-logger,6361722d-6c6f-4676-9765-722e6b696361,v1*%
%TF.SameCoordinates,Original*%
%TF.FileFunction,Drillmap*%
%TF.FilePolarity,Positive*%
%FSLAX45Y45*%
G04 Gerber Fmt 4.5, Leading zero omitted, Abs format (unit mm)*
G04 Created by KiCad (PCBNEW 6.0.11+dfsg-1) date 2024-04-01 21:30:18*
%MOMM*%
%LPD*%
G01*
G04 APERTURE LIST*
%ADD10C,0.100000*%
%ADD11C,0.200000*%
%ADD12C,0.080000*%
G04 APERTURE END LIST*
D10*
X9398000Y-5791200D02*
X18034000Y-5791200D01*
X18034000Y-5791200D02*
X18034000Y-11176000D01*
X18034000Y-11176000D02*
X9398000Y-11176000D01*
X9398000Y-11176000D02*
X9398000Y-5791200D01*
D11*
D12*
X16093000Y-6237000D02*
X16173000Y-6317000D01*
X16173000Y-6237000D02*
X16093000Y-6317000D01*
X16593000Y-6237000D02*
X16673000Y-6317000D01*
X16673000Y-6237000D02*
X16593000Y-6317000D01*
D11*
X9650619Y-11491476D02*
X9650619Y-11291476D01*
X9698238Y-11291476D01*
X9726810Y-11301000D01*
X9745857Y-11320048D01*
X9755381Y-11339095D01*
X9764905Y-11377190D01*
X9764905Y-11405762D01*
X9755381Y-11443857D01*
X9745857Y-11462905D01*
X9726810Y-11481952D01*
X9698238Y-11491476D01*
X9650619Y-11491476D01*
X9850619Y-11491476D02*
X9850619Y-11358143D01*
X9850619Y-11396238D02*
X9860143Y-11377190D01*
X9869667Y-11367667D01*
X9888714Y-11358143D01*
X9907762Y-11358143D01*
X9974429Y-11491476D02*
X9974429Y-11358143D01*
X9974429Y-11291476D02*
X9964905Y-11301000D01*
X9974429Y-11310524D01*
X9983952Y-11301000D01*
X9974429Y-11291476D01*
X9974429Y-11310524D01*
X10098238Y-11491476D02*
X10079190Y-11481952D01*
X10069667Y-11462905D01*
X10069667Y-11291476D01*
X10203000Y-11491476D02*
X10183952Y-11481952D01*
X10174429Y-11462905D01*
X10174429Y-11291476D01*
X10431571Y-11491476D02*
X10431571Y-11291476D01*
X10498238Y-11434333D01*
X10564905Y-11291476D01*
X10564905Y-11491476D01*
X10745857Y-11491476D02*
X10745857Y-11386714D01*
X10736333Y-11367667D01*
X10717286Y-11358143D01*
X10679190Y-11358143D01*
X10660143Y-11367667D01*
X10745857Y-11481952D02*
X10726810Y-11491476D01*
X10679190Y-11491476D01*
X10660143Y-11481952D01*
X10650619Y-11462905D01*
X10650619Y-11443857D01*
X10660143Y-11424809D01*
X10679190Y-11415286D01*
X10726810Y-11415286D01*
X10745857Y-11405762D01*
X10841095Y-11358143D02*
X10841095Y-11558143D01*
X10841095Y-11367667D02*
X10860143Y-11358143D01*
X10898238Y-11358143D01*
X10917286Y-11367667D01*
X10926810Y-11377190D01*
X10936333Y-11396238D01*
X10936333Y-11453381D01*
X10926810Y-11472428D01*
X10917286Y-11481952D01*
X10898238Y-11491476D01*
X10860143Y-11491476D01*
X10841095Y-11481952D01*
X11022048Y-11472428D02*
X11031571Y-11481952D01*
X11022048Y-11491476D01*
X11012524Y-11481952D01*
X11022048Y-11472428D01*
X11022048Y-11491476D01*
X11022048Y-11367667D02*
X11031571Y-11377190D01*
X11022048Y-11386714D01*
X11012524Y-11377190D01*
X11022048Y-11367667D01*
X11022048Y-11386714D01*
D12*
X9313000Y-11781000D02*
X9393000Y-11861000D01*
X9393000Y-11781000D02*
X9313000Y-11861000D01*
D11*
X9688714Y-11711476D02*
X9707762Y-11711476D01*
X9726810Y-11721000D01*
X9736333Y-11730524D01*
X9745857Y-11749571D01*
X9755381Y-11787667D01*
X9755381Y-11835286D01*
X9745857Y-11873381D01*
X9736333Y-11892428D01*
X9726810Y-11901952D01*
X9707762Y-11911476D01*
X9688714Y-11911476D01*
X9669667Y-11901952D01*
X9660143Y-11892428D01*
X9650619Y-11873381D01*
X9641095Y-11835286D01*
X9641095Y-11787667D01*
X9650619Y-11749571D01*
X9660143Y-11730524D01*
X9669667Y-11721000D01*
X9688714Y-11711476D01*
X9841095Y-11892428D02*
X9850619Y-11901952D01*
X9841095Y-11911476D01*
X9831571Y-11901952D01*
X9841095Y-11892428D01*
X9841095Y-11911476D01*
X9964905Y-11797190D02*
X9945857Y-11787667D01*
X9936333Y-11778143D01*
X9926810Y-11759095D01*
X9926810Y-11749571D01*
X9936333Y-11730524D01*
X9945857Y-11721000D01*
X9964905Y-11711476D01*
X10003000Y-11711476D01*
X10022048Y-11721000D01*
X10031571Y-11730524D01*
X10041095Y-11749571D01*
X10041095Y-11759095D01*
X10031571Y-11778143D01*
X10022048Y-11787667D01*
X10003000Y-11797190D01*
X9964905Y-11797190D01*
X9945857Y-11806714D01*
X9936333Y-11816238D01*
X9926810Y-11835286D01*
X9926810Y-11873381D01*
X9936333Y-11892428D01*
X9945857Y-11901952D01*
X9964905Y-11911476D01*
X10003000Y-11911476D01*
X10022048Y-11901952D01*
X10031571Y-11892428D01*
X10041095Y-11873381D01*
X10041095Y-11835286D01*
X10031571Y-11816238D01*
X10022048Y-11806714D01*
X10003000Y-11797190D01*
X10164905Y-11711476D02*
X10183952Y-11711476D01*
X10203000Y-11721000D01*
X10212524Y-11730524D01*
X10222048Y-11749571D01*
X10231571Y-11787667D01*
X10231571Y-11835286D01*
X10222048Y-11873381D01*
X10212524Y-11892428D01*
X10203000Y-11901952D01*
X10183952Y-11911476D01*
X10164905Y-11911476D01*
X10145857Y-11901952D01*
X10136333Y-11892428D01*
X10126810Y-11873381D01*
X10117286Y-11835286D01*
X10117286Y-11787667D01*
X10126810Y-11749571D01*
X10136333Y-11730524D01*
X10145857Y-11721000D01*
X10164905Y-11711476D01*
X10355381Y-11711476D02*
X10374429Y-11711476D01*
X10393476Y-11721000D01*
X10403000Y-11730524D01*
X10412524Y-11749571D01*
X10422048Y-11787667D01*
X10422048Y-11835286D01*
X10412524Y-11873381D01*
X10403000Y-11892428D01*
X10393476Y-11901952D01*
X10374429Y-11911476D01*
X10355381Y-11911476D01*
X10336333Y-11901952D01*
X10326810Y-11892428D01*
X10317286Y-11873381D01*
X10307762Y-11835286D01*
X10307762Y-11787667D01*
X10317286Y-11749571D01*
X10326810Y-11730524D01*
X10336333Y-11721000D01*
X10355381Y-11711476D01*
X10507762Y-11911476D02*
X10507762Y-11778143D01*
X10507762Y-11797190D02*
X10517286Y-11787667D01*
X10536333Y-11778143D01*
X10564905Y-11778143D01*
X10583952Y-11787667D01*
X10593476Y-11806714D01*
X10593476Y-11911476D01*
X10593476Y-11806714D02*
X10603000Y-11787667D01*
X10622048Y-11778143D01*
X10650619Y-11778143D01*
X10669667Y-11787667D01*
X10679190Y-11806714D01*
X10679190Y-11911476D01*
X10774429Y-11911476D02*
X10774429Y-11778143D01*
X10774429Y-11797190D02*
X10783952Y-11787667D01*
X10803000Y-11778143D01*
X10831571Y-11778143D01*
X10850619Y-11787667D01*
X10860143Y-11806714D01*
X10860143Y-11911476D01*
X10860143Y-11806714D02*
X10869667Y-11787667D01*
X10888714Y-11778143D01*
X10917286Y-11778143D01*
X10936333Y-11787667D01*
X10945857Y-11806714D01*
X10945857Y-11911476D01*
X11336333Y-11701952D02*
X11164905Y-11959095D01*
X11593476Y-11711476D02*
X11612524Y-11711476D01*
X11631571Y-11721000D01*
X11641095Y-11730524D01*
X11650619Y-11749571D01*
X11660143Y-11787667D01*
X11660143Y-11835286D01*
X11650619Y-11873381D01*
X11641095Y-11892428D01*
X11631571Y-11901952D01*
X11612524Y-11911476D01*
X11593476Y-11911476D01*
X11574428Y-11901952D01*
X11564905Y-11892428D01*
X11555381Y-11873381D01*
X11545857Y-11835286D01*
X11545857Y-11787667D01*
X11555381Y-11749571D01*
X11564905Y-11730524D01*
X11574428Y-11721000D01*
X11593476Y-11711476D01*
X11745857Y-11892428D02*
X11755381Y-11901952D01*
X11745857Y-11911476D01*
X11736333Y-11901952D01*
X11745857Y-11892428D01*
X11745857Y-11911476D01*
X11879190Y-11711476D02*
X11898238Y-11711476D01*
X11917286Y-11721000D01*
X11926809Y-11730524D01*
X11936333Y-11749571D01*
X11945857Y-11787667D01*
X11945857Y-11835286D01*
X11936333Y-11873381D01*
X11926809Y-11892428D01*
X11917286Y-11901952D01*
X11898238Y-11911476D01*
X11879190Y-11911476D01*
X11860143Y-11901952D01*
X11850619Y-11892428D01*
X11841095Y-11873381D01*
X11831571Y-11835286D01*
X11831571Y-11787667D01*
X11841095Y-11749571D01*
X11850619Y-11730524D01*
X11860143Y-11721000D01*
X11879190Y-11711476D01*
X12012524Y-11711476D02*
X12136333Y-11711476D01*
X12069667Y-11787667D01*
X12098238Y-11787667D01*
X12117286Y-11797190D01*
X12126809Y-11806714D01*
X12136333Y-11825762D01*
X12136333Y-11873381D01*
X12126809Y-11892428D01*
X12117286Y-11901952D01*
X12098238Y-11911476D01*
X12041095Y-11911476D01*
X12022048Y-11901952D01*
X12012524Y-11892428D01*
X12326809Y-11911476D02*
X12212524Y-11911476D01*
X12269667Y-11911476D02*
X12269667Y-11711476D01*
X12250619Y-11740048D01*
X12231571Y-11759095D01*
X12212524Y-11768619D01*
X12507762Y-11711476D02*
X12412524Y-11711476D01*
X12403000Y-11806714D01*
X12412524Y-11797190D01*
X12431571Y-11787667D01*
X12479190Y-11787667D01*
X12498238Y-11797190D01*
X12507762Y-11806714D01*
X12517286Y-11825762D01*
X12517286Y-11873381D01*
X12507762Y-11892428D01*
X12498238Y-11901952D01*
X12479190Y-11911476D01*
X12431571Y-11911476D01*
X12412524Y-11901952D01*
X12403000Y-11892428D01*
X12593476Y-11711476D02*
X12593476Y-11749571D01*
X12669667Y-11711476D02*
X12669667Y-11749571D01*
X12964905Y-11987667D02*
X12955381Y-11978143D01*
X12936333Y-11949571D01*
X12926809Y-11930524D01*
X12917286Y-11901952D01*
X12907762Y-11854333D01*
X12907762Y-11816238D01*
X12917286Y-11768619D01*
X12926809Y-11740048D01*
X12936333Y-11721000D01*
X12955381Y-11692428D01*
X12964905Y-11682905D01*
X13031571Y-11730524D02*
X13041095Y-11721000D01*
X13060143Y-11711476D01*
X13107762Y-11711476D01*
X13126809Y-11721000D01*
X13136333Y-11730524D01*
X13145857Y-11749571D01*
X13145857Y-11768619D01*
X13136333Y-11797190D01*
X13022048Y-11911476D01*
X13145857Y-11911476D01*
X13383952Y-11911476D02*
X13383952Y-11711476D01*
X13469667Y-11911476D02*
X13469667Y-11806714D01*
X13460143Y-11787667D01*
X13441095Y-11778143D01*
X13412524Y-11778143D01*
X13393476Y-11787667D01*
X13383952Y-11797190D01*
X13593476Y-11911476D02*
X13574428Y-11901952D01*
X13564905Y-11892428D01*
X13555381Y-11873381D01*
X13555381Y-11816238D01*
X13564905Y-11797190D01*
X13574428Y-11787667D01*
X13593476Y-11778143D01*
X13622048Y-11778143D01*
X13641095Y-11787667D01*
X13650619Y-11797190D01*
X13660143Y-11816238D01*
X13660143Y-11873381D01*
X13650619Y-11892428D01*
X13641095Y-11901952D01*
X13622048Y-11911476D01*
X13593476Y-11911476D01*
X13774428Y-11911476D02*
X13755381Y-11901952D01*
X13745857Y-11882905D01*
X13745857Y-11711476D01*
X13926809Y-11901952D02*
X13907762Y-11911476D01*
X13869667Y-11911476D01*
X13850619Y-11901952D01*
X13841095Y-11882905D01*
X13841095Y-11806714D01*
X13850619Y-11787667D01*
X13869667Y-11778143D01*
X13907762Y-11778143D01*
X13926809Y-11787667D01*
X13936333Y-11806714D01*
X13936333Y-11825762D01*
X13841095Y-11844809D01*
X14012524Y-11901952D02*
X14031571Y-11911476D01*
X14069667Y-11911476D01*
X14088714Y-11901952D01*
X14098238Y-11882905D01*
X14098238Y-11873381D01*
X14088714Y-11854333D01*
X14069667Y-11844809D01*
X14041095Y-11844809D01*
X14022048Y-11835286D01*
X14012524Y-11816238D01*
X14012524Y-11806714D01*
X14022048Y-11787667D01*
X14041095Y-11778143D01*
X14069667Y-11778143D01*
X14088714Y-11787667D01*
X14164905Y-11987667D02*
X14174428Y-11978143D01*
X14193476Y-11949571D01*
X14203000Y-11930524D01*
X14212524Y-11901952D01*
X14222048Y-11854333D01*
X14222048Y-11816238D01*
X14212524Y-11768619D01*
X14203000Y-11740048D01*
X14193476Y-11721000D01*
X14174428Y-11692428D01*
X14164905Y-11682905D01*
X14526809Y-11987667D02*
X14517286Y-11978143D01*
X14498238Y-11949571D01*
X14488714Y-11930524D01*
X14479190Y-11901952D01*
X14469667Y-11854333D01*
X14469667Y-11816238D01*
X14479190Y-11768619D01*
X14488714Y-11740048D01*
X14498238Y-11721000D01*
X14517286Y-11692428D01*
X14526809Y-11682905D01*
X14603000Y-11778143D02*
X14603000Y-11911476D01*
X14603000Y-11797190D02*
X14612524Y-11787667D01*
X14631571Y-11778143D01*
X14660143Y-11778143D01*
X14679190Y-11787667D01*
X14688714Y-11806714D01*
X14688714Y-11911476D01*
X14812524Y-11911476D02*
X14793476Y-11901952D01*
X14783952Y-11892428D01*
X14774428Y-11873381D01*
X14774428Y-11816238D01*
X14783952Y-11797190D01*
X14793476Y-11787667D01*
X14812524Y-11778143D01*
X14841095Y-11778143D01*
X14860143Y-11787667D01*
X14869667Y-11797190D01*
X14879190Y-11816238D01*
X14879190Y-11873381D01*
X14869667Y-11892428D01*
X14860143Y-11901952D01*
X14841095Y-11911476D01*
X14812524Y-11911476D01*
X14936333Y-11778143D02*
X15012524Y-11778143D01*
X14964905Y-11711476D02*
X14964905Y-11882905D01*
X14974428Y-11901952D01*
X14993476Y-11911476D01*
X15012524Y-11911476D01*
X15231571Y-11778143D02*
X15231571Y-11978143D01*
X15231571Y-11787667D02*
X15250619Y-11778143D01*
X15288714Y-11778143D01*
X15307762Y-11787667D01*
X15317286Y-11797190D01*
X15326809Y-11816238D01*
X15326809Y-11873381D01*
X15317286Y-11892428D01*
X15307762Y-11901952D01*
X15288714Y-11911476D01*
X15250619Y-11911476D01*
X15231571Y-11901952D01*
X15441095Y-11911476D02*
X15422048Y-11901952D01*
X15412524Y-11882905D01*
X15412524Y-11711476D01*
X15603000Y-11911476D02*
X15603000Y-11806714D01*
X15593476Y-11787667D01*
X15574428Y-11778143D01*
X15536333Y-11778143D01*
X15517286Y-11787667D01*
X15603000Y-11901952D02*
X15583952Y-11911476D01*
X15536333Y-11911476D01*
X15517286Y-11901952D01*
X15507762Y-11882905D01*
X15507762Y-11863857D01*
X15517286Y-11844809D01*
X15536333Y-11835286D01*
X15583952Y-11835286D01*
X15603000Y-11825762D01*
X15669667Y-11778143D02*
X15745857Y-11778143D01*
X15698238Y-11711476D02*
X15698238Y-11882905D01*
X15707762Y-11901952D01*
X15726809Y-11911476D01*
X15745857Y-11911476D01*
X15888714Y-11901952D02*
X15869667Y-11911476D01*
X15831571Y-11911476D01*
X15812524Y-11901952D01*
X15803000Y-11882905D01*
X15803000Y-11806714D01*
X15812524Y-11787667D01*
X15831571Y-11778143D01*
X15869667Y-11778143D01*
X15888714Y-11787667D01*
X15898238Y-11806714D01*
X15898238Y-11825762D01*
X15803000Y-11844809D01*
X16069667Y-11911476D02*
X16069667Y-11711476D01*
X16069667Y-11901952D02*
X16050619Y-11911476D01*
X16012524Y-11911476D01*
X15993476Y-11901952D01*
X15983952Y-11892428D01*
X15974428Y-11873381D01*
X15974428Y-11816238D01*
X15983952Y-11797190D01*
X15993476Y-11787667D01*
X16012524Y-11778143D01*
X16050619Y-11778143D01*
X16069667Y-11787667D01*
X16145857Y-11987667D02*
X16155381Y-11978143D01*
X16174428Y-11949571D01*
X16183952Y-11930524D01*
X16193476Y-11901952D01*
X16203000Y-11854333D01*
X16203000Y-11816238D01*
X16193476Y-11768619D01*
X16183952Y-11740048D01*
X16174428Y-11721000D01*
X16155381Y-11692428D01*
X16145857Y-11682905D01*
M02*
