G04 #@! TF.GenerationSoftware,KiCad,Pcbnew,6.0.11+dfsg-1*
G04 #@! TF.CreationDate,2024-04-01T21:29:24-07:00*
G04 #@! TF.ProjectId,car-logger,6361722d-6c6f-4676-9765-722e6b696361,v1*
G04 #@! TF.SameCoordinates,Original*
G04 #@! TF.FileFunction,Soldermask,Bot*
G04 #@! TF.FilePolarity,Negative*
%FSLAX46Y46*%
G04 Gerber Fmt 4.6, Leading zero omitted, Abs format (unit mm)*
G04 Created by KiCad (PCBNEW 6.0.11+dfsg-1) date 2024-04-01 21:29:24*
%MOMM*%
%LPD*%
G01*
G04 APERTURE LIST*
%ADD10R,1.700000X1.700000*%
%ADD11O,1.700000X1.700000*%
%ADD12C,0.700000*%
%ADD13C,4.400000*%
%ADD14C,0.800000*%
%ADD15C,2.000000*%
%ADD16C,1.800000*%
%ADD17C,4.000000*%
%ADD18R,1.600000X1.600000*%
%ADD19C,1.600000*%
G04 APERTURE END LIST*
D10*
X155000000Y-61020000D03*
D11*
X152460000Y-61020000D03*
X149920000Y-61020000D03*
X147380000Y-61020000D03*
X144840000Y-61020000D03*
D12*
X97790000Y-60580000D03*
X96623274Y-61063274D03*
X99440000Y-62230000D03*
D13*
X97790000Y-62230000D03*
D12*
X96623274Y-63396726D03*
X98956726Y-63396726D03*
X96140000Y-62230000D03*
X98956726Y-61063274D03*
X97790000Y-63880000D03*
X174814516Y-62230000D03*
X175297790Y-61063274D03*
X178114516Y-62230000D03*
D13*
X176464516Y-62230000D03*
D12*
X177631242Y-63396726D03*
X176464516Y-60580000D03*
X177631242Y-61063274D03*
X175297790Y-63396726D03*
X176464516Y-63880000D03*
X97724516Y-105960000D03*
X96074516Y-107610000D03*
X98891242Y-106443274D03*
X96557790Y-106443274D03*
X99374516Y-107610000D03*
X97724516Y-109260000D03*
X98891242Y-108776726D03*
D13*
X97724516Y-107610000D03*
D12*
X96557790Y-108776726D03*
X177631242Y-106193274D03*
X174814516Y-107360000D03*
X175297790Y-106193274D03*
X177631242Y-108526726D03*
X178114516Y-107360000D03*
D13*
X176464516Y-107360000D03*
D12*
X175297790Y-108526726D03*
X176464516Y-109010000D03*
X176464516Y-105710000D03*
D14*
X161330000Y-62770000D03*
X166330000Y-62770000D03*
D15*
X160105000Y-63820000D03*
D16*
X159955000Y-60020000D03*
D15*
X167555000Y-63820000D03*
D16*
X167705000Y-60020000D03*
D17*
X102604185Y-93755000D03*
X102604185Y-68755000D03*
D18*
X101184185Y-86795000D03*
D19*
X101184185Y-84025000D03*
X101184185Y-81255000D03*
X101184185Y-78485000D03*
X101184185Y-75715000D03*
X104024185Y-85410000D03*
X104024185Y-82640000D03*
X104024185Y-79870000D03*
X104024185Y-77100000D03*
M02*
