G04 #@! TF.GenerationSoftware,KiCad,Pcbnew,6.0.11+dfsg-1*
G04 #@! TF.CreationDate,2024-04-01T21:29:23-07:00*
G04 #@! TF.ProjectId,car-logger,6361722d-6c6f-4676-9765-722e6b696361,v1*
G04 #@! TF.SameCoordinates,Original*
G04 #@! TF.FileFunction,Copper,L1,Top*
G04 #@! TF.FilePolarity,Positive*
%FSLAX46Y46*%
G04 Gerber Fmt 4.6, Leading zero omitted, Abs format (unit mm)*
G04 Created by KiCad (PCBNEW 6.0.11+dfsg-1) date 2024-04-01 21:29:23*
%MOMM*%
%LPD*%
G01*
G04 APERTURE LIST*
G04 Aperture macros list*
%AMRoundRect*
0 Rectangle with rounded corners*
0 $1 Rounding radius*
0 $2 $3 $4 $5 $6 $7 $8 $9 X,Y pos of 4 corners*
0 Add a 4 corners polygon primitive as box body*
4,1,4,$2,$3,$4,$5,$6,$7,$8,$9,$2,$3,0*
0 Add four circle primitives for the rounded corners*
1,1,$1+$1,$2,$3*
1,1,$1+$1,$4,$5*
1,1,$1+$1,$6,$7*
1,1,$1+$1,$8,$9*
0 Add four rect primitives between the rounded corners*
20,1,$1+$1,$2,$3,$4,$5,0*
20,1,$1+$1,$4,$5,$6,$7,0*
20,1,$1+$1,$6,$7,$8,$9,0*
20,1,$1+$1,$8,$9,$2,$3,0*%
G04 Aperture macros list end*
G04 #@! TA.AperFunction,SMDPad,CuDef*
%ADD10RoundRect,0.200000X-0.275000X0.200000X-0.275000X-0.200000X0.275000X-0.200000X0.275000X0.200000X0*%
G04 #@! TD*
G04 #@! TA.AperFunction,SMDPad,CuDef*
%ADD11R,0.600000X0.450000*%
G04 #@! TD*
G04 #@! TA.AperFunction,SMDPad,CuDef*
%ADD12RoundRect,0.225000X-0.225000X-0.250000X0.225000X-0.250000X0.225000X0.250000X-0.225000X0.250000X0*%
G04 #@! TD*
G04 #@! TA.AperFunction,SMDPad,CuDef*
%ADD13RoundRect,0.075000X0.075000X-0.662500X0.075000X0.662500X-0.075000X0.662500X-0.075000X-0.662500X0*%
G04 #@! TD*
G04 #@! TA.AperFunction,SMDPad,CuDef*
%ADD14RoundRect,0.075000X0.662500X-0.075000X0.662500X0.075000X-0.662500X0.075000X-0.662500X-0.075000X0*%
G04 #@! TD*
G04 #@! TA.AperFunction,SMDPad,CuDef*
%ADD15R,0.450000X0.600000*%
G04 #@! TD*
G04 #@! TA.AperFunction,SMDPad,CuDef*
%ADD16RoundRect,0.225000X0.225000X0.250000X-0.225000X0.250000X-0.225000X-0.250000X0.225000X-0.250000X0*%
G04 #@! TD*
G04 #@! TA.AperFunction,SMDPad,CuDef*
%ADD17RoundRect,0.225000X-0.250000X0.225000X-0.250000X-0.225000X0.250000X-0.225000X0.250000X0.225000X0*%
G04 #@! TD*
G04 #@! TA.AperFunction,SMDPad,CuDef*
%ADD18RoundRect,0.225000X0.250000X-0.225000X0.250000X0.225000X-0.250000X0.225000X-0.250000X-0.225000X0*%
G04 #@! TD*
G04 #@! TA.AperFunction,ComponentPad*
%ADD19R,1.700000X1.700000*%
G04 #@! TD*
G04 #@! TA.AperFunction,ComponentPad*
%ADD20O,1.700000X1.700000*%
G04 #@! TD*
G04 #@! TA.AperFunction,SMDPad,CuDef*
%ADD21R,0.850000X0.280000*%
G04 #@! TD*
G04 #@! TA.AperFunction,SMDPad,CuDef*
%ADD22R,0.280000X0.700000*%
G04 #@! TD*
G04 #@! TA.AperFunction,SMDPad,CuDef*
%ADD23R,1.650000X2.400000*%
G04 #@! TD*
G04 #@! TA.AperFunction,SMDPad,CuDef*
%ADD24RoundRect,0.200000X0.275000X-0.200000X0.275000X0.200000X-0.275000X0.200000X-0.275000X-0.200000X0*%
G04 #@! TD*
G04 #@! TA.AperFunction,SMDPad,CuDef*
%ADD25RoundRect,0.250000X0.650000X-0.325000X0.650000X0.325000X-0.650000X0.325000X-0.650000X-0.325000X0*%
G04 #@! TD*
G04 #@! TA.AperFunction,SMDPad,CuDef*
%ADD26R,1.550000X1.300000*%
G04 #@! TD*
G04 #@! TA.AperFunction,SMDPad,CuDef*
%ADD27RoundRect,0.250000X-0.375000X-0.850000X0.375000X-0.850000X0.375000X0.850000X-0.375000X0.850000X0*%
G04 #@! TD*
G04 #@! TA.AperFunction,SMDPad,CuDef*
%ADD28RoundRect,0.200000X0.200000X0.275000X-0.200000X0.275000X-0.200000X-0.275000X0.200000X-0.275000X0*%
G04 #@! TD*
G04 #@! TA.AperFunction,SMDPad,CuDef*
%ADD29RoundRect,0.150000X-0.512500X-0.150000X0.512500X-0.150000X0.512500X0.150000X-0.512500X0.150000X0*%
G04 #@! TD*
G04 #@! TA.AperFunction,SMDPad,CuDef*
%ADD30RoundRect,0.200000X-0.200000X-0.275000X0.200000X-0.275000X0.200000X0.275000X-0.200000X0.275000X0*%
G04 #@! TD*
G04 #@! TA.AperFunction,SMDPad,CuDef*
%ADD31RoundRect,0.150000X0.150000X-0.512500X0.150000X0.512500X-0.150000X0.512500X-0.150000X-0.512500X0*%
G04 #@! TD*
G04 #@! TA.AperFunction,SMDPad,CuDef*
%ADD32RoundRect,0.150000X0.875000X0.150000X-0.875000X0.150000X-0.875000X-0.150000X0.875000X-0.150000X0*%
G04 #@! TD*
G04 #@! TA.AperFunction,SMDPad,CuDef*
%ADD33RoundRect,0.250000X-0.650000X0.325000X-0.650000X-0.325000X0.650000X-0.325000X0.650000X0.325000X0*%
G04 #@! TD*
G04 #@! TA.AperFunction,ComponentPad*
%ADD34C,0.700000*%
G04 #@! TD*
G04 #@! TA.AperFunction,ComponentPad*
%ADD35C,4.400000*%
G04 #@! TD*
G04 #@! TA.AperFunction,SMDPad,CuDef*
%ADD36RoundRect,0.150000X-0.150000X0.875000X-0.150000X-0.875000X0.150000X-0.875000X0.150000X0.875000X0*%
G04 #@! TD*
G04 #@! TA.AperFunction,SMDPad,CuDef*
%ADD37R,1.000000X1.150000*%
G04 #@! TD*
G04 #@! TA.AperFunction,SMDPad,CuDef*
%ADD38RoundRect,0.250000X-0.712500X-2.475000X0.712500X-2.475000X0.712500X2.475000X-0.712500X2.475000X0*%
G04 #@! TD*
G04 #@! TA.AperFunction,SMDPad,CuDef*
%ADD39R,0.450000X1.300000*%
G04 #@! TD*
G04 #@! TA.AperFunction,ComponentPad*
%ADD40C,2.000000*%
G04 #@! TD*
G04 #@! TA.AperFunction,ComponentPad*
%ADD41C,1.800000*%
G04 #@! TD*
G04 #@! TA.AperFunction,ComponentPad*
%ADD42C,4.000000*%
G04 #@! TD*
G04 #@! TA.AperFunction,ComponentPad*
%ADD43R,1.600000X1.600000*%
G04 #@! TD*
G04 #@! TA.AperFunction,ComponentPad*
%ADD44C,1.600000*%
G04 #@! TD*
G04 #@! TA.AperFunction,SMDPad,CuDef*
%ADD45R,1.780000X0.420000*%
G04 #@! TD*
G04 #@! TA.AperFunction,SMDPad,CuDef*
%ADD46R,3.000000X4.200000*%
G04 #@! TD*
G04 #@! TA.AperFunction,ViaPad*
%ADD47C,0.800000*%
G04 #@! TD*
G04 #@! TA.AperFunction,Conductor*
%ADD48C,0.500000*%
G04 #@! TD*
G04 #@! TA.AperFunction,Conductor*
%ADD49C,0.250000*%
G04 #@! TD*
G04 #@! TA.AperFunction,Conductor*
%ADD50C,0.750000*%
G04 #@! TD*
G04 #@! TA.AperFunction,Conductor*
%ADD51C,0.200000*%
G04 #@! TD*
G04 APERTURE END LIST*
D10*
X103073984Y-102997000D03*
X103073984Y-104647000D03*
D11*
X160240000Y-68740000D03*
X162340000Y-68740000D03*
D12*
X150101000Y-108966000D03*
X151651000Y-108966000D03*
D13*
X157020000Y-80132500D03*
X157520000Y-80132500D03*
X158020000Y-80132500D03*
X158520000Y-80132500D03*
X159020000Y-80132500D03*
X159520000Y-80132500D03*
X160020000Y-80132500D03*
X160520000Y-80132500D03*
X161020000Y-80132500D03*
X161520000Y-80132500D03*
X162020000Y-80132500D03*
X162520000Y-80132500D03*
D14*
X163932500Y-78720000D03*
X163932500Y-78220000D03*
X163932500Y-77720000D03*
X163932500Y-77220000D03*
X163932500Y-76720000D03*
X163932500Y-76220000D03*
X163932500Y-75720000D03*
X163932500Y-75220000D03*
X163932500Y-74720000D03*
X163932500Y-74220000D03*
X163932500Y-73720000D03*
X163932500Y-73220000D03*
D13*
X162520000Y-71807500D03*
X162020000Y-71807500D03*
X161520000Y-71807500D03*
X161020000Y-71807500D03*
X160520000Y-71807500D03*
X160020000Y-71807500D03*
X159520000Y-71807500D03*
X159020000Y-71807500D03*
X158520000Y-71807500D03*
X158020000Y-71807500D03*
X157520000Y-71807500D03*
X157020000Y-71807500D03*
D14*
X155607500Y-73220000D03*
X155607500Y-73720000D03*
X155607500Y-74220000D03*
X155607500Y-74720000D03*
X155607500Y-75220000D03*
X155607500Y-75720000D03*
X155607500Y-76220000D03*
X155607500Y-76720000D03*
X155607500Y-77220000D03*
X155607500Y-77720000D03*
X155607500Y-78220000D03*
X155607500Y-78720000D03*
D15*
X147674516Y-87410000D03*
X147674516Y-85310000D03*
D16*
X155080000Y-81915000D03*
X153530000Y-81915000D03*
D17*
X152400000Y-100571000D03*
X152400000Y-102121000D03*
D18*
X152527000Y-79775000D03*
X152527000Y-78225000D03*
D17*
X157226000Y-103973420D03*
X157226000Y-105523420D03*
X138680000Y-79094420D03*
X138680000Y-80644420D03*
X154686000Y-103973420D03*
X154686000Y-105523420D03*
D16*
X113710000Y-74197900D03*
X112160000Y-74197900D03*
D11*
X170765000Y-68750000D03*
X168665000Y-68750000D03*
D19*
X155000000Y-61020000D03*
D20*
X152460000Y-61020000D03*
X149920000Y-61020000D03*
X147380000Y-61020000D03*
X144840000Y-61020000D03*
D17*
X141220000Y-79094420D03*
X141220000Y-80644420D03*
X152400000Y-104012500D03*
X152400000Y-105562500D03*
D10*
X103073984Y-99441000D03*
X103073984Y-101091000D03*
D17*
X171577000Y-98158000D03*
X171577000Y-99708000D03*
X139446000Y-101714000D03*
X139446000Y-103264000D03*
D18*
X117490000Y-69355000D03*
X117490000Y-67805000D03*
D15*
X111985000Y-76627900D03*
X111985000Y-78727900D03*
D10*
X115265484Y-94425000D03*
X115265484Y-96075000D03*
D21*
X120578484Y-89225710D03*
X120578484Y-89725710D03*
X120578484Y-90225710D03*
X120578484Y-90725710D03*
X120578484Y-91225710D03*
X123528484Y-91225710D03*
X123528484Y-90725710D03*
X123528484Y-90225710D03*
X123528484Y-89725710D03*
X123528484Y-89225710D03*
D22*
X122303484Y-88675710D03*
X122303484Y-91775710D03*
X121803484Y-91775710D03*
X121803484Y-88675710D03*
D23*
X122053484Y-90225710D03*
D18*
X137414000Y-103264000D03*
X137414000Y-101714000D03*
D17*
X118160984Y-87760710D03*
X118160984Y-89310710D03*
D24*
X115795000Y-73215000D03*
X115795000Y-71565000D03*
D25*
X143760000Y-69914420D03*
X143760000Y-66964420D03*
D18*
X141605000Y-102248000D03*
X141605000Y-100698000D03*
D15*
X149860000Y-65820000D03*
X149860000Y-63720000D03*
X111985000Y-72377900D03*
X111985000Y-70277900D03*
D26*
X143675000Y-89880000D03*
X135725000Y-89880000D03*
X135725000Y-85380000D03*
X143675000Y-85380000D03*
D17*
X125743484Y-89240710D03*
X125743484Y-90790710D03*
D18*
X138680000Y-69214420D03*
X138680000Y-67664420D03*
D27*
X145864000Y-98806000D03*
X148014000Y-98806000D03*
D17*
X163322000Y-104762000D03*
X163322000Y-106312000D03*
D24*
X121539000Y-95313000D03*
X121539000Y-93663000D03*
D18*
X141220000Y-69214420D03*
X141220000Y-67664420D03*
D10*
X103073984Y-106504500D03*
X103073984Y-108154500D03*
D16*
X162065000Y-82677000D03*
X160515000Y-82677000D03*
D15*
X154940000Y-65820000D03*
X154940000Y-63720000D03*
D17*
X115476484Y-100699500D03*
X115476484Y-102249500D03*
D28*
X125793000Y-93726000D03*
X124143000Y-93726000D03*
D29*
X166502500Y-104750000D03*
X166502500Y-105700000D03*
X166502500Y-106650000D03*
X168777500Y-106650000D03*
X168777500Y-104750000D03*
D28*
X155320000Y-107442000D03*
X153670000Y-107442000D03*
D10*
X115265484Y-87710710D03*
X115265484Y-89360710D03*
D21*
X110121484Y-100764500D03*
X110121484Y-101264500D03*
X110121484Y-101764500D03*
X110121484Y-102264500D03*
X110121484Y-102764500D03*
X113071484Y-102764500D03*
X113071484Y-102264500D03*
X113071484Y-101764500D03*
X113071484Y-101264500D03*
X113071484Y-100764500D03*
D22*
X111846484Y-103314500D03*
X111846484Y-100214500D03*
X111346484Y-103314500D03*
X111346484Y-100214500D03*
D23*
X111596484Y-101764500D03*
D30*
X106109000Y-109027000D03*
X107759000Y-109027000D03*
X153670000Y-109474000D03*
X155320000Y-109474000D03*
D24*
X115795000Y-76580000D03*
X115795000Y-74930000D03*
D11*
X166500000Y-68740000D03*
X164400000Y-68740000D03*
D10*
X119557516Y-93663000D03*
X119557516Y-95313000D03*
D18*
X149860000Y-79769000D03*
X149860000Y-78219000D03*
D10*
X115265484Y-91123000D03*
X115265484Y-92773000D03*
D17*
X171577000Y-104762000D03*
X171577000Y-106312000D03*
D18*
X120030000Y-69355000D03*
X120030000Y-67805000D03*
D17*
X117490000Y-79357100D03*
X117490000Y-80907100D03*
D31*
X106081484Y-106928500D03*
X107981484Y-106928500D03*
X107031484Y-104653500D03*
D15*
X112014000Y-89696000D03*
X112014000Y-87596000D03*
D16*
X175019000Y-76165000D03*
X173469000Y-76165000D03*
D28*
X137731000Y-71374000D03*
X136081000Y-71374000D03*
D12*
X156324000Y-69088000D03*
X157874000Y-69088000D03*
X160515000Y-85852000D03*
X162065000Y-85852000D03*
D28*
X115506000Y-105537000D03*
X113856000Y-105537000D03*
D17*
X166243000Y-72631000D03*
X166243000Y-74181000D03*
X141605000Y-104635000D03*
X141605000Y-106185000D03*
X163322000Y-98144420D03*
X163322000Y-99694420D03*
D18*
X135255000Y-103264000D03*
X135255000Y-101714000D03*
D32*
X132810000Y-79375000D03*
X132810000Y-78105000D03*
X132810000Y-76835000D03*
X132810000Y-75565000D03*
X132810000Y-74295000D03*
X132810000Y-73025000D03*
X132810000Y-71755000D03*
X132810000Y-70485000D03*
X132810000Y-69215000D03*
X132810000Y-67945000D03*
X123510000Y-67945000D03*
X123510000Y-69215000D03*
X123510000Y-70485000D03*
X123510000Y-71755000D03*
X123510000Y-73025000D03*
X123510000Y-74295000D03*
X123510000Y-75565000D03*
X123510000Y-76835000D03*
X123510000Y-78105000D03*
X123510000Y-79375000D03*
D15*
X152400000Y-65820000D03*
X152400000Y-63720000D03*
D28*
X152590000Y-73914000D03*
X150940000Y-73914000D03*
D33*
X143760000Y-78394420D03*
X143760000Y-81344420D03*
D15*
X147320000Y-65820000D03*
X147320000Y-63720000D03*
D34*
X97790000Y-60580000D03*
X96623274Y-61063274D03*
X99440000Y-62230000D03*
D35*
X97790000Y-62230000D03*
D34*
X96623274Y-63396726D03*
X98956726Y-63396726D03*
X96140000Y-62230000D03*
X98956726Y-61063274D03*
X97790000Y-63880000D03*
D17*
X106680000Y-99428000D03*
X106680000Y-100978000D03*
X157734000Y-84569000D03*
X157734000Y-86119000D03*
D36*
X176209516Y-79135000D03*
X174939516Y-79135000D03*
X173669516Y-79135000D03*
X172399516Y-79135000D03*
X171129516Y-79135000D03*
X169859516Y-79135000D03*
X168589516Y-79135000D03*
X167319516Y-79135000D03*
X167319516Y-88435000D03*
X168589516Y-88435000D03*
X169859516Y-88435000D03*
X171129516Y-88435000D03*
X172399516Y-88435000D03*
X173669516Y-88435000D03*
X174939516Y-88435000D03*
X176209516Y-88435000D03*
D17*
X120030000Y-79357100D03*
X120030000Y-80907100D03*
D18*
X136140000Y-69214420D03*
X136140000Y-67664420D03*
X154686000Y-102121000D03*
X154686000Y-100571000D03*
X157226000Y-102050420D03*
X157226000Y-100500420D03*
D34*
X174814516Y-62230000D03*
X175297790Y-61063274D03*
X178114516Y-62230000D03*
D35*
X176464516Y-62230000D03*
D34*
X177631242Y-63396726D03*
X176464516Y-60580000D03*
X177631242Y-61063274D03*
X175297790Y-63396726D03*
X176464516Y-63880000D03*
D18*
X159766000Y-102051000D03*
X159766000Y-100501000D03*
X114950000Y-69355000D03*
X114950000Y-67805000D03*
D34*
X97724516Y-105960000D03*
X96074516Y-107610000D03*
X98891242Y-106443274D03*
X96557790Y-106443274D03*
X99374516Y-107610000D03*
X97724516Y-109260000D03*
X98891242Y-108776726D03*
D35*
X97724516Y-107610000D03*
D34*
X96557790Y-108776726D03*
D37*
X153605000Y-84723000D03*
X153605000Y-86473000D03*
X155005000Y-86473000D03*
X155005000Y-84723000D03*
D38*
X123231500Y-104902000D03*
X130006500Y-104902000D03*
D29*
X166502500Y-98110000D03*
X166502500Y-99060000D03*
X166502500Y-100010000D03*
X168777500Y-100010000D03*
X168777500Y-98110000D03*
D34*
X177631242Y-106193274D03*
X174814516Y-107360000D03*
X175297790Y-106193274D03*
X177631242Y-108526726D03*
X178114516Y-107360000D03*
D35*
X176464516Y-107360000D03*
D34*
X175297790Y-108526726D03*
X176464516Y-109010000D03*
X176464516Y-105710000D03*
D39*
X165130000Y-63870000D03*
X164480000Y-63870000D03*
X163830000Y-63870000D03*
X163180000Y-63870000D03*
X162530000Y-63870000D03*
D40*
X160105000Y-63820000D03*
D41*
X159955000Y-60020000D03*
D40*
X167555000Y-63820000D03*
D41*
X167705000Y-60020000D03*
D42*
X102604185Y-93755000D03*
X102604185Y-68755000D03*
D43*
X101184185Y-86795000D03*
D44*
X101184185Y-84025000D03*
X101184185Y-81255000D03*
X101184185Y-78485000D03*
X101184185Y-75715000D03*
X104024185Y-85410000D03*
X104024185Y-82640000D03*
X104024185Y-79870000D03*
X104024185Y-77100000D03*
D17*
X136110000Y-79094420D03*
X136110000Y-80644420D03*
D45*
X144130000Y-101569420D03*
X144130000Y-102219420D03*
X144130000Y-102869420D03*
X144130000Y-103519420D03*
X144130000Y-104169420D03*
X144130000Y-104819420D03*
X144130000Y-105469420D03*
X144130000Y-106119420D03*
X144130000Y-106769420D03*
X144130000Y-107419420D03*
X150070000Y-107419420D03*
X150070000Y-106769420D03*
X150070000Y-106119420D03*
X150070000Y-105469420D03*
X150070000Y-104819420D03*
X150070000Y-104169420D03*
X150070000Y-103519420D03*
X150070000Y-102869420D03*
X150070000Y-102219420D03*
X150070000Y-101569420D03*
D46*
X147100000Y-104494420D03*
D47*
X145542000Y-78232000D03*
X155194000Y-69342000D03*
X167386000Y-72644000D03*
X175006000Y-74930000D03*
X138811000Y-71374000D03*
X162052000Y-83820000D03*
X148590000Y-67818000D03*
X165227000Y-95123000D03*
X148717000Y-79756000D03*
X144780000Y-83820000D03*
X152400000Y-91440000D03*
X132080000Y-63500000D03*
X167386000Y-74168000D03*
X175006000Y-90170000D03*
X177800000Y-76200000D03*
X136144000Y-66548000D03*
X148590000Y-91440000D03*
X121920000Y-60960000D03*
X106680000Y-60960000D03*
X132080000Y-93980000D03*
X177800000Y-86360000D03*
X97790000Y-78740000D03*
X137160000Y-91440000D03*
X177800000Y-71120000D03*
X141224000Y-81788000D03*
X157734000Y-87249000D03*
X160528000Y-83820000D03*
X136110000Y-81754000D03*
X127000000Y-86360000D03*
X140970000Y-96520000D03*
X107950000Y-88900000D03*
X159766000Y-99441000D03*
X109347000Y-106934000D03*
X177800000Y-91440000D03*
X173482000Y-74930000D03*
X160020000Y-77470000D03*
X105410000Y-100965000D03*
X116840000Y-60960000D03*
X148082000Y-104902000D03*
X167640000Y-86360000D03*
X132080000Y-86360000D03*
X172720000Y-60960000D03*
X149860000Y-66802000D03*
X153670000Y-87757000D03*
X171577000Y-100838000D03*
X172720000Y-63500000D03*
X159004000Y-69088000D03*
X121920000Y-99060000D03*
X97790000Y-73660000D03*
X152400000Y-96520000D03*
X111760000Y-63500000D03*
X135255000Y-100584000D03*
X171577000Y-107442000D03*
X148590000Y-96520000D03*
X113665000Y-103759000D03*
X169799000Y-68707000D03*
X161163000Y-68707000D03*
X144780000Y-91440000D03*
X101600000Y-60960000D03*
X132080000Y-83820000D03*
X127000000Y-90805000D03*
X149860000Y-73914000D03*
X134493000Y-73025000D03*
X134493000Y-75565000D03*
X101600000Y-63500000D03*
X158750000Y-96520000D03*
X137160000Y-99060000D03*
X163195000Y-85852000D03*
X165100000Y-91440000D03*
X121920000Y-63500000D03*
X140335000Y-106159000D03*
X152400000Y-66802000D03*
X137414000Y-100584000D03*
X158242000Y-105537000D03*
X154686000Y-99441000D03*
X111760000Y-96520000D03*
X97790000Y-83820000D03*
X121920000Y-83820000D03*
X175260000Y-82550000D03*
X139700000Y-83820000D03*
X116967000Y-89281000D03*
X162179000Y-106299000D03*
X118110000Y-105410000D03*
X147696701Y-86491299D03*
X106680000Y-63500000D03*
X163322000Y-100838000D03*
X177800000Y-96520000D03*
X99060000Y-91440000D03*
X112014000Y-77597000D03*
X134239000Y-89916000D03*
X137160000Y-96520000D03*
X97790000Y-88900000D03*
X99060000Y-68580000D03*
X145669000Y-101600000D03*
X145288000Y-66929000D03*
X119634000Y-96393000D03*
X145415000Y-81280000D03*
X112014000Y-71374000D03*
X108839000Y-109093000D03*
X147320000Y-66802000D03*
X177800000Y-66040000D03*
X170180000Y-63500000D03*
X157226000Y-99441000D03*
X146050000Y-104902000D03*
X162560000Y-96520000D03*
X118110000Y-99060000D03*
X154940000Y-66802000D03*
X177800000Y-81280000D03*
X152400000Y-81915000D03*
X116840000Y-83820000D03*
X148717000Y-78232000D03*
X99060000Y-99060000D03*
X138684000Y-81788000D03*
X99060000Y-104140000D03*
X145034000Y-89916000D03*
X156337000Y-109474000D03*
X127000000Y-63500000D03*
X147066000Y-106045000D03*
X134620000Y-83820000D03*
X141224000Y-66548000D03*
X132080000Y-96520000D03*
X151638000Y-110109000D03*
X172720000Y-69850000D03*
X146050000Y-102870000D03*
X170180000Y-109220000D03*
X96520000Y-104140000D03*
X111760000Y-83820000D03*
X96520000Y-99060000D03*
X147066000Y-103886000D03*
X124079000Y-92456000D03*
X148082000Y-102870000D03*
X115570000Y-103378000D03*
X111760000Y-60960000D03*
X116840000Y-63500000D03*
X170180000Y-60960000D03*
X127000000Y-83820000D03*
X106680000Y-91440000D03*
X139446000Y-100584000D03*
X175260000Y-86360000D03*
X167640000Y-82550000D03*
X139700000Y-87630000D03*
X144780000Y-96520000D03*
X155909500Y-105537000D03*
X153543000Y-105537000D03*
X165481000Y-68834000D03*
X112014000Y-88773000D03*
X138684000Y-66548000D03*
X137160000Y-63500000D03*
X177800000Y-101600000D03*
X156210000Y-83820000D03*
X151384000Y-78232000D03*
X140970000Y-91440000D03*
X121920000Y-86360000D03*
X132080000Y-99060000D03*
X152781000Y-71628000D03*
X160020000Y-78486000D03*
X145415000Y-69850000D03*
X167005000Y-102235000D03*
X110270000Y-87664000D03*
X122936000Y-95250000D03*
X104902000Y-109093000D03*
X169926000Y-70231000D03*
X106680000Y-98044000D03*
X113665000Y-69342000D03*
X116332000Y-79248000D03*
X110998000Y-74168000D03*
X121793000Y-75565000D03*
X116362000Y-80899000D03*
X121793000Y-74295000D03*
X113665000Y-67818000D03*
X120015000Y-82042000D03*
X117475000Y-66675000D03*
X121793000Y-73025000D03*
X120015000Y-66675000D03*
X153670000Y-67818000D03*
X155629079Y-71827921D03*
X168656000Y-77343000D03*
X164592000Y-80010000D03*
X168656000Y-90551000D03*
X165481000Y-76327000D03*
D48*
X134620000Y-79375000D02*
X134874000Y-79121000D01*
X174939516Y-77530516D02*
X175019000Y-77451032D01*
D49*
X147540000Y-63720000D02*
X148590000Y-64770000D01*
D48*
X134874000Y-79121000D02*
X136083420Y-79121000D01*
D50*
X171577000Y-98158000D02*
X171577000Y-95758000D01*
D49*
X163932500Y-73220000D02*
X165032000Y-73220000D01*
D50*
X143922420Y-78232000D02*
X143760000Y-78394420D01*
D49*
X165032000Y-73220000D02*
X165621000Y-72631000D01*
D50*
X141220000Y-79094420D02*
X142139580Y-79094420D01*
X142139580Y-79094420D02*
X142839580Y-78394420D01*
D49*
X147320000Y-63720000D02*
X147320000Y-61080000D01*
D50*
X145542000Y-78232000D02*
X143922420Y-78232000D01*
D49*
X148590000Y-67310000D02*
X148590000Y-67818000D01*
X165621000Y-72631000D02*
X166243000Y-72631000D01*
X154579000Y-78720000D02*
X153524000Y-79775000D01*
D48*
X168777500Y-98110000D02*
X171529000Y-98110000D01*
D50*
X148730000Y-79769000D02*
X148717000Y-79756000D01*
X149860000Y-79769000D02*
X152521000Y-79769000D01*
X171577000Y-95758000D02*
X170942000Y-95123000D01*
X162065000Y-82677000D02*
X162065000Y-83807000D01*
D48*
X175019000Y-77451032D02*
X175019000Y-76165000D01*
D50*
X155194000Y-69342000D02*
X155448000Y-69088000D01*
X155448000Y-69088000D02*
X156324000Y-69088000D01*
X166243000Y-72631000D02*
X167373000Y-72631000D01*
X170942000Y-95123000D02*
X165227000Y-95123000D01*
D49*
X155607500Y-78720000D02*
X154579000Y-78720000D01*
X157020000Y-71807500D02*
X157020000Y-70406000D01*
X153524000Y-79775000D02*
X152527000Y-79775000D01*
D50*
X175019000Y-76165000D02*
X175019000Y-74943000D01*
X138680000Y-79094420D02*
X141220000Y-79094420D01*
X162065000Y-83807000D02*
X162052000Y-83820000D01*
X142839580Y-78394420D02*
X143760000Y-78394420D01*
X137731000Y-71374000D02*
X138811000Y-71374000D01*
D49*
X157020000Y-70406000D02*
X156324000Y-69710000D01*
D50*
X136110000Y-79094420D02*
X138680000Y-79094420D01*
X167373000Y-72631000D02*
X167386000Y-72644000D01*
D49*
X162065000Y-82055000D02*
X162065000Y-82677000D01*
X161020000Y-80132500D02*
X161020000Y-81010000D01*
X161020000Y-81010000D02*
X162065000Y-82055000D01*
D48*
X132810000Y-79375000D02*
X134620000Y-79375000D01*
D49*
X147320000Y-63720000D02*
X147540000Y-63720000D01*
D50*
X149860000Y-79769000D02*
X148730000Y-79769000D01*
D48*
X174939516Y-79135000D02*
X174939516Y-77530516D01*
D49*
X148590000Y-64770000D02*
X148590000Y-67310000D01*
X156324000Y-69710000D02*
X156324000Y-69088000D01*
D50*
X175019000Y-74943000D02*
X175006000Y-74930000D01*
X144998000Y-89880000D02*
X145034000Y-89916000D01*
X153530000Y-81915000D02*
X152400000Y-81915000D01*
D48*
X132810000Y-73025000D02*
X134493000Y-73025000D01*
X141220000Y-81784000D02*
X141224000Y-81788000D01*
D49*
X165494000Y-74181000D02*
X166243000Y-74181000D01*
D50*
X141220000Y-80644420D02*
X141985420Y-80644420D01*
X160230001Y-63945001D02*
X162380000Y-63945001D01*
X143760000Y-81344420D02*
X145350580Y-81344420D01*
X105423000Y-100978000D02*
X105410000Y-100965000D01*
D49*
X123528484Y-91225710D02*
X123528484Y-91905484D01*
X113071484Y-103165484D02*
X113665000Y-103759000D01*
D50*
X171577000Y-106312000D02*
X171577000Y-107442000D01*
X135255000Y-101714000D02*
X135255000Y-100584000D01*
D49*
X147674516Y-87410000D02*
X147674516Y-86513484D01*
X112014000Y-72263000D02*
X112014000Y-71374000D01*
D50*
X154686000Y-105523420D02*
X155895920Y-105523420D01*
X138680000Y-67664420D02*
X138680000Y-66552000D01*
X138680000Y-67664420D02*
X141220000Y-67664420D01*
D48*
X132810000Y-75565000D02*
X134493000Y-75565000D01*
D50*
X141985420Y-80644420D02*
X142685420Y-81344420D01*
X141220000Y-80644420D02*
X141220000Y-81784000D01*
X151391000Y-78225000D02*
X151384000Y-78232000D01*
X141220000Y-67664420D02*
X141220000Y-66552000D01*
D49*
X123528484Y-91905484D02*
X124079000Y-92456000D01*
D50*
X143675000Y-89880000D02*
X144998000Y-89880000D01*
X136110000Y-80644420D02*
X136110000Y-81754000D01*
X151651000Y-108966000D02*
X151651000Y-110096000D01*
X166243000Y-74181000D02*
X167373000Y-74181000D01*
X134275000Y-89880000D02*
X134239000Y-89916000D01*
X148730000Y-78219000D02*
X148717000Y-78232000D01*
D49*
X154940000Y-65820000D02*
X154940000Y-66802000D01*
D50*
X118160984Y-89310710D02*
X116996710Y-89310710D01*
D48*
X166502500Y-105700000D02*
X165064000Y-105700000D01*
X134900580Y-67664420D02*
X136140000Y-67664420D01*
D49*
X147320000Y-65820000D02*
X147320000Y-66802000D01*
X144130000Y-106769420D02*
X145230000Y-106769420D01*
D50*
X141220000Y-67664420D02*
X142012580Y-67664420D01*
X125743484Y-90790710D02*
X126985710Y-90790710D01*
X171577000Y-99708000D02*
X171577000Y-100838000D01*
X160515000Y-82677000D02*
X160515000Y-83807000D01*
X108773000Y-109027000D02*
X108839000Y-109093000D01*
D49*
X145437580Y-107419420D02*
X147100000Y-105757000D01*
X160515000Y-81547000D02*
X160520000Y-81542000D01*
D50*
X119557516Y-96316516D02*
X119634000Y-96393000D01*
D48*
X164452000Y-106312000D02*
X163322000Y-106312000D01*
D49*
X157874000Y-70091000D02*
X157874000Y-69088000D01*
D50*
X157226000Y-100500420D02*
X157226000Y-99441000D01*
D49*
X165575000Y-68740000D02*
X165481000Y-68834000D01*
X160240000Y-68740000D02*
X161130000Y-68740000D01*
D50*
X167705000Y-60020000D02*
X167705000Y-63670000D01*
D48*
X136140000Y-66552000D02*
X136144000Y-66548000D01*
X165064000Y-105700000D02*
X164452000Y-106312000D01*
D50*
X160515000Y-83807000D02*
X160528000Y-83820000D01*
X159955000Y-60020000D02*
X159955000Y-63670000D01*
D48*
X174939516Y-90103516D02*
X175006000Y-90170000D01*
D50*
X152527000Y-78225000D02*
X151391000Y-78225000D01*
D49*
X152400000Y-65820000D02*
X152400000Y-66802000D01*
D50*
X153605000Y-86473000D02*
X153605000Y-87692000D01*
D49*
X111985000Y-77568000D02*
X112014000Y-77597000D01*
D50*
X159955000Y-60020000D02*
X167705000Y-60020000D01*
D49*
X170765000Y-68750000D02*
X169842000Y-68750000D01*
D50*
X150940000Y-73914000D02*
X149860000Y-73914000D01*
X158228420Y-105523420D02*
X158242000Y-105537000D01*
D49*
X160520000Y-81542000D02*
X160520000Y-80132500D01*
D50*
X173469000Y-74943000D02*
X173482000Y-74930000D01*
X115476484Y-102249500D02*
X115476484Y-103284484D01*
D49*
X150070000Y-106119420D02*
X147140420Y-106119420D01*
X150070000Y-102869420D02*
X148082580Y-102869420D01*
D48*
X141220000Y-66552000D02*
X141224000Y-66548000D01*
D50*
X136140000Y-67664420D02*
X138680000Y-67664420D01*
D49*
X161130000Y-68740000D02*
X161163000Y-68707000D01*
D50*
X149860000Y-78219000D02*
X148730000Y-78219000D01*
X137414000Y-101714000D02*
X137414000Y-100584000D01*
D48*
X174939516Y-88435000D02*
X174939516Y-90103516D01*
D50*
X140361000Y-106185000D02*
X140335000Y-106159000D01*
D49*
X157520000Y-70445000D02*
X157874000Y-70091000D01*
D50*
X115476484Y-103284484D02*
X115570000Y-103378000D01*
X155307000Y-84723000D02*
X156210000Y-83820000D01*
X155895920Y-105523420D02*
X155909500Y-105537000D01*
X142712580Y-66964420D02*
X143760000Y-66964420D01*
X135725000Y-89880000D02*
X134275000Y-89880000D01*
X173469000Y-76165000D02*
X173469000Y-74943000D01*
X156337000Y-109474000D02*
X155320000Y-109474000D01*
X141220000Y-80644420D02*
X138680000Y-80644420D01*
D49*
X166500000Y-68740000D02*
X165575000Y-68740000D01*
D48*
X164592580Y-99694420D02*
X163322000Y-99694420D01*
D49*
X157520000Y-71807500D02*
X157520000Y-70445000D01*
D50*
X151651000Y-110096000D02*
X151638000Y-110109000D01*
D49*
X144130000Y-101569420D02*
X145638420Y-101569420D01*
D50*
X154686000Y-100571000D02*
X154686000Y-99441000D01*
X152400000Y-105562500D02*
X153517500Y-105562500D01*
D49*
X112014000Y-88773000D02*
X112014000Y-89696000D01*
D50*
X155005000Y-84723000D02*
X155307000Y-84723000D01*
X139446000Y-101714000D02*
X139446000Y-100584000D01*
X119557516Y-95313000D02*
X119557516Y-96316516D01*
D49*
X165033000Y-73720000D02*
X165494000Y-74181000D01*
D50*
X143795420Y-66929000D02*
X143760000Y-66964420D01*
D49*
X160515000Y-82677000D02*
X160515000Y-81547000D01*
X144130000Y-105469420D02*
X146125000Y-105469420D01*
D50*
X142012580Y-67664420D02*
X142712580Y-66964420D01*
D49*
X155607500Y-78220000D02*
X153936000Y-78220000D01*
D50*
X145288000Y-66929000D02*
X143795420Y-66929000D01*
D49*
X109341500Y-106928500D02*
X109347000Y-106934000D01*
D48*
X165227000Y-99060000D02*
X164592580Y-99694420D01*
X138680000Y-81784000D02*
X138684000Y-81788000D01*
D49*
X149860000Y-65820000D02*
X149860000Y-66802000D01*
X144130000Y-107419420D02*
X145437580Y-107419420D01*
D50*
X159766000Y-100501000D02*
X159766000Y-99441000D01*
X141605000Y-106185000D02*
X140361000Y-106185000D01*
D49*
X169842000Y-68750000D02*
X169799000Y-68707000D01*
D50*
X157226000Y-105523420D02*
X158228420Y-105523420D01*
X136140000Y-67664420D02*
X136140000Y-66552000D01*
X106680000Y-100978000D02*
X105423000Y-100978000D01*
X142685420Y-81344420D02*
X143760000Y-81344420D01*
X157734000Y-86119000D02*
X157734000Y-87249000D01*
D49*
X163932500Y-73720000D02*
X165033000Y-73720000D01*
D50*
X167373000Y-74181000D02*
X167386000Y-74168000D01*
D48*
X134620000Y-67945000D02*
X134900580Y-67664420D01*
D50*
X157874000Y-69088000D02*
X159004000Y-69088000D01*
D49*
X153924000Y-78232000D02*
X152534000Y-78232000D01*
D48*
X132810000Y-67945000D02*
X134620000Y-67945000D01*
D50*
X138680000Y-80644420D02*
X136110000Y-80644420D01*
D49*
X107981484Y-106928500D02*
X109341500Y-106928500D01*
X147674516Y-86513484D02*
X147696701Y-86491299D01*
D50*
X126985710Y-90790710D02*
X127000000Y-90805000D01*
X107759000Y-109027000D02*
X108773000Y-109027000D01*
X153605000Y-87692000D02*
X153670000Y-87757000D01*
X163322000Y-99694420D02*
X163322000Y-100838000D01*
X145350580Y-81344420D02*
X145415000Y-81280000D01*
D48*
X138680000Y-66552000D02*
X138684000Y-66548000D01*
D49*
X145230000Y-106769420D02*
X147100000Y-104899420D01*
X145638420Y-101569420D02*
X145669000Y-101600000D01*
D48*
X166502500Y-99060000D02*
X165227000Y-99060000D01*
D50*
X162065000Y-85852000D02*
X163195000Y-85852000D01*
D49*
X113071484Y-102764500D02*
X113071484Y-103165484D01*
D50*
X116996710Y-89310710D02*
X116967000Y-89281000D01*
D49*
X111985000Y-76627900D02*
X111985000Y-77568000D01*
D50*
X162192000Y-106312000D02*
X162179000Y-106299000D01*
X138680000Y-80644420D02*
X138680000Y-81784000D01*
X163322000Y-106312000D02*
X162192000Y-106312000D01*
D49*
X153936000Y-78220000D02*
X153924000Y-78232000D01*
X158115000Y-89535000D02*
X160515000Y-87135000D01*
X159258000Y-85344000D02*
X159766000Y-85852000D01*
X147674516Y-85310000D02*
X148175000Y-85310000D01*
X151130000Y-64770000D02*
X151130000Y-69977000D01*
X160020000Y-81534000D02*
X159258000Y-82296000D01*
X159766000Y-85852000D02*
X160515000Y-85852000D01*
X159258000Y-82296000D02*
X159258000Y-85344000D01*
X150080000Y-63720000D02*
X151130000Y-64770000D01*
X160020000Y-80132500D02*
X160020000Y-81534000D01*
X152400000Y-89535000D02*
X158115000Y-89535000D01*
X135725000Y-85380000D02*
X143675000Y-85380000D01*
X151130000Y-69977000D02*
X152781000Y-71628000D01*
X160020000Y-78486000D02*
X160020000Y-80132500D01*
X160515000Y-87135000D02*
X160515000Y-85852000D01*
X149860000Y-63720000D02*
X150080000Y-63720000D01*
X148175000Y-85310000D02*
X152400000Y-89535000D01*
X149860000Y-63720000D02*
X149860000Y-61080000D01*
X143675000Y-85380000D02*
X147604516Y-85380000D01*
X154122000Y-82931000D02*
X154813000Y-82931000D01*
X155080000Y-82664000D02*
X155080000Y-81915000D01*
X153505000Y-83548000D02*
X154122000Y-82931000D01*
X155080000Y-81915000D02*
X158040685Y-81915000D01*
X159020000Y-80935685D02*
X159020000Y-80132500D01*
X154813000Y-82931000D02*
X155080000Y-82664000D01*
X153505000Y-84498000D02*
X153505000Y-83548000D01*
X158040685Y-81915000D02*
X159020000Y-80935685D01*
X157112000Y-84569000D02*
X156464000Y-85217000D01*
X155999000Y-86698000D02*
X155105000Y-86698000D01*
X156464000Y-85217000D02*
X156464000Y-86233000D01*
X156464000Y-86233000D02*
X155999000Y-86698000D01*
X159520000Y-80132500D02*
X159520000Y-81272000D01*
X159520000Y-81272000D02*
X157734000Y-83058000D01*
X157734000Y-83058000D02*
X157734000Y-84569000D01*
X157734000Y-84569000D02*
X157112000Y-84569000D01*
D50*
X141220000Y-69214420D02*
X142112420Y-69214420D01*
X142812420Y-69914420D02*
X143760000Y-69914420D01*
D48*
X168777500Y-104750000D02*
X171565000Y-104750000D01*
D50*
X171577000Y-103632000D02*
X171577000Y-104762000D01*
X138680000Y-69214420D02*
X141220000Y-69214420D01*
X142112420Y-69214420D02*
X142812420Y-69914420D01*
X136140000Y-69214420D02*
X138680000Y-69214420D01*
D48*
X132810000Y-69215000D02*
X136139420Y-69215000D01*
D50*
X167005000Y-102235000D02*
X170180000Y-102235000D01*
X170180000Y-102235000D02*
X171577000Y-103632000D01*
X143824420Y-69850000D02*
X143760000Y-69914420D01*
X145415000Y-69850000D02*
X143824420Y-69850000D01*
D49*
X120578484Y-89225710D02*
X120578484Y-88574484D01*
D48*
X110338000Y-87596000D02*
X112014000Y-87596000D01*
D49*
X120578484Y-88574484D02*
X120523000Y-88519000D01*
X122873000Y-95313000D02*
X122936000Y-95250000D01*
X106043000Y-109093000D02*
X106109000Y-109027000D01*
D50*
X115265484Y-87710710D02*
X118110984Y-87710710D01*
D48*
X110270000Y-87664000D02*
X110338000Y-87596000D01*
D50*
X118160984Y-87760710D02*
X119764710Y-87760710D01*
D49*
X104902000Y-109093000D02*
X106043000Y-109093000D01*
X121539000Y-95313000D02*
X122873000Y-95313000D01*
X106109000Y-109027000D02*
X106109000Y-106956016D01*
D50*
X119764710Y-87760710D02*
X120523000Y-88519000D01*
D48*
X112014000Y-87596000D02*
X115150774Y-87596000D01*
D49*
X106109000Y-106956016D02*
X106081484Y-106928500D01*
X110121484Y-99961484D02*
X110121484Y-100764500D01*
X167132000Y-67056000D02*
X168275000Y-67056000D01*
X110109000Y-99949000D02*
X110121484Y-99961484D01*
X168665000Y-69605000D02*
X168665000Y-68750000D01*
X169291000Y-70231000D02*
X168665000Y-69605000D01*
X168656000Y-67437000D02*
X168656000Y-68741000D01*
D50*
X106680000Y-99428000D02*
X109588000Y-99428000D01*
D49*
X165130000Y-63870000D02*
X165130000Y-65054000D01*
X165130000Y-65054000D02*
X167132000Y-67056000D01*
X168275000Y-67056000D02*
X168656000Y-67437000D01*
X106680000Y-99428000D02*
X103086984Y-99428000D01*
D50*
X106680000Y-98044000D02*
X106680000Y-99428000D01*
X109588000Y-99428000D02*
X110109000Y-99949000D01*
D49*
X169926000Y-70231000D02*
X169291000Y-70231000D01*
D50*
X114184500Y-100699500D02*
X114173000Y-100711000D01*
D49*
X114119500Y-100764500D02*
X114173000Y-100711000D01*
D50*
X129540000Y-97409000D02*
X126619000Y-100330000D01*
X127975710Y-89240710D02*
X129540000Y-90805000D01*
X115476484Y-100699500D02*
X114184500Y-100699500D01*
X126619000Y-100330000D02*
X124079000Y-100330000D01*
X115476484Y-100699500D02*
X117209500Y-100699500D01*
D49*
X123528484Y-89225710D02*
X124515290Y-89225710D01*
D50*
X124530290Y-89240710D02*
X124515290Y-89225710D01*
X124079000Y-100330000D02*
X123231500Y-101177500D01*
X125743484Y-89240710D02*
X124530290Y-89240710D01*
X129540000Y-90805000D02*
X129540000Y-97409000D01*
X125743484Y-89240710D02*
X127975710Y-89240710D01*
D49*
X113071484Y-100764500D02*
X114119500Y-100764500D01*
D50*
X121412000Y-104902000D02*
X123231500Y-104902000D01*
X117209500Y-100699500D02*
X121412000Y-104902000D01*
X123231500Y-101177500D02*
X123231500Y-104902000D01*
D49*
X142621000Y-105791000D02*
X142621000Y-105029000D01*
X144130000Y-106119420D02*
X142949420Y-106119420D01*
X142949420Y-106119420D02*
X142621000Y-105791000D01*
X142240000Y-102235000D02*
X141618000Y-102235000D01*
X144130000Y-102869420D02*
X142874420Y-102869420D01*
X142874420Y-102869420D02*
X142240000Y-102235000D01*
X142494000Y-100965000D02*
X142227000Y-100698000D01*
X142227000Y-100698000D02*
X141605000Y-100698000D01*
X142494000Y-101723420D02*
X142494000Y-100965000D01*
X142990000Y-102219420D02*
X142494000Y-101723420D01*
X144130000Y-102219420D02*
X142990000Y-102219420D01*
X150070000Y-102219420D02*
X151251458Y-102219420D01*
X151638000Y-101832878D02*
X152111878Y-101832878D01*
X151251458Y-102219420D02*
X151638000Y-101832878D01*
X151219420Y-106769420D02*
X151511000Y-107061000D01*
X151511000Y-107061000D02*
X151511000Y-107696000D01*
X150070000Y-106769420D02*
X151219420Y-106769420D01*
X150101000Y-108966000D02*
X150101000Y-107450420D01*
X151511000Y-107696000D02*
X150241000Y-108966000D01*
D50*
X117490000Y-69355000D02*
X120030000Y-69355000D01*
D48*
X123510000Y-70485000D02*
X123510000Y-69215000D01*
X113678000Y-69355000D02*
X113665000Y-69342000D01*
X117490000Y-79357100D02*
X120030000Y-79357100D01*
D50*
X114950000Y-69355000D02*
X113678000Y-69355000D01*
X114950000Y-69355000D02*
X117490000Y-69355000D01*
D48*
X116332000Y-79248000D02*
X117380900Y-79248000D01*
X123510000Y-69215000D02*
X120170000Y-69215000D01*
X120030000Y-79357100D02*
X123492100Y-79357100D01*
D50*
X113665000Y-67818000D02*
X114937000Y-67818000D01*
X112160000Y-74197900D02*
X111027900Y-74197900D01*
D48*
X123510000Y-75565000D02*
X121793000Y-75565000D01*
D50*
X117490000Y-67805000D02*
X120030000Y-67805000D01*
D48*
X120015000Y-66675000D02*
X120030000Y-66690000D01*
D50*
X120030000Y-66690000D02*
X120030000Y-67805000D01*
X114950000Y-67805000D02*
X117490000Y-67805000D01*
X117490000Y-66690000D02*
X117490000Y-67805000D01*
X111027900Y-74197900D02*
X110998000Y-74168000D01*
D48*
X123510000Y-73025000D02*
X121793000Y-73025000D01*
X117475000Y-66675000D02*
X117490000Y-66690000D01*
D50*
X117490000Y-80907100D02*
X120030000Y-80907100D01*
D48*
X123510000Y-74295000D02*
X121793000Y-74295000D01*
X123510000Y-67945000D02*
X120170000Y-67945000D01*
X120015000Y-82042000D02*
X120030000Y-82027000D01*
D50*
X116362000Y-80899000D02*
X117481900Y-80899000D01*
X120030000Y-82027000D02*
X120030000Y-80907100D01*
X114812100Y-74197900D02*
X115795000Y-73215000D01*
X115062900Y-74197900D02*
X115795000Y-74930000D01*
X113710000Y-74197900D02*
X115062900Y-74197900D01*
X113710000Y-74197900D02*
X114812100Y-74197900D01*
D49*
X156210000Y-64770000D02*
X156210000Y-66802000D01*
X154627000Y-73220000D02*
X155607500Y-73220000D01*
X154940000Y-63720000D02*
X154940000Y-61080000D01*
X154940000Y-63720000D02*
X155160000Y-63720000D01*
X156210000Y-66802000D02*
X154051000Y-68961000D01*
X155160000Y-63720000D02*
X156210000Y-64770000D01*
X154051000Y-68961000D02*
X154051000Y-72644000D01*
X154051000Y-72644000D02*
X154627000Y-73220000D01*
X111985000Y-78727900D02*
X114566100Y-78727900D01*
X108610000Y-81255000D02*
X111137100Y-78727900D01*
X118491000Y-78105000D02*
X123510000Y-78105000D01*
X111137100Y-78727900D02*
X111985000Y-78727900D01*
X116966000Y-76580000D02*
X118491000Y-78105000D01*
X114566100Y-78727900D02*
X115795000Y-77499000D01*
X115795000Y-77499000D02*
X115795000Y-76580000D01*
X101184185Y-81255000D02*
X108610000Y-81255000D01*
X115795000Y-76580000D02*
X116966000Y-76580000D01*
D51*
X162340000Y-69562000D02*
X161925000Y-69977000D01*
X159004000Y-69977000D02*
X158520000Y-70461000D01*
X163830000Y-66799999D02*
X163830000Y-63870000D01*
X162340000Y-68740000D02*
X162340000Y-68289999D01*
X162340000Y-68289999D02*
X163830000Y-66799999D01*
X161925000Y-69977000D02*
X159004000Y-69977000D01*
X162340000Y-68740000D02*
X162340000Y-69562000D01*
X158520000Y-70461000D02*
X158520000Y-71807500D01*
D49*
X156953157Y-73152000D02*
X157734000Y-73152000D01*
X152620000Y-63720000D02*
X152400000Y-63720000D01*
X153670000Y-67818000D02*
X153670000Y-64770000D01*
X157734000Y-73152000D02*
X158020000Y-72866000D01*
X158020000Y-72866000D02*
X158020000Y-71807500D01*
X153670000Y-64770000D02*
X152620000Y-63720000D01*
X152400000Y-63720000D02*
X152400000Y-61080000D01*
X155629079Y-71827921D02*
X156953157Y-73152000D01*
D51*
X164745714Y-67174713D02*
X164745713Y-67174713D01*
X159258000Y-70485000D02*
X159020000Y-70723000D01*
X165026427Y-66855426D02*
X165026427Y-66894000D01*
X164400000Y-68740000D02*
X162655000Y-70485000D01*
X164465000Y-67455426D02*
X164465000Y-67494000D01*
X162655000Y-70485000D02*
X159258000Y-70485000D01*
X164465000Y-63885000D02*
X164465000Y-66294000D01*
X164465000Y-67494000D02*
X164465000Y-68675000D01*
X164745713Y-66574713D02*
X164745714Y-66574713D01*
X159020000Y-70723000D02*
X159020000Y-71807500D01*
X164465013Y-67455426D02*
G75*
G02*
X164745713Y-67174713I280687J26D01*
G01*
X164745713Y-66574700D02*
G75*
G02*
X164465000Y-66294000I-13J280700D01*
G01*
X164745714Y-67174727D02*
G75*
G03*
X165026427Y-66894000I-14J280727D01*
G01*
X165026387Y-66855426D02*
G75*
G03*
X164745714Y-66574713I-280687J26D01*
G01*
D49*
X101184185Y-75715000D02*
X103620185Y-73279000D01*
X118745000Y-76835000D02*
X123510000Y-76835000D01*
X109046100Y-70277900D02*
X111985000Y-70277900D01*
X117285000Y-71565000D02*
X118110000Y-72390000D01*
X103620185Y-73279000D02*
X106045000Y-73279000D01*
X118110000Y-72390000D02*
X118110000Y-76200000D01*
X111985000Y-70277900D02*
X112712900Y-70277900D01*
X118110000Y-76200000D02*
X118745000Y-76835000D01*
X115795000Y-71565000D02*
X117285000Y-71565000D01*
X114000000Y-71565000D02*
X115795000Y-71565000D01*
X112712900Y-70277900D02*
X114000000Y-71565000D01*
X106045000Y-73279000D02*
X109046100Y-70277900D01*
X107981484Y-104108516D02*
X107436500Y-104653500D01*
X107981484Y-103219516D02*
X107981484Y-104108516D01*
X110121484Y-102264500D02*
X108936500Y-102264500D01*
X108936500Y-102264500D02*
X107981484Y-103219516D01*
X107436500Y-104653500D02*
X107031484Y-104653500D01*
X153543000Y-73914000D02*
X152590000Y-73914000D01*
X155607500Y-76720000D02*
X154698000Y-76720000D01*
X154698000Y-76720000D02*
X153797000Y-75819000D01*
X153797000Y-75819000D02*
X153797000Y-74168000D01*
X153797000Y-74168000D02*
X153543000Y-73914000D01*
X119557516Y-93663000D02*
X121539000Y-93663000D01*
X119863484Y-90725710D02*
X120578484Y-90725710D01*
X119583484Y-91005710D02*
X119863484Y-90725710D01*
X119583484Y-93663000D02*
X119583484Y-91005710D01*
X120578484Y-89725710D02*
X119443290Y-89725710D01*
X119443290Y-89725710D02*
X118046000Y-91123000D01*
X118046000Y-91123000D02*
X115265484Y-91123000D01*
X115265484Y-91123000D02*
X115265484Y-89360710D01*
X120578484Y-90225710D02*
X119579686Y-90225710D01*
X117032396Y-92773000D02*
X115265484Y-92773000D01*
X119579686Y-90225710D02*
X117032396Y-92773000D01*
X115265484Y-92773000D02*
X115265484Y-94425000D01*
X124143000Y-93726000D02*
X124143000Y-96837000D01*
X120578484Y-91225710D02*
X121245290Y-91225710D01*
X116268000Y-96075000D02*
X115265484Y-96075000D01*
X124143000Y-93726000D02*
X123317000Y-93726000D01*
X123571000Y-97409000D02*
X117602000Y-97409000D01*
X123317000Y-93726000D02*
X122303484Y-92712484D01*
X117602000Y-97409000D02*
X116268000Y-96075000D01*
X124143000Y-96837000D02*
X123571000Y-97409000D01*
X122303484Y-92712484D02*
X122303484Y-91775710D01*
X103073984Y-101091000D02*
X103073984Y-102997000D01*
X104013000Y-102997000D02*
X104775000Y-102235000D01*
X104775000Y-102235000D02*
X107061000Y-102235000D01*
X107061000Y-102235000D02*
X108031500Y-101264500D01*
X103073984Y-102997000D02*
X104013000Y-102997000D01*
X108031500Y-101264500D02*
X110121484Y-101264500D01*
X103506000Y-104647000D02*
X103073984Y-104647000D01*
X105283000Y-102870000D02*
X103506000Y-104647000D01*
X103073984Y-104647000D02*
X103073984Y-106504500D01*
X108548198Y-101764500D02*
X107442698Y-102870000D01*
X110121484Y-101764500D02*
X108548198Y-101764500D01*
X107442698Y-102870000D02*
X105283000Y-102870000D01*
X111346484Y-108490516D02*
X111346484Y-103314500D01*
X109474000Y-110363000D02*
X111346484Y-108490516D01*
X103073984Y-108154500D02*
X103073984Y-109296984D01*
X111846484Y-103314500D02*
X111846484Y-104353484D01*
X113030000Y-105537000D02*
X113856000Y-105537000D01*
X110121484Y-102764500D02*
X111654500Y-102764500D01*
X103073984Y-109296984D02*
X104140000Y-110363000D01*
X111846484Y-104353484D02*
X113030000Y-105537000D01*
X104140000Y-110363000D02*
X109474000Y-110363000D01*
X111654500Y-102764500D02*
X111760000Y-102870000D01*
X124587000Y-91059000D02*
X124587000Y-91694000D01*
X124253710Y-90725710D02*
X124587000Y-91059000D01*
X123528484Y-90725710D02*
X124253710Y-90725710D01*
X124587000Y-91694000D02*
X125793000Y-92900000D01*
X125793000Y-92900000D02*
X125793000Y-93726000D01*
X114427000Y-103632000D02*
X115506000Y-104711000D01*
X113821500Y-102264500D02*
X114427000Y-102870000D01*
X114427000Y-102870000D02*
X114427000Y-103632000D01*
X113071484Y-102264500D02*
X113821500Y-102264500D01*
X115506000Y-104711000D02*
X115506000Y-105537000D01*
X153670000Y-107442000D02*
X152654000Y-107442000D01*
X153670000Y-109474000D02*
X153670000Y-107442000D01*
X151090420Y-105469420D02*
X150070000Y-105469420D01*
X152654000Y-107442000D02*
X151511000Y-106299000D01*
X151511000Y-105890000D02*
X151090420Y-105469420D01*
X151511000Y-106299000D02*
X151511000Y-105890000D01*
X135255000Y-71374000D02*
X136081000Y-71374000D01*
X132810000Y-70485000D02*
X134366000Y-70485000D01*
X134366000Y-70485000D02*
X135255000Y-71374000D01*
X163932500Y-79350500D02*
X164592000Y-80010000D01*
X163932500Y-78720000D02*
X163932500Y-79350500D01*
X168656000Y-77343000D02*
X168656000Y-79068516D01*
X165735000Y-78719315D02*
X165735000Y-87757000D01*
X163932500Y-77720000D02*
X164735685Y-77720000D01*
X165735000Y-87757000D02*
X166413000Y-88435000D01*
X166413000Y-88435000D02*
X167319516Y-88435000D01*
X164735685Y-77720000D02*
X165735000Y-78719315D01*
X163932500Y-77220000D02*
X166247000Y-77220000D01*
X166247000Y-77220000D02*
X167319516Y-78292516D01*
X165088000Y-76720000D02*
X165481000Y-76327000D01*
X163932500Y-76720000D02*
X165088000Y-76720000D01*
X168656000Y-90551000D02*
X168656000Y-88501484D01*
X152359213Y-75565000D02*
X147447000Y-75565000D01*
X154014213Y-77220000D02*
X152359213Y-75565000D01*
X155607500Y-77220000D02*
X154014213Y-77220000D01*
X147447000Y-75565000D02*
X146177000Y-74295000D01*
X146177000Y-74295000D02*
X132810000Y-74295000D01*
X152992817Y-76835000D02*
X132810000Y-76835000D01*
X153877817Y-77720000D02*
X152992817Y-76835000D01*
X155607500Y-77720000D02*
X153877817Y-77720000D01*
X166502500Y-100578500D02*
X165481000Y-101600000D01*
D48*
X166502500Y-104750000D02*
X163334000Y-104750000D01*
D49*
X165481000Y-101600000D02*
X162306000Y-101600000D01*
D48*
X163322000Y-98144420D02*
X166468080Y-98144420D01*
D49*
X160655000Y-106426000D02*
X160655000Y-104775000D01*
X155320000Y-107442000D02*
X158750000Y-107442000D01*
X158750000Y-107442000D02*
X159766000Y-106426000D01*
X159766000Y-106426000D02*
X159766000Y-104394000D01*
X166502500Y-106650000D02*
X166502500Y-107309500D01*
X166502500Y-107309500D02*
X165862000Y-107950000D01*
X162179000Y-107950000D02*
X160655000Y-106426000D01*
X166502500Y-100010000D02*
X166502500Y-100578500D01*
X165862000Y-107950000D02*
X162179000Y-107950000D01*
G04 #@! TA.AperFunction,Conductor*
G36*
X146446931Y-97683002D02*
G01*
X146467905Y-97699905D01*
X146648095Y-97880095D01*
X146682121Y-97942407D01*
X146685000Y-97969190D01*
X146685000Y-99769810D01*
X146664998Y-99837931D01*
X146648095Y-99858905D01*
X146594905Y-99912095D01*
X146532593Y-99946121D01*
X146505810Y-99949000D01*
X142367000Y-99949000D01*
X142113000Y-100203000D01*
X142113000Y-101039810D01*
X142092998Y-101107931D01*
X142076095Y-101128905D01*
X142022905Y-101182095D01*
X141960593Y-101216121D01*
X141933810Y-101219000D01*
X140895190Y-101219000D01*
X140827069Y-101198998D01*
X140806095Y-101182095D01*
X140752905Y-101128905D01*
X140718879Y-101066593D01*
X140716000Y-101039810D01*
X140716000Y-99874190D01*
X140736002Y-99806069D01*
X140752905Y-99785095D01*
X142838095Y-97699905D01*
X142900407Y-97665879D01*
X142927190Y-97663000D01*
X146378810Y-97663000D01*
X146446931Y-97683002D01*
G37*
G04 #@! TD.AperFunction*
G04 #@! TA.AperFunction,Conductor*
G36*
X167147931Y-97556002D02*
G01*
X167168905Y-97572905D01*
X167222095Y-97626095D01*
X167256121Y-97688407D01*
X167259000Y-97715190D01*
X167259000Y-98245810D01*
X167238998Y-98313931D01*
X167222095Y-98334905D01*
X167168905Y-98388095D01*
X167106593Y-98422121D01*
X167079810Y-98425000D01*
X165100000Y-98425000D01*
X164755905Y-98769095D01*
X164693593Y-98803121D01*
X164666810Y-98806000D01*
X162814000Y-98806000D01*
X162433000Y-99187000D01*
X162433000Y-103886000D01*
X162814000Y-104267000D01*
X166952810Y-104267000D01*
X167020931Y-104287002D01*
X167041905Y-104303905D01*
X167222095Y-104484095D01*
X167256121Y-104546407D01*
X167259000Y-104573190D01*
X167259000Y-104976810D01*
X167238998Y-105044931D01*
X167222095Y-105065905D01*
X167174817Y-105113183D01*
X167112505Y-105147209D01*
X167066014Y-105148537D01*
X167051732Y-105146275D01*
X167051723Y-105146274D01*
X167046834Y-105145500D01*
X165958166Y-105145500D01*
X165863445Y-105160502D01*
X165854612Y-105165003D01*
X165854611Y-105165003D01*
X165821710Y-105181767D01*
X165764507Y-105195500D01*
X165134630Y-105195500D01*
X165122622Y-105194158D01*
X165122582Y-105194654D01*
X165113631Y-105193934D01*
X165104877Y-105191953D01*
X165074430Y-105193842D01*
X165051607Y-105195258D01*
X165043805Y-105195500D01*
X165027774Y-105195500D01*
X165017541Y-105196965D01*
X165007489Y-105197995D01*
X164978085Y-105199820D01*
X164969601Y-105200346D01*
X164969600Y-105200346D01*
X164960642Y-105200902D01*
X164952199Y-105203950D01*
X164948920Y-105204629D01*
X164933055Y-105208584D01*
X164929831Y-105209527D01*
X164920948Y-105210799D01*
X164912779Y-105214513D01*
X164912773Y-105214515D01*
X164878221Y-105230225D01*
X164868853Y-105234039D01*
X164824716Y-105249972D01*
X164817466Y-105255269D01*
X164814499Y-105256846D01*
X164796366Y-105267442D01*
X164789399Y-105270610D01*
X164788051Y-105267646D01*
X164735541Y-105283000D01*
X159945190Y-105283000D01*
X159877069Y-105262998D01*
X159856095Y-105246095D01*
X159258000Y-104648000D01*
X159106481Y-104647716D01*
X151687935Y-104633826D01*
X151619852Y-104613696D01*
X151601686Y-104599458D01*
X151397175Y-104406435D01*
X151384000Y-104394000D01*
X151133911Y-104394000D01*
X151082319Y-104378350D01*
X151081085Y-104381330D01*
X151069621Y-104376581D01*
X151059301Y-104369686D01*
X150985067Y-104354920D01*
X150858360Y-104354920D01*
X149238111Y-104354921D01*
X149169990Y-104334919D01*
X149149016Y-104318016D01*
X149134905Y-104303905D01*
X149100879Y-104241593D01*
X149098000Y-104214810D01*
X149098000Y-103459920D01*
X149118002Y-103391799D01*
X149171658Y-103345306D01*
X149224000Y-103333920D01*
X150834557Y-103333919D01*
X150985066Y-103333919D01*
X151020818Y-103326808D01*
X151047126Y-103321576D01*
X151047128Y-103321575D01*
X151059301Y-103319154D01*
X151129520Y-103272234D01*
X151199521Y-103251000D01*
X154051000Y-103251000D01*
X154178000Y-103124000D01*
X154178000Y-101779190D01*
X154198002Y-101711069D01*
X154214905Y-101690095D01*
X154268095Y-101636905D01*
X154330407Y-101602879D01*
X154357190Y-101600000D01*
X160528000Y-101600000D01*
X161290000Y-100838000D01*
X161290000Y-97842190D01*
X161310002Y-97774069D01*
X161326905Y-97753095D01*
X161507095Y-97572905D01*
X161569407Y-97538879D01*
X161596190Y-97536000D01*
X167079810Y-97536000D01*
X167147931Y-97556002D01*
G37*
G04 #@! TD.AperFunction*
G04 #@! TA.AperFunction,Conductor*
G36*
X150510931Y-97683002D02*
G01*
X150531905Y-97699905D01*
X152871095Y-100039095D01*
X152905121Y-100101407D01*
X152908000Y-100128190D01*
X152908000Y-101039810D01*
X152887998Y-101107931D01*
X152871095Y-101128905D01*
X152817905Y-101182095D01*
X152755593Y-101216121D01*
X152728810Y-101219000D01*
X151384000Y-101219000D01*
X150912905Y-101690095D01*
X150850593Y-101724121D01*
X150823810Y-101727000D01*
X149150190Y-101727000D01*
X149082069Y-101706998D01*
X149061095Y-101690095D01*
X149007905Y-101636905D01*
X148973879Y-101574593D01*
X148971000Y-101547810D01*
X148971000Y-100076000D01*
X148844000Y-99949000D01*
X147499190Y-99949000D01*
X147431069Y-99928998D01*
X147410095Y-99912095D01*
X147356905Y-99858905D01*
X147322879Y-99796593D01*
X147320000Y-99769810D01*
X147320000Y-97842190D01*
X147340002Y-97774069D01*
X147356905Y-97753095D01*
X147410095Y-97699905D01*
X147472407Y-97665879D01*
X147499190Y-97663000D01*
X150442810Y-97663000D01*
X150510931Y-97683002D01*
G37*
G04 #@! TD.AperFunction*
G04 #@! TA.AperFunction,Conductor*
G36*
X133619931Y-102128002D02*
G01*
X133640905Y-102144905D01*
X133985000Y-102489000D01*
X140028810Y-102489000D01*
X140096931Y-102509002D01*
X140117905Y-102525905D01*
X140716000Y-103124000D01*
X142540269Y-103124000D01*
X142608390Y-103144002D01*
X142621727Y-103153872D01*
X142624683Y-103156377D01*
X142628364Y-103160058D01*
X142632592Y-103163079D01*
X142632595Y-103163082D01*
X142638060Y-103166987D01*
X142644074Y-103171285D01*
X142648800Y-103174833D01*
X142689067Y-103206576D01*
X142697704Y-103209609D01*
X142705154Y-103214933D01*
X142715130Y-103217917D01*
X142715131Y-103217917D01*
X142730466Y-103222503D01*
X142754269Y-103229622D01*
X142759906Y-103231454D01*
X142800787Y-103245810D01*
X142808271Y-103248438D01*
X142813836Y-103248920D01*
X142816544Y-103248920D01*
X142819178Y-103249034D01*
X142819276Y-103249063D01*
X142819269Y-103249227D01*
X142819973Y-103249271D01*
X142826198Y-103251133D01*
X142880055Y-103249017D01*
X142885002Y-103248920D01*
X142997366Y-103248920D01*
X143067367Y-103270154D01*
X143140699Y-103319154D01*
X143214933Y-103333920D01*
X143293975Y-103333920D01*
X144908000Y-103333919D01*
X144976121Y-103353921D01*
X145022614Y-103407577D01*
X145034000Y-103459919D01*
X145034000Y-104878920D01*
X145013998Y-104947041D01*
X144960342Y-104993534D01*
X144908000Y-105004920D01*
X143294000Y-105004921D01*
X143214934Y-105004921D01*
X143179182Y-105012032D01*
X143152874Y-105017264D01*
X143152872Y-105017265D01*
X143140699Y-105019686D01*
X143130379Y-105026581D01*
X143130378Y-105026582D01*
X143066834Y-105069041D01*
X143066832Y-105069043D01*
X143056516Y-105075936D01*
X143049623Y-105086252D01*
X143049621Y-105086254D01*
X143040435Y-105100002D01*
X142985958Y-105145530D01*
X142935670Y-105156000D01*
X140081000Y-105156000D01*
X139609905Y-105627095D01*
X139547593Y-105661121D01*
X139520810Y-105664000D01*
X133985000Y-105664000D01*
X132561018Y-107416593D01*
X132371818Y-107649455D01*
X132313338Y-107689711D01*
X132274028Y-107696000D01*
X129211190Y-107696000D01*
X129143069Y-107675998D01*
X129122095Y-107659095D01*
X128941905Y-107478905D01*
X128907879Y-107416593D01*
X128905000Y-107389810D01*
X128905000Y-102414190D01*
X128925002Y-102346069D01*
X128941905Y-102325095D01*
X129122095Y-102144905D01*
X129184407Y-102110879D01*
X129211190Y-102108000D01*
X133551810Y-102108000D01*
X133619931Y-102128002D01*
G37*
G04 #@! TD.AperFunction*
M02*
