M48
; DRILL file {KiCad 6.0.11+dfsg-1} date Mon 01 Apr 2024 09:29:57 PM PDT
; FORMAT={-:-/ absolute / metric / decimal}
; #@! TF.CreationDate,2024-04-01T21:29:57-07:00
; #@! TF.GenerationSoftware,Kicad,Pcbnew,6.0.11+dfsg-1
; #@! TF.FileFunction,Plated,1,4,PTH
FMAT,2
METRIC
; #@! TA.AperFunction,Plated,PTH,ViaDrill
T1C0.400
; #@! TA.AperFunction,Plated,PTH,ComponentDrill
T2C0.400
; #@! TA.AperFunction,Plated,PTH,ComponentDrill
T3C1.000
; #@! TA.AperFunction,Plated,PTH,ComponentDrill
T4C1.200
; #@! TA.AperFunction,Plated,PTH,ComponentDrill
T5C1.400
; #@! TA.AperFunction,Plated,PTH,ComponentDrill
T6C2.200
; #@! TA.AperFunction,Plated,PTH,ComponentDrill
T7C3.200
%
G90
G05
T1
X96.52Y-99.06
X96.52Y-104.14
X97.79Y-73.66
X97.79Y-78.74
X97.79Y-83.82
X97.79Y-88.9
X99.06Y-68.58
X99.06Y-91.44
X99.06Y-99.06
X99.06Y-104.14
X101.6Y-60.96
X101.6Y-63.5
X104.902Y-109.093
X105.41Y-100.965
X106.68Y-60.96
X106.68Y-63.5
X106.68Y-91.44
X106.68Y-98.044
X107.95Y-88.9
X108.839Y-109.093
X109.347Y-106.934
X110.27Y-87.664
X110.998Y-74.168
X111.76Y-60.96
X111.76Y-63.5
X111.76Y-83.82
X111.76Y-96.52
X112.014Y-71.374
X112.014Y-77.597
X112.014Y-88.773
X113.665Y-67.818
X113.665Y-69.342
X113.665Y-103.759
X115.57Y-103.378
X116.332Y-79.248
X116.362Y-80.899
X116.84Y-60.96
X116.84Y-63.5
X116.84Y-83.82
X116.967Y-89.281
X117.475Y-66.675
X118.11Y-99.06
X118.11Y-105.41
X119.634Y-96.393
X120.015Y-66.675
X120.015Y-82.042
X121.793Y-73.025
X121.793Y-74.295
X121.793Y-75.565
X121.92Y-60.96
X121.92Y-63.5
X121.92Y-83.82
X121.92Y-86.36
X121.92Y-99.06
X122.936Y-95.25
X124.079Y-92.456
X127.0Y-63.5
X127.0Y-83.82
X127.0Y-86.36
X127.0Y-90.805
X132.08Y-63.5
X132.08Y-83.82
X132.08Y-86.36
X132.08Y-93.98
X132.08Y-96.52
X132.08Y-99.06
X134.239Y-89.916
X134.493Y-73.025
X134.493Y-75.565
X134.62Y-83.82
X135.255Y-100.584
X136.11Y-81.754
X136.144Y-66.548
X137.16Y-63.5
X137.16Y-91.44
X137.16Y-96.52
X137.16Y-99.06
X137.414Y-100.584
X138.684Y-66.548
X138.684Y-81.788
X138.811Y-71.374
X139.446Y-100.584
X139.7Y-83.82
X139.7Y-87.63
X140.335Y-106.159
X140.97Y-91.44
X140.97Y-96.52
X141.224Y-66.548
X141.224Y-81.788
X144.78Y-83.82
X144.78Y-91.44
X144.78Y-96.52
X145.034Y-89.916
X145.288Y-66.929
X145.415Y-69.85
X145.415Y-81.28
X145.542Y-78.232
X145.669Y-101.6
X146.05Y-102.87
X146.05Y-104.902
X147.066Y-103.886
X147.066Y-106.045
X147.32Y-66.802
X147.697Y-86.491
X148.082Y-102.87
X148.082Y-104.902
X148.59Y-67.818
X148.59Y-91.44
X148.59Y-96.52
X148.717Y-78.232
X148.717Y-79.756
X149.86Y-66.802
X149.86Y-73.914
X151.384Y-78.232
X151.638Y-110.109
X152.4Y-66.802
X152.4Y-81.915
X152.4Y-91.44
X152.4Y-96.52
X152.781Y-71.628
X153.543Y-105.537
X153.67Y-67.818
X153.67Y-87.757
X154.686Y-99.441
X154.94Y-66.802
X155.194Y-69.342
X155.629Y-71.828
X155.909Y-105.537
X156.21Y-83.82
X156.337Y-109.474
X157.226Y-99.441
X157.734Y-87.249
X158.242Y-105.537
X158.75Y-96.52
X159.004Y-69.088
X159.766Y-99.441
X160.02Y-77.47
X160.02Y-78.486
X160.528Y-83.82
X161.163Y-68.707
X162.052Y-83.82
X162.179Y-106.299
X162.56Y-96.52
X163.195Y-85.852
X163.322Y-100.838
X164.592Y-80.01
X165.1Y-91.44
X165.227Y-95.123
X165.481Y-68.834
X165.481Y-76.327
X167.005Y-102.235
X167.386Y-72.644
X167.386Y-74.168
X167.64Y-82.55
X167.64Y-86.36
X168.656Y-77.343
X168.656Y-90.551
X169.799Y-68.707
X169.926Y-70.231
X170.18Y-60.96
X170.18Y-63.5
X170.18Y-109.22
X171.577Y-100.838
X171.577Y-107.442
X172.72Y-60.96
X172.72Y-63.5
X172.72Y-69.85
X173.482Y-74.93
X175.006Y-74.93
X175.006Y-90.17
X175.26Y-82.55
X175.26Y-86.36
X177.8Y-66.04
X177.8Y-71.12
X177.8Y-76.2
X177.8Y-81.28
X177.8Y-86.36
X177.8Y-91.44
X177.8Y-96.52
X177.8Y-101.6
T2
X96.075Y-107.61
X96.14Y-62.23
X96.558Y-106.443
X96.558Y-108.777
X96.623Y-61.063
X96.623Y-63.397
X97.725Y-105.96
X97.725Y-109.26
X97.79Y-60.58
X97.79Y-63.88
X98.891Y-106.443
X98.891Y-108.777
X98.957Y-61.063
X98.957Y-63.397
X99.375Y-107.61
X99.44Y-62.23
X174.815Y-62.23
X174.815Y-107.36
X175.298Y-61.063
X175.298Y-63.397
X175.298Y-106.193
X175.298Y-108.527
X176.465Y-60.58
X176.465Y-63.88
X176.465Y-105.71
X176.465Y-109.01
X177.631Y-61.063
X177.631Y-63.397
X177.631Y-106.193
X177.631Y-108.527
X178.115Y-62.23
X178.115Y-107.36
T3
X101.184Y-75.715
X101.184Y-78.485
X101.184Y-81.255
X101.184Y-84.025
X101.184Y-86.795
X104.024Y-77.1
X104.024Y-79.87
X104.024Y-82.64
X104.024Y-85.41
X144.84Y-61.02
X147.38Y-61.02
X149.92Y-61.02
X152.46Y-61.02
X155.0Y-61.02
T4
X159.955Y-60.02
X167.705Y-60.02
T5
X160.105Y-63.82
X167.555Y-63.82
T6
X97.725Y-107.61
X97.79Y-62.23
X176.465Y-62.23
X176.465Y-107.36
T7
X102.604Y-68.755
X102.604Y-93.755
T0
M30
