G04 #@! TF.GenerationSoftware,KiCad,Pcbnew,6.0.11+dfsg-1*
G04 #@! TF.CreationDate,2024-04-01T21:29:23-07:00*
G04 #@! TF.ProjectId,car-logger,6361722d-6c6f-4676-9765-722e6b696361,v1*
G04 #@! TF.SameCoordinates,Original*
G04 #@! TF.FileFunction,Copper,L3,Inr*
G04 #@! TF.FilePolarity,Positive*
%FSLAX46Y46*%
G04 Gerber Fmt 4.6, Leading zero omitted, Abs format (unit mm)*
G04 Created by KiCad (PCBNEW 6.0.11+dfsg-1) date 2024-04-01 21:29:23*
%MOMM*%
%LPD*%
G01*
G04 APERTURE LIST*
G04 #@! TA.AperFunction,ComponentPad*
%ADD10R,1.700000X1.700000*%
G04 #@! TD*
G04 #@! TA.AperFunction,ComponentPad*
%ADD11O,1.700000X1.700000*%
G04 #@! TD*
G04 #@! TA.AperFunction,ComponentPad*
%ADD12C,0.700000*%
G04 #@! TD*
G04 #@! TA.AperFunction,ComponentPad*
%ADD13C,4.400000*%
G04 #@! TD*
G04 #@! TA.AperFunction,ComponentPad*
%ADD14C,2.000000*%
G04 #@! TD*
G04 #@! TA.AperFunction,ComponentPad*
%ADD15C,1.800000*%
G04 #@! TD*
G04 #@! TA.AperFunction,ComponentPad*
%ADD16C,4.000000*%
G04 #@! TD*
G04 #@! TA.AperFunction,ComponentPad*
%ADD17R,1.600000X1.600000*%
G04 #@! TD*
G04 #@! TA.AperFunction,ComponentPad*
%ADD18C,1.600000*%
G04 #@! TD*
G04 #@! TA.AperFunction,ViaPad*
%ADD19C,0.800000*%
G04 #@! TD*
G04 APERTURE END LIST*
D10*
X155000000Y-61020000D03*
D11*
X152460000Y-61020000D03*
X149920000Y-61020000D03*
X147380000Y-61020000D03*
X144840000Y-61020000D03*
D12*
X97790000Y-60580000D03*
X96623274Y-61063274D03*
X99440000Y-62230000D03*
D13*
X97790000Y-62230000D03*
D12*
X96623274Y-63396726D03*
X98956726Y-63396726D03*
X96140000Y-62230000D03*
X98956726Y-61063274D03*
X97790000Y-63880000D03*
X174814516Y-62230000D03*
X175297790Y-61063274D03*
X178114516Y-62230000D03*
D13*
X176464516Y-62230000D03*
D12*
X177631242Y-63396726D03*
X176464516Y-60580000D03*
X177631242Y-61063274D03*
X175297790Y-63396726D03*
X176464516Y-63880000D03*
X97724516Y-105960000D03*
X96074516Y-107610000D03*
X98891242Y-106443274D03*
X96557790Y-106443274D03*
X99374516Y-107610000D03*
X97724516Y-109260000D03*
X98891242Y-108776726D03*
D13*
X97724516Y-107610000D03*
D12*
X96557790Y-108776726D03*
X177631242Y-106193274D03*
X174814516Y-107360000D03*
X175297790Y-106193274D03*
X177631242Y-108526726D03*
X178114516Y-107360000D03*
D13*
X176464516Y-107360000D03*
D12*
X175297790Y-108526726D03*
X176464516Y-109010000D03*
X176464516Y-105710000D03*
D14*
X160105000Y-63820000D03*
D15*
X159955000Y-60020000D03*
D14*
X167555000Y-63820000D03*
D15*
X167705000Y-60020000D03*
D16*
X102604185Y-93755000D03*
X102604185Y-68755000D03*
D17*
X101184185Y-86795000D03*
D18*
X101184185Y-84025000D03*
X101184185Y-81255000D03*
X101184185Y-78485000D03*
X101184185Y-75715000D03*
X104024185Y-85410000D03*
X104024185Y-82640000D03*
X104024185Y-79870000D03*
X104024185Y-77100000D03*
D19*
X145542000Y-78232000D03*
X155194000Y-69342000D03*
X167386000Y-72644000D03*
X175006000Y-74930000D03*
X138811000Y-71374000D03*
X162052000Y-83820000D03*
X148590000Y-67818000D03*
X165227000Y-95123000D03*
X148717000Y-79756000D03*
X144780000Y-83820000D03*
X152400000Y-91440000D03*
X132080000Y-63500000D03*
X167386000Y-74168000D03*
X175006000Y-90170000D03*
X177800000Y-76200000D03*
X136144000Y-66548000D03*
X148590000Y-91440000D03*
X121920000Y-60960000D03*
X106680000Y-60960000D03*
X132080000Y-93980000D03*
X177800000Y-86360000D03*
X97790000Y-78740000D03*
X137160000Y-91440000D03*
X177800000Y-71120000D03*
X141224000Y-81788000D03*
X157734000Y-87249000D03*
X160528000Y-83820000D03*
X136110000Y-81754000D03*
X127000000Y-86360000D03*
X140970000Y-96520000D03*
X107950000Y-88900000D03*
X159766000Y-99441000D03*
X109347000Y-106934000D03*
X177800000Y-91440000D03*
X173482000Y-74930000D03*
X160020000Y-77470000D03*
X105410000Y-100965000D03*
X116840000Y-60960000D03*
X148082000Y-104902000D03*
X167640000Y-86360000D03*
X132080000Y-86360000D03*
X172720000Y-60960000D03*
X149860000Y-66802000D03*
X153670000Y-87757000D03*
X171577000Y-100838000D03*
X172720000Y-63500000D03*
X159004000Y-69088000D03*
X121920000Y-99060000D03*
X97790000Y-73660000D03*
X152400000Y-96520000D03*
X111760000Y-63500000D03*
X135255000Y-100584000D03*
X171577000Y-107442000D03*
X148590000Y-96520000D03*
X113665000Y-103759000D03*
X169799000Y-68707000D03*
X161163000Y-68707000D03*
X144780000Y-91440000D03*
X101600000Y-60960000D03*
X132080000Y-83820000D03*
X127000000Y-90805000D03*
X149860000Y-73914000D03*
X134493000Y-73025000D03*
X134493000Y-75565000D03*
X101600000Y-63500000D03*
X158750000Y-96520000D03*
X137160000Y-99060000D03*
X163195000Y-85852000D03*
X165100000Y-91440000D03*
X121920000Y-63500000D03*
X140335000Y-106159000D03*
X152400000Y-66802000D03*
X137414000Y-100584000D03*
X158242000Y-105537000D03*
X154686000Y-99441000D03*
X111760000Y-96520000D03*
X97790000Y-83820000D03*
X121920000Y-83820000D03*
X175260000Y-82550000D03*
X139700000Y-83820000D03*
X116967000Y-89281000D03*
X162179000Y-106299000D03*
X118110000Y-105410000D03*
X147696701Y-86491299D03*
X106680000Y-63500000D03*
X163322000Y-100838000D03*
X177800000Y-96520000D03*
X99060000Y-91440000D03*
X112014000Y-77597000D03*
X134239000Y-89916000D03*
X137160000Y-96520000D03*
X97790000Y-88900000D03*
X99060000Y-68580000D03*
X145669000Y-101600000D03*
X145288000Y-66929000D03*
X119634000Y-96393000D03*
X145415000Y-81280000D03*
X112014000Y-71374000D03*
X108839000Y-109093000D03*
X147320000Y-66802000D03*
X177800000Y-66040000D03*
X170180000Y-63500000D03*
X157226000Y-99441000D03*
X146050000Y-104902000D03*
X162560000Y-96520000D03*
X118110000Y-99060000D03*
X154940000Y-66802000D03*
X177800000Y-81280000D03*
X152400000Y-81915000D03*
X116840000Y-83820000D03*
X148717000Y-78232000D03*
X99060000Y-99060000D03*
X138684000Y-81788000D03*
X99060000Y-104140000D03*
X145034000Y-89916000D03*
X156337000Y-109474000D03*
X127000000Y-63500000D03*
X147066000Y-106045000D03*
X134620000Y-83820000D03*
X141224000Y-66548000D03*
X132080000Y-96520000D03*
X151638000Y-110109000D03*
X172720000Y-69850000D03*
X146050000Y-102870000D03*
X170180000Y-109220000D03*
X96520000Y-104140000D03*
X111760000Y-83820000D03*
X96520000Y-99060000D03*
X147066000Y-103886000D03*
X124079000Y-92456000D03*
X148082000Y-102870000D03*
X115570000Y-103378000D03*
X111760000Y-60960000D03*
X116840000Y-63500000D03*
X170180000Y-60960000D03*
X127000000Y-83820000D03*
X106680000Y-91440000D03*
X139446000Y-100584000D03*
X175260000Y-86360000D03*
X167640000Y-82550000D03*
X139700000Y-87630000D03*
X144780000Y-96520000D03*
X155909500Y-105537000D03*
X153543000Y-105537000D03*
X165481000Y-68834000D03*
X112014000Y-88773000D03*
X138684000Y-66548000D03*
X137160000Y-63500000D03*
X177800000Y-101600000D03*
X156210000Y-83820000D03*
X151384000Y-78232000D03*
X140970000Y-91440000D03*
X121920000Y-86360000D03*
X132080000Y-99060000D03*
X152781000Y-71628000D03*
X160020000Y-78486000D03*
X145415000Y-69850000D03*
X167005000Y-102235000D03*
X110270000Y-87664000D03*
X122936000Y-95250000D03*
X104902000Y-109093000D03*
X169926000Y-70231000D03*
X106680000Y-98044000D03*
X113665000Y-69342000D03*
X116332000Y-79248000D03*
X110998000Y-74168000D03*
X121793000Y-75565000D03*
X116362000Y-80899000D03*
X121793000Y-74295000D03*
X113665000Y-67818000D03*
X120015000Y-82042000D03*
X117475000Y-66675000D03*
X121793000Y-73025000D03*
X120015000Y-66675000D03*
X153670000Y-67818000D03*
X155629079Y-71827921D03*
X168656000Y-77343000D03*
X164592000Y-80010000D03*
X168656000Y-90551000D03*
X165481000Y-76327000D03*
G04 #@! TA.AperFunction,Conductor*
G36*
X179773621Y-58440502D02*
G01*
X179820114Y-58494158D01*
X179831500Y-58546500D01*
X179831500Y-111125500D01*
X179811498Y-111193621D01*
X179757842Y-111240114D01*
X179705500Y-111251500D01*
X94614500Y-111251500D01*
X94546379Y-111231498D01*
X94499886Y-111177842D01*
X94488500Y-111125500D01*
X94488500Y-109093000D01*
X103988496Y-109093000D01*
X104008458Y-109282928D01*
X104067473Y-109464556D01*
X104162960Y-109629944D01*
X104290747Y-109771866D01*
X104445248Y-109884118D01*
X104451276Y-109886802D01*
X104451278Y-109886803D01*
X104613681Y-109959109D01*
X104619712Y-109961794D01*
X104713113Y-109981647D01*
X104800056Y-110000128D01*
X104800061Y-110000128D01*
X104806513Y-110001500D01*
X104997487Y-110001500D01*
X105003939Y-110000128D01*
X105003944Y-110000128D01*
X105090887Y-109981647D01*
X105184288Y-109961794D01*
X105190319Y-109959109D01*
X105352722Y-109886803D01*
X105352724Y-109886802D01*
X105358752Y-109884118D01*
X105513253Y-109771866D01*
X105641040Y-109629944D01*
X105736527Y-109464556D01*
X105795542Y-109282928D01*
X105815504Y-109093000D01*
X105795542Y-108903072D01*
X105736527Y-108721444D01*
X105641040Y-108556056D01*
X105513253Y-108414134D01*
X105358752Y-108301882D01*
X105352724Y-108299198D01*
X105352722Y-108299197D01*
X105190319Y-108226891D01*
X105190318Y-108226891D01*
X105184288Y-108224206D01*
X105090888Y-108204353D01*
X105003944Y-108185872D01*
X105003939Y-108185872D01*
X104997487Y-108184500D01*
X104806513Y-108184500D01*
X104800061Y-108185872D01*
X104800056Y-108185872D01*
X104713112Y-108204353D01*
X104619712Y-108224206D01*
X104613682Y-108226891D01*
X104613681Y-108226891D01*
X104451278Y-108299197D01*
X104451276Y-108299198D01*
X104445248Y-108301882D01*
X104290747Y-108414134D01*
X104162960Y-108556056D01*
X104067473Y-108721444D01*
X104008458Y-108903072D01*
X103988496Y-109093000D01*
X94488500Y-109093000D01*
X94488500Y-102235000D01*
X166091496Y-102235000D01*
X166111458Y-102424928D01*
X166170473Y-102606556D01*
X166265960Y-102771944D01*
X166393747Y-102913866D01*
X166548248Y-103026118D01*
X166554276Y-103028802D01*
X166554278Y-103028803D01*
X166716681Y-103101109D01*
X166722712Y-103103794D01*
X166816113Y-103123647D01*
X166903056Y-103142128D01*
X166903061Y-103142128D01*
X166909513Y-103143500D01*
X167100487Y-103143500D01*
X167106939Y-103142128D01*
X167106944Y-103142128D01*
X167193888Y-103123647D01*
X167287288Y-103103794D01*
X167293319Y-103101109D01*
X167455722Y-103028803D01*
X167455724Y-103028802D01*
X167461752Y-103026118D01*
X167616253Y-102913866D01*
X167744040Y-102771944D01*
X167839527Y-102606556D01*
X167898542Y-102424928D01*
X167918504Y-102235000D01*
X167898542Y-102045072D01*
X167839527Y-101863444D01*
X167744040Y-101698056D01*
X167616253Y-101556134D01*
X167461752Y-101443882D01*
X167455724Y-101441198D01*
X167455722Y-101441197D01*
X167293319Y-101368891D01*
X167293318Y-101368891D01*
X167287288Y-101366206D01*
X167193887Y-101346353D01*
X167106944Y-101327872D01*
X167106939Y-101327872D01*
X167100487Y-101326500D01*
X166909513Y-101326500D01*
X166903061Y-101327872D01*
X166903056Y-101327872D01*
X166816113Y-101346353D01*
X166722712Y-101366206D01*
X166716682Y-101368891D01*
X166716681Y-101368891D01*
X166554278Y-101441197D01*
X166554276Y-101441198D01*
X166548248Y-101443882D01*
X166393747Y-101556134D01*
X166265960Y-101698056D01*
X166170473Y-101863444D01*
X166111458Y-102045072D01*
X166091496Y-102235000D01*
X94488500Y-102235000D01*
X94488500Y-98044000D01*
X105766496Y-98044000D01*
X105786458Y-98233928D01*
X105845473Y-98415556D01*
X105940960Y-98580944D01*
X106068747Y-98722866D01*
X106223248Y-98835118D01*
X106229276Y-98837802D01*
X106229278Y-98837803D01*
X106391681Y-98910109D01*
X106397712Y-98912794D01*
X106491112Y-98932647D01*
X106578056Y-98951128D01*
X106578061Y-98951128D01*
X106584513Y-98952500D01*
X106775487Y-98952500D01*
X106781939Y-98951128D01*
X106781944Y-98951128D01*
X106868888Y-98932647D01*
X106962288Y-98912794D01*
X106968319Y-98910109D01*
X107130722Y-98837803D01*
X107130724Y-98837802D01*
X107136752Y-98835118D01*
X107291253Y-98722866D01*
X107419040Y-98580944D01*
X107514527Y-98415556D01*
X107573542Y-98233928D01*
X107593504Y-98044000D01*
X107573542Y-97854072D01*
X107514527Y-97672444D01*
X107419040Y-97507056D01*
X107291253Y-97365134D01*
X107136752Y-97252882D01*
X107130724Y-97250198D01*
X107130722Y-97250197D01*
X106968319Y-97177891D01*
X106968318Y-97177891D01*
X106962288Y-97175206D01*
X106868888Y-97155353D01*
X106781944Y-97136872D01*
X106781939Y-97136872D01*
X106775487Y-97135500D01*
X106584513Y-97135500D01*
X106578061Y-97136872D01*
X106578056Y-97136872D01*
X106491113Y-97155353D01*
X106397712Y-97175206D01*
X106391682Y-97177891D01*
X106391681Y-97177891D01*
X106229278Y-97250197D01*
X106229276Y-97250198D01*
X106223248Y-97252882D01*
X106068747Y-97365134D01*
X105940960Y-97507056D01*
X105845473Y-97672444D01*
X105786458Y-97854072D01*
X105766496Y-98044000D01*
X94488500Y-98044000D01*
X94488500Y-93755000D01*
X100090725Y-93755000D01*
X100110544Y-94070020D01*
X100169690Y-94380072D01*
X100267229Y-94680266D01*
X100268916Y-94683852D01*
X100268918Y-94683856D01*
X100399935Y-94962283D01*
X100399939Y-94962290D01*
X100401623Y-94965869D01*
X100570753Y-95232375D01*
X100771952Y-95475582D01*
X101002045Y-95691654D01*
X101257406Y-95877184D01*
X101260875Y-95879091D01*
X101260878Y-95879093D01*
X101468375Y-95993166D01*
X101534006Y-96029247D01*
X101537675Y-96030700D01*
X101537680Y-96030702D01*
X101823813Y-96143990D01*
X101827483Y-96145443D01*
X102133210Y-96223940D01*
X102446364Y-96263500D01*
X102762006Y-96263500D01*
X103075160Y-96223940D01*
X103380887Y-96145443D01*
X103384557Y-96143990D01*
X103670690Y-96030702D01*
X103670695Y-96030700D01*
X103674364Y-96029247D01*
X103739995Y-95993166D01*
X103947492Y-95879093D01*
X103947495Y-95879091D01*
X103950964Y-95877184D01*
X104206325Y-95691654D01*
X104436418Y-95475582D01*
X104623036Y-95250000D01*
X122022496Y-95250000D01*
X122042458Y-95439928D01*
X122101473Y-95621556D01*
X122196960Y-95786944D01*
X122324747Y-95928866D01*
X122407664Y-95989109D01*
X122464912Y-96030702D01*
X122479248Y-96041118D01*
X122485276Y-96043802D01*
X122485278Y-96043803D01*
X122647681Y-96116109D01*
X122653712Y-96118794D01*
X122747112Y-96138647D01*
X122834056Y-96157128D01*
X122834061Y-96157128D01*
X122840513Y-96158500D01*
X123031487Y-96158500D01*
X123037939Y-96157128D01*
X123037944Y-96157128D01*
X123124887Y-96138647D01*
X123218288Y-96118794D01*
X123224319Y-96116109D01*
X123386722Y-96043803D01*
X123386724Y-96043802D01*
X123392752Y-96041118D01*
X123407089Y-96030702D01*
X123464336Y-95989109D01*
X123547253Y-95928866D01*
X123675040Y-95786944D01*
X123770527Y-95621556D01*
X123829542Y-95439928D01*
X123849504Y-95250000D01*
X123836156Y-95123000D01*
X164313496Y-95123000D01*
X164333458Y-95312928D01*
X164392473Y-95494556D01*
X164487960Y-95659944D01*
X164615747Y-95801866D01*
X164770248Y-95914118D01*
X164776276Y-95916802D01*
X164776278Y-95916803D01*
X164812094Y-95932749D01*
X164944712Y-95991794D01*
X165038112Y-96011647D01*
X165125056Y-96030128D01*
X165125061Y-96030128D01*
X165131513Y-96031500D01*
X165322487Y-96031500D01*
X165328939Y-96030128D01*
X165328944Y-96030128D01*
X165415887Y-96011647D01*
X165509288Y-95991794D01*
X165641906Y-95932749D01*
X165677722Y-95916803D01*
X165677724Y-95916802D01*
X165683752Y-95914118D01*
X165838253Y-95801866D01*
X165966040Y-95659944D01*
X166061527Y-95494556D01*
X166120542Y-95312928D01*
X166140504Y-95123000D01*
X166120542Y-94933072D01*
X166061527Y-94751444D01*
X165966040Y-94586056D01*
X165838253Y-94444134D01*
X165739157Y-94372136D01*
X165689094Y-94335763D01*
X165689093Y-94335762D01*
X165683752Y-94331882D01*
X165677724Y-94329198D01*
X165677722Y-94329197D01*
X165515319Y-94256891D01*
X165515318Y-94256891D01*
X165509288Y-94254206D01*
X165415888Y-94234353D01*
X165328944Y-94215872D01*
X165328939Y-94215872D01*
X165322487Y-94214500D01*
X165131513Y-94214500D01*
X165125061Y-94215872D01*
X165125056Y-94215872D01*
X165038112Y-94234353D01*
X164944712Y-94254206D01*
X164938682Y-94256891D01*
X164938681Y-94256891D01*
X164776278Y-94329197D01*
X164776276Y-94329198D01*
X164770248Y-94331882D01*
X164764907Y-94335762D01*
X164764906Y-94335763D01*
X164714843Y-94372136D01*
X164615747Y-94444134D01*
X164487960Y-94586056D01*
X164392473Y-94751444D01*
X164333458Y-94933072D01*
X164313496Y-95123000D01*
X123836156Y-95123000D01*
X123829542Y-95060072D01*
X123770527Y-94878444D01*
X123675040Y-94713056D01*
X123547253Y-94571134D01*
X123392752Y-94458882D01*
X123386724Y-94456198D01*
X123386722Y-94456197D01*
X123224319Y-94383891D01*
X123224318Y-94383891D01*
X123218288Y-94381206D01*
X123124888Y-94361353D01*
X123037944Y-94342872D01*
X123037939Y-94342872D01*
X123031487Y-94341500D01*
X122840513Y-94341500D01*
X122834061Y-94342872D01*
X122834056Y-94342872D01*
X122747112Y-94361353D01*
X122653712Y-94381206D01*
X122647682Y-94383891D01*
X122647681Y-94383891D01*
X122485278Y-94456197D01*
X122485276Y-94456198D01*
X122479248Y-94458882D01*
X122324747Y-94571134D01*
X122196960Y-94713056D01*
X122101473Y-94878444D01*
X122042458Y-95060072D01*
X122022496Y-95250000D01*
X104623036Y-95250000D01*
X104637617Y-95232375D01*
X104806747Y-94965869D01*
X104808431Y-94962290D01*
X104808435Y-94962283D01*
X104939452Y-94683856D01*
X104939454Y-94683852D01*
X104941141Y-94680266D01*
X105038680Y-94380072D01*
X105097826Y-94070020D01*
X105117645Y-93755000D01*
X105097826Y-93439980D01*
X105038680Y-93129928D01*
X104941141Y-92829734D01*
X104939452Y-92826144D01*
X104808435Y-92547717D01*
X104808431Y-92547710D01*
X104806747Y-92544131D01*
X104637617Y-92277625D01*
X104436418Y-92034418D01*
X104206325Y-91818346D01*
X103950964Y-91632816D01*
X103674364Y-91480753D01*
X103670695Y-91479300D01*
X103670690Y-91479298D01*
X103384557Y-91366010D01*
X103384556Y-91366010D01*
X103380887Y-91364557D01*
X103075160Y-91286060D01*
X102762006Y-91246500D01*
X102446364Y-91246500D01*
X102133210Y-91286060D01*
X101827483Y-91364557D01*
X101823814Y-91366010D01*
X101823813Y-91366010D01*
X101537680Y-91479298D01*
X101537675Y-91479300D01*
X101534006Y-91480753D01*
X101257406Y-91632816D01*
X101002045Y-91818346D01*
X100771952Y-92034418D01*
X100570753Y-92277625D01*
X100401623Y-92544131D01*
X100399939Y-92547710D01*
X100399935Y-92547717D01*
X100268918Y-92826144D01*
X100267229Y-92829734D01*
X100169690Y-93129928D01*
X100110544Y-93439980D01*
X100090725Y-93755000D01*
X94488500Y-93755000D01*
X94488500Y-90551000D01*
X167742496Y-90551000D01*
X167762458Y-90740928D01*
X167821473Y-90922556D01*
X167916960Y-91087944D01*
X168044747Y-91229866D01*
X168199248Y-91342118D01*
X168205276Y-91344802D01*
X168205278Y-91344803D01*
X168367681Y-91417109D01*
X168373712Y-91419794D01*
X168467113Y-91439647D01*
X168554056Y-91458128D01*
X168554061Y-91458128D01*
X168560513Y-91459500D01*
X168751487Y-91459500D01*
X168757939Y-91458128D01*
X168757944Y-91458128D01*
X168844888Y-91439647D01*
X168938288Y-91419794D01*
X168944319Y-91417109D01*
X169106722Y-91344803D01*
X169106724Y-91344802D01*
X169112752Y-91342118D01*
X169267253Y-91229866D01*
X169395040Y-91087944D01*
X169490527Y-90922556D01*
X169549542Y-90740928D01*
X169569504Y-90551000D01*
X169549542Y-90361072D01*
X169490527Y-90179444D01*
X169395040Y-90014056D01*
X169267253Y-89872134D01*
X169112752Y-89759882D01*
X169106724Y-89757198D01*
X169106722Y-89757197D01*
X168944319Y-89684891D01*
X168944318Y-89684891D01*
X168938288Y-89682206D01*
X168844887Y-89662353D01*
X168757944Y-89643872D01*
X168757939Y-89643872D01*
X168751487Y-89642500D01*
X168560513Y-89642500D01*
X168554061Y-89643872D01*
X168554056Y-89643872D01*
X168467113Y-89662353D01*
X168373712Y-89682206D01*
X168367682Y-89684891D01*
X168367681Y-89684891D01*
X168205278Y-89757197D01*
X168205276Y-89757198D01*
X168199248Y-89759882D01*
X168044747Y-89872134D01*
X167916960Y-90014056D01*
X167821473Y-90179444D01*
X167762458Y-90361072D01*
X167742496Y-90551000D01*
X94488500Y-90551000D01*
X94488500Y-87643134D01*
X99875685Y-87643134D01*
X99882440Y-87705316D01*
X99933570Y-87841705D01*
X100020924Y-87958261D01*
X100137480Y-88045615D01*
X100273869Y-88096745D01*
X100336051Y-88103500D01*
X102032319Y-88103500D01*
X102094501Y-88096745D01*
X102230890Y-88045615D01*
X102347446Y-87958261D01*
X102434800Y-87841705D01*
X102485930Y-87705316D01*
X102490418Y-87664000D01*
X109356496Y-87664000D01*
X109357186Y-87670565D01*
X109374290Y-87833297D01*
X109376458Y-87853928D01*
X109435473Y-88035556D01*
X109438776Y-88041278D01*
X109438777Y-88041279D01*
X109443100Y-88048767D01*
X109530960Y-88200944D01*
X109658747Y-88342866D01*
X109813248Y-88455118D01*
X109819276Y-88457802D01*
X109819278Y-88457803D01*
X109981681Y-88530109D01*
X109987712Y-88532794D01*
X110081112Y-88552647D01*
X110168056Y-88571128D01*
X110168061Y-88571128D01*
X110174513Y-88572500D01*
X110365487Y-88572500D01*
X110371939Y-88571128D01*
X110371944Y-88571128D01*
X110458888Y-88552647D01*
X110552288Y-88532794D01*
X110558319Y-88530109D01*
X110720722Y-88457803D01*
X110720724Y-88457802D01*
X110726752Y-88455118D01*
X110881253Y-88342866D01*
X111009040Y-88200944D01*
X111096900Y-88048767D01*
X111101223Y-88041279D01*
X111101224Y-88041278D01*
X111104527Y-88035556D01*
X111163542Y-87853928D01*
X111165711Y-87833297D01*
X111182814Y-87670565D01*
X111183504Y-87664000D01*
X111163542Y-87474072D01*
X111104527Y-87292444D01*
X111009040Y-87127056D01*
X110881253Y-86985134D01*
X110726752Y-86872882D01*
X110720724Y-86870198D01*
X110720722Y-86870197D01*
X110558319Y-86797891D01*
X110558318Y-86797891D01*
X110552288Y-86795206D01*
X110458887Y-86775353D01*
X110371944Y-86756872D01*
X110371939Y-86756872D01*
X110365487Y-86755500D01*
X110174513Y-86755500D01*
X110168061Y-86756872D01*
X110168056Y-86756872D01*
X110081113Y-86775353D01*
X109987712Y-86795206D01*
X109981682Y-86797891D01*
X109981681Y-86797891D01*
X109819278Y-86870197D01*
X109819276Y-86870198D01*
X109813248Y-86872882D01*
X109658747Y-86985134D01*
X109530960Y-87127056D01*
X109435473Y-87292444D01*
X109376458Y-87474072D01*
X109356496Y-87664000D01*
X102490418Y-87664000D01*
X102492685Y-87643134D01*
X102492685Y-85946866D01*
X102485930Y-85884684D01*
X102434800Y-85748295D01*
X102347446Y-85631739D01*
X102230890Y-85544385D01*
X102094501Y-85493255D01*
X102032319Y-85486500D01*
X100336051Y-85486500D01*
X100273869Y-85493255D01*
X100137480Y-85544385D01*
X100020924Y-85631739D01*
X99933570Y-85748295D01*
X99882440Y-85884684D01*
X99875685Y-85946866D01*
X99875685Y-87643134D01*
X94488500Y-87643134D01*
X94488500Y-85410000D01*
X102710687Y-85410000D01*
X102730642Y-85638087D01*
X102789901Y-85859243D01*
X102792224Y-85864224D01*
X102792224Y-85864225D01*
X102884336Y-86061762D01*
X102884339Y-86061767D01*
X102886662Y-86066749D01*
X103017987Y-86254300D01*
X103179885Y-86416198D01*
X103184393Y-86419355D01*
X103184396Y-86419357D01*
X103262574Y-86474098D01*
X103367436Y-86547523D01*
X103372418Y-86549846D01*
X103372423Y-86549849D01*
X103569960Y-86641961D01*
X103574942Y-86644284D01*
X103580250Y-86645706D01*
X103580252Y-86645707D01*
X103790783Y-86702119D01*
X103790785Y-86702119D01*
X103796098Y-86703543D01*
X104024185Y-86723498D01*
X104252272Y-86703543D01*
X104257585Y-86702119D01*
X104257587Y-86702119D01*
X104468118Y-86645707D01*
X104468120Y-86645706D01*
X104473428Y-86644284D01*
X104478410Y-86641961D01*
X104675947Y-86549849D01*
X104675952Y-86549846D01*
X104680934Y-86547523D01*
X104785796Y-86474098D01*
X104863974Y-86419357D01*
X104863977Y-86419355D01*
X104868485Y-86416198D01*
X105030383Y-86254300D01*
X105161708Y-86066749D01*
X105164031Y-86061767D01*
X105164034Y-86061762D01*
X105256146Y-85864225D01*
X105256146Y-85864224D01*
X105258469Y-85859243D01*
X105317728Y-85638087D01*
X105337683Y-85410000D01*
X105317728Y-85181913D01*
X105258469Y-84960757D01*
X105256146Y-84955775D01*
X105164034Y-84758238D01*
X105164031Y-84758233D01*
X105161708Y-84753251D01*
X105030383Y-84565700D01*
X104868485Y-84403802D01*
X104863977Y-84400645D01*
X104863974Y-84400643D01*
X104785796Y-84345902D01*
X104680934Y-84272477D01*
X104675952Y-84270154D01*
X104675947Y-84270151D01*
X104478410Y-84178039D01*
X104478409Y-84178039D01*
X104473428Y-84175716D01*
X104468120Y-84174294D01*
X104468118Y-84174293D01*
X104365166Y-84146707D01*
X104304543Y-84109755D01*
X104273522Y-84045894D01*
X104281950Y-83975400D01*
X104327153Y-83920653D01*
X104365166Y-83903293D01*
X104468118Y-83875707D01*
X104468120Y-83875706D01*
X104473428Y-83874284D01*
X104478410Y-83871961D01*
X104589842Y-83820000D01*
X161138496Y-83820000D01*
X161158458Y-84009928D01*
X161217473Y-84191556D01*
X161312960Y-84356944D01*
X161440747Y-84498866D01*
X161595248Y-84611118D01*
X161601276Y-84613802D01*
X161601278Y-84613803D01*
X161763681Y-84686109D01*
X161769712Y-84688794D01*
X161863113Y-84708647D01*
X161950056Y-84727128D01*
X161950061Y-84727128D01*
X161956513Y-84728500D01*
X162147487Y-84728500D01*
X162153939Y-84727128D01*
X162153944Y-84727128D01*
X162240887Y-84708647D01*
X162334288Y-84688794D01*
X162340319Y-84686109D01*
X162502722Y-84613803D01*
X162502724Y-84613802D01*
X162508752Y-84611118D01*
X162663253Y-84498866D01*
X162791040Y-84356944D01*
X162886527Y-84191556D01*
X162945542Y-84009928D01*
X162965504Y-83820000D01*
X162947237Y-83646198D01*
X162946232Y-83636635D01*
X162946232Y-83636633D01*
X162945542Y-83630072D01*
X162886527Y-83448444D01*
X162791040Y-83283056D01*
X162663253Y-83141134D01*
X162508752Y-83028882D01*
X162502724Y-83026198D01*
X162502722Y-83026197D01*
X162340319Y-82953891D01*
X162340318Y-82953891D01*
X162334288Y-82951206D01*
X162240888Y-82931353D01*
X162153944Y-82912872D01*
X162153939Y-82912872D01*
X162147487Y-82911500D01*
X161956513Y-82911500D01*
X161950061Y-82912872D01*
X161950056Y-82912872D01*
X161863112Y-82931353D01*
X161769712Y-82951206D01*
X161763682Y-82953891D01*
X161763681Y-82953891D01*
X161601278Y-83026197D01*
X161601276Y-83026198D01*
X161595248Y-83028882D01*
X161440747Y-83141134D01*
X161312960Y-83283056D01*
X161217473Y-83448444D01*
X161158458Y-83630072D01*
X161157768Y-83636633D01*
X161157768Y-83636635D01*
X161156763Y-83646198D01*
X161138496Y-83820000D01*
X104589842Y-83820000D01*
X104675947Y-83779849D01*
X104675952Y-83779846D01*
X104680934Y-83777523D01*
X104785796Y-83704098D01*
X104863974Y-83649357D01*
X104863977Y-83649355D01*
X104868485Y-83646198D01*
X105030383Y-83484300D01*
X105161708Y-83296749D01*
X105164031Y-83291767D01*
X105164034Y-83291762D01*
X105256146Y-83094225D01*
X105256146Y-83094224D01*
X105258469Y-83089243D01*
X105295646Y-82950500D01*
X105316304Y-82873402D01*
X105316304Y-82873400D01*
X105317728Y-82868087D01*
X105337683Y-82640000D01*
X105317728Y-82411913D01*
X105313156Y-82394849D01*
X105259892Y-82196067D01*
X105259891Y-82196065D01*
X105258469Y-82190757D01*
X105256146Y-82185775D01*
X105189103Y-82042000D01*
X119101496Y-82042000D01*
X119121458Y-82231928D01*
X119180473Y-82413556D01*
X119275960Y-82578944D01*
X119403747Y-82720866D01*
X119558248Y-82833118D01*
X119564276Y-82835802D01*
X119564278Y-82835803D01*
X119726681Y-82908109D01*
X119732712Y-82910794D01*
X119826112Y-82930647D01*
X119913056Y-82949128D01*
X119913061Y-82949128D01*
X119919513Y-82950500D01*
X120110487Y-82950500D01*
X120116939Y-82949128D01*
X120116944Y-82949128D01*
X120203888Y-82930647D01*
X120297288Y-82910794D01*
X120303319Y-82908109D01*
X120465722Y-82835803D01*
X120465724Y-82835802D01*
X120471752Y-82833118D01*
X120626253Y-82720866D01*
X120754040Y-82578944D01*
X120849527Y-82413556D01*
X120908542Y-82231928D01*
X120928504Y-82042000D01*
X120927814Y-82035435D01*
X120909232Y-81858635D01*
X120909232Y-81858633D01*
X120908542Y-81852072D01*
X120849527Y-81670444D01*
X120754040Y-81505056D01*
X120626253Y-81363134D01*
X120498831Y-81270556D01*
X120477094Y-81254763D01*
X120477093Y-81254762D01*
X120471752Y-81250882D01*
X120465724Y-81248198D01*
X120465722Y-81248197D01*
X120303319Y-81175891D01*
X120303318Y-81175891D01*
X120297288Y-81173206D01*
X120191185Y-81150653D01*
X120116944Y-81134872D01*
X120116939Y-81134872D01*
X120110487Y-81133500D01*
X119919513Y-81133500D01*
X119913061Y-81134872D01*
X119913056Y-81134872D01*
X119838815Y-81150653D01*
X119732712Y-81173206D01*
X119726682Y-81175891D01*
X119726681Y-81175891D01*
X119564278Y-81248197D01*
X119564276Y-81248198D01*
X119558248Y-81250882D01*
X119552907Y-81254762D01*
X119552906Y-81254763D01*
X119531169Y-81270556D01*
X119403747Y-81363134D01*
X119275960Y-81505056D01*
X119180473Y-81670444D01*
X119121458Y-81852072D01*
X119120768Y-81858633D01*
X119120768Y-81858635D01*
X119102186Y-82035435D01*
X119101496Y-82042000D01*
X105189103Y-82042000D01*
X105164034Y-81988238D01*
X105164031Y-81988233D01*
X105161708Y-81983251D01*
X105065459Y-81845794D01*
X105033542Y-81800211D01*
X105033540Y-81800208D01*
X105030383Y-81795700D01*
X104868485Y-81633802D01*
X104863977Y-81630645D01*
X104863974Y-81630643D01*
X104692783Y-81510774D01*
X104680934Y-81502477D01*
X104675952Y-81500154D01*
X104675947Y-81500151D01*
X104478410Y-81408039D01*
X104478409Y-81408039D01*
X104473428Y-81405716D01*
X104468120Y-81404294D01*
X104468118Y-81404293D01*
X104365166Y-81376707D01*
X104304543Y-81339755D01*
X104273522Y-81275894D01*
X104281950Y-81205400D01*
X104327153Y-81150653D01*
X104365166Y-81133293D01*
X104468118Y-81105707D01*
X104468120Y-81105706D01*
X104473428Y-81104284D01*
X104492896Y-81095206D01*
X104675947Y-81009849D01*
X104675952Y-81009846D01*
X104680934Y-81007523D01*
X104826545Y-80905565D01*
X104863974Y-80879357D01*
X104863977Y-80879355D01*
X104868485Y-80876198D01*
X105030383Y-80714300D01*
X105065254Y-80664500D01*
X105108150Y-80603238D01*
X105161708Y-80526749D01*
X105164031Y-80521767D01*
X105164034Y-80521762D01*
X105256146Y-80324225D01*
X105256146Y-80324224D01*
X105258469Y-80319243D01*
X105283710Y-80225045D01*
X105316304Y-80103402D01*
X105316304Y-80103400D01*
X105317728Y-80098087D01*
X105337683Y-79870000D01*
X105317728Y-79641913D01*
X105313156Y-79624849D01*
X105259892Y-79426067D01*
X105259891Y-79426065D01*
X105258469Y-79420757D01*
X105246225Y-79394500D01*
X105177912Y-79248000D01*
X115418496Y-79248000D01*
X115419186Y-79254565D01*
X115436130Y-79415775D01*
X115438458Y-79437928D01*
X115497473Y-79619556D01*
X115592960Y-79784944D01*
X115597378Y-79789851D01*
X115597379Y-79789852D01*
X115624589Y-79820072D01*
X115720747Y-79926866D01*
X115759133Y-79954755D01*
X115797268Y-79982462D01*
X115840622Y-80038684D01*
X115846697Y-80109421D01*
X115813565Y-80172212D01*
X115797271Y-80186332D01*
X115750747Y-80220134D01*
X115746326Y-80225044D01*
X115746325Y-80225045D01*
X115727779Y-80245643D01*
X115622960Y-80362056D01*
X115527473Y-80527444D01*
X115468458Y-80709072D01*
X115467768Y-80715633D01*
X115467768Y-80715635D01*
X115449186Y-80892435D01*
X115448496Y-80899000D01*
X115449186Y-80905565D01*
X115460147Y-81009849D01*
X115468458Y-81088928D01*
X115527473Y-81270556D01*
X115530776Y-81276278D01*
X115530777Y-81276279D01*
X115564686Y-81335010D01*
X115622960Y-81435944D01*
X115627378Y-81440851D01*
X115627379Y-81440852D01*
X115685189Y-81505056D01*
X115750747Y-81577866D01*
X115823388Y-81630643D01*
X115886820Y-81676729D01*
X115905248Y-81690118D01*
X115911276Y-81692802D01*
X115911278Y-81692803D01*
X115936973Y-81704243D01*
X116079712Y-81767794D01*
X116173112Y-81787647D01*
X116260056Y-81806128D01*
X116260061Y-81806128D01*
X116266513Y-81807500D01*
X116457487Y-81807500D01*
X116463939Y-81806128D01*
X116463944Y-81806128D01*
X116550888Y-81787647D01*
X116644288Y-81767794D01*
X116787027Y-81704243D01*
X116812722Y-81692803D01*
X116812724Y-81692802D01*
X116818752Y-81690118D01*
X116837181Y-81676729D01*
X116900612Y-81630643D01*
X116973253Y-81577866D01*
X117038811Y-81505056D01*
X117096621Y-81440852D01*
X117096622Y-81440851D01*
X117101040Y-81435944D01*
X117159314Y-81335010D01*
X117193223Y-81276279D01*
X117193224Y-81276278D01*
X117196527Y-81270556D01*
X117255542Y-81088928D01*
X117263854Y-81009849D01*
X117274814Y-80905565D01*
X117275504Y-80899000D01*
X117274814Y-80892435D01*
X117256232Y-80715635D01*
X117256232Y-80715633D01*
X117255542Y-80709072D01*
X117196527Y-80527444D01*
X117101040Y-80362056D01*
X116996222Y-80245643D01*
X116977675Y-80225045D01*
X116977674Y-80225044D01*
X116973253Y-80220134D01*
X116896732Y-80164538D01*
X116853378Y-80108316D01*
X116847303Y-80037579D01*
X116880435Y-79974788D01*
X116896731Y-79960666D01*
X116943253Y-79926866D01*
X117039411Y-79820072D01*
X117066621Y-79789852D01*
X117066622Y-79789851D01*
X117071040Y-79784944D01*
X117087751Y-79756000D01*
X147803496Y-79756000D01*
X147804186Y-79762565D01*
X147821863Y-79930749D01*
X147823458Y-79945928D01*
X147882473Y-80127556D01*
X147977960Y-80292944D01*
X147982378Y-80297851D01*
X147982379Y-80297852D01*
X148101325Y-80429955D01*
X148105747Y-80434866D01*
X148204843Y-80506864D01*
X148241820Y-80533729D01*
X148260248Y-80547118D01*
X148266276Y-80549802D01*
X148266278Y-80549803D01*
X148364970Y-80593743D01*
X148434712Y-80624794D01*
X148528112Y-80644647D01*
X148615056Y-80663128D01*
X148615061Y-80663128D01*
X148621513Y-80664500D01*
X148812487Y-80664500D01*
X148818939Y-80663128D01*
X148818944Y-80663128D01*
X148905888Y-80644647D01*
X148999288Y-80624794D01*
X149069030Y-80593743D01*
X149167722Y-80549803D01*
X149167724Y-80549802D01*
X149173752Y-80547118D01*
X149192181Y-80533729D01*
X149229157Y-80506864D01*
X149328253Y-80434866D01*
X149332675Y-80429955D01*
X149451621Y-80297852D01*
X149451622Y-80297851D01*
X149456040Y-80292944D01*
X149551527Y-80127556D01*
X149589724Y-80010000D01*
X163678496Y-80010000D01*
X163698458Y-80199928D01*
X163757473Y-80381556D01*
X163852960Y-80546944D01*
X163980747Y-80688866D01*
X164135248Y-80801118D01*
X164141276Y-80803802D01*
X164141278Y-80803803D01*
X164295128Y-80872301D01*
X164309712Y-80878794D01*
X164373888Y-80892435D01*
X164490056Y-80917128D01*
X164490061Y-80917128D01*
X164496513Y-80918500D01*
X164687487Y-80918500D01*
X164693939Y-80917128D01*
X164693944Y-80917128D01*
X164810112Y-80892435D01*
X164874288Y-80878794D01*
X164888872Y-80872301D01*
X165042722Y-80803803D01*
X165042724Y-80803802D01*
X165048752Y-80801118D01*
X165203253Y-80688866D01*
X165331040Y-80546944D01*
X165426527Y-80381556D01*
X165485542Y-80199928D01*
X165505504Y-80010000D01*
X165498080Y-79939365D01*
X165486232Y-79826635D01*
X165486232Y-79826633D01*
X165485542Y-79820072D01*
X165426527Y-79638444D01*
X165331040Y-79473056D01*
X165305064Y-79444206D01*
X165207675Y-79336045D01*
X165207674Y-79336044D01*
X165203253Y-79331134D01*
X165088829Y-79248000D01*
X165054094Y-79222763D01*
X165054093Y-79222762D01*
X165048752Y-79218882D01*
X165042724Y-79216198D01*
X165042722Y-79216197D01*
X164880319Y-79143891D01*
X164880318Y-79143891D01*
X164874288Y-79141206D01*
X164780887Y-79121353D01*
X164693944Y-79102872D01*
X164693939Y-79102872D01*
X164687487Y-79101500D01*
X164496513Y-79101500D01*
X164490061Y-79102872D01*
X164490056Y-79102872D01*
X164403113Y-79121353D01*
X164309712Y-79141206D01*
X164303682Y-79143891D01*
X164303681Y-79143891D01*
X164141278Y-79216197D01*
X164141276Y-79216198D01*
X164135248Y-79218882D01*
X164129907Y-79222762D01*
X164129906Y-79222763D01*
X164095171Y-79248000D01*
X163980747Y-79331134D01*
X163976326Y-79336044D01*
X163976325Y-79336045D01*
X163878937Y-79444206D01*
X163852960Y-79473056D01*
X163757473Y-79638444D01*
X163698458Y-79820072D01*
X163697768Y-79826633D01*
X163697768Y-79826635D01*
X163685920Y-79939365D01*
X163678496Y-80010000D01*
X149589724Y-80010000D01*
X149610542Y-79945928D01*
X149612138Y-79930749D01*
X149629814Y-79762565D01*
X149630504Y-79756000D01*
X149618149Y-79638444D01*
X149611232Y-79572635D01*
X149611232Y-79572633D01*
X149610542Y-79566072D01*
X149551527Y-79384444D01*
X149521940Y-79333197D01*
X149472751Y-79248000D01*
X149456040Y-79219056D01*
X149410744Y-79168749D01*
X149332675Y-79082045D01*
X149332674Y-79082044D01*
X149328253Y-79077134D01*
X149173752Y-78964882D01*
X149167724Y-78962198D01*
X149167722Y-78962197D01*
X149005319Y-78889891D01*
X149005318Y-78889891D01*
X148999288Y-78887206D01*
X148905888Y-78867353D01*
X148818944Y-78848872D01*
X148818939Y-78848872D01*
X148812487Y-78847500D01*
X148621513Y-78847500D01*
X148615061Y-78848872D01*
X148615056Y-78848872D01*
X148528112Y-78867353D01*
X148434712Y-78887206D01*
X148428682Y-78889891D01*
X148428681Y-78889891D01*
X148266278Y-78962197D01*
X148266276Y-78962198D01*
X148260248Y-78964882D01*
X148105747Y-79077134D01*
X148101326Y-79082044D01*
X148101325Y-79082045D01*
X148023257Y-79168749D01*
X147977960Y-79219056D01*
X147961249Y-79248000D01*
X147912061Y-79333197D01*
X147882473Y-79384444D01*
X147823458Y-79566072D01*
X147822768Y-79572633D01*
X147822768Y-79572635D01*
X147815851Y-79638444D01*
X147803496Y-79756000D01*
X117087751Y-79756000D01*
X117166527Y-79619556D01*
X117225542Y-79437928D01*
X117227871Y-79415775D01*
X117244814Y-79254565D01*
X117245504Y-79248000D01*
X117241378Y-79208743D01*
X117226232Y-79064635D01*
X117226232Y-79064633D01*
X117225542Y-79058072D01*
X117166527Y-78876444D01*
X117071040Y-78711056D01*
X117045064Y-78682206D01*
X116947675Y-78574045D01*
X116947674Y-78574044D01*
X116943253Y-78569134D01*
X116819917Y-78479525D01*
X116794094Y-78460763D01*
X116794093Y-78460762D01*
X116788752Y-78456882D01*
X116782724Y-78454198D01*
X116782722Y-78454197D01*
X116620319Y-78381891D01*
X116620318Y-78381891D01*
X116614288Y-78379206D01*
X116520888Y-78359353D01*
X116433944Y-78340872D01*
X116433939Y-78340872D01*
X116427487Y-78339500D01*
X116236513Y-78339500D01*
X116230061Y-78340872D01*
X116230056Y-78340872D01*
X116143112Y-78359353D01*
X116049712Y-78379206D01*
X116043682Y-78381891D01*
X116043681Y-78381891D01*
X115881278Y-78454197D01*
X115881276Y-78454198D01*
X115875248Y-78456882D01*
X115869907Y-78460762D01*
X115869906Y-78460763D01*
X115844083Y-78479525D01*
X115720747Y-78569134D01*
X115716326Y-78574044D01*
X115716325Y-78574045D01*
X115618937Y-78682206D01*
X115592960Y-78711056D01*
X115497473Y-78876444D01*
X115438458Y-79058072D01*
X115437768Y-79064633D01*
X115437768Y-79064635D01*
X115422622Y-79208743D01*
X115418496Y-79248000D01*
X105177912Y-79248000D01*
X105164034Y-79218238D01*
X105164031Y-79218233D01*
X105161708Y-79213251D01*
X105082965Y-79100794D01*
X105033542Y-79030211D01*
X105033540Y-79030208D01*
X105030383Y-79025700D01*
X104868485Y-78863802D01*
X104863977Y-78860645D01*
X104863974Y-78860643D01*
X104724848Y-78763226D01*
X104680934Y-78732477D01*
X104675952Y-78730154D01*
X104675947Y-78730151D01*
X104478410Y-78638039D01*
X104478409Y-78638039D01*
X104473428Y-78635716D01*
X104468120Y-78634294D01*
X104468118Y-78634293D01*
X104365166Y-78606707D01*
X104304543Y-78569755D01*
X104273522Y-78505894D01*
X104281950Y-78435400D01*
X104327153Y-78380653D01*
X104365166Y-78363293D01*
X104468118Y-78335707D01*
X104468120Y-78335706D01*
X104473428Y-78334284D01*
X104478410Y-78331961D01*
X104675947Y-78239849D01*
X104675952Y-78239846D01*
X104680934Y-78237523D01*
X104688822Y-78232000D01*
X144628496Y-78232000D01*
X144629186Y-78238565D01*
X144645475Y-78393543D01*
X144648458Y-78421928D01*
X144707473Y-78603556D01*
X144802960Y-78768944D01*
X144807378Y-78773851D01*
X144807379Y-78773852D01*
X144888370Y-78863802D01*
X144930747Y-78910866D01*
X145085248Y-79023118D01*
X145091276Y-79025802D01*
X145091278Y-79025803D01*
X145253681Y-79098109D01*
X145259712Y-79100794D01*
X145353113Y-79120647D01*
X145440056Y-79139128D01*
X145440061Y-79139128D01*
X145446513Y-79140500D01*
X145637487Y-79140500D01*
X145643939Y-79139128D01*
X145643944Y-79139128D01*
X145730887Y-79120647D01*
X145824288Y-79100794D01*
X145830319Y-79098109D01*
X145992722Y-79025803D01*
X145992724Y-79025802D01*
X145998752Y-79023118D01*
X146153253Y-78910866D01*
X146195630Y-78863802D01*
X146276621Y-78773852D01*
X146276622Y-78773851D01*
X146281040Y-78768944D01*
X146376527Y-78603556D01*
X146414724Y-78486000D01*
X159106496Y-78486000D01*
X159107186Y-78492565D01*
X159122232Y-78635716D01*
X159126458Y-78675928D01*
X159185473Y-78857556D01*
X159280960Y-79022944D01*
X159285378Y-79027851D01*
X159285379Y-79027852D01*
X159329753Y-79077134D01*
X159408747Y-79164866D01*
X159469138Y-79208743D01*
X159532207Y-79254565D01*
X159563248Y-79277118D01*
X159569276Y-79279802D01*
X159569278Y-79279803D01*
X159731681Y-79352109D01*
X159737712Y-79354794D01*
X159831113Y-79374647D01*
X159918056Y-79393128D01*
X159918061Y-79393128D01*
X159924513Y-79394500D01*
X160115487Y-79394500D01*
X160121939Y-79393128D01*
X160121944Y-79393128D01*
X160208887Y-79374647D01*
X160302288Y-79354794D01*
X160308319Y-79352109D01*
X160470722Y-79279803D01*
X160470724Y-79279802D01*
X160476752Y-79277118D01*
X160507794Y-79254565D01*
X160570862Y-79208743D01*
X160631253Y-79164866D01*
X160710247Y-79077134D01*
X160754621Y-79027852D01*
X160754622Y-79027851D01*
X160759040Y-79022944D01*
X160854527Y-78857556D01*
X160913542Y-78675928D01*
X160917769Y-78635716D01*
X160932814Y-78492565D01*
X160933504Y-78486000D01*
X160924491Y-78400245D01*
X160914232Y-78302635D01*
X160914232Y-78302633D01*
X160913542Y-78296072D01*
X160854527Y-78114444D01*
X160759040Y-77949056D01*
X160679254Y-77860444D01*
X160635675Y-77812045D01*
X160635674Y-77812044D01*
X160631253Y-77807134D01*
X160503831Y-77714556D01*
X160482094Y-77698763D01*
X160482093Y-77698762D01*
X160476752Y-77694882D01*
X160470724Y-77692198D01*
X160470722Y-77692197D01*
X160308319Y-77619891D01*
X160308318Y-77619891D01*
X160302288Y-77617206D01*
X160208887Y-77597353D01*
X160121944Y-77578872D01*
X160121939Y-77578872D01*
X160115487Y-77577500D01*
X159924513Y-77577500D01*
X159918061Y-77578872D01*
X159918056Y-77578872D01*
X159831113Y-77597353D01*
X159737712Y-77617206D01*
X159731682Y-77619891D01*
X159731681Y-77619891D01*
X159569278Y-77692197D01*
X159569276Y-77692198D01*
X159563248Y-77694882D01*
X159557907Y-77698762D01*
X159557906Y-77698763D01*
X159536169Y-77714556D01*
X159408747Y-77807134D01*
X159404326Y-77812044D01*
X159404325Y-77812045D01*
X159360747Y-77860444D01*
X159280960Y-77949056D01*
X159185473Y-78114444D01*
X159126458Y-78296072D01*
X159125768Y-78302633D01*
X159125768Y-78302635D01*
X159115509Y-78400245D01*
X159106496Y-78486000D01*
X146414724Y-78486000D01*
X146435542Y-78421928D01*
X146438526Y-78393543D01*
X146454814Y-78238565D01*
X146455504Y-78232000D01*
X146454814Y-78225435D01*
X146436232Y-78048635D01*
X146436232Y-78048633D01*
X146435542Y-78042072D01*
X146376527Y-77860444D01*
X146281040Y-77695056D01*
X146236160Y-77645211D01*
X146157675Y-77558045D01*
X146157674Y-77558044D01*
X146153253Y-77553134D01*
X145998752Y-77440882D01*
X145992724Y-77438198D01*
X145992722Y-77438197D01*
X145830319Y-77365891D01*
X145830318Y-77365891D01*
X145824288Y-77363206D01*
X145729227Y-77343000D01*
X167742496Y-77343000D01*
X167743186Y-77349565D01*
X167753192Y-77444763D01*
X167762458Y-77532928D01*
X167821473Y-77714556D01*
X167916960Y-77879944D01*
X167921378Y-77884851D01*
X167921379Y-77884852D01*
X167974769Y-77944148D01*
X168044747Y-78021866D01*
X168143843Y-78093864D01*
X168180820Y-78120729D01*
X168199248Y-78134118D01*
X168205276Y-78136802D01*
X168205278Y-78136803D01*
X168367681Y-78209109D01*
X168373712Y-78211794D01*
X168437888Y-78225435D01*
X168554056Y-78250128D01*
X168554061Y-78250128D01*
X168560513Y-78251500D01*
X168751487Y-78251500D01*
X168757939Y-78250128D01*
X168757944Y-78250128D01*
X168874112Y-78225435D01*
X168938288Y-78211794D01*
X168944319Y-78209109D01*
X169106722Y-78136803D01*
X169106724Y-78136802D01*
X169112752Y-78134118D01*
X169131181Y-78120729D01*
X169168157Y-78093864D01*
X169267253Y-78021866D01*
X169337231Y-77944148D01*
X169390621Y-77884852D01*
X169390622Y-77884851D01*
X169395040Y-77879944D01*
X169490527Y-77714556D01*
X169549542Y-77532928D01*
X169558809Y-77444763D01*
X169568814Y-77349565D01*
X169569504Y-77343000D01*
X169567599Y-77324872D01*
X169550232Y-77159635D01*
X169550232Y-77159633D01*
X169549542Y-77153072D01*
X169490527Y-76971444D01*
X169478555Y-76950707D01*
X169453314Y-76906990D01*
X169395040Y-76806056D01*
X169267253Y-76664134D01*
X169112752Y-76551882D01*
X169106724Y-76549198D01*
X169106722Y-76549197D01*
X168944319Y-76476891D01*
X168944318Y-76476891D01*
X168938288Y-76474206D01*
X168844888Y-76454353D01*
X168757944Y-76435872D01*
X168757939Y-76435872D01*
X168751487Y-76434500D01*
X168560513Y-76434500D01*
X168554061Y-76435872D01*
X168554056Y-76435872D01*
X168467112Y-76454353D01*
X168373712Y-76474206D01*
X168367682Y-76476891D01*
X168367681Y-76476891D01*
X168205278Y-76549197D01*
X168205276Y-76549198D01*
X168199248Y-76551882D01*
X168044747Y-76664134D01*
X167916960Y-76806056D01*
X167858686Y-76906990D01*
X167833446Y-76950707D01*
X167821473Y-76971444D01*
X167762458Y-77153072D01*
X167761768Y-77159633D01*
X167761768Y-77159635D01*
X167744401Y-77324872D01*
X167742496Y-77343000D01*
X145729227Y-77343000D01*
X145643944Y-77324872D01*
X145643939Y-77324872D01*
X145637487Y-77323500D01*
X145446513Y-77323500D01*
X145440061Y-77324872D01*
X145440056Y-77324872D01*
X145354773Y-77343000D01*
X145259712Y-77363206D01*
X145253682Y-77365891D01*
X145253681Y-77365891D01*
X145091278Y-77438197D01*
X145091276Y-77438198D01*
X145085248Y-77440882D01*
X144930747Y-77553134D01*
X144926326Y-77558044D01*
X144926325Y-77558045D01*
X144847841Y-77645211D01*
X144802960Y-77695056D01*
X144707473Y-77860444D01*
X144648458Y-78042072D01*
X144647768Y-78048633D01*
X144647768Y-78048635D01*
X144629186Y-78225435D01*
X144628496Y-78232000D01*
X104688822Y-78232000D01*
X104856709Y-78114444D01*
X104863974Y-78109357D01*
X104863977Y-78109355D01*
X104868485Y-78106198D01*
X105030383Y-77944300D01*
X105079450Y-77874226D01*
X105108150Y-77833238D01*
X105161708Y-77756749D01*
X105164031Y-77751767D01*
X105164034Y-77751762D01*
X105256146Y-77554225D01*
X105256146Y-77554224D01*
X105258469Y-77549243D01*
X105261159Y-77539206D01*
X105316304Y-77333402D01*
X105316304Y-77333400D01*
X105317728Y-77328087D01*
X105337683Y-77100000D01*
X105317728Y-76871913D01*
X105313156Y-76854849D01*
X105259892Y-76656067D01*
X105259891Y-76656065D01*
X105258469Y-76650757D01*
X105256146Y-76645775D01*
X105164034Y-76448238D01*
X105164031Y-76448233D01*
X105161708Y-76443251D01*
X105030383Y-76255700D01*
X104868485Y-76093802D01*
X104863977Y-76090645D01*
X104863974Y-76090643D01*
X104785796Y-76035902D01*
X104680934Y-75962477D01*
X104675952Y-75960154D01*
X104675947Y-75960151D01*
X104478410Y-75868039D01*
X104478409Y-75868039D01*
X104473428Y-75865716D01*
X104468120Y-75864294D01*
X104468118Y-75864293D01*
X104257587Y-75807881D01*
X104257585Y-75807881D01*
X104252272Y-75806457D01*
X104024185Y-75786502D01*
X103796098Y-75806457D01*
X103790785Y-75807881D01*
X103790783Y-75807881D01*
X103580252Y-75864293D01*
X103580250Y-75864294D01*
X103574942Y-75865716D01*
X103569961Y-75868039D01*
X103569960Y-75868039D01*
X103372423Y-75960151D01*
X103372418Y-75960154D01*
X103367436Y-75962477D01*
X103262574Y-76035902D01*
X103184396Y-76090643D01*
X103184393Y-76090645D01*
X103179885Y-76093802D01*
X103017987Y-76255700D01*
X102886662Y-76443251D01*
X102884339Y-76448233D01*
X102884336Y-76448238D01*
X102792224Y-76645775D01*
X102789901Y-76650757D01*
X102788479Y-76656065D01*
X102788478Y-76656067D01*
X102735214Y-76854849D01*
X102730642Y-76871913D01*
X102710687Y-77100000D01*
X102730642Y-77328087D01*
X102732066Y-77333400D01*
X102732066Y-77333402D01*
X102787212Y-77539206D01*
X102789901Y-77549243D01*
X102792224Y-77554224D01*
X102792224Y-77554225D01*
X102884336Y-77751762D01*
X102884339Y-77751767D01*
X102886662Y-77756749D01*
X102940220Y-77833238D01*
X102968921Y-77874226D01*
X103017987Y-77944300D01*
X103179885Y-78106198D01*
X103184393Y-78109355D01*
X103184396Y-78109357D01*
X103191661Y-78114444D01*
X103367436Y-78237523D01*
X103372418Y-78239846D01*
X103372423Y-78239849D01*
X103569960Y-78331961D01*
X103574942Y-78334284D01*
X103580250Y-78335706D01*
X103580252Y-78335707D01*
X103683204Y-78363293D01*
X103743827Y-78400245D01*
X103774848Y-78464106D01*
X103766420Y-78534600D01*
X103721217Y-78589347D01*
X103683204Y-78606707D01*
X103580252Y-78634293D01*
X103580250Y-78634294D01*
X103574942Y-78635716D01*
X103569961Y-78638039D01*
X103569960Y-78638039D01*
X103372423Y-78730151D01*
X103372418Y-78730154D01*
X103367436Y-78732477D01*
X103323522Y-78763226D01*
X103184396Y-78860643D01*
X103184393Y-78860645D01*
X103179885Y-78863802D01*
X103017987Y-79025700D01*
X103014830Y-79030208D01*
X103014828Y-79030211D01*
X102965405Y-79100794D01*
X102886662Y-79213251D01*
X102884339Y-79218233D01*
X102884336Y-79218238D01*
X102802145Y-79394500D01*
X102789901Y-79420757D01*
X102788479Y-79426065D01*
X102788478Y-79426067D01*
X102735214Y-79624849D01*
X102730642Y-79641913D01*
X102710687Y-79870000D01*
X102730642Y-80098087D01*
X102732066Y-80103400D01*
X102732066Y-80103402D01*
X102764661Y-80225045D01*
X102789901Y-80319243D01*
X102792224Y-80324224D01*
X102792224Y-80324225D01*
X102884336Y-80521762D01*
X102884339Y-80521767D01*
X102886662Y-80526749D01*
X102940220Y-80603238D01*
X102983117Y-80664500D01*
X103017987Y-80714300D01*
X103179885Y-80876198D01*
X103184393Y-80879355D01*
X103184396Y-80879357D01*
X103221825Y-80905565D01*
X103367436Y-81007523D01*
X103372418Y-81009846D01*
X103372423Y-81009849D01*
X103555474Y-81095206D01*
X103574942Y-81104284D01*
X103580250Y-81105706D01*
X103580252Y-81105707D01*
X103683204Y-81133293D01*
X103743827Y-81170245D01*
X103774848Y-81234106D01*
X103766420Y-81304600D01*
X103721217Y-81359347D01*
X103683204Y-81376707D01*
X103580252Y-81404293D01*
X103580250Y-81404294D01*
X103574942Y-81405716D01*
X103569961Y-81408039D01*
X103569960Y-81408039D01*
X103372423Y-81500151D01*
X103372418Y-81500154D01*
X103367436Y-81502477D01*
X103355587Y-81510774D01*
X103184396Y-81630643D01*
X103184393Y-81630645D01*
X103179885Y-81633802D01*
X103017987Y-81795700D01*
X103014830Y-81800208D01*
X103014828Y-81800211D01*
X102982911Y-81845794D01*
X102886662Y-81983251D01*
X102884339Y-81988233D01*
X102884336Y-81988238D01*
X102792224Y-82185775D01*
X102789901Y-82190757D01*
X102788479Y-82196065D01*
X102788478Y-82196067D01*
X102735214Y-82394849D01*
X102730642Y-82411913D01*
X102710687Y-82640000D01*
X102730642Y-82868087D01*
X102732066Y-82873400D01*
X102732066Y-82873402D01*
X102752725Y-82950500D01*
X102789901Y-83089243D01*
X102792224Y-83094224D01*
X102792224Y-83094225D01*
X102884336Y-83291762D01*
X102884339Y-83291767D01*
X102886662Y-83296749D01*
X103017987Y-83484300D01*
X103179885Y-83646198D01*
X103184393Y-83649355D01*
X103184396Y-83649357D01*
X103262574Y-83704098D01*
X103367436Y-83777523D01*
X103372418Y-83779846D01*
X103372423Y-83779849D01*
X103569960Y-83871961D01*
X103574942Y-83874284D01*
X103580250Y-83875706D01*
X103580252Y-83875707D01*
X103683204Y-83903293D01*
X103743827Y-83940245D01*
X103774848Y-84004106D01*
X103766420Y-84074600D01*
X103721217Y-84129347D01*
X103683204Y-84146707D01*
X103580252Y-84174293D01*
X103580250Y-84174294D01*
X103574942Y-84175716D01*
X103569961Y-84178039D01*
X103569960Y-84178039D01*
X103372423Y-84270151D01*
X103372418Y-84270154D01*
X103367436Y-84272477D01*
X103262574Y-84345902D01*
X103184396Y-84400643D01*
X103184393Y-84400645D01*
X103179885Y-84403802D01*
X103017987Y-84565700D01*
X102886662Y-84753251D01*
X102884339Y-84758233D01*
X102884336Y-84758238D01*
X102792224Y-84955775D01*
X102789901Y-84960757D01*
X102730642Y-85181913D01*
X102710687Y-85410000D01*
X94488500Y-85410000D01*
X94488500Y-81255000D01*
X99870687Y-81255000D01*
X99890642Y-81483087D01*
X99892066Y-81488400D01*
X99892066Y-81488402D01*
X99946836Y-81692803D01*
X99949901Y-81704243D01*
X99952224Y-81709224D01*
X99952224Y-81709225D01*
X100044336Y-81906762D01*
X100044339Y-81906767D01*
X100046662Y-81911749D01*
X100177987Y-82099300D01*
X100339885Y-82261198D01*
X100344393Y-82264355D01*
X100344396Y-82264357D01*
X100422574Y-82319098D01*
X100527436Y-82392523D01*
X100532418Y-82394846D01*
X100532423Y-82394849D01*
X100729960Y-82486961D01*
X100734942Y-82489284D01*
X100740250Y-82490706D01*
X100740252Y-82490707D01*
X100950783Y-82547119D01*
X100950785Y-82547119D01*
X100956098Y-82548543D01*
X101184185Y-82568498D01*
X101412272Y-82548543D01*
X101417585Y-82547119D01*
X101417587Y-82547119D01*
X101628118Y-82490707D01*
X101628120Y-82490706D01*
X101633428Y-82489284D01*
X101638410Y-82486961D01*
X101835947Y-82394849D01*
X101835952Y-82394846D01*
X101840934Y-82392523D01*
X101945796Y-82319098D01*
X102023974Y-82264357D01*
X102023977Y-82264355D01*
X102028485Y-82261198D01*
X102190383Y-82099300D01*
X102321708Y-81911749D01*
X102324031Y-81906767D01*
X102324034Y-81906762D01*
X102416146Y-81709225D01*
X102416146Y-81709224D01*
X102418469Y-81704243D01*
X102421535Y-81692803D01*
X102476304Y-81488402D01*
X102476304Y-81488400D01*
X102477728Y-81483087D01*
X102497683Y-81255000D01*
X102477728Y-81026913D01*
X102473156Y-81009849D01*
X102419892Y-80811067D01*
X102419891Y-80811065D01*
X102418469Y-80805757D01*
X102414496Y-80797237D01*
X102324034Y-80603238D01*
X102324031Y-80603233D01*
X102321708Y-80598251D01*
X102210023Y-80438749D01*
X102193542Y-80415211D01*
X102193540Y-80415208D01*
X102190383Y-80410700D01*
X102028485Y-80248802D01*
X102023977Y-80245645D01*
X102023974Y-80245643D01*
X101908144Y-80164538D01*
X101840934Y-80117477D01*
X101835952Y-80115154D01*
X101835947Y-80115151D01*
X101638410Y-80023039D01*
X101638409Y-80023039D01*
X101633428Y-80020716D01*
X101628120Y-80019294D01*
X101628118Y-80019293D01*
X101525166Y-79991707D01*
X101464543Y-79954755D01*
X101433522Y-79890894D01*
X101441950Y-79820400D01*
X101487153Y-79765653D01*
X101525166Y-79748293D01*
X101628118Y-79720707D01*
X101628120Y-79720706D01*
X101633428Y-79719284D01*
X101638410Y-79716961D01*
X101835947Y-79624849D01*
X101835952Y-79624846D01*
X101840934Y-79622523D01*
X101945796Y-79549098D01*
X102023974Y-79494357D01*
X102023977Y-79494355D01*
X102028485Y-79491198D01*
X102190383Y-79329300D01*
X102321708Y-79141749D01*
X102324031Y-79136767D01*
X102324034Y-79136762D01*
X102416146Y-78939225D01*
X102416146Y-78939224D01*
X102418469Y-78934243D01*
X102423693Y-78914749D01*
X102476304Y-78718402D01*
X102476304Y-78718400D01*
X102477728Y-78713087D01*
X102497683Y-78485000D01*
X102477728Y-78256913D01*
X102472812Y-78238565D01*
X102419892Y-78041067D01*
X102419891Y-78041065D01*
X102418469Y-78035757D01*
X102409702Y-78016955D01*
X102324034Y-77833238D01*
X102324031Y-77833233D01*
X102321708Y-77828251D01*
X102190383Y-77640700D01*
X102028485Y-77478802D01*
X102023977Y-77475645D01*
X102023974Y-77475643D01*
X101945796Y-77420902D01*
X101840934Y-77347477D01*
X101835952Y-77345154D01*
X101835947Y-77345151D01*
X101638410Y-77253039D01*
X101638409Y-77253039D01*
X101633428Y-77250716D01*
X101628120Y-77249294D01*
X101628118Y-77249293D01*
X101525166Y-77221707D01*
X101464543Y-77184755D01*
X101433522Y-77120894D01*
X101441950Y-77050400D01*
X101487153Y-76995653D01*
X101525166Y-76978293D01*
X101628118Y-76950707D01*
X101628120Y-76950706D01*
X101633428Y-76949284D01*
X101638410Y-76946961D01*
X101835947Y-76854849D01*
X101835952Y-76854846D01*
X101840934Y-76852523D01*
X101945796Y-76779098D01*
X102023974Y-76724357D01*
X102023977Y-76724355D01*
X102028485Y-76721198D01*
X102190383Y-76559300D01*
X102197458Y-76549197D01*
X102268150Y-76448238D01*
X102321708Y-76371749D01*
X102324031Y-76366767D01*
X102324034Y-76366762D01*
X102416146Y-76169225D01*
X102416146Y-76169224D01*
X102418469Y-76164243D01*
X102472533Y-75962477D01*
X102476304Y-75948402D01*
X102476304Y-75948400D01*
X102477728Y-75943087D01*
X102497683Y-75715000D01*
X102484560Y-75565000D01*
X120879496Y-75565000D01*
X120880186Y-75571565D01*
X120896187Y-75723803D01*
X120899458Y-75754928D01*
X120958473Y-75936556D01*
X120961776Y-75942278D01*
X120961777Y-75942279D01*
X120975261Y-75965634D01*
X121053960Y-76101944D01*
X121058378Y-76106851D01*
X121058379Y-76106852D01*
X121085589Y-76137072D01*
X121181747Y-76243866D01*
X121204244Y-76260211D01*
X121305207Y-76333565D01*
X121336248Y-76356118D01*
X121342276Y-76358802D01*
X121342278Y-76358803D01*
X121381481Y-76376257D01*
X121510712Y-76433794D01*
X121604113Y-76453647D01*
X121691056Y-76472128D01*
X121691061Y-76472128D01*
X121697513Y-76473500D01*
X121888487Y-76473500D01*
X121894939Y-76472128D01*
X121894944Y-76472128D01*
X121981887Y-76453647D01*
X122075288Y-76433794D01*
X122204519Y-76376257D01*
X122243722Y-76358803D01*
X122243724Y-76358802D01*
X122249752Y-76356118D01*
X122280794Y-76333565D01*
X122289830Y-76327000D01*
X164567496Y-76327000D01*
X164568186Y-76333565D01*
X164582894Y-76473500D01*
X164587458Y-76516928D01*
X164646473Y-76698556D01*
X164741960Y-76863944D01*
X164746378Y-76868851D01*
X164746379Y-76868852D01*
X164816709Y-76946961D01*
X164869747Y-77005866D01*
X165024248Y-77118118D01*
X165030276Y-77120802D01*
X165030278Y-77120803D01*
X165188971Y-77191457D01*
X165198712Y-77195794D01*
X165292113Y-77215647D01*
X165379056Y-77234128D01*
X165379061Y-77234128D01*
X165385513Y-77235500D01*
X165576487Y-77235500D01*
X165582939Y-77234128D01*
X165582944Y-77234128D01*
X165669887Y-77215647D01*
X165763288Y-77195794D01*
X165773029Y-77191457D01*
X165931722Y-77120803D01*
X165931724Y-77120802D01*
X165937752Y-77118118D01*
X166092253Y-77005866D01*
X166145291Y-76946961D01*
X166215621Y-76868852D01*
X166215622Y-76868851D01*
X166220040Y-76863944D01*
X166315527Y-76698556D01*
X166374542Y-76516928D01*
X166379107Y-76473500D01*
X166393814Y-76333565D01*
X166394504Y-76327000D01*
X166386601Y-76251803D01*
X166375232Y-76143635D01*
X166375232Y-76143633D01*
X166374542Y-76137072D01*
X166315527Y-75955444D01*
X166220040Y-75790056D01*
X166194064Y-75761206D01*
X166096675Y-75653045D01*
X166096674Y-75653044D01*
X166092253Y-75648134D01*
X165977829Y-75565000D01*
X165943094Y-75539763D01*
X165943093Y-75539762D01*
X165937752Y-75535882D01*
X165931724Y-75533198D01*
X165931722Y-75533197D01*
X165769319Y-75460891D01*
X165769318Y-75460891D01*
X165763288Y-75458206D01*
X165669888Y-75438353D01*
X165582944Y-75419872D01*
X165582939Y-75419872D01*
X165576487Y-75418500D01*
X165385513Y-75418500D01*
X165379061Y-75419872D01*
X165379056Y-75419872D01*
X165292112Y-75438353D01*
X165198712Y-75458206D01*
X165192682Y-75460891D01*
X165192681Y-75460891D01*
X165030278Y-75533197D01*
X165030276Y-75533198D01*
X165024248Y-75535882D01*
X165018907Y-75539762D01*
X165018906Y-75539763D01*
X164984171Y-75565000D01*
X164869747Y-75648134D01*
X164865326Y-75653044D01*
X164865325Y-75653045D01*
X164767937Y-75761206D01*
X164741960Y-75790056D01*
X164646473Y-75955444D01*
X164587458Y-76137072D01*
X164586768Y-76143633D01*
X164586768Y-76143635D01*
X164575399Y-76251803D01*
X164567496Y-76327000D01*
X122289830Y-76327000D01*
X122381756Y-76260211D01*
X122404253Y-76243866D01*
X122500411Y-76137072D01*
X122527621Y-76106852D01*
X122527622Y-76106851D01*
X122532040Y-76101944D01*
X122610739Y-75965634D01*
X122624223Y-75942279D01*
X122624224Y-75942278D01*
X122627527Y-75936556D01*
X122686542Y-75754928D01*
X122689814Y-75723803D01*
X122705814Y-75571565D01*
X122706504Y-75565000D01*
X122695280Y-75458206D01*
X122687232Y-75381635D01*
X122687232Y-75381633D01*
X122686542Y-75375072D01*
X122627527Y-75193444D01*
X122532040Y-75028056D01*
X122519662Y-75014309D01*
X122488946Y-74950303D01*
X122491472Y-74930000D01*
X174092496Y-74930000D01*
X174093186Y-74936565D01*
X174107894Y-75076500D01*
X174112458Y-75119928D01*
X174171473Y-75301556D01*
X174266960Y-75466944D01*
X174271378Y-75471851D01*
X174271379Y-75471852D01*
X174284940Y-75486913D01*
X174394747Y-75608866D01*
X174443450Y-75644251D01*
X174533292Y-75709525D01*
X174549248Y-75721118D01*
X174555276Y-75723802D01*
X174555278Y-75723803D01*
X174697179Y-75786981D01*
X174723712Y-75798794D01*
X174817112Y-75818647D01*
X174904056Y-75837128D01*
X174904061Y-75837128D01*
X174910513Y-75838500D01*
X175101487Y-75838500D01*
X175107939Y-75837128D01*
X175107944Y-75837128D01*
X175194888Y-75818647D01*
X175288288Y-75798794D01*
X175314821Y-75786981D01*
X175456722Y-75723803D01*
X175456724Y-75723802D01*
X175462752Y-75721118D01*
X175478709Y-75709525D01*
X175568550Y-75644251D01*
X175617253Y-75608866D01*
X175727060Y-75486913D01*
X175740621Y-75471852D01*
X175740622Y-75471851D01*
X175745040Y-75466944D01*
X175840527Y-75301556D01*
X175899542Y-75119928D01*
X175904107Y-75076500D01*
X175918814Y-74936565D01*
X175919504Y-74930000D01*
X175912862Y-74866803D01*
X175900232Y-74746635D01*
X175900232Y-74746633D01*
X175899542Y-74740072D01*
X175840527Y-74558444D01*
X175745040Y-74393056D01*
X175719064Y-74364206D01*
X175621675Y-74256045D01*
X175621674Y-74256044D01*
X175617253Y-74251134D01*
X175502829Y-74168000D01*
X175468094Y-74142763D01*
X175468093Y-74142762D01*
X175462752Y-74138882D01*
X175456724Y-74136198D01*
X175456722Y-74136197D01*
X175294319Y-74063891D01*
X175294318Y-74063891D01*
X175288288Y-74061206D01*
X175194887Y-74041353D01*
X175107944Y-74022872D01*
X175107939Y-74022872D01*
X175101487Y-74021500D01*
X174910513Y-74021500D01*
X174904061Y-74022872D01*
X174904056Y-74022872D01*
X174817113Y-74041353D01*
X174723712Y-74061206D01*
X174717682Y-74063891D01*
X174717681Y-74063891D01*
X174555278Y-74136197D01*
X174555276Y-74136198D01*
X174549248Y-74138882D01*
X174543907Y-74142762D01*
X174543906Y-74142763D01*
X174509171Y-74168000D01*
X174394747Y-74251134D01*
X174390326Y-74256044D01*
X174390325Y-74256045D01*
X174292937Y-74364206D01*
X174266960Y-74393056D01*
X174171473Y-74558444D01*
X174112458Y-74740072D01*
X174111768Y-74746633D01*
X174111768Y-74746635D01*
X174099138Y-74866803D01*
X174092496Y-74930000D01*
X122491472Y-74930000D01*
X122497710Y-74879850D01*
X122519661Y-74845693D01*
X122532040Y-74831944D01*
X122627527Y-74666556D01*
X122686542Y-74484928D01*
X122706504Y-74295000D01*
X122692466Y-74161435D01*
X122687232Y-74111635D01*
X122687232Y-74111633D01*
X122686542Y-74105072D01*
X122627527Y-73923444D01*
X122532040Y-73758056D01*
X122519662Y-73744309D01*
X122488946Y-73680303D01*
X122497710Y-73609850D01*
X122519661Y-73575693D01*
X122532040Y-73561944D01*
X122627527Y-73396556D01*
X122686542Y-73214928D01*
X122706504Y-73025000D01*
X122686542Y-72835072D01*
X122627527Y-72653444D01*
X122622075Y-72644000D01*
X122537085Y-72496794D01*
X122532040Y-72488056D01*
X122421119Y-72364865D01*
X122408675Y-72351045D01*
X122408674Y-72351044D01*
X122404253Y-72346134D01*
X122263907Y-72244166D01*
X122255094Y-72237763D01*
X122255093Y-72237762D01*
X122249752Y-72233882D01*
X122243724Y-72231198D01*
X122243722Y-72231197D01*
X122081319Y-72158891D01*
X122081318Y-72158891D01*
X122075288Y-72156206D01*
X121981887Y-72136353D01*
X121894944Y-72117872D01*
X121894939Y-72117872D01*
X121888487Y-72116500D01*
X121697513Y-72116500D01*
X121691061Y-72117872D01*
X121691056Y-72117872D01*
X121604113Y-72136353D01*
X121510712Y-72156206D01*
X121504682Y-72158891D01*
X121504681Y-72158891D01*
X121342278Y-72231197D01*
X121342276Y-72231198D01*
X121336248Y-72233882D01*
X121330907Y-72237762D01*
X121330906Y-72237763D01*
X121322093Y-72244166D01*
X121181747Y-72346134D01*
X121177326Y-72351044D01*
X121177325Y-72351045D01*
X121164882Y-72364865D01*
X121053960Y-72488056D01*
X121048915Y-72496794D01*
X120963926Y-72644000D01*
X120958473Y-72653444D01*
X120899458Y-72835072D01*
X120879496Y-73025000D01*
X120899458Y-73214928D01*
X120958473Y-73396556D01*
X121053960Y-73561944D01*
X121066338Y-73575691D01*
X121097054Y-73639697D01*
X121088290Y-73710150D01*
X121066339Y-73744307D01*
X121053960Y-73758056D01*
X120958473Y-73923444D01*
X120899458Y-74105072D01*
X120898768Y-74111633D01*
X120898768Y-74111635D01*
X120893534Y-74161435D01*
X120879496Y-74295000D01*
X120899458Y-74484928D01*
X120958473Y-74666556D01*
X121053960Y-74831944D01*
X121066338Y-74845691D01*
X121097054Y-74909697D01*
X121088290Y-74980150D01*
X121066339Y-75014307D01*
X121053960Y-75028056D01*
X120958473Y-75193444D01*
X120899458Y-75375072D01*
X120898768Y-75381633D01*
X120898768Y-75381635D01*
X120890720Y-75458206D01*
X120879496Y-75565000D01*
X102484560Y-75565000D01*
X102477728Y-75486913D01*
X102476304Y-75481598D01*
X102419892Y-75271067D01*
X102419891Y-75271065D01*
X102418469Y-75265757D01*
X102384749Y-75193444D01*
X102324034Y-75063238D01*
X102324031Y-75063233D01*
X102321708Y-75058251D01*
X102236502Y-74936565D01*
X102193542Y-74875211D01*
X102193540Y-74875208D01*
X102190383Y-74870700D01*
X102028485Y-74708802D01*
X102023977Y-74705645D01*
X102023974Y-74705643D01*
X101945796Y-74650902D01*
X101840934Y-74577477D01*
X101835952Y-74575154D01*
X101835947Y-74575151D01*
X101638410Y-74483039D01*
X101638409Y-74483039D01*
X101633428Y-74480716D01*
X101628120Y-74479294D01*
X101628118Y-74479293D01*
X101417587Y-74422881D01*
X101417585Y-74422881D01*
X101412272Y-74421457D01*
X101184185Y-74401502D01*
X100956098Y-74421457D01*
X100950785Y-74422881D01*
X100950783Y-74422881D01*
X100740252Y-74479293D01*
X100740250Y-74479294D01*
X100734942Y-74480716D01*
X100729961Y-74483039D01*
X100729960Y-74483039D01*
X100532423Y-74575151D01*
X100532418Y-74575154D01*
X100527436Y-74577477D01*
X100422574Y-74650902D01*
X100344396Y-74705643D01*
X100344393Y-74705645D01*
X100339885Y-74708802D01*
X100177987Y-74870700D01*
X100174830Y-74875208D01*
X100174828Y-74875211D01*
X100131868Y-74936565D01*
X100046662Y-75058251D01*
X100044339Y-75063233D01*
X100044336Y-75063238D01*
X99983621Y-75193444D01*
X99949901Y-75265757D01*
X99948479Y-75271065D01*
X99948478Y-75271067D01*
X99892066Y-75481598D01*
X99890642Y-75486913D01*
X99870687Y-75715000D01*
X99890642Y-75943087D01*
X99892066Y-75948400D01*
X99892066Y-75948402D01*
X99895838Y-75962477D01*
X99949901Y-76164243D01*
X99952224Y-76169224D01*
X99952224Y-76169225D01*
X100044336Y-76366762D01*
X100044339Y-76366767D01*
X100046662Y-76371749D01*
X100100220Y-76448238D01*
X100170913Y-76549197D01*
X100177987Y-76559300D01*
X100339885Y-76721198D01*
X100344393Y-76724355D01*
X100344396Y-76724357D01*
X100422574Y-76779098D01*
X100527436Y-76852523D01*
X100532418Y-76854846D01*
X100532423Y-76854849D01*
X100729960Y-76946961D01*
X100734942Y-76949284D01*
X100740250Y-76950706D01*
X100740252Y-76950707D01*
X100843204Y-76978293D01*
X100903827Y-77015245D01*
X100934848Y-77079106D01*
X100926420Y-77149600D01*
X100881217Y-77204347D01*
X100843204Y-77221707D01*
X100740252Y-77249293D01*
X100740250Y-77249294D01*
X100734942Y-77250716D01*
X100729961Y-77253039D01*
X100729960Y-77253039D01*
X100532423Y-77345151D01*
X100532418Y-77345154D01*
X100527436Y-77347477D01*
X100422574Y-77420902D01*
X100344396Y-77475643D01*
X100344393Y-77475645D01*
X100339885Y-77478802D01*
X100177987Y-77640700D01*
X100046662Y-77828251D01*
X100044339Y-77833233D01*
X100044336Y-77833238D01*
X99958668Y-78016955D01*
X99949901Y-78035757D01*
X99948479Y-78041065D01*
X99948478Y-78041067D01*
X99895558Y-78238565D01*
X99890642Y-78256913D01*
X99870687Y-78485000D01*
X99890642Y-78713087D01*
X99892066Y-78718400D01*
X99892066Y-78718402D01*
X99944678Y-78914749D01*
X99949901Y-78934243D01*
X99952224Y-78939224D01*
X99952224Y-78939225D01*
X100044336Y-79136762D01*
X100044339Y-79136767D01*
X100046662Y-79141749D01*
X100177987Y-79329300D01*
X100339885Y-79491198D01*
X100344393Y-79494355D01*
X100344396Y-79494357D01*
X100422574Y-79549098D01*
X100527436Y-79622523D01*
X100532418Y-79624846D01*
X100532423Y-79624849D01*
X100729960Y-79716961D01*
X100734942Y-79719284D01*
X100740250Y-79720706D01*
X100740252Y-79720707D01*
X100843204Y-79748293D01*
X100903827Y-79785245D01*
X100934848Y-79849106D01*
X100926420Y-79919600D01*
X100881217Y-79974347D01*
X100843204Y-79991707D01*
X100740252Y-80019293D01*
X100740250Y-80019294D01*
X100734942Y-80020716D01*
X100729961Y-80023039D01*
X100729960Y-80023039D01*
X100532423Y-80115151D01*
X100532418Y-80115154D01*
X100527436Y-80117477D01*
X100460226Y-80164538D01*
X100344396Y-80245643D01*
X100344393Y-80245645D01*
X100339885Y-80248802D01*
X100177987Y-80410700D01*
X100174830Y-80415208D01*
X100174828Y-80415211D01*
X100158347Y-80438749D01*
X100046662Y-80598251D01*
X100044339Y-80603233D01*
X100044336Y-80603238D01*
X99953874Y-80797237D01*
X99949901Y-80805757D01*
X99948479Y-80811065D01*
X99948478Y-80811067D01*
X99895214Y-81009849D01*
X99890642Y-81026913D01*
X99870687Y-81255000D01*
X94488500Y-81255000D01*
X94488500Y-74168000D01*
X110084496Y-74168000D01*
X110085186Y-74174565D01*
X110092826Y-74247251D01*
X110104458Y-74357928D01*
X110163473Y-74539556D01*
X110258960Y-74704944D01*
X110263378Y-74709851D01*
X110263379Y-74709852D01*
X110290589Y-74740072D01*
X110386747Y-74846866D01*
X110473226Y-74909697D01*
X110510207Y-74936565D01*
X110541248Y-74959118D01*
X110547276Y-74961802D01*
X110547278Y-74961803D01*
X110696086Y-75028056D01*
X110715712Y-75036794D01*
X110809113Y-75056647D01*
X110896056Y-75075128D01*
X110896061Y-75075128D01*
X110902513Y-75076500D01*
X111093487Y-75076500D01*
X111099939Y-75075128D01*
X111099944Y-75075128D01*
X111186887Y-75056647D01*
X111280288Y-75036794D01*
X111299914Y-75028056D01*
X111448722Y-74961803D01*
X111448724Y-74961802D01*
X111454752Y-74959118D01*
X111485794Y-74936565D01*
X111522774Y-74909697D01*
X111609253Y-74846866D01*
X111705411Y-74740072D01*
X111732621Y-74709852D01*
X111732622Y-74709851D01*
X111737040Y-74704944D01*
X111832527Y-74539556D01*
X111891542Y-74357928D01*
X111903175Y-74247251D01*
X111910814Y-74174565D01*
X111911504Y-74168000D01*
X111900280Y-74061206D01*
X111892232Y-73984635D01*
X111892232Y-73984633D01*
X111891542Y-73978072D01*
X111832527Y-73796444D01*
X111737040Y-73631056D01*
X111687188Y-73575689D01*
X111613675Y-73494045D01*
X111613674Y-73494044D01*
X111609253Y-73489134D01*
X111481831Y-73396556D01*
X111460094Y-73380763D01*
X111460093Y-73380762D01*
X111454752Y-73376882D01*
X111448724Y-73374198D01*
X111448722Y-73374197D01*
X111286319Y-73301891D01*
X111286318Y-73301891D01*
X111280288Y-73299206D01*
X111186887Y-73279353D01*
X111099944Y-73260872D01*
X111099939Y-73260872D01*
X111093487Y-73259500D01*
X110902513Y-73259500D01*
X110896061Y-73260872D01*
X110896056Y-73260872D01*
X110809113Y-73279353D01*
X110715712Y-73299206D01*
X110709682Y-73301891D01*
X110709681Y-73301891D01*
X110547278Y-73374197D01*
X110547276Y-73374198D01*
X110541248Y-73376882D01*
X110535907Y-73380762D01*
X110535906Y-73380763D01*
X110514169Y-73396556D01*
X110386747Y-73489134D01*
X110382326Y-73494044D01*
X110382325Y-73494045D01*
X110308813Y-73575689D01*
X110258960Y-73631056D01*
X110163473Y-73796444D01*
X110104458Y-73978072D01*
X110103768Y-73984633D01*
X110103768Y-73984635D01*
X110095720Y-74061206D01*
X110084496Y-74168000D01*
X94488500Y-74168000D01*
X94488500Y-71374000D01*
X137897496Y-71374000D01*
X137917458Y-71563928D01*
X137976473Y-71745556D01*
X138071960Y-71910944D01*
X138076378Y-71915851D01*
X138076379Y-71915852D01*
X138173870Y-72024127D01*
X138199747Y-72052866D01*
X138267578Y-72102148D01*
X138341982Y-72156206D01*
X138354248Y-72165118D01*
X138360276Y-72167802D01*
X138360278Y-72167803D01*
X138508695Y-72233882D01*
X138528712Y-72242794D01*
X138622113Y-72262647D01*
X138709056Y-72281128D01*
X138709061Y-72281128D01*
X138715513Y-72282500D01*
X138906487Y-72282500D01*
X138912939Y-72281128D01*
X138912944Y-72281128D01*
X138999887Y-72262647D01*
X139093288Y-72242794D01*
X139113305Y-72233882D01*
X139261722Y-72167803D01*
X139261724Y-72167802D01*
X139267752Y-72165118D01*
X139280019Y-72156206D01*
X139354422Y-72102148D01*
X139422253Y-72052866D01*
X139448130Y-72024127D01*
X139545621Y-71915852D01*
X139545622Y-71915851D01*
X139550040Y-71910944D01*
X139645527Y-71745556D01*
X139683724Y-71628000D01*
X151867496Y-71628000D01*
X151868186Y-71634565D01*
X151882824Y-71773834D01*
X151887458Y-71817928D01*
X151946473Y-71999556D01*
X152041960Y-72164944D01*
X152046378Y-72169851D01*
X152046379Y-72169852D01*
X152101614Y-72231197D01*
X152169747Y-72306866D01*
X152324248Y-72419118D01*
X152330276Y-72421802D01*
X152330278Y-72421803D01*
X152402756Y-72454072D01*
X152498712Y-72496794D01*
X152592112Y-72516647D01*
X152679056Y-72535128D01*
X152679061Y-72535128D01*
X152685513Y-72536500D01*
X152876487Y-72536500D01*
X152882939Y-72535128D01*
X152882944Y-72535128D01*
X152969888Y-72516647D01*
X153063288Y-72496794D01*
X153159244Y-72454072D01*
X153231722Y-72421803D01*
X153231724Y-72421802D01*
X153237752Y-72419118D01*
X153392253Y-72306866D01*
X153460386Y-72231197D01*
X153515621Y-72169852D01*
X153515622Y-72169851D01*
X153520040Y-72164944D01*
X153615527Y-71999556D01*
X153671295Y-71827921D01*
X154715575Y-71827921D01*
X154716265Y-71834486D01*
X154730513Y-71970045D01*
X154735537Y-72017849D01*
X154794552Y-72199477D01*
X154797855Y-72205199D01*
X154797856Y-72205200D01*
X154814416Y-72233882D01*
X154890039Y-72364865D01*
X154894457Y-72369772D01*
X154894458Y-72369773D01*
X155006109Y-72493774D01*
X155017826Y-72506787D01*
X155172327Y-72619039D01*
X155178355Y-72621723D01*
X155178357Y-72621724D01*
X155340760Y-72694030D01*
X155346791Y-72696715D01*
X155440191Y-72716568D01*
X155527135Y-72735049D01*
X155527140Y-72735049D01*
X155533592Y-72736421D01*
X155724566Y-72736421D01*
X155731018Y-72735049D01*
X155731023Y-72735049D01*
X155817967Y-72716568D01*
X155911367Y-72696715D01*
X155917398Y-72694030D01*
X156029768Y-72644000D01*
X166472496Y-72644000D01*
X166473186Y-72650565D01*
X166482066Y-72735049D01*
X166492458Y-72833928D01*
X166551473Y-73015556D01*
X166554776Y-73021278D01*
X166554777Y-73021279D01*
X166560716Y-73031565D01*
X166646960Y-73180944D01*
X166774747Y-73322866D01*
X166929248Y-73435118D01*
X166935276Y-73437802D01*
X166935278Y-73437803D01*
X167097681Y-73510109D01*
X167103712Y-73512794D01*
X167197112Y-73532647D01*
X167284056Y-73551128D01*
X167284061Y-73551128D01*
X167290513Y-73552500D01*
X167481487Y-73552500D01*
X167487939Y-73551128D01*
X167487944Y-73551128D01*
X167574888Y-73532647D01*
X167668288Y-73512794D01*
X167674319Y-73510109D01*
X167836722Y-73437803D01*
X167836724Y-73437802D01*
X167842752Y-73435118D01*
X167997253Y-73322866D01*
X168125040Y-73180944D01*
X168211284Y-73031565D01*
X168217223Y-73021279D01*
X168217224Y-73021278D01*
X168220527Y-73015556D01*
X168279542Y-72833928D01*
X168289935Y-72735049D01*
X168298814Y-72650565D01*
X168299504Y-72644000D01*
X168296473Y-72615158D01*
X168280232Y-72460635D01*
X168280232Y-72460633D01*
X168279542Y-72454072D01*
X168220527Y-72272444D01*
X168125040Y-72107056D01*
X168079744Y-72056749D01*
X168001675Y-71970045D01*
X168001674Y-71970044D01*
X167997253Y-71965134D01*
X167842752Y-71852882D01*
X167836724Y-71850198D01*
X167836722Y-71850197D01*
X167674319Y-71777891D01*
X167674318Y-71777891D01*
X167668288Y-71775206D01*
X167555721Y-71751279D01*
X167487944Y-71736872D01*
X167487939Y-71736872D01*
X167481487Y-71735500D01*
X167290513Y-71735500D01*
X167284061Y-71736872D01*
X167284056Y-71736872D01*
X167216279Y-71751279D01*
X167103712Y-71775206D01*
X167097682Y-71777891D01*
X167097681Y-71777891D01*
X166935278Y-71850197D01*
X166935276Y-71850198D01*
X166929248Y-71852882D01*
X166774747Y-71965134D01*
X166770326Y-71970044D01*
X166770325Y-71970045D01*
X166692257Y-72056749D01*
X166646960Y-72107056D01*
X166551473Y-72272444D01*
X166492458Y-72454072D01*
X166491768Y-72460633D01*
X166491768Y-72460635D01*
X166475527Y-72615158D01*
X166472496Y-72644000D01*
X156029768Y-72644000D01*
X156079801Y-72621724D01*
X156079803Y-72621723D01*
X156085831Y-72619039D01*
X156240332Y-72506787D01*
X156252049Y-72493774D01*
X156363700Y-72369773D01*
X156363701Y-72369772D01*
X156368119Y-72364865D01*
X156443742Y-72233882D01*
X156460302Y-72205200D01*
X156460303Y-72205199D01*
X156463606Y-72199477D01*
X156522621Y-72017849D01*
X156527646Y-71970045D01*
X156541893Y-71834486D01*
X156542583Y-71827921D01*
X156537325Y-71777891D01*
X156523311Y-71644556D01*
X156523311Y-71644554D01*
X156522621Y-71637993D01*
X156463606Y-71456365D01*
X156368119Y-71290977D01*
X156342685Y-71262729D01*
X156244754Y-71153966D01*
X156244753Y-71153965D01*
X156240332Y-71149055D01*
X156085831Y-71036803D01*
X156079803Y-71034119D01*
X156079801Y-71034118D01*
X155917398Y-70961812D01*
X155917397Y-70961812D01*
X155911367Y-70959127D01*
X155817966Y-70939274D01*
X155731023Y-70920793D01*
X155731018Y-70920793D01*
X155724566Y-70919421D01*
X155533592Y-70919421D01*
X155527140Y-70920793D01*
X155527135Y-70920793D01*
X155440192Y-70939274D01*
X155346791Y-70959127D01*
X155340761Y-70961812D01*
X155340760Y-70961812D01*
X155178357Y-71034118D01*
X155178355Y-71034119D01*
X155172327Y-71036803D01*
X155017826Y-71149055D01*
X155013405Y-71153965D01*
X155013404Y-71153966D01*
X154915474Y-71262729D01*
X154890039Y-71290977D01*
X154794552Y-71456365D01*
X154735537Y-71637993D01*
X154734847Y-71644554D01*
X154734847Y-71644556D01*
X154720833Y-71777891D01*
X154715575Y-71827921D01*
X153671295Y-71827921D01*
X153674542Y-71817928D01*
X153679177Y-71773834D01*
X153693814Y-71634565D01*
X153694504Y-71628000D01*
X153674542Y-71438072D01*
X153615527Y-71256444D01*
X153520040Y-71091056D01*
X153471191Y-71036803D01*
X153396675Y-70954045D01*
X153396674Y-70954044D01*
X153392253Y-70949134D01*
X153237752Y-70836882D01*
X153231724Y-70834198D01*
X153231722Y-70834197D01*
X153069319Y-70761891D01*
X153069318Y-70761891D01*
X153063288Y-70759206D01*
X152969888Y-70739353D01*
X152882944Y-70720872D01*
X152882939Y-70720872D01*
X152876487Y-70719500D01*
X152685513Y-70719500D01*
X152679061Y-70720872D01*
X152679056Y-70720872D01*
X152592112Y-70739353D01*
X152498712Y-70759206D01*
X152492682Y-70761891D01*
X152492681Y-70761891D01*
X152330278Y-70834197D01*
X152330276Y-70834198D01*
X152324248Y-70836882D01*
X152169747Y-70949134D01*
X152165326Y-70954044D01*
X152165325Y-70954045D01*
X152090810Y-71036803D01*
X152041960Y-71091056D01*
X151946473Y-71256444D01*
X151887458Y-71438072D01*
X151867496Y-71628000D01*
X139683724Y-71628000D01*
X139704542Y-71563928D01*
X139724504Y-71374000D01*
X139711547Y-71250721D01*
X139705232Y-71190635D01*
X139705232Y-71190633D01*
X139704542Y-71184072D01*
X139645527Y-71002444D01*
X139550040Y-70837056D01*
X139422253Y-70695134D01*
X139294831Y-70602556D01*
X139273094Y-70586763D01*
X139273093Y-70586762D01*
X139267752Y-70582882D01*
X139261724Y-70580198D01*
X139261722Y-70580197D01*
X139099319Y-70507891D01*
X139099318Y-70507891D01*
X139093288Y-70505206D01*
X138999888Y-70485353D01*
X138912944Y-70466872D01*
X138912939Y-70466872D01*
X138906487Y-70465500D01*
X138715513Y-70465500D01*
X138709061Y-70466872D01*
X138709056Y-70466872D01*
X138622112Y-70485353D01*
X138528712Y-70505206D01*
X138522682Y-70507891D01*
X138522681Y-70507891D01*
X138360278Y-70580197D01*
X138360276Y-70580198D01*
X138354248Y-70582882D01*
X138348907Y-70586762D01*
X138348906Y-70586763D01*
X138327169Y-70602556D01*
X138199747Y-70695134D01*
X138071960Y-70837056D01*
X137976473Y-71002444D01*
X137917458Y-71184072D01*
X137916768Y-71190633D01*
X137916768Y-71190635D01*
X137910453Y-71250721D01*
X137897496Y-71374000D01*
X94488500Y-71374000D01*
X94488500Y-68755000D01*
X100090725Y-68755000D01*
X100110544Y-69070020D01*
X100169690Y-69380072D01*
X100267229Y-69680266D01*
X100268916Y-69683852D01*
X100268918Y-69683856D01*
X100399935Y-69962283D01*
X100399939Y-69962290D01*
X100401623Y-69965869D01*
X100570753Y-70232375D01*
X100771952Y-70475582D01*
X101002045Y-70691654D01*
X101005247Y-70693981D01*
X101005249Y-70693982D01*
X101042260Y-70720872D01*
X101257406Y-70877184D01*
X101260875Y-70879091D01*
X101260878Y-70879093D01*
X101397215Y-70954045D01*
X101534006Y-71029247D01*
X101537675Y-71030700D01*
X101537680Y-71030702D01*
X101677721Y-71086148D01*
X101827483Y-71145443D01*
X102133210Y-71223940D01*
X102446364Y-71263500D01*
X102762006Y-71263500D01*
X103075160Y-71223940D01*
X103380887Y-71145443D01*
X103530649Y-71086148D01*
X103670690Y-71030702D01*
X103670695Y-71030700D01*
X103674364Y-71029247D01*
X103811155Y-70954045D01*
X103947492Y-70879093D01*
X103947495Y-70879091D01*
X103950964Y-70877184D01*
X104166110Y-70720872D01*
X104203121Y-70693982D01*
X104203123Y-70693981D01*
X104206325Y-70691654D01*
X104436418Y-70475582D01*
X104637617Y-70232375D01*
X104806747Y-69965869D01*
X104808431Y-69962290D01*
X104808435Y-69962283D01*
X104939452Y-69683856D01*
X104939454Y-69683852D01*
X104941141Y-69680266D01*
X105038680Y-69380072D01*
X105045943Y-69342000D01*
X112751496Y-69342000D01*
X112752186Y-69348565D01*
X112762192Y-69443763D01*
X112771458Y-69531928D01*
X112830473Y-69713556D01*
X112925960Y-69878944D01*
X112930378Y-69883851D01*
X112930379Y-69883852D01*
X113007241Y-69969216D01*
X113053747Y-70020866D01*
X113208248Y-70133118D01*
X113214276Y-70135802D01*
X113214278Y-70135803D01*
X113376681Y-70208109D01*
X113382712Y-70210794D01*
X113468477Y-70229024D01*
X113563056Y-70249128D01*
X113563061Y-70249128D01*
X113569513Y-70250500D01*
X113760487Y-70250500D01*
X113766939Y-70249128D01*
X113766944Y-70249128D01*
X113861523Y-70229024D01*
X113947288Y-70210794D01*
X113953319Y-70208109D01*
X114115722Y-70135803D01*
X114115724Y-70135802D01*
X114121752Y-70133118D01*
X114276253Y-70020866D01*
X114322759Y-69969216D01*
X114399621Y-69883852D01*
X114399622Y-69883851D01*
X114404040Y-69878944D01*
X114420751Y-69850000D01*
X144501496Y-69850000D01*
X144502186Y-69856565D01*
X144519863Y-70024749D01*
X144521458Y-70039928D01*
X144580473Y-70221556D01*
X144583776Y-70227278D01*
X144583777Y-70227279D01*
X144586719Y-70232375D01*
X144675960Y-70386944D01*
X144680378Y-70391851D01*
X144680379Y-70391852D01*
X144781208Y-70503834D01*
X144803747Y-70528866D01*
X144958248Y-70641118D01*
X144964276Y-70643802D01*
X144964278Y-70643803D01*
X145126681Y-70716109D01*
X145132712Y-70718794D01*
X145226113Y-70738647D01*
X145313056Y-70757128D01*
X145313061Y-70757128D01*
X145319513Y-70758500D01*
X145510487Y-70758500D01*
X145516939Y-70757128D01*
X145516944Y-70757128D01*
X145603887Y-70738647D01*
X145697288Y-70718794D01*
X145703319Y-70716109D01*
X145865722Y-70643803D01*
X145865724Y-70643802D01*
X145871752Y-70641118D01*
X146026253Y-70528866D01*
X146048792Y-70503834D01*
X146149621Y-70391852D01*
X146149622Y-70391851D01*
X146154040Y-70386944D01*
X146243281Y-70232375D01*
X146246223Y-70227279D01*
X146246224Y-70227278D01*
X146249527Y-70221556D01*
X146308542Y-70039928D01*
X146310138Y-70024749D01*
X146327814Y-69856565D01*
X146328504Y-69850000D01*
X146311042Y-69683856D01*
X146309232Y-69666635D01*
X146309232Y-69666633D01*
X146308542Y-69660072D01*
X146249527Y-69478444D01*
X146170751Y-69342000D01*
X154280496Y-69342000D01*
X154281186Y-69348565D01*
X154291192Y-69443763D01*
X154300458Y-69531928D01*
X154359473Y-69713556D01*
X154454960Y-69878944D01*
X154459378Y-69883851D01*
X154459379Y-69883852D01*
X154536241Y-69969216D01*
X154582747Y-70020866D01*
X154737248Y-70133118D01*
X154743276Y-70135802D01*
X154743278Y-70135803D01*
X154905681Y-70208109D01*
X154911712Y-70210794D01*
X154997477Y-70229024D01*
X155092056Y-70249128D01*
X155092061Y-70249128D01*
X155098513Y-70250500D01*
X155289487Y-70250500D01*
X155295939Y-70249128D01*
X155295944Y-70249128D01*
X155381227Y-70231000D01*
X169012496Y-70231000D01*
X169013186Y-70237565D01*
X169014546Y-70250500D01*
X169032458Y-70420928D01*
X169091473Y-70602556D01*
X169186960Y-70767944D01*
X169314747Y-70909866D01*
X169329787Y-70920793D01*
X169450820Y-71008729D01*
X169469248Y-71022118D01*
X169475276Y-71024802D01*
X169475278Y-71024803D01*
X169502231Y-71036803D01*
X169643712Y-71099794D01*
X169737112Y-71119647D01*
X169824056Y-71138128D01*
X169824061Y-71138128D01*
X169830513Y-71139500D01*
X170021487Y-71139500D01*
X170027939Y-71138128D01*
X170027944Y-71138128D01*
X170114888Y-71119647D01*
X170208288Y-71099794D01*
X170349769Y-71036803D01*
X170376722Y-71024803D01*
X170376724Y-71024802D01*
X170382752Y-71022118D01*
X170401181Y-71008729D01*
X170522213Y-70920793D01*
X170537253Y-70909866D01*
X170665040Y-70767944D01*
X170760527Y-70602556D01*
X170819542Y-70420928D01*
X170837455Y-70250500D01*
X170838814Y-70237565D01*
X170839504Y-70231000D01*
X170837851Y-70215271D01*
X170820232Y-70047635D01*
X170820232Y-70047633D01*
X170819542Y-70041072D01*
X170760527Y-69859444D01*
X170755075Y-69850000D01*
X170723314Y-69794990D01*
X170665040Y-69694056D01*
X170652624Y-69680266D01*
X170541675Y-69557045D01*
X170541674Y-69557044D01*
X170537253Y-69552134D01*
X170382752Y-69439882D01*
X170376724Y-69437198D01*
X170376722Y-69437197D01*
X170214319Y-69364891D01*
X170214318Y-69364891D01*
X170208288Y-69362206D01*
X170113227Y-69342000D01*
X170027944Y-69323872D01*
X170027939Y-69323872D01*
X170021487Y-69322500D01*
X169830513Y-69322500D01*
X169824061Y-69323872D01*
X169824056Y-69323872D01*
X169738773Y-69342000D01*
X169643712Y-69362206D01*
X169637682Y-69364891D01*
X169637681Y-69364891D01*
X169475278Y-69437197D01*
X169475276Y-69437198D01*
X169469248Y-69439882D01*
X169314747Y-69552134D01*
X169310326Y-69557044D01*
X169310325Y-69557045D01*
X169199377Y-69680266D01*
X169186960Y-69694056D01*
X169128686Y-69794990D01*
X169096926Y-69850000D01*
X169091473Y-69859444D01*
X169032458Y-70041072D01*
X169031768Y-70047633D01*
X169031768Y-70047635D01*
X169014149Y-70215271D01*
X169012496Y-70231000D01*
X155381227Y-70231000D01*
X155390523Y-70229024D01*
X155476288Y-70210794D01*
X155482319Y-70208109D01*
X155644722Y-70135803D01*
X155644724Y-70135802D01*
X155650752Y-70133118D01*
X155805253Y-70020866D01*
X155851759Y-69969216D01*
X155928621Y-69883852D01*
X155928622Y-69883851D01*
X155933040Y-69878944D01*
X156028527Y-69713556D01*
X156087542Y-69531928D01*
X156096809Y-69443763D01*
X156106814Y-69348565D01*
X156107504Y-69342000D01*
X156105599Y-69323872D01*
X156088232Y-69158635D01*
X156088232Y-69158633D01*
X156087542Y-69152072D01*
X156028527Y-68970444D01*
X155933040Y-68805056D01*
X155887970Y-68755000D01*
X155809675Y-68668045D01*
X155809674Y-68668044D01*
X155805253Y-68663134D01*
X155650752Y-68550882D01*
X155644724Y-68548198D01*
X155644722Y-68548197D01*
X155482319Y-68475891D01*
X155482318Y-68475891D01*
X155476288Y-68473206D01*
X155382888Y-68453353D01*
X155295944Y-68434872D01*
X155295939Y-68434872D01*
X155289487Y-68433500D01*
X155098513Y-68433500D01*
X155092061Y-68434872D01*
X155092056Y-68434872D01*
X155005112Y-68453353D01*
X154911712Y-68473206D01*
X154905682Y-68475891D01*
X154905681Y-68475891D01*
X154743278Y-68548197D01*
X154743276Y-68548198D01*
X154737248Y-68550882D01*
X154582747Y-68663134D01*
X154578326Y-68668044D01*
X154578325Y-68668045D01*
X154500031Y-68755000D01*
X154454960Y-68805056D01*
X154359473Y-68970444D01*
X154300458Y-69152072D01*
X154299768Y-69158633D01*
X154299768Y-69158635D01*
X154282401Y-69323872D01*
X154280496Y-69342000D01*
X146170751Y-69342000D01*
X146154040Y-69313056D01*
X146026253Y-69171134D01*
X145871752Y-69058882D01*
X145865724Y-69056198D01*
X145865722Y-69056197D01*
X145703319Y-68983891D01*
X145703318Y-68983891D01*
X145697288Y-68981206D01*
X145603888Y-68961353D01*
X145516944Y-68942872D01*
X145516939Y-68942872D01*
X145510487Y-68941500D01*
X145319513Y-68941500D01*
X145313061Y-68942872D01*
X145313056Y-68942872D01*
X145226112Y-68961353D01*
X145132712Y-68981206D01*
X145126682Y-68983891D01*
X145126681Y-68983891D01*
X144964278Y-69056197D01*
X144964276Y-69056198D01*
X144958248Y-69058882D01*
X144803747Y-69171134D01*
X144675960Y-69313056D01*
X144580473Y-69478444D01*
X144521458Y-69660072D01*
X144520768Y-69666633D01*
X144520768Y-69666635D01*
X144518958Y-69683856D01*
X144501496Y-69850000D01*
X114420751Y-69850000D01*
X114499527Y-69713556D01*
X114558542Y-69531928D01*
X114567809Y-69443763D01*
X114577814Y-69348565D01*
X114578504Y-69342000D01*
X114576599Y-69323872D01*
X114559232Y-69158635D01*
X114559232Y-69158633D01*
X114558542Y-69152072D01*
X114499527Y-68970444D01*
X114404040Y-68805056D01*
X114358970Y-68755000D01*
X114277312Y-68664310D01*
X114246594Y-68600303D01*
X114255359Y-68529849D01*
X114277312Y-68495690D01*
X114399621Y-68359852D01*
X114399622Y-68359851D01*
X114404040Y-68354944D01*
X114499527Y-68189556D01*
X114558542Y-68007928D01*
X114578504Y-67818000D01*
X147676496Y-67818000D01*
X147696458Y-68007928D01*
X147755473Y-68189556D01*
X147850960Y-68354944D01*
X147978747Y-68496866D01*
X148133248Y-68609118D01*
X148139276Y-68611802D01*
X148139278Y-68611803D01*
X148301681Y-68684109D01*
X148307712Y-68686794D01*
X148401112Y-68706647D01*
X148488056Y-68725128D01*
X148488061Y-68725128D01*
X148494513Y-68726500D01*
X148685487Y-68726500D01*
X148691939Y-68725128D01*
X148691944Y-68725128D01*
X148778888Y-68706647D01*
X148872288Y-68686794D01*
X148878319Y-68684109D01*
X149040722Y-68611803D01*
X149040724Y-68611802D01*
X149046752Y-68609118D01*
X149201253Y-68496866D01*
X149329040Y-68354944D01*
X149424527Y-68189556D01*
X149483542Y-68007928D01*
X149503504Y-67818000D01*
X152756496Y-67818000D01*
X152776458Y-68007928D01*
X152835473Y-68189556D01*
X152930960Y-68354944D01*
X153058747Y-68496866D01*
X153213248Y-68609118D01*
X153219276Y-68611802D01*
X153219278Y-68611803D01*
X153381681Y-68684109D01*
X153387712Y-68686794D01*
X153481112Y-68706647D01*
X153568056Y-68725128D01*
X153568061Y-68725128D01*
X153574513Y-68726500D01*
X153765487Y-68726500D01*
X153771939Y-68725128D01*
X153771944Y-68725128D01*
X153858888Y-68706647D01*
X153952288Y-68686794D01*
X153958319Y-68684109D01*
X154120722Y-68611803D01*
X154120724Y-68611802D01*
X154126752Y-68609118D01*
X154281253Y-68496866D01*
X154409040Y-68354944D01*
X154504527Y-68189556D01*
X154563542Y-68007928D01*
X154583504Y-67818000D01*
X154563542Y-67628072D01*
X154504527Y-67446444D01*
X154409040Y-67281056D01*
X154281253Y-67139134D01*
X154153831Y-67046556D01*
X154132094Y-67030763D01*
X154132093Y-67030762D01*
X154126752Y-67026882D01*
X154120724Y-67024198D01*
X154120722Y-67024197D01*
X153958319Y-66951891D01*
X153958318Y-66951891D01*
X153952288Y-66949206D01*
X153858888Y-66929353D01*
X153771944Y-66910872D01*
X153771939Y-66910872D01*
X153765487Y-66909500D01*
X153574513Y-66909500D01*
X153568061Y-66910872D01*
X153568056Y-66910872D01*
X153481112Y-66929353D01*
X153387712Y-66949206D01*
X153381682Y-66951891D01*
X153381681Y-66951891D01*
X153219278Y-67024197D01*
X153219276Y-67024198D01*
X153213248Y-67026882D01*
X153207907Y-67030762D01*
X153207906Y-67030763D01*
X153186169Y-67046556D01*
X153058747Y-67139134D01*
X152930960Y-67281056D01*
X152835473Y-67446444D01*
X152776458Y-67628072D01*
X152756496Y-67818000D01*
X149503504Y-67818000D01*
X149483542Y-67628072D01*
X149424527Y-67446444D01*
X149329040Y-67281056D01*
X149201253Y-67139134D01*
X149073831Y-67046556D01*
X149052094Y-67030763D01*
X149052093Y-67030762D01*
X149046752Y-67026882D01*
X149040724Y-67024198D01*
X149040722Y-67024197D01*
X148878319Y-66951891D01*
X148878318Y-66951891D01*
X148872288Y-66949206D01*
X148778888Y-66929353D01*
X148691944Y-66910872D01*
X148691939Y-66910872D01*
X148685487Y-66909500D01*
X148494513Y-66909500D01*
X148488061Y-66910872D01*
X148488056Y-66910872D01*
X148401112Y-66929353D01*
X148307712Y-66949206D01*
X148301682Y-66951891D01*
X148301681Y-66951891D01*
X148139278Y-67024197D01*
X148139276Y-67024198D01*
X148133248Y-67026882D01*
X148127907Y-67030762D01*
X148127906Y-67030763D01*
X148106169Y-67046556D01*
X147978747Y-67139134D01*
X147850960Y-67281056D01*
X147755473Y-67446444D01*
X147696458Y-67628072D01*
X147676496Y-67818000D01*
X114578504Y-67818000D01*
X114558542Y-67628072D01*
X114499527Y-67446444D01*
X114404040Y-67281056D01*
X114276253Y-67139134D01*
X114148831Y-67046556D01*
X114127094Y-67030763D01*
X114127093Y-67030762D01*
X114121752Y-67026882D01*
X114115724Y-67024198D01*
X114115722Y-67024197D01*
X113953319Y-66951891D01*
X113953318Y-66951891D01*
X113947288Y-66949206D01*
X113853888Y-66929353D01*
X113766944Y-66910872D01*
X113766939Y-66910872D01*
X113760487Y-66909500D01*
X113569513Y-66909500D01*
X113563061Y-66910872D01*
X113563056Y-66910872D01*
X113476112Y-66929353D01*
X113382712Y-66949206D01*
X113376682Y-66951891D01*
X113376681Y-66951891D01*
X113214278Y-67024197D01*
X113214276Y-67024198D01*
X113208248Y-67026882D01*
X113202907Y-67030762D01*
X113202906Y-67030763D01*
X113181169Y-67046556D01*
X113053747Y-67139134D01*
X112925960Y-67281056D01*
X112830473Y-67446444D01*
X112771458Y-67628072D01*
X112751496Y-67818000D01*
X112771458Y-68007928D01*
X112830473Y-68189556D01*
X112925960Y-68354944D01*
X112930378Y-68359851D01*
X112930379Y-68359852D01*
X113052688Y-68495690D01*
X113083406Y-68559697D01*
X113074641Y-68630151D01*
X113052688Y-68664310D01*
X112971031Y-68755000D01*
X112925960Y-68805056D01*
X112830473Y-68970444D01*
X112771458Y-69152072D01*
X112770768Y-69158633D01*
X112770768Y-69158635D01*
X112753401Y-69323872D01*
X112751496Y-69342000D01*
X105045943Y-69342000D01*
X105097826Y-69070020D01*
X105117645Y-68755000D01*
X105097826Y-68439980D01*
X105038680Y-68129928D01*
X104941141Y-67829734D01*
X104938709Y-67824565D01*
X104808435Y-67547717D01*
X104808431Y-67547710D01*
X104806747Y-67544131D01*
X104637617Y-67277625D01*
X104451194Y-67052279D01*
X104438943Y-67037470D01*
X104438942Y-67037469D01*
X104436418Y-67034418D01*
X104206325Y-66818346D01*
X104009025Y-66675000D01*
X116561496Y-66675000D01*
X116581458Y-66864928D01*
X116640473Y-67046556D01*
X116735960Y-67211944D01*
X116740378Y-67216851D01*
X116740379Y-67216852D01*
X116798189Y-67281056D01*
X116863747Y-67353866D01*
X116962843Y-67425864D01*
X116999820Y-67452729D01*
X117018248Y-67466118D01*
X117024276Y-67468802D01*
X117024278Y-67468803D01*
X117185951Y-67540784D01*
X117192712Y-67543794D01*
X117286112Y-67563647D01*
X117373056Y-67582128D01*
X117373061Y-67582128D01*
X117379513Y-67583500D01*
X117570487Y-67583500D01*
X117576939Y-67582128D01*
X117576944Y-67582128D01*
X117663888Y-67563647D01*
X117757288Y-67543794D01*
X117764049Y-67540784D01*
X117925722Y-67468803D01*
X117925724Y-67468802D01*
X117931752Y-67466118D01*
X117950181Y-67452729D01*
X117987157Y-67425864D01*
X118086253Y-67353866D01*
X118151811Y-67281056D01*
X118209621Y-67216852D01*
X118209622Y-67216851D01*
X118214040Y-67211944D01*
X118309527Y-67046556D01*
X118368542Y-66864928D01*
X118388504Y-66675000D01*
X119101496Y-66675000D01*
X119121458Y-66864928D01*
X119180473Y-67046556D01*
X119275960Y-67211944D01*
X119280378Y-67216851D01*
X119280379Y-67216852D01*
X119338189Y-67281056D01*
X119403747Y-67353866D01*
X119502843Y-67425864D01*
X119539820Y-67452729D01*
X119558248Y-67466118D01*
X119564276Y-67468802D01*
X119564278Y-67468803D01*
X119725951Y-67540784D01*
X119732712Y-67543794D01*
X119826112Y-67563647D01*
X119913056Y-67582128D01*
X119913061Y-67582128D01*
X119919513Y-67583500D01*
X120110487Y-67583500D01*
X120116939Y-67582128D01*
X120116944Y-67582128D01*
X120203888Y-67563647D01*
X120297288Y-67543794D01*
X120304049Y-67540784D01*
X120465722Y-67468803D01*
X120465724Y-67468802D01*
X120471752Y-67466118D01*
X120490181Y-67452729D01*
X120527157Y-67425864D01*
X120626253Y-67353866D01*
X120691811Y-67281056D01*
X120749621Y-67216852D01*
X120749622Y-67216851D01*
X120754040Y-67211944D01*
X120849527Y-67046556D01*
X120908542Y-66864928D01*
X120928504Y-66675000D01*
X120908542Y-66485072D01*
X120849527Y-66303444D01*
X120839204Y-66285563D01*
X120757341Y-66143774D01*
X120754040Y-66138056D01*
X120626253Y-65996134D01*
X120471752Y-65883882D01*
X120465724Y-65881198D01*
X120465722Y-65881197D01*
X120303319Y-65808891D01*
X120303318Y-65808891D01*
X120297288Y-65806206D01*
X120203888Y-65786353D01*
X120116944Y-65767872D01*
X120116939Y-65767872D01*
X120110487Y-65766500D01*
X119919513Y-65766500D01*
X119913061Y-65767872D01*
X119913056Y-65767872D01*
X119826112Y-65786353D01*
X119732712Y-65806206D01*
X119726682Y-65808891D01*
X119726681Y-65808891D01*
X119564278Y-65881197D01*
X119564276Y-65881198D01*
X119558248Y-65883882D01*
X119403747Y-65996134D01*
X119275960Y-66138056D01*
X119272659Y-66143774D01*
X119190797Y-66285563D01*
X119180473Y-66303444D01*
X119121458Y-66485072D01*
X119101496Y-66675000D01*
X118388504Y-66675000D01*
X118368542Y-66485072D01*
X118309527Y-66303444D01*
X118299204Y-66285563D01*
X118217341Y-66143774D01*
X118214040Y-66138056D01*
X118086253Y-65996134D01*
X117931752Y-65883882D01*
X117925724Y-65881198D01*
X117925722Y-65881197D01*
X117763319Y-65808891D01*
X117763318Y-65808891D01*
X117757288Y-65806206D01*
X117663888Y-65786353D01*
X117576944Y-65767872D01*
X117576939Y-65767872D01*
X117570487Y-65766500D01*
X117379513Y-65766500D01*
X117373061Y-65767872D01*
X117373056Y-65767872D01*
X117286112Y-65786353D01*
X117192712Y-65806206D01*
X117186682Y-65808891D01*
X117186681Y-65808891D01*
X117024278Y-65881197D01*
X117024276Y-65881198D01*
X117018248Y-65883882D01*
X116863747Y-65996134D01*
X116735960Y-66138056D01*
X116732659Y-66143774D01*
X116650797Y-66285563D01*
X116640473Y-66303444D01*
X116581458Y-66485072D01*
X116561496Y-66675000D01*
X104009025Y-66675000D01*
X103950964Y-66632816D01*
X103674364Y-66480753D01*
X103670695Y-66479300D01*
X103670690Y-66479298D01*
X103384557Y-66366010D01*
X103384556Y-66366010D01*
X103380887Y-66364557D01*
X103075160Y-66286060D01*
X102762006Y-66246500D01*
X102446364Y-66246500D01*
X102133210Y-66286060D01*
X101827483Y-66364557D01*
X101823814Y-66366010D01*
X101823813Y-66366010D01*
X101537680Y-66479298D01*
X101537675Y-66479300D01*
X101534006Y-66480753D01*
X101257406Y-66632816D01*
X101002045Y-66818346D01*
X100771952Y-67034418D01*
X100769428Y-67037469D01*
X100769427Y-67037470D01*
X100757176Y-67052279D01*
X100570753Y-67277625D01*
X100401623Y-67544131D01*
X100399939Y-67547710D01*
X100399935Y-67547717D01*
X100269661Y-67824565D01*
X100267229Y-67829734D01*
X100169690Y-68129928D01*
X100110544Y-68439980D01*
X100090725Y-68755000D01*
X94488500Y-68755000D01*
X94488500Y-62865487D01*
X160421500Y-62865487D01*
X160461206Y-63052288D01*
X160538882Y-63226752D01*
X160651134Y-63381253D01*
X160793056Y-63509040D01*
X160958444Y-63604527D01*
X161140072Y-63663542D01*
X161146633Y-63664232D01*
X161146635Y-63664232D01*
X161199889Y-63669829D01*
X161282390Y-63678500D01*
X161377610Y-63678500D01*
X161460111Y-63669829D01*
X161513365Y-63664232D01*
X161513367Y-63664232D01*
X161519928Y-63663542D01*
X161701556Y-63604527D01*
X161866944Y-63509040D01*
X162008866Y-63381253D01*
X162121118Y-63226752D01*
X162198794Y-63052288D01*
X162238500Y-62865487D01*
X165421500Y-62865487D01*
X165461206Y-63052288D01*
X165538882Y-63226752D01*
X165651134Y-63381253D01*
X165793056Y-63509040D01*
X165958444Y-63604527D01*
X166140072Y-63663542D01*
X166146633Y-63664232D01*
X166146635Y-63664232D01*
X166199889Y-63669829D01*
X166282390Y-63678500D01*
X166377610Y-63678500D01*
X166460111Y-63669829D01*
X166513365Y-63664232D01*
X166513367Y-63664232D01*
X166519928Y-63663542D01*
X166701556Y-63604527D01*
X166866944Y-63509040D01*
X167008866Y-63381253D01*
X167121118Y-63226752D01*
X167198794Y-63052288D01*
X167238500Y-62865487D01*
X167238500Y-62674513D01*
X167198794Y-62487712D01*
X167147514Y-62372534D01*
X167123803Y-62319278D01*
X167123802Y-62319276D01*
X167121118Y-62313248D01*
X167008866Y-62158747D01*
X167003955Y-62154325D01*
X166871852Y-62035379D01*
X166871851Y-62035378D01*
X166866944Y-62030960D01*
X166765619Y-61972460D01*
X166707279Y-61938777D01*
X166707278Y-61938776D01*
X166701556Y-61935473D01*
X166519928Y-61876458D01*
X166513367Y-61875768D01*
X166513365Y-61875768D01*
X166460111Y-61870171D01*
X166377610Y-61861500D01*
X166282390Y-61861500D01*
X166199889Y-61870171D01*
X166146635Y-61875768D01*
X166146633Y-61875768D01*
X166140072Y-61876458D01*
X165958444Y-61935473D01*
X165952722Y-61938776D01*
X165952721Y-61938777D01*
X165894381Y-61972460D01*
X165793056Y-62030960D01*
X165788149Y-62035378D01*
X165788148Y-62035379D01*
X165656045Y-62154325D01*
X165651134Y-62158747D01*
X165538882Y-62313248D01*
X165536198Y-62319276D01*
X165536197Y-62319278D01*
X165512486Y-62372534D01*
X165461206Y-62487712D01*
X165421500Y-62674513D01*
X165421500Y-62865487D01*
X162238500Y-62865487D01*
X162238500Y-62674513D01*
X162198794Y-62487712D01*
X162147514Y-62372534D01*
X162123803Y-62319278D01*
X162123802Y-62319276D01*
X162121118Y-62313248D01*
X162008866Y-62158747D01*
X162003955Y-62154325D01*
X161871852Y-62035379D01*
X161871851Y-62035378D01*
X161866944Y-62030960D01*
X161765619Y-61972460D01*
X161707279Y-61938777D01*
X161707278Y-61938776D01*
X161701556Y-61935473D01*
X161519928Y-61876458D01*
X161513367Y-61875768D01*
X161513365Y-61875768D01*
X161460111Y-61870171D01*
X161377610Y-61861500D01*
X161282390Y-61861500D01*
X161199889Y-61870171D01*
X161146635Y-61875768D01*
X161146633Y-61875768D01*
X161140072Y-61876458D01*
X160958444Y-61935473D01*
X160952722Y-61938776D01*
X160952721Y-61938777D01*
X160894381Y-61972460D01*
X160793056Y-62030960D01*
X160788149Y-62035378D01*
X160788148Y-62035379D01*
X160656045Y-62154325D01*
X160651134Y-62158747D01*
X160538882Y-62313248D01*
X160536198Y-62319276D01*
X160536197Y-62319278D01*
X160512486Y-62372534D01*
X160461206Y-62487712D01*
X160421500Y-62674513D01*
X160421500Y-62865487D01*
X94488500Y-62865487D01*
X94488500Y-60986695D01*
X146017251Y-60986695D01*
X146030110Y-61209715D01*
X146031247Y-61214761D01*
X146031248Y-61214767D01*
X146055304Y-61321508D01*
X146079222Y-61427639D01*
X146163266Y-61634616D01*
X146200685Y-61695678D01*
X146277291Y-61820688D01*
X146279987Y-61825088D01*
X146426250Y-61993938D01*
X146598126Y-62136632D01*
X146791000Y-62249338D01*
X146999692Y-62329030D01*
X147004760Y-62330061D01*
X147004763Y-62330062D01*
X147112017Y-62351883D01*
X147218597Y-62373567D01*
X147223772Y-62373757D01*
X147223774Y-62373757D01*
X147436673Y-62381564D01*
X147436677Y-62381564D01*
X147441837Y-62381753D01*
X147446957Y-62381097D01*
X147446959Y-62381097D01*
X147658288Y-62354025D01*
X147658289Y-62354025D01*
X147663416Y-62353368D01*
X147668366Y-62351883D01*
X147872429Y-62290661D01*
X147872434Y-62290659D01*
X147877384Y-62289174D01*
X148077994Y-62190896D01*
X148259860Y-62061173D01*
X148418096Y-61903489D01*
X148438016Y-61875768D01*
X148548453Y-61722077D01*
X148549776Y-61723028D01*
X148596645Y-61679857D01*
X148666580Y-61667625D01*
X148732026Y-61695144D01*
X148759875Y-61726994D01*
X148819987Y-61825088D01*
X148966250Y-61993938D01*
X149138126Y-62136632D01*
X149331000Y-62249338D01*
X149539692Y-62329030D01*
X149544760Y-62330061D01*
X149544763Y-62330062D01*
X149652017Y-62351883D01*
X149758597Y-62373567D01*
X149763772Y-62373757D01*
X149763774Y-62373757D01*
X149976673Y-62381564D01*
X149976677Y-62381564D01*
X149981837Y-62381753D01*
X149986957Y-62381097D01*
X149986959Y-62381097D01*
X150198288Y-62354025D01*
X150198289Y-62354025D01*
X150203416Y-62353368D01*
X150208366Y-62351883D01*
X150412429Y-62290661D01*
X150412434Y-62290659D01*
X150417384Y-62289174D01*
X150617994Y-62190896D01*
X150799860Y-62061173D01*
X150958096Y-61903489D01*
X150978016Y-61875768D01*
X151088453Y-61722077D01*
X151089776Y-61723028D01*
X151136645Y-61679857D01*
X151206580Y-61667625D01*
X151272026Y-61695144D01*
X151299875Y-61726994D01*
X151359987Y-61825088D01*
X151506250Y-61993938D01*
X151678126Y-62136632D01*
X151871000Y-62249338D01*
X152079692Y-62329030D01*
X152084760Y-62330061D01*
X152084763Y-62330062D01*
X152192017Y-62351883D01*
X152298597Y-62373567D01*
X152303772Y-62373757D01*
X152303774Y-62373757D01*
X152516673Y-62381564D01*
X152516677Y-62381564D01*
X152521837Y-62381753D01*
X152526957Y-62381097D01*
X152526959Y-62381097D01*
X152738288Y-62354025D01*
X152738289Y-62354025D01*
X152743416Y-62353368D01*
X152748366Y-62351883D01*
X152952429Y-62290661D01*
X152952434Y-62290659D01*
X152957384Y-62289174D01*
X153157994Y-62190896D01*
X153339860Y-62061173D01*
X153448091Y-61953319D01*
X153510462Y-61919404D01*
X153581268Y-61924592D01*
X153638030Y-61967238D01*
X153655012Y-61998341D01*
X153668897Y-62035379D01*
X153699385Y-62116705D01*
X153786739Y-62233261D01*
X153903295Y-62320615D01*
X154039684Y-62371745D01*
X154101866Y-62378500D01*
X155898134Y-62378500D01*
X155960316Y-62371745D01*
X156096705Y-62320615D01*
X156213261Y-62233261D01*
X156300615Y-62116705D01*
X156351745Y-61980316D01*
X156358500Y-61918134D01*
X156358500Y-60121866D01*
X156351745Y-60059684D01*
X156300615Y-59923295D01*
X156213261Y-59806739D01*
X156096705Y-59719385D01*
X155960316Y-59668255D01*
X155898134Y-59661500D01*
X154101866Y-59661500D01*
X154039684Y-59668255D01*
X153903295Y-59719385D01*
X153786739Y-59806739D01*
X153699385Y-59923295D01*
X153696233Y-59931703D01*
X153654919Y-60041907D01*
X153612277Y-60098671D01*
X153545716Y-60123371D01*
X153476367Y-60108163D01*
X153443743Y-60082476D01*
X153393151Y-60026875D01*
X153393142Y-60026866D01*
X153389670Y-60023051D01*
X153385619Y-60019852D01*
X153385615Y-60019848D01*
X153218414Y-59887800D01*
X153218410Y-59887798D01*
X153214359Y-59884598D01*
X153018789Y-59776638D01*
X153013920Y-59774914D01*
X153013916Y-59774912D01*
X152813087Y-59703795D01*
X152813083Y-59703794D01*
X152808212Y-59702069D01*
X152803119Y-59701162D01*
X152803116Y-59701161D01*
X152593373Y-59663800D01*
X152593367Y-59663799D01*
X152588284Y-59662894D01*
X152514452Y-59661992D01*
X152370081Y-59660228D01*
X152370079Y-59660228D01*
X152364911Y-59660165D01*
X152144091Y-59693955D01*
X151931756Y-59763357D01*
X151733607Y-59866507D01*
X151729474Y-59869610D01*
X151729471Y-59869612D01*
X151559100Y-59997530D01*
X151554965Y-60000635D01*
X151515525Y-60041907D01*
X151461280Y-60098671D01*
X151400629Y-60162138D01*
X151293201Y-60319621D01*
X151238293Y-60364621D01*
X151167768Y-60372792D01*
X151104021Y-60341538D01*
X151083324Y-60317054D01*
X151002822Y-60192617D01*
X151002820Y-60192614D01*
X151000014Y-60188277D01*
X150849670Y-60023051D01*
X150845619Y-60019852D01*
X150845615Y-60019848D01*
X150678414Y-59887800D01*
X150678410Y-59887798D01*
X150674359Y-59884598D01*
X150478789Y-59776638D01*
X150473920Y-59774914D01*
X150473916Y-59774912D01*
X150273087Y-59703795D01*
X150273083Y-59703794D01*
X150268212Y-59702069D01*
X150263119Y-59701162D01*
X150263116Y-59701161D01*
X150053373Y-59663800D01*
X150053367Y-59663799D01*
X150048284Y-59662894D01*
X149974452Y-59661992D01*
X149830081Y-59660228D01*
X149830079Y-59660228D01*
X149824911Y-59660165D01*
X149604091Y-59693955D01*
X149391756Y-59763357D01*
X149193607Y-59866507D01*
X149189474Y-59869610D01*
X149189471Y-59869612D01*
X149019100Y-59997530D01*
X149014965Y-60000635D01*
X148975525Y-60041907D01*
X148921280Y-60098671D01*
X148860629Y-60162138D01*
X148753201Y-60319621D01*
X148698293Y-60364621D01*
X148627768Y-60372792D01*
X148564021Y-60341538D01*
X148543324Y-60317054D01*
X148462822Y-60192617D01*
X148462820Y-60192614D01*
X148460014Y-60188277D01*
X148309670Y-60023051D01*
X148305619Y-60019852D01*
X148305615Y-60019848D01*
X148138414Y-59887800D01*
X148138410Y-59887798D01*
X148134359Y-59884598D01*
X147938789Y-59776638D01*
X147933920Y-59774914D01*
X147933916Y-59774912D01*
X147733087Y-59703795D01*
X147733083Y-59703794D01*
X147728212Y-59702069D01*
X147723119Y-59701162D01*
X147723116Y-59701161D01*
X147513373Y-59663800D01*
X147513367Y-59663799D01*
X147508284Y-59662894D01*
X147434452Y-59661992D01*
X147290081Y-59660228D01*
X147290079Y-59660228D01*
X147284911Y-59660165D01*
X147064091Y-59693955D01*
X146851756Y-59763357D01*
X146653607Y-59866507D01*
X146649474Y-59869610D01*
X146649471Y-59869612D01*
X146479100Y-59997530D01*
X146474965Y-60000635D01*
X146435525Y-60041907D01*
X146381280Y-60098671D01*
X146320629Y-60162138D01*
X146194743Y-60346680D01*
X146100688Y-60549305D01*
X146040989Y-60764570D01*
X146017251Y-60986695D01*
X94488500Y-60986695D01*
X94488500Y-58546500D01*
X94508502Y-58478379D01*
X94562158Y-58431886D01*
X94614500Y-58420500D01*
X179705500Y-58420500D01*
X179773621Y-58440502D01*
G37*
G04 #@! TD.AperFunction*
M02*
