G04 #@! TF.GenerationSoftware,KiCad,Pcbnew,6.0.11+dfsg-1*
G04 #@! TF.CreationDate,2024-04-01T21:29:24-07:00*
G04 #@! TF.ProjectId,car-logger,6361722d-6c6f-4676-9765-722e6b696361,v1*
G04 #@! TF.SameCoordinates,Original*
G04 #@! TF.FileFunction,Legend,Top*
G04 #@! TF.FilePolarity,Positive*
%FSLAX46Y46*%
G04 Gerber Fmt 4.6, Leading zero omitted, Abs format (unit mm)*
G04 Created by KiCad (PCBNEW 6.0.11+dfsg-1) date 2024-04-01 21:29:24*
%MOMM*%
%LPD*%
G01*
G04 APERTURE LIST*
G04 Aperture macros list*
%AMRoundRect*
0 Rectangle with rounded corners*
0 $1 Rounding radius*
0 $2 $3 $4 $5 $6 $7 $8 $9 X,Y pos of 4 corners*
0 Add a 4 corners polygon primitive as box body*
4,1,4,$2,$3,$4,$5,$6,$7,$8,$9,$2,$3,0*
0 Add four circle primitives for the rounded corners*
1,1,$1+$1,$2,$3*
1,1,$1+$1,$4,$5*
1,1,$1+$1,$6,$7*
1,1,$1+$1,$8,$9*
0 Add four rect primitives between the rounded corners*
20,1,$1+$1,$2,$3,$4,$5,0*
20,1,$1+$1,$4,$5,$6,$7,0*
20,1,$1+$1,$6,$7,$8,$9,0*
20,1,$1+$1,$8,$9,$2,$3,0*%
G04 Aperture macros list end*
%ADD10C,0.250000*%
%ADD11C,0.300000*%
%ADD12C,0.125000*%
%ADD13C,0.150000*%
%ADD14C,0.120000*%
%ADD15RoundRect,0.200000X-0.275000X0.200000X-0.275000X-0.200000X0.275000X-0.200000X0.275000X0.200000X0*%
%ADD16R,0.600000X0.450000*%
%ADD17RoundRect,0.225000X-0.225000X-0.250000X0.225000X-0.250000X0.225000X0.250000X-0.225000X0.250000X0*%
%ADD18RoundRect,0.075000X0.075000X-0.662500X0.075000X0.662500X-0.075000X0.662500X-0.075000X-0.662500X0*%
%ADD19RoundRect,0.075000X0.662500X-0.075000X0.662500X0.075000X-0.662500X0.075000X-0.662500X-0.075000X0*%
%ADD20R,0.450000X0.600000*%
%ADD21RoundRect,0.225000X0.225000X0.250000X-0.225000X0.250000X-0.225000X-0.250000X0.225000X-0.250000X0*%
%ADD22RoundRect,0.225000X-0.250000X0.225000X-0.250000X-0.225000X0.250000X-0.225000X0.250000X0.225000X0*%
%ADD23RoundRect,0.225000X0.250000X-0.225000X0.250000X0.225000X-0.250000X0.225000X-0.250000X-0.225000X0*%
%ADD24R,1.700000X1.700000*%
%ADD25O,1.700000X1.700000*%
%ADD26R,0.850000X0.280000*%
%ADD27R,0.280000X0.700000*%
%ADD28R,1.650000X2.400000*%
%ADD29RoundRect,0.200000X0.275000X-0.200000X0.275000X0.200000X-0.275000X0.200000X-0.275000X-0.200000X0*%
%ADD30RoundRect,0.250000X0.650000X-0.325000X0.650000X0.325000X-0.650000X0.325000X-0.650000X-0.325000X0*%
%ADD31R,1.550000X1.300000*%
%ADD32RoundRect,0.250000X-0.375000X-0.850000X0.375000X-0.850000X0.375000X0.850000X-0.375000X0.850000X0*%
%ADD33RoundRect,0.200000X0.200000X0.275000X-0.200000X0.275000X-0.200000X-0.275000X0.200000X-0.275000X0*%
%ADD34RoundRect,0.150000X-0.512500X-0.150000X0.512500X-0.150000X0.512500X0.150000X-0.512500X0.150000X0*%
%ADD35RoundRect,0.200000X-0.200000X-0.275000X0.200000X-0.275000X0.200000X0.275000X-0.200000X0.275000X0*%
%ADD36RoundRect,0.150000X0.150000X-0.512500X0.150000X0.512500X-0.150000X0.512500X-0.150000X-0.512500X0*%
%ADD37RoundRect,0.150000X0.875000X0.150000X-0.875000X0.150000X-0.875000X-0.150000X0.875000X-0.150000X0*%
%ADD38RoundRect,0.250000X-0.650000X0.325000X-0.650000X-0.325000X0.650000X-0.325000X0.650000X0.325000X0*%
%ADD39C,0.700000*%
%ADD40C,4.400000*%
%ADD41RoundRect,0.150000X-0.150000X0.875000X-0.150000X-0.875000X0.150000X-0.875000X0.150000X0.875000X0*%
%ADD42R,1.000000X1.150000*%
%ADD43RoundRect,0.250000X-0.712500X-2.475000X0.712500X-2.475000X0.712500X2.475000X-0.712500X2.475000X0*%
%ADD44C,0.800000*%
%ADD45R,0.450000X1.300000*%
%ADD46C,2.000000*%
%ADD47C,1.800000*%
%ADD48C,4.000000*%
%ADD49R,1.600000X1.600000*%
%ADD50C,1.600000*%
%ADD51R,1.780000X0.420000*%
%ADD52R,3.000000X4.200000*%
G04 APERTURE END LIST*
D10*
X169672000Y-64603380D02*
X169672000Y-64841476D01*
X169433904Y-64746238D02*
X169672000Y-64841476D01*
X169910095Y-64746238D01*
X169529142Y-65031952D02*
X169672000Y-64841476D01*
X169814857Y-65031952D01*
X165735000Y-103084380D02*
X165735000Y-103322476D01*
X165496904Y-103227238D02*
X165735000Y-103322476D01*
X165973095Y-103227238D01*
X165592142Y-103512952D02*
X165735000Y-103322476D01*
X165877857Y-103512952D01*
X109601000Y-98766380D02*
X109601000Y-99004476D01*
X109362904Y-98909238D02*
X109601000Y-99004476D01*
X109839095Y-98909238D01*
X109458142Y-99194952D02*
X109601000Y-99004476D01*
X109743857Y-99194952D01*
X112014000Y-90765380D02*
X112014000Y-91003476D01*
X111775904Y-90908238D02*
X112014000Y-91003476D01*
X112252095Y-90908238D01*
X111871142Y-91193952D02*
X112014000Y-91003476D01*
X112156857Y-91193952D01*
X110490000Y-76160380D02*
X110490000Y-76398476D01*
X110251904Y-76303238D02*
X110490000Y-76398476D01*
X110728095Y-76303238D01*
X110347142Y-76588952D02*
X110490000Y-76398476D01*
X110632857Y-76588952D01*
X143891000Y-100163380D02*
X143891000Y-100401476D01*
X143652904Y-100306238D02*
X143891000Y-100401476D01*
X144129095Y-100306238D01*
X143748142Y-100591952D02*
X143891000Y-100401476D01*
X144033857Y-100591952D01*
X133096000Y-80605380D02*
X133096000Y-80843476D01*
X132857904Y-80748238D02*
X133096000Y-80843476D01*
X133334095Y-80748238D01*
X132953142Y-81033952D02*
X133096000Y-80843476D01*
X133238857Y-81033952D01*
X177673000Y-78827380D02*
X177673000Y-79065476D01*
X177434904Y-78970238D02*
X177673000Y-79065476D01*
X177911095Y-78970238D01*
X177530142Y-79255952D02*
X177673000Y-79065476D01*
X177815857Y-79255952D01*
X151892000Y-84161380D02*
X151892000Y-84399476D01*
X151653904Y-84304238D02*
X151892000Y-84399476D01*
X152130095Y-84304238D01*
X151749142Y-84589952D02*
X151892000Y-84399476D01*
X152034857Y-84589952D01*
X159893000Y-66889380D02*
X159893000Y-67127476D01*
X159654904Y-67032238D02*
X159893000Y-67127476D01*
X160131095Y-67032238D01*
X159750142Y-67317952D02*
X159893000Y-67127476D01*
X160035857Y-67317952D01*
X146177000Y-66635380D02*
X146177000Y-66873476D01*
X145938904Y-66778238D02*
X146177000Y-66873476D01*
X146415095Y-66778238D01*
X146034142Y-67063952D02*
X146177000Y-66873476D01*
X146319857Y-67063952D01*
X165735000Y-96480380D02*
X165735000Y-96718476D01*
X165496904Y-96623238D02*
X165735000Y-96718476D01*
X165973095Y-96623238D01*
X165592142Y-96908952D02*
X165735000Y-96718476D01*
X165877857Y-96908952D01*
X148844000Y-66635380D02*
X148844000Y-66873476D01*
X148605904Y-66778238D02*
X148844000Y-66873476D01*
X149082095Y-66778238D01*
X148701142Y-67063952D02*
X148844000Y-66873476D01*
X148986857Y-67063952D01*
X120142000Y-87082380D02*
X120142000Y-87320476D01*
X119903904Y-87225238D02*
X120142000Y-87320476D01*
X120380095Y-87225238D01*
X119999142Y-87510952D02*
X120142000Y-87320476D01*
X120284857Y-87510952D01*
X155829000Y-80097380D02*
X155829000Y-80335476D01*
X155590904Y-80240238D02*
X155829000Y-80335476D01*
X156067095Y-80240238D01*
X155686142Y-80525952D02*
X155829000Y-80335476D01*
X155971857Y-80525952D01*
X157226000Y-60793380D02*
X157226000Y-61031476D01*
X156987904Y-60936238D02*
X157226000Y-61031476D01*
X157464095Y-60936238D01*
X157083142Y-61221952D02*
X157226000Y-61031476D01*
X157368857Y-61221952D01*
D11*
X134205428Y-93880714D02*
X134134000Y-93952142D01*
X133919714Y-94023571D01*
X133776857Y-94023571D01*
X133562571Y-93952142D01*
X133419714Y-93809285D01*
X133348285Y-93666428D01*
X133276857Y-93380714D01*
X133276857Y-93166428D01*
X133348285Y-92880714D01*
X133419714Y-92737857D01*
X133562571Y-92595000D01*
X133776857Y-92523571D01*
X133919714Y-92523571D01*
X134134000Y-92595000D01*
X134205428Y-92666428D01*
X135491142Y-94023571D02*
X135491142Y-93237857D01*
X135419714Y-93095000D01*
X135276857Y-93023571D01*
X134991142Y-93023571D01*
X134848285Y-93095000D01*
X135491142Y-93952142D02*
X135348285Y-94023571D01*
X134991142Y-94023571D01*
X134848285Y-93952142D01*
X134776857Y-93809285D01*
X134776857Y-93666428D01*
X134848285Y-93523571D01*
X134991142Y-93452142D01*
X135348285Y-93452142D01*
X135491142Y-93380714D01*
X136205428Y-94023571D02*
X136205428Y-93023571D01*
X136205428Y-93309285D02*
X136276857Y-93166428D01*
X136348285Y-93095000D01*
X136491142Y-93023571D01*
X136634000Y-93023571D01*
X138991142Y-94023571D02*
X138276857Y-94023571D01*
X138276857Y-92523571D01*
X139705428Y-94023571D02*
X139562571Y-93952142D01*
X139491142Y-93880714D01*
X139419714Y-93737857D01*
X139419714Y-93309285D01*
X139491142Y-93166428D01*
X139562571Y-93095000D01*
X139705428Y-93023571D01*
X139919714Y-93023571D01*
X140062571Y-93095000D01*
X140134000Y-93166428D01*
X140205428Y-93309285D01*
X140205428Y-93737857D01*
X140134000Y-93880714D01*
X140062571Y-93952142D01*
X139919714Y-94023571D01*
X139705428Y-94023571D01*
X141491142Y-93023571D02*
X141491142Y-94237857D01*
X141419714Y-94380714D01*
X141348285Y-94452142D01*
X141205428Y-94523571D01*
X140991142Y-94523571D01*
X140848285Y-94452142D01*
X141491142Y-93952142D02*
X141348285Y-94023571D01*
X141062571Y-94023571D01*
X140919714Y-93952142D01*
X140848285Y-93880714D01*
X140776857Y-93737857D01*
X140776857Y-93309285D01*
X140848285Y-93166428D01*
X140919714Y-93095000D01*
X141062571Y-93023571D01*
X141348285Y-93023571D01*
X141491142Y-93095000D01*
X142848285Y-93023571D02*
X142848285Y-94237857D01*
X142776857Y-94380714D01*
X142705428Y-94452142D01*
X142562571Y-94523571D01*
X142348285Y-94523571D01*
X142205428Y-94452142D01*
X142848285Y-93952142D02*
X142705428Y-94023571D01*
X142419714Y-94023571D01*
X142276857Y-93952142D01*
X142205428Y-93880714D01*
X142134000Y-93737857D01*
X142134000Y-93309285D01*
X142205428Y-93166428D01*
X142276857Y-93095000D01*
X142419714Y-93023571D01*
X142705428Y-93023571D01*
X142848285Y-93095000D01*
X144134000Y-93952142D02*
X143991142Y-94023571D01*
X143705428Y-94023571D01*
X143562571Y-93952142D01*
X143491142Y-93809285D01*
X143491142Y-93237857D01*
X143562571Y-93095000D01*
X143705428Y-93023571D01*
X143991142Y-93023571D01*
X144134000Y-93095000D01*
X144205428Y-93237857D01*
X144205428Y-93380714D01*
X143491142Y-93523571D01*
X144848285Y-94023571D02*
X144848285Y-93023571D01*
X144848285Y-93309285D02*
X144919714Y-93166428D01*
X144991142Y-93095000D01*
X145134000Y-93023571D01*
X145276857Y-93023571D01*
X146776857Y-93023571D02*
X147134000Y-94023571D01*
X147491142Y-93023571D01*
X148848285Y-94023571D02*
X147991142Y-94023571D01*
X148419714Y-94023571D02*
X148419714Y-92523571D01*
X148276857Y-92737857D01*
X148134000Y-92880714D01*
X147991142Y-92952142D01*
X151705428Y-92452142D02*
X150419714Y-94380714D01*
X153776857Y-92523571D02*
X153776857Y-93595000D01*
X153705428Y-93809285D01*
X153562571Y-93952142D01*
X153348285Y-94023571D01*
X153205428Y-94023571D01*
X154491142Y-93880714D02*
X154562571Y-93952142D01*
X154491142Y-94023571D01*
X154419714Y-93952142D01*
X154491142Y-93880714D01*
X154491142Y-94023571D01*
X157205428Y-93880714D02*
X157134000Y-93952142D01*
X156919714Y-94023571D01*
X156776857Y-94023571D01*
X156562571Y-93952142D01*
X156419714Y-93809285D01*
X156348285Y-93666428D01*
X156276857Y-93380714D01*
X156276857Y-93166428D01*
X156348285Y-92880714D01*
X156419714Y-92737857D01*
X156562571Y-92595000D01*
X156776857Y-92523571D01*
X156919714Y-92523571D01*
X157134000Y-92595000D01*
X157205428Y-92666428D01*
X158491142Y-94023571D02*
X158491142Y-93237857D01*
X158419714Y-93095000D01*
X158276857Y-93023571D01*
X157991142Y-93023571D01*
X157848285Y-93095000D01*
X158491142Y-93952142D02*
X158348285Y-94023571D01*
X157991142Y-94023571D01*
X157848285Y-93952142D01*
X157776857Y-93809285D01*
X157776857Y-93666428D01*
X157848285Y-93523571D01*
X157991142Y-93452142D01*
X158348285Y-93452142D01*
X158491142Y-93380714D01*
X159419714Y-94023571D02*
X159276857Y-93952142D01*
X159205428Y-93880714D01*
X159134000Y-93737857D01*
X159134000Y-93309285D01*
X159205428Y-93166428D01*
X159276857Y-93095000D01*
X159419714Y-93023571D01*
X159634000Y-93023571D01*
X159776857Y-93095000D01*
X159848285Y-93166428D01*
X159919714Y-93309285D01*
X159919714Y-93737857D01*
X159848285Y-93880714D01*
X159776857Y-93952142D01*
X159634000Y-94023571D01*
X159419714Y-94023571D01*
X162776857Y-92452142D02*
X161491142Y-94380714D01*
X164348285Y-92666428D02*
X164419714Y-92595000D01*
X164562571Y-92523571D01*
X164919714Y-92523571D01*
X165062571Y-92595000D01*
X165134000Y-92666428D01*
X165205428Y-92809285D01*
X165205428Y-92952142D01*
X165134000Y-93166428D01*
X164276857Y-94023571D01*
X165205428Y-94023571D01*
X166134000Y-92523571D02*
X166276857Y-92523571D01*
X166419714Y-92595000D01*
X166491142Y-92666428D01*
X166562571Y-92809285D01*
X166634000Y-93095000D01*
X166634000Y-93452142D01*
X166562571Y-93737857D01*
X166491142Y-93880714D01*
X166419714Y-93952142D01*
X166276857Y-94023571D01*
X166134000Y-94023571D01*
X165991142Y-93952142D01*
X165919714Y-93880714D01*
X165848285Y-93737857D01*
X165776857Y-93452142D01*
X165776857Y-93095000D01*
X165848285Y-92809285D01*
X165919714Y-92666428D01*
X165991142Y-92595000D01*
X166134000Y-92523571D01*
X167205428Y-92666428D02*
X167276857Y-92595000D01*
X167419714Y-92523571D01*
X167776857Y-92523571D01*
X167919714Y-92595000D01*
X167991142Y-92666428D01*
X168062571Y-92809285D01*
X168062571Y-92952142D01*
X167991142Y-93166428D01*
X167134000Y-94023571D01*
X168062571Y-94023571D01*
X169348285Y-93023571D02*
X169348285Y-94023571D01*
X168991142Y-92452142D02*
X168633999Y-93523571D01*
X169562571Y-93523571D01*
D10*
X153924000Y-66635380D02*
X153924000Y-66873476D01*
X153685904Y-66778238D02*
X153924000Y-66873476D01*
X154162095Y-66778238D01*
X153781142Y-67063952D02*
X153924000Y-66873476D01*
X154066857Y-67063952D01*
X113538000Y-72223380D02*
X113538000Y-72461476D01*
X113299904Y-72366238D02*
X113538000Y-72461476D01*
X113776095Y-72366238D01*
X113395142Y-72651952D02*
X113538000Y-72461476D01*
X113680857Y-72651952D01*
X166878000Y-66889380D02*
X166878000Y-67127476D01*
X166639904Y-67032238D02*
X166878000Y-67127476D01*
X167116095Y-67032238D01*
X166735142Y-67317952D02*
X166878000Y-67127476D01*
X167020857Y-67317952D01*
X171196000Y-66889380D02*
X171196000Y-67127476D01*
X170957904Y-67032238D02*
X171196000Y-67127476D01*
X171434095Y-67032238D01*
X171053142Y-67317952D02*
X171196000Y-67127476D01*
X171338857Y-67317952D01*
D12*
X125343857Y-60712000D02*
X125272428Y-60676285D01*
X125165285Y-60676285D01*
X125058142Y-60712000D01*
X124986714Y-60783428D01*
X124951000Y-60854857D01*
X124915285Y-60997714D01*
X124915285Y-61104857D01*
X124951000Y-61247714D01*
X124986714Y-61319142D01*
X125058142Y-61390571D01*
X125165285Y-61426285D01*
X125236714Y-61426285D01*
X125343857Y-61390571D01*
X125379571Y-61354857D01*
X125379571Y-61104857D01*
X125236714Y-61104857D01*
X125701000Y-61426285D02*
X125701000Y-60676285D01*
X126129571Y-61426285D01*
X126129571Y-60676285D01*
X126486714Y-61426285D02*
X126486714Y-60676285D01*
X126665285Y-60676285D01*
X126772428Y-60712000D01*
X126843857Y-60783428D01*
X126879571Y-60854857D01*
X126915285Y-60997714D01*
X126915285Y-61104857D01*
X126879571Y-61247714D01*
X126843857Y-61319142D01*
X126772428Y-61390571D01*
X126665285Y-61426285D01*
X126486714Y-61426285D01*
X127272428Y-61390571D02*
X127272428Y-61426285D01*
X127236714Y-61497714D01*
X127201000Y-61533428D01*
X128093857Y-60676285D02*
X128558142Y-60676285D01*
X128308142Y-60962000D01*
X128415285Y-60962000D01*
X128486714Y-60997714D01*
X128522428Y-61033428D01*
X128558142Y-61104857D01*
X128558142Y-61283428D01*
X128522428Y-61354857D01*
X128486714Y-61390571D01*
X128415285Y-61426285D01*
X128201000Y-61426285D01*
X128129571Y-61390571D01*
X128093857Y-61354857D01*
X128772428Y-60676285D02*
X129022428Y-61426285D01*
X129272428Y-60676285D01*
X129451000Y-60676285D02*
X129915285Y-60676285D01*
X129665285Y-60962000D01*
X129772428Y-60962000D01*
X129843857Y-60997714D01*
X129879571Y-61033428D01*
X129915285Y-61104857D01*
X129915285Y-61283428D01*
X129879571Y-61354857D01*
X129843857Y-61390571D01*
X129772428Y-61426285D01*
X129558142Y-61426285D01*
X129486714Y-61390571D01*
X129451000Y-61354857D01*
X130272428Y-61390571D02*
X130272428Y-61426285D01*
X130236714Y-61497714D01*
X130201000Y-61533428D01*
X131593857Y-61426285D02*
X131343857Y-61069142D01*
X131165285Y-61426285D02*
X131165285Y-60676285D01*
X131451000Y-60676285D01*
X131522428Y-60712000D01*
X131558142Y-60747714D01*
X131593857Y-60819142D01*
X131593857Y-60926285D01*
X131558142Y-60997714D01*
X131522428Y-61033428D01*
X131451000Y-61069142D01*
X131165285Y-61069142D01*
X131879571Y-61390571D02*
X131986714Y-61426285D01*
X132165285Y-61426285D01*
X132236714Y-61390571D01*
X132272428Y-61354857D01*
X132308142Y-61283428D01*
X132308142Y-61212000D01*
X132272428Y-61140571D01*
X132236714Y-61104857D01*
X132165285Y-61069142D01*
X132022428Y-61033428D01*
X131951000Y-60997714D01*
X131915285Y-60962000D01*
X131879571Y-60890571D01*
X131879571Y-60819142D01*
X131915285Y-60747714D01*
X131951000Y-60712000D01*
X132022428Y-60676285D01*
X132201000Y-60676285D01*
X132308142Y-60712000D01*
X132522428Y-60676285D02*
X132951000Y-60676285D01*
X132736714Y-61426285D02*
X132736714Y-60676285D01*
X133236714Y-61390571D02*
X133236714Y-61426285D01*
X133201000Y-61497714D01*
X133165285Y-61533428D01*
X134129571Y-61426285D02*
X134129571Y-60676285D01*
X134308142Y-60676285D01*
X134415285Y-60712000D01*
X134486714Y-60783428D01*
X134522428Y-60854857D01*
X134558142Y-60997714D01*
X134558142Y-61104857D01*
X134522428Y-61247714D01*
X134486714Y-61319142D01*
X134415285Y-61390571D01*
X134308142Y-61426285D01*
X134129571Y-61426285D01*
X134879571Y-61426285D02*
X134879571Y-60676285D01*
X135379571Y-60676285D02*
X135522428Y-60676285D01*
X135593857Y-60712000D01*
X135665285Y-60783428D01*
X135701000Y-60926285D01*
X135701000Y-61176285D01*
X135665285Y-61319142D01*
X135593857Y-61390571D01*
X135522428Y-61426285D01*
X135379571Y-61426285D01*
X135308142Y-61390571D01*
X135236714Y-61319142D01*
X135201000Y-61176285D01*
X135201000Y-60926285D01*
X135236714Y-60783428D01*
X135308142Y-60712000D01*
X135379571Y-60676285D01*
X136058142Y-61390571D02*
X136058142Y-61426285D01*
X136022428Y-61497714D01*
X135986714Y-61533428D01*
X137379571Y-61354857D02*
X137343857Y-61390571D01*
X137236714Y-61426285D01*
X137165285Y-61426285D01*
X137058142Y-61390571D01*
X136986714Y-61319142D01*
X136951000Y-61247714D01*
X136915285Y-61104857D01*
X136915285Y-60997714D01*
X136951000Y-60854857D01*
X136986714Y-60783428D01*
X137058142Y-60712000D01*
X137165285Y-60676285D01*
X137236714Y-60676285D01*
X137343857Y-60712000D01*
X137379571Y-60747714D01*
X138058142Y-61426285D02*
X137701000Y-61426285D01*
X137701000Y-60676285D01*
X138308142Y-61426285D02*
X138308142Y-60676285D01*
X138736714Y-61426285D02*
X138415285Y-60997714D01*
X138736714Y-60676285D02*
X138308142Y-61104857D01*
D10*
X151511000Y-66635380D02*
X151511000Y-66873476D01*
X151272904Y-66778238D02*
X151511000Y-66873476D01*
X151749095Y-66778238D01*
X151368142Y-67063952D02*
X151511000Y-66873476D01*
X151653857Y-67063952D01*
D13*
X102052380Y-103988666D02*
X101576190Y-104322000D01*
X102052380Y-104560095D02*
X101052380Y-104560095D01*
X101052380Y-104179142D01*
X101100000Y-104083904D01*
X101147619Y-104036285D01*
X101242857Y-103988666D01*
X101385714Y-103988666D01*
X101480952Y-104036285D01*
X101528571Y-104083904D01*
X101576190Y-104179142D01*
X101576190Y-104560095D01*
X102052380Y-103512476D02*
X102052380Y-103322000D01*
X102004761Y-103226761D01*
X101957142Y-103179142D01*
X101814285Y-103083904D01*
X101623809Y-103036285D01*
X101242857Y-103036285D01*
X101147619Y-103083904D01*
X101100000Y-103131523D01*
X101052380Y-103226761D01*
X101052380Y-103417238D01*
X101100000Y-103512476D01*
X101147619Y-103560095D01*
X101242857Y-103607714D01*
X101480952Y-103607714D01*
X101576190Y-103560095D01*
X101623809Y-103512476D01*
X101671428Y-103417238D01*
X101671428Y-103226761D01*
X101623809Y-103131523D01*
X101576190Y-103083904D01*
X101480952Y-103036285D01*
X160551904Y-67342380D02*
X160551904Y-66342380D01*
X160790000Y-66342380D01*
X160932857Y-66390000D01*
X161028095Y-66485238D01*
X161075714Y-66580476D01*
X161123333Y-66770952D01*
X161123333Y-66913809D01*
X161075714Y-67104285D01*
X161028095Y-67199523D01*
X160932857Y-67294761D01*
X160790000Y-67342380D01*
X160551904Y-67342380D01*
X162028095Y-66342380D02*
X161551904Y-66342380D01*
X161504285Y-66818571D01*
X161551904Y-66770952D01*
X161647142Y-66723333D01*
X161885238Y-66723333D01*
X161980476Y-66770952D01*
X162028095Y-66818571D01*
X162075714Y-66913809D01*
X162075714Y-67151904D01*
X162028095Y-67247142D01*
X161980476Y-67294761D01*
X161885238Y-67342380D01*
X161647142Y-67342380D01*
X161551904Y-67294761D01*
X161504285Y-67247142D01*
X147185142Y-109323142D02*
X147137523Y-109370761D01*
X146994666Y-109418380D01*
X146899428Y-109418380D01*
X146756571Y-109370761D01*
X146661333Y-109275523D01*
X146613714Y-109180285D01*
X146566095Y-108989809D01*
X146566095Y-108846952D01*
X146613714Y-108656476D01*
X146661333Y-108561238D01*
X146756571Y-108466000D01*
X146899428Y-108418380D01*
X146994666Y-108418380D01*
X147137523Y-108466000D01*
X147185142Y-108513619D01*
X147566095Y-108513619D02*
X147613714Y-108466000D01*
X147708952Y-108418380D01*
X147947047Y-108418380D01*
X148042285Y-108466000D01*
X148089904Y-108513619D01*
X148137523Y-108608857D01*
X148137523Y-108704095D01*
X148089904Y-108846952D01*
X147518476Y-109418380D01*
X148137523Y-109418380D01*
X149042285Y-108418380D02*
X148566095Y-108418380D01*
X148518476Y-108894571D01*
X148566095Y-108846952D01*
X148661333Y-108799333D01*
X148899428Y-108799333D01*
X148994666Y-108846952D01*
X149042285Y-108894571D01*
X149089904Y-108989809D01*
X149089904Y-109227904D01*
X149042285Y-109323142D01*
X148994666Y-109370761D01*
X148899428Y-109418380D01*
X148661333Y-109418380D01*
X148566095Y-109370761D01*
X148518476Y-109323142D01*
X163322095Y-70699380D02*
X163322095Y-71508904D01*
X163369714Y-71604142D01*
X163417333Y-71651761D01*
X163512571Y-71699380D01*
X163703047Y-71699380D01*
X163798285Y-71651761D01*
X163845904Y-71604142D01*
X163893523Y-71508904D01*
X163893523Y-70699380D01*
X164893523Y-71699380D02*
X164322095Y-71699380D01*
X164607809Y-71699380D02*
X164607809Y-70699380D01*
X164512571Y-70842238D01*
X164417333Y-70937476D01*
X164322095Y-70985095D01*
X148153380Y-84304095D02*
X147153380Y-84304095D01*
X147153380Y-84066000D01*
X147201000Y-83923142D01*
X147296238Y-83827904D01*
X147391476Y-83780285D01*
X147581952Y-83732666D01*
X147724809Y-83732666D01*
X147915285Y-83780285D01*
X148010523Y-83827904D01*
X148105761Y-83923142D01*
X148153380Y-84066000D01*
X148153380Y-84304095D01*
X147153380Y-83399333D02*
X147153380Y-82780285D01*
X147534333Y-83113619D01*
X147534333Y-82970761D01*
X147581952Y-82875523D01*
X147629571Y-82827904D01*
X147724809Y-82780285D01*
X147962904Y-82780285D01*
X148058142Y-82827904D01*
X148105761Y-82875523D01*
X148153380Y-82970761D01*
X148153380Y-83256476D01*
X148105761Y-83351714D01*
X148058142Y-83399333D01*
X150836333Y-82272142D02*
X150788714Y-82319761D01*
X150645857Y-82367380D01*
X150550619Y-82367380D01*
X150407761Y-82319761D01*
X150312523Y-82224523D01*
X150264904Y-82129285D01*
X150217285Y-81938809D01*
X150217285Y-81795952D01*
X150264904Y-81605476D01*
X150312523Y-81510238D01*
X150407761Y-81415000D01*
X150550619Y-81367380D01*
X150645857Y-81367380D01*
X150788714Y-81415000D01*
X150836333Y-81462619D01*
X151693476Y-81700714D02*
X151693476Y-82367380D01*
X151455380Y-81319761D02*
X151217285Y-82034047D01*
X151836333Y-82034047D01*
X155043142Y-97924857D02*
X155090761Y-97972476D01*
X155138380Y-98115333D01*
X155138380Y-98210571D01*
X155090761Y-98353428D01*
X154995523Y-98448666D01*
X154900285Y-98496285D01*
X154709809Y-98543904D01*
X154566952Y-98543904D01*
X154376476Y-98496285D01*
X154281238Y-98448666D01*
X154186000Y-98353428D01*
X154138380Y-98210571D01*
X154138380Y-98115333D01*
X154186000Y-97972476D01*
X154233619Y-97924857D01*
X154233619Y-97543904D02*
X154186000Y-97496285D01*
X154138380Y-97401047D01*
X154138380Y-97162952D01*
X154186000Y-97067714D01*
X154233619Y-97020095D01*
X154328857Y-96972476D01*
X154424095Y-96972476D01*
X154566952Y-97020095D01*
X155138380Y-97591523D01*
X155138380Y-96972476D01*
X155138380Y-96020095D02*
X155138380Y-96591523D01*
X155138380Y-96305809D02*
X154138380Y-96305809D01*
X154281238Y-96401047D01*
X154376476Y-96496285D01*
X154424095Y-96591523D01*
X152884142Y-76620666D02*
X152931761Y-76668285D01*
X152979380Y-76811142D01*
X152979380Y-76906380D01*
X152931761Y-77049238D01*
X152836523Y-77144476D01*
X152741285Y-77192095D01*
X152550809Y-77239714D01*
X152407952Y-77239714D01*
X152217476Y-77192095D01*
X152122238Y-77144476D01*
X152027000Y-77049238D01*
X151979380Y-76906380D01*
X151979380Y-76811142D01*
X152027000Y-76668285D01*
X152074619Y-76620666D01*
X152407952Y-76049238D02*
X152360333Y-76144476D01*
X152312714Y-76192095D01*
X152217476Y-76239714D01*
X152169857Y-76239714D01*
X152074619Y-76192095D01*
X152027000Y-76144476D01*
X151979380Y-76049238D01*
X151979380Y-75858761D01*
X152027000Y-75763523D01*
X152074619Y-75715904D01*
X152169857Y-75668285D01*
X152217476Y-75668285D01*
X152312714Y-75715904D01*
X152360333Y-75763523D01*
X152407952Y-75858761D01*
X152407952Y-76049238D01*
X152455571Y-76144476D01*
X152503190Y-76192095D01*
X152598428Y-76239714D01*
X152788904Y-76239714D01*
X152884142Y-76192095D01*
X152931761Y-76144476D01*
X152979380Y-76049238D01*
X152979380Y-75858761D01*
X152931761Y-75763523D01*
X152884142Y-75715904D01*
X152788904Y-75668285D01*
X152598428Y-75668285D01*
X152503190Y-75715904D01*
X152455571Y-75763523D01*
X152407952Y-75858761D01*
X162282142Y-104782857D02*
X162329761Y-104830476D01*
X162377380Y-104973333D01*
X162377380Y-105068571D01*
X162329761Y-105211428D01*
X162234523Y-105306666D01*
X162139285Y-105354285D01*
X161948809Y-105401904D01*
X161805952Y-105401904D01*
X161615476Y-105354285D01*
X161520238Y-105306666D01*
X161425000Y-105211428D01*
X161377380Y-105068571D01*
X161377380Y-104973333D01*
X161425000Y-104830476D01*
X161472619Y-104782857D01*
X161472619Y-104401904D02*
X161425000Y-104354285D01*
X161377380Y-104259047D01*
X161377380Y-104020952D01*
X161425000Y-103925714D01*
X161472619Y-103878095D01*
X161567857Y-103830476D01*
X161663095Y-103830476D01*
X161805952Y-103878095D01*
X162377380Y-104449523D01*
X162377380Y-103830476D01*
X161377380Y-103497142D02*
X161377380Y-102830476D01*
X162377380Y-103259047D01*
X139041142Y-77477857D02*
X139088761Y-77525476D01*
X139136380Y-77668333D01*
X139136380Y-77763571D01*
X139088761Y-77906428D01*
X138993523Y-78001666D01*
X138898285Y-78049285D01*
X138707809Y-78096904D01*
X138564952Y-78096904D01*
X138374476Y-78049285D01*
X138279238Y-78001666D01*
X138184000Y-77906428D01*
X138136380Y-77763571D01*
X138136380Y-77668333D01*
X138184000Y-77525476D01*
X138231619Y-77477857D01*
X138136380Y-77144523D02*
X138136380Y-76525476D01*
X138517333Y-76858809D01*
X138517333Y-76715952D01*
X138564952Y-76620714D01*
X138612571Y-76573095D01*
X138707809Y-76525476D01*
X138945904Y-76525476D01*
X139041142Y-76573095D01*
X139088761Y-76620714D01*
X139136380Y-76715952D01*
X139136380Y-77001666D01*
X139088761Y-77096904D01*
X139041142Y-77144523D01*
X138136380Y-75668333D02*
X138136380Y-75858809D01*
X138184000Y-75954047D01*
X138231619Y-76001666D01*
X138374476Y-76096904D01*
X138564952Y-76144523D01*
X138945904Y-76144523D01*
X139041142Y-76096904D01*
X139088761Y-76049285D01*
X139136380Y-75954047D01*
X139136380Y-75763571D01*
X139088761Y-75668333D01*
X139041142Y-75620714D01*
X138945904Y-75573095D01*
X138707809Y-75573095D01*
X138612571Y-75620714D01*
X138564952Y-75668333D01*
X138517333Y-75763571D01*
X138517333Y-75954047D01*
X138564952Y-76049285D01*
X138612571Y-76096904D01*
X138707809Y-76144523D01*
X160885142Y-104782857D02*
X160932761Y-104830476D01*
X160980380Y-104973333D01*
X160980380Y-105068571D01*
X160932761Y-105211428D01*
X160837523Y-105306666D01*
X160742285Y-105354285D01*
X160551809Y-105401904D01*
X160408952Y-105401904D01*
X160218476Y-105354285D01*
X160123238Y-105306666D01*
X160028000Y-105211428D01*
X159980380Y-105068571D01*
X159980380Y-104973333D01*
X160028000Y-104830476D01*
X160075619Y-104782857D01*
X160075619Y-104401904D02*
X160028000Y-104354285D01*
X159980380Y-104259047D01*
X159980380Y-104020952D01*
X160028000Y-103925714D01*
X160075619Y-103878095D01*
X160170857Y-103830476D01*
X160266095Y-103830476D01*
X160408952Y-103878095D01*
X160980380Y-104449523D01*
X160980380Y-103830476D01*
X159980380Y-102973333D02*
X159980380Y-103163809D01*
X160028000Y-103259047D01*
X160075619Y-103306666D01*
X160218476Y-103401904D01*
X160408952Y-103449523D01*
X160789904Y-103449523D01*
X160885142Y-103401904D01*
X160932761Y-103354285D01*
X160980380Y-103259047D01*
X160980380Y-103068571D01*
X160932761Y-102973333D01*
X160885142Y-102925714D01*
X160789904Y-102878095D01*
X160551809Y-102878095D01*
X160456571Y-102925714D01*
X160408952Y-102973333D01*
X160361333Y-103068571D01*
X160361333Y-103259047D01*
X160408952Y-103354285D01*
X160456571Y-103401904D01*
X160551809Y-103449523D01*
X114276142Y-77096857D02*
X114323761Y-77144476D01*
X114371380Y-77287333D01*
X114371380Y-77382571D01*
X114323761Y-77525428D01*
X114228523Y-77620666D01*
X114133285Y-77668285D01*
X113942809Y-77715904D01*
X113799952Y-77715904D01*
X113609476Y-77668285D01*
X113514238Y-77620666D01*
X113419000Y-77525428D01*
X113371380Y-77382571D01*
X113371380Y-77287333D01*
X113419000Y-77144476D01*
X113466619Y-77096857D01*
X113704714Y-76239714D02*
X114371380Y-76239714D01*
X113323761Y-76477809D02*
X114038047Y-76715904D01*
X114038047Y-76096857D01*
X113371380Y-75811142D02*
X113371380Y-75192095D01*
X113752333Y-75525428D01*
X113752333Y-75382571D01*
X113799952Y-75287333D01*
X113847571Y-75239714D01*
X113942809Y-75192095D01*
X114180904Y-75192095D01*
X114276142Y-75239714D01*
X114323761Y-75287333D01*
X114371380Y-75382571D01*
X114371380Y-75668285D01*
X114323761Y-75763523D01*
X114276142Y-75811142D01*
X169060904Y-67381380D02*
X169060904Y-66381380D01*
X169299000Y-66381380D01*
X169441857Y-66429000D01*
X169537095Y-66524238D01*
X169584714Y-66619476D01*
X169632333Y-66809952D01*
X169632333Y-66952809D01*
X169584714Y-67143285D01*
X169537095Y-67238523D01*
X169441857Y-67333761D01*
X169299000Y-67381380D01*
X169060904Y-67381380D01*
X170584714Y-67381380D02*
X170013285Y-67381380D01*
X170299000Y-67381380D02*
X170299000Y-66381380D01*
X170203761Y-66524238D01*
X170108523Y-66619476D01*
X170013285Y-66667095D01*
X141398666Y-60472380D02*
X141398666Y-61186666D01*
X141351047Y-61329523D01*
X141255809Y-61424761D01*
X141112952Y-61472380D01*
X141017714Y-61472380D01*
X141827238Y-60567619D02*
X141874857Y-60520000D01*
X141970095Y-60472380D01*
X142208190Y-60472380D01*
X142303428Y-60520000D01*
X142351047Y-60567619D01*
X142398666Y-60662857D01*
X142398666Y-60758095D01*
X142351047Y-60900952D01*
X141779619Y-61472380D01*
X142398666Y-61472380D01*
X141581142Y-77477857D02*
X141628761Y-77525476D01*
X141676380Y-77668333D01*
X141676380Y-77763571D01*
X141628761Y-77906428D01*
X141533523Y-78001666D01*
X141438285Y-78049285D01*
X141247809Y-78096904D01*
X141104952Y-78096904D01*
X140914476Y-78049285D01*
X140819238Y-78001666D01*
X140724000Y-77906428D01*
X140676380Y-77763571D01*
X140676380Y-77668333D01*
X140724000Y-77525476D01*
X140771619Y-77477857D01*
X140676380Y-77144523D02*
X140676380Y-76525476D01*
X141057333Y-76858809D01*
X141057333Y-76715952D01*
X141104952Y-76620714D01*
X141152571Y-76573095D01*
X141247809Y-76525476D01*
X141485904Y-76525476D01*
X141581142Y-76573095D01*
X141628761Y-76620714D01*
X141676380Y-76715952D01*
X141676380Y-77001666D01*
X141628761Y-77096904D01*
X141581142Y-77144523D01*
X141009714Y-75668333D02*
X141676380Y-75668333D01*
X140628761Y-75906428D02*
X141343047Y-76144523D01*
X141343047Y-75525476D01*
X159488142Y-104782857D02*
X159535761Y-104830476D01*
X159583380Y-104973333D01*
X159583380Y-105068571D01*
X159535761Y-105211428D01*
X159440523Y-105306666D01*
X159345285Y-105354285D01*
X159154809Y-105401904D01*
X159011952Y-105401904D01*
X158821476Y-105354285D01*
X158726238Y-105306666D01*
X158631000Y-105211428D01*
X158583380Y-105068571D01*
X158583380Y-104973333D01*
X158631000Y-104830476D01*
X158678619Y-104782857D01*
X158678619Y-104401904D02*
X158631000Y-104354285D01*
X158583380Y-104259047D01*
X158583380Y-104020952D01*
X158631000Y-103925714D01*
X158678619Y-103878095D01*
X158773857Y-103830476D01*
X158869095Y-103830476D01*
X159011952Y-103878095D01*
X159583380Y-104449523D01*
X159583380Y-103830476D01*
X158678619Y-103449523D02*
X158631000Y-103401904D01*
X158583380Y-103306666D01*
X158583380Y-103068571D01*
X158631000Y-102973333D01*
X158678619Y-102925714D01*
X158773857Y-102878095D01*
X158869095Y-102878095D01*
X159011952Y-102925714D01*
X159583380Y-103497142D01*
X159583380Y-102878095D01*
X102052380Y-100432666D02*
X101576190Y-100766000D01*
X102052380Y-101004095D02*
X101052380Y-101004095D01*
X101052380Y-100623142D01*
X101100000Y-100527904D01*
X101147619Y-100480285D01*
X101242857Y-100432666D01*
X101385714Y-100432666D01*
X101480952Y-100480285D01*
X101528571Y-100527904D01*
X101576190Y-100623142D01*
X101576190Y-101004095D01*
X101480952Y-99861238D02*
X101433333Y-99956476D01*
X101385714Y-100004095D01*
X101290476Y-100051714D01*
X101242857Y-100051714D01*
X101147619Y-100004095D01*
X101100000Y-99956476D01*
X101052380Y-99861238D01*
X101052380Y-99670761D01*
X101100000Y-99575523D01*
X101147619Y-99527904D01*
X101242857Y-99480285D01*
X101290476Y-99480285D01*
X101385714Y-99527904D01*
X101433333Y-99575523D01*
X101480952Y-99670761D01*
X101480952Y-99861238D01*
X101528571Y-99956476D01*
X101576190Y-100004095D01*
X101671428Y-100051714D01*
X101861904Y-100051714D01*
X101957142Y-100004095D01*
X102004761Y-99956476D01*
X102052380Y-99861238D01*
X102052380Y-99670761D01*
X102004761Y-99575523D01*
X101957142Y-99527904D01*
X101861904Y-99480285D01*
X101671428Y-99480285D01*
X101576190Y-99527904D01*
X101528571Y-99575523D01*
X101480952Y-99670761D01*
X173364142Y-99575857D02*
X173411761Y-99623476D01*
X173459380Y-99766333D01*
X173459380Y-99861571D01*
X173411761Y-100004428D01*
X173316523Y-100099666D01*
X173221285Y-100147285D01*
X173030809Y-100194904D01*
X172887952Y-100194904D01*
X172697476Y-100147285D01*
X172602238Y-100099666D01*
X172507000Y-100004428D01*
X172459380Y-99861571D01*
X172459380Y-99766333D01*
X172507000Y-99623476D01*
X172554619Y-99575857D01*
X173459380Y-98623476D02*
X173459380Y-99194904D01*
X173459380Y-98909190D02*
X172459380Y-98909190D01*
X172602238Y-99004428D01*
X172697476Y-99099666D01*
X172745095Y-99194904D01*
X172459380Y-98290142D02*
X172459380Y-97671095D01*
X172840333Y-98004428D01*
X172840333Y-97861571D01*
X172887952Y-97766333D01*
X172935571Y-97718714D01*
X173030809Y-97671095D01*
X173268904Y-97671095D01*
X173364142Y-97718714D01*
X173411761Y-97766333D01*
X173459380Y-97861571D01*
X173459380Y-98147285D01*
X173411761Y-98242523D01*
X173364142Y-98290142D01*
X139803142Y-99194857D02*
X139850761Y-99242476D01*
X139898380Y-99385333D01*
X139898380Y-99480571D01*
X139850761Y-99623428D01*
X139755523Y-99718666D01*
X139660285Y-99766285D01*
X139469809Y-99813904D01*
X139326952Y-99813904D01*
X139136476Y-99766285D01*
X139041238Y-99718666D01*
X138946000Y-99623428D01*
X138898380Y-99480571D01*
X138898380Y-99385333D01*
X138946000Y-99242476D01*
X138993619Y-99194857D01*
X138993619Y-98813904D02*
X138946000Y-98766285D01*
X138898380Y-98671047D01*
X138898380Y-98432952D01*
X138946000Y-98337714D01*
X138993619Y-98290095D01*
X139088857Y-98242476D01*
X139184095Y-98242476D01*
X139326952Y-98290095D01*
X139898380Y-98861523D01*
X139898380Y-98242476D01*
X138898380Y-97909142D02*
X138898380Y-97290095D01*
X139279333Y-97623428D01*
X139279333Y-97480571D01*
X139326952Y-97385333D01*
X139374571Y-97337714D01*
X139469809Y-97290095D01*
X139707904Y-97290095D01*
X139803142Y-97337714D01*
X139850761Y-97385333D01*
X139898380Y-97480571D01*
X139898380Y-97766285D01*
X139850761Y-97861523D01*
X139803142Y-97909142D01*
X118467142Y-65412857D02*
X118514761Y-65460476D01*
X118562380Y-65603333D01*
X118562380Y-65698571D01*
X118514761Y-65841428D01*
X118419523Y-65936666D01*
X118324285Y-65984285D01*
X118133809Y-66031904D01*
X117990952Y-66031904D01*
X117800476Y-65984285D01*
X117705238Y-65936666D01*
X117610000Y-65841428D01*
X117562380Y-65698571D01*
X117562380Y-65603333D01*
X117610000Y-65460476D01*
X117657619Y-65412857D01*
X117895714Y-64555714D02*
X118562380Y-64555714D01*
X117514761Y-64793809D02*
X118229047Y-65031904D01*
X118229047Y-64412857D01*
X117657619Y-64079523D02*
X117610000Y-64031904D01*
X117562380Y-63936666D01*
X117562380Y-63698571D01*
X117610000Y-63603333D01*
X117657619Y-63555714D01*
X117752857Y-63508095D01*
X117848095Y-63508095D01*
X117990952Y-63555714D01*
X118562380Y-64127142D01*
X118562380Y-63508095D01*
X112466380Y-81129095D02*
X111466380Y-81129095D01*
X111466380Y-80891000D01*
X111514000Y-80748142D01*
X111609238Y-80652904D01*
X111704476Y-80605285D01*
X111894952Y-80557666D01*
X112037809Y-80557666D01*
X112228285Y-80605285D01*
X112323523Y-80652904D01*
X112418761Y-80748142D01*
X112466380Y-80891000D01*
X112466380Y-81129095D01*
X111799714Y-79700523D02*
X112466380Y-79700523D01*
X111418761Y-79938619D02*
X112133047Y-80176714D01*
X112133047Y-79557666D01*
X114117380Y-95416666D02*
X113641190Y-95750000D01*
X114117380Y-95988095D02*
X113117380Y-95988095D01*
X113117380Y-95607142D01*
X113165000Y-95511904D01*
X113212619Y-95464285D01*
X113307857Y-95416666D01*
X113450714Y-95416666D01*
X113545952Y-95464285D01*
X113593571Y-95511904D01*
X113641190Y-95607142D01*
X113641190Y-95988095D01*
X113117380Y-95083333D02*
X113117380Y-94416666D01*
X114117380Y-94845238D01*
X122682095Y-86701380D02*
X122682095Y-87510904D01*
X122729714Y-87606142D01*
X122777333Y-87653761D01*
X122872571Y-87701380D01*
X123063047Y-87701380D01*
X123158285Y-87653761D01*
X123205904Y-87606142D01*
X123253523Y-87510904D01*
X123253523Y-86701380D01*
X124205904Y-86701380D02*
X123729714Y-86701380D01*
X123682095Y-87177571D01*
X123729714Y-87129952D01*
X123824952Y-87082333D01*
X124063047Y-87082333D01*
X124158285Y-87129952D01*
X124205904Y-87177571D01*
X124253523Y-87272809D01*
X124253523Y-87510904D01*
X124205904Y-87606142D01*
X124158285Y-87653761D01*
X124063047Y-87701380D01*
X123824952Y-87701380D01*
X123729714Y-87653761D01*
X123682095Y-87606142D01*
X137517142Y-106179857D02*
X137564761Y-106227476D01*
X137612380Y-106370333D01*
X137612380Y-106465571D01*
X137564761Y-106608428D01*
X137469523Y-106703666D01*
X137374285Y-106751285D01*
X137183809Y-106798904D01*
X137040952Y-106798904D01*
X136850476Y-106751285D01*
X136755238Y-106703666D01*
X136660000Y-106608428D01*
X136612380Y-106465571D01*
X136612380Y-106370333D01*
X136660000Y-106227476D01*
X136707619Y-106179857D01*
X137612380Y-105227476D02*
X137612380Y-105798904D01*
X137612380Y-105513190D02*
X136612380Y-105513190D01*
X136755238Y-105608428D01*
X136850476Y-105703666D01*
X136898095Y-105798904D01*
X137612380Y-104751285D02*
X137612380Y-104560809D01*
X137564761Y-104465571D01*
X137517142Y-104417952D01*
X137374285Y-104322714D01*
X137183809Y-104275095D01*
X136802857Y-104275095D01*
X136707619Y-104322714D01*
X136660000Y-104370333D01*
X136612380Y-104465571D01*
X136612380Y-104656047D01*
X136660000Y-104751285D01*
X136707619Y-104798904D01*
X136802857Y-104846523D01*
X137040952Y-104846523D01*
X137136190Y-104798904D01*
X137183809Y-104751285D01*
X137231428Y-104656047D01*
X137231428Y-104465571D01*
X137183809Y-104370333D01*
X137136190Y-104322714D01*
X137040952Y-104275095D01*
X118467142Y-86113857D02*
X118514761Y-86161476D01*
X118562380Y-86304333D01*
X118562380Y-86399571D01*
X118514761Y-86542428D01*
X118419523Y-86637666D01*
X118324285Y-86685285D01*
X118133809Y-86732904D01*
X117990952Y-86732904D01*
X117800476Y-86685285D01*
X117705238Y-86637666D01*
X117610000Y-86542428D01*
X117562380Y-86399571D01*
X117562380Y-86304333D01*
X117610000Y-86161476D01*
X117657619Y-86113857D01*
X118562380Y-85161476D02*
X118562380Y-85732904D01*
X118562380Y-85447190D02*
X117562380Y-85447190D01*
X117705238Y-85542428D01*
X117800476Y-85637666D01*
X117848095Y-85732904D01*
X117895714Y-84304333D02*
X118562380Y-84304333D01*
X117514761Y-84542428D02*
X118229047Y-84780523D01*
X118229047Y-84161476D01*
X117800380Y-73032857D02*
X117324190Y-73366190D01*
X117800380Y-73604285D02*
X116800380Y-73604285D01*
X116800380Y-73223333D01*
X116848000Y-73128095D01*
X116895619Y-73080476D01*
X116990857Y-73032857D01*
X117133714Y-73032857D01*
X117228952Y-73080476D01*
X117276571Y-73128095D01*
X117324190Y-73223333D01*
X117324190Y-73604285D01*
X117800380Y-72080476D02*
X117800380Y-72651904D01*
X117800380Y-72366190D02*
X116800380Y-72366190D01*
X116943238Y-72461428D01*
X117038476Y-72556666D01*
X117086095Y-72651904D01*
X116800380Y-71747142D02*
X116800380Y-71080476D01*
X117800380Y-71509047D01*
X144121142Y-65158857D02*
X144168761Y-65206476D01*
X144216380Y-65349333D01*
X144216380Y-65444571D01*
X144168761Y-65587428D01*
X144073523Y-65682666D01*
X143978285Y-65730285D01*
X143787809Y-65777904D01*
X143644952Y-65777904D01*
X143454476Y-65730285D01*
X143359238Y-65682666D01*
X143264000Y-65587428D01*
X143216380Y-65444571D01*
X143216380Y-65349333D01*
X143264000Y-65206476D01*
X143311619Y-65158857D01*
X143216380Y-64825523D02*
X143216380Y-64206476D01*
X143597333Y-64539809D01*
X143597333Y-64396952D01*
X143644952Y-64301714D01*
X143692571Y-64254095D01*
X143787809Y-64206476D01*
X144025904Y-64206476D01*
X144121142Y-64254095D01*
X144168761Y-64301714D01*
X144216380Y-64396952D01*
X144216380Y-64682666D01*
X144168761Y-64777904D01*
X144121142Y-64825523D01*
X144216380Y-63254095D02*
X144216380Y-63825523D01*
X144216380Y-63539809D02*
X143216380Y-63539809D01*
X143359238Y-63635047D01*
X143454476Y-63730285D01*
X143502095Y-63825523D01*
X142470142Y-99067857D02*
X142517761Y-99115476D01*
X142565380Y-99258333D01*
X142565380Y-99353571D01*
X142517761Y-99496428D01*
X142422523Y-99591666D01*
X142327285Y-99639285D01*
X142136809Y-99686904D01*
X141993952Y-99686904D01*
X141803476Y-99639285D01*
X141708238Y-99591666D01*
X141613000Y-99496428D01*
X141565380Y-99353571D01*
X141565380Y-99258333D01*
X141613000Y-99115476D01*
X141660619Y-99067857D01*
X141660619Y-98686904D02*
X141613000Y-98639285D01*
X141565380Y-98544047D01*
X141565380Y-98305952D01*
X141613000Y-98210714D01*
X141660619Y-98163095D01*
X141755857Y-98115476D01*
X141851095Y-98115476D01*
X141993952Y-98163095D01*
X142565380Y-98734523D01*
X142565380Y-98115476D01*
X141565380Y-97496428D02*
X141565380Y-97401190D01*
X141613000Y-97305952D01*
X141660619Y-97258333D01*
X141755857Y-97210714D01*
X141946333Y-97163095D01*
X142184428Y-97163095D01*
X142374904Y-97210714D01*
X142470142Y-97258333D01*
X142517761Y-97305952D01*
X142565380Y-97401190D01*
X142565380Y-97496428D01*
X142517761Y-97591666D01*
X142470142Y-97639285D01*
X142374904Y-97686904D01*
X142184428Y-97734523D01*
X141946333Y-97734523D01*
X141755857Y-97686904D01*
X141660619Y-97639285D01*
X141613000Y-97591666D01*
X141565380Y-97496428D01*
X150312380Y-68937095D02*
X149312380Y-68937095D01*
X149312380Y-68699000D01*
X149360000Y-68556142D01*
X149455238Y-68460904D01*
X149550476Y-68413285D01*
X149740952Y-68365666D01*
X149883809Y-68365666D01*
X150074285Y-68413285D01*
X150169523Y-68460904D01*
X150264761Y-68556142D01*
X150312380Y-68699000D01*
X150312380Y-68937095D01*
X150312380Y-67889476D02*
X150312380Y-67699000D01*
X150264761Y-67603761D01*
X150217142Y-67556142D01*
X150074285Y-67460904D01*
X149883809Y-67413285D01*
X149502857Y-67413285D01*
X149407619Y-67460904D01*
X149360000Y-67508523D01*
X149312380Y-67603761D01*
X149312380Y-67794238D01*
X149360000Y-67889476D01*
X149407619Y-67937095D01*
X149502857Y-67984714D01*
X149740952Y-67984714D01*
X149836190Y-67937095D01*
X149883809Y-67889476D01*
X149931428Y-67794238D01*
X149931428Y-67603761D01*
X149883809Y-67508523D01*
X149836190Y-67460904D01*
X149740952Y-67413285D01*
X112466380Y-69286285D02*
X111466380Y-69286285D01*
X111466380Y-69048190D01*
X111514000Y-68905333D01*
X111609238Y-68810095D01*
X111704476Y-68762476D01*
X111894952Y-68714857D01*
X112037809Y-68714857D01*
X112228285Y-68762476D01*
X112323523Y-68810095D01*
X112418761Y-68905333D01*
X112466380Y-69048190D01*
X112466380Y-69286285D01*
X112466380Y-67762476D02*
X112466380Y-68333904D01*
X112466380Y-68048190D02*
X111466380Y-68048190D01*
X111609238Y-68143428D01*
X111704476Y-68238666D01*
X111752095Y-68333904D01*
X111466380Y-67143428D02*
X111466380Y-67048190D01*
X111514000Y-66952952D01*
X111561619Y-66905333D01*
X111656857Y-66857714D01*
X111847333Y-66810095D01*
X112085428Y-66810095D01*
X112275904Y-66857714D01*
X112371142Y-66905333D01*
X112418761Y-66952952D01*
X112466380Y-67048190D01*
X112466380Y-67143428D01*
X112418761Y-67238666D01*
X112371142Y-67286285D01*
X112275904Y-67333904D01*
X112085428Y-67381523D01*
X111847333Y-67381523D01*
X111656857Y-67333904D01*
X111561619Y-67286285D01*
X111514000Y-67238666D01*
X111466380Y-67143428D01*
X131635666Y-85494761D02*
X131778523Y-85542380D01*
X132016619Y-85542380D01*
X132111857Y-85494761D01*
X132159476Y-85447142D01*
X132207095Y-85351904D01*
X132207095Y-85256666D01*
X132159476Y-85161428D01*
X132111857Y-85113809D01*
X132016619Y-85066190D01*
X131826142Y-85018571D01*
X131730904Y-84970952D01*
X131683285Y-84923333D01*
X131635666Y-84828095D01*
X131635666Y-84732857D01*
X131683285Y-84637619D01*
X131730904Y-84590000D01*
X131826142Y-84542380D01*
X132064238Y-84542380D01*
X132207095Y-84590000D01*
X132540428Y-84542380D02*
X132778523Y-85542380D01*
X132969000Y-84828095D01*
X133159476Y-85542380D01*
X133397571Y-84542380D01*
X134302333Y-85542380D02*
X133730904Y-85542380D01*
X134016619Y-85542380D02*
X134016619Y-84542380D01*
X133921380Y-84685238D01*
X133826142Y-84780476D01*
X133730904Y-84828095D01*
X126087142Y-87510857D02*
X126134761Y-87558476D01*
X126182380Y-87701333D01*
X126182380Y-87796571D01*
X126134761Y-87939428D01*
X126039523Y-88034666D01*
X125944285Y-88082285D01*
X125753809Y-88129904D01*
X125610952Y-88129904D01*
X125420476Y-88082285D01*
X125325238Y-88034666D01*
X125230000Y-87939428D01*
X125182380Y-87796571D01*
X125182380Y-87701333D01*
X125230000Y-87558476D01*
X125277619Y-87510857D01*
X126182380Y-86558476D02*
X126182380Y-87129904D01*
X126182380Y-86844190D02*
X125182380Y-86844190D01*
X125325238Y-86939428D01*
X125420476Y-87034666D01*
X125468095Y-87129904D01*
X125182380Y-85701333D02*
X125182380Y-85891809D01*
X125230000Y-85987047D01*
X125277619Y-86034666D01*
X125420476Y-86129904D01*
X125610952Y-86177523D01*
X125991904Y-86177523D01*
X126087142Y-86129904D01*
X126134761Y-86082285D01*
X126182380Y-85987047D01*
X126182380Y-85796571D01*
X126134761Y-85701333D01*
X126087142Y-85653714D01*
X125991904Y-85606095D01*
X125753809Y-85606095D01*
X125658571Y-85653714D01*
X125610952Y-85701333D01*
X125563333Y-85796571D01*
X125563333Y-85987047D01*
X125610952Y-86082285D01*
X125658571Y-86129904D01*
X125753809Y-86177523D01*
X139041142Y-65158857D02*
X139088761Y-65206476D01*
X139136380Y-65349333D01*
X139136380Y-65444571D01*
X139088761Y-65587428D01*
X138993523Y-65682666D01*
X138898285Y-65730285D01*
X138707809Y-65777904D01*
X138564952Y-65777904D01*
X138374476Y-65730285D01*
X138279238Y-65682666D01*
X138184000Y-65587428D01*
X138136380Y-65444571D01*
X138136380Y-65349333D01*
X138184000Y-65206476D01*
X138231619Y-65158857D01*
X138136380Y-64825523D02*
X138136380Y-64206476D01*
X138517333Y-64539809D01*
X138517333Y-64396952D01*
X138564952Y-64301714D01*
X138612571Y-64254095D01*
X138707809Y-64206476D01*
X138945904Y-64206476D01*
X139041142Y-64254095D01*
X139088761Y-64301714D01*
X139136380Y-64396952D01*
X139136380Y-64682666D01*
X139088761Y-64777904D01*
X139041142Y-64825523D01*
X138136380Y-63301714D02*
X138136380Y-63777904D01*
X138612571Y-63825523D01*
X138564952Y-63777904D01*
X138517333Y-63682666D01*
X138517333Y-63444571D01*
X138564952Y-63349333D01*
X138612571Y-63301714D01*
X138707809Y-63254095D01*
X138945904Y-63254095D01*
X139041142Y-63301714D01*
X139088761Y-63349333D01*
X139136380Y-63444571D01*
X139136380Y-63682666D01*
X139088761Y-63777904D01*
X139041142Y-63825523D01*
X146772333Y-97208380D02*
X146296142Y-97208380D01*
X146296142Y-96208380D01*
X147629476Y-97208380D02*
X147058047Y-97208380D01*
X147343761Y-97208380D02*
X147343761Y-96208380D01*
X147248523Y-96351238D01*
X147153285Y-96446476D01*
X147058047Y-96494095D01*
X165109142Y-106179857D02*
X165156761Y-106227476D01*
X165204380Y-106370333D01*
X165204380Y-106465571D01*
X165156761Y-106608428D01*
X165061523Y-106703666D01*
X164966285Y-106751285D01*
X164775809Y-106798904D01*
X164632952Y-106798904D01*
X164442476Y-106751285D01*
X164347238Y-106703666D01*
X164252000Y-106608428D01*
X164204380Y-106465571D01*
X164204380Y-106370333D01*
X164252000Y-106227476D01*
X164299619Y-106179857D01*
X165204380Y-105227476D02*
X165204380Y-105798904D01*
X165204380Y-105513190D02*
X164204380Y-105513190D01*
X164347238Y-105608428D01*
X164442476Y-105703666D01*
X164490095Y-105798904D01*
X165204380Y-104275095D02*
X165204380Y-104846523D01*
X165204380Y-104560809D02*
X164204380Y-104560809D01*
X164347238Y-104656047D01*
X164442476Y-104751285D01*
X164490095Y-104846523D01*
X121991380Y-97194666D02*
X121515190Y-97528000D01*
X121991380Y-97766095D02*
X120991380Y-97766095D01*
X120991380Y-97385142D01*
X121039000Y-97289904D01*
X121086619Y-97242285D01*
X121181857Y-97194666D01*
X121324714Y-97194666D01*
X121419952Y-97242285D01*
X121467571Y-97289904D01*
X121515190Y-97385142D01*
X121515190Y-97766095D01*
X120991380Y-96861333D02*
X120991380Y-96242285D01*
X121372333Y-96575619D01*
X121372333Y-96432761D01*
X121419952Y-96337523D01*
X121467571Y-96289904D01*
X121562809Y-96242285D01*
X121800904Y-96242285D01*
X121896142Y-96289904D01*
X121943761Y-96337523D01*
X121991380Y-96432761D01*
X121991380Y-96718476D01*
X121943761Y-96813714D01*
X121896142Y-96861333D01*
X141454142Y-65158857D02*
X141501761Y-65206476D01*
X141549380Y-65349333D01*
X141549380Y-65444571D01*
X141501761Y-65587428D01*
X141406523Y-65682666D01*
X141311285Y-65730285D01*
X141120809Y-65777904D01*
X140977952Y-65777904D01*
X140787476Y-65730285D01*
X140692238Y-65682666D01*
X140597000Y-65587428D01*
X140549380Y-65444571D01*
X140549380Y-65349333D01*
X140597000Y-65206476D01*
X140644619Y-65158857D01*
X140549380Y-64825523D02*
X140549380Y-64206476D01*
X140930333Y-64539809D01*
X140930333Y-64396952D01*
X140977952Y-64301714D01*
X141025571Y-64254095D01*
X141120809Y-64206476D01*
X141358904Y-64206476D01*
X141454142Y-64254095D01*
X141501761Y-64301714D01*
X141549380Y-64396952D01*
X141549380Y-64682666D01*
X141501761Y-64777904D01*
X141454142Y-64825523D01*
X140549380Y-63873142D02*
X140549380Y-63254095D01*
X140930333Y-63587428D01*
X140930333Y-63444571D01*
X140977952Y-63349333D01*
X141025571Y-63301714D01*
X141120809Y-63254095D01*
X141358904Y-63254095D01*
X141454142Y-63301714D01*
X141501761Y-63349333D01*
X141549380Y-63444571D01*
X141549380Y-63730285D01*
X141501761Y-63825523D01*
X141454142Y-63873142D01*
X101925380Y-107972357D02*
X101449190Y-108305690D01*
X101925380Y-108543785D02*
X100925380Y-108543785D01*
X100925380Y-108162833D01*
X100973000Y-108067595D01*
X101020619Y-108019976D01*
X101115857Y-107972357D01*
X101258714Y-107972357D01*
X101353952Y-108019976D01*
X101401571Y-108067595D01*
X101449190Y-108162833D01*
X101449190Y-108543785D01*
X101925380Y-107019976D02*
X101925380Y-107591404D01*
X101925380Y-107305690D02*
X100925380Y-107305690D01*
X101068238Y-107400928D01*
X101163476Y-107496166D01*
X101211095Y-107591404D01*
X100925380Y-106400928D02*
X100925380Y-106305690D01*
X100973000Y-106210452D01*
X101020619Y-106162833D01*
X101115857Y-106115214D01*
X101306333Y-106067595D01*
X101544428Y-106067595D01*
X101734904Y-106115214D01*
X101830142Y-106162833D01*
X101877761Y-106210452D01*
X101925380Y-106305690D01*
X101925380Y-106400928D01*
X101877761Y-106496166D01*
X101830142Y-106543785D01*
X101734904Y-106591404D01*
X101544428Y-106639023D01*
X101306333Y-106639023D01*
X101115857Y-106591404D01*
X101020619Y-106543785D01*
X100973000Y-106496166D01*
X100925380Y-106400928D01*
X163663333Y-83034142D02*
X163615714Y-83081761D01*
X163472857Y-83129380D01*
X163377619Y-83129380D01*
X163234761Y-83081761D01*
X163139523Y-82986523D01*
X163091904Y-82891285D01*
X163044285Y-82700809D01*
X163044285Y-82557952D01*
X163091904Y-82367476D01*
X163139523Y-82272238D01*
X163234761Y-82177000D01*
X163377619Y-82129380D01*
X163472857Y-82129380D01*
X163615714Y-82177000D01*
X163663333Y-82224619D01*
X164568095Y-82129380D02*
X164091904Y-82129380D01*
X164044285Y-82605571D01*
X164091904Y-82557952D01*
X164187142Y-82510333D01*
X164425238Y-82510333D01*
X164520476Y-82557952D01*
X164568095Y-82605571D01*
X164615714Y-82700809D01*
X164615714Y-82938904D01*
X164568095Y-83034142D01*
X164520476Y-83081761D01*
X164425238Y-83129380D01*
X164187142Y-83129380D01*
X164091904Y-83081761D01*
X164044285Y-83034142D01*
X155392380Y-68810095D02*
X154392380Y-68810095D01*
X154392380Y-68572000D01*
X154440000Y-68429142D01*
X154535238Y-68333904D01*
X154630476Y-68286285D01*
X154820952Y-68238666D01*
X154963809Y-68238666D01*
X155154285Y-68286285D01*
X155249523Y-68333904D01*
X155344761Y-68429142D01*
X155392380Y-68572000D01*
X155392380Y-68810095D01*
X154487619Y-67857714D02*
X154440000Y-67810095D01*
X154392380Y-67714857D01*
X154392380Y-67476761D01*
X154440000Y-67381523D01*
X154487619Y-67333904D01*
X154582857Y-67286285D01*
X154678095Y-67286285D01*
X154820952Y-67333904D01*
X155392380Y-67905333D01*
X155392380Y-67286285D01*
X117263626Y-102117357D02*
X117311245Y-102164976D01*
X117358864Y-102307833D01*
X117358864Y-102403071D01*
X117311245Y-102545928D01*
X117216007Y-102641166D01*
X117120769Y-102688785D01*
X116930293Y-102736404D01*
X116787436Y-102736404D01*
X116596960Y-102688785D01*
X116501722Y-102641166D01*
X116406484Y-102545928D01*
X116358864Y-102403071D01*
X116358864Y-102307833D01*
X116406484Y-102164976D01*
X116454103Y-102117357D01*
X117358864Y-101164976D02*
X117358864Y-101736404D01*
X117358864Y-101450690D02*
X116358864Y-101450690D01*
X116501722Y-101545928D01*
X116596960Y-101641166D01*
X116644579Y-101736404D01*
X116358864Y-100831642D02*
X116358864Y-100164976D01*
X117358864Y-100593547D01*
X127373142Y-94178380D02*
X127039809Y-93702190D01*
X126801714Y-94178380D02*
X126801714Y-93178380D01*
X127182666Y-93178380D01*
X127277904Y-93226000D01*
X127325523Y-93273619D01*
X127373142Y-93368857D01*
X127373142Y-93511714D01*
X127325523Y-93606952D01*
X127277904Y-93654571D01*
X127182666Y-93702190D01*
X126801714Y-93702190D01*
X128325523Y-94178380D02*
X127754095Y-94178380D01*
X128039809Y-94178380D02*
X128039809Y-93178380D01*
X127944571Y-93321238D01*
X127849333Y-93416476D01*
X127754095Y-93464095D01*
X129277904Y-94178380D02*
X128706476Y-94178380D01*
X128992190Y-94178380D02*
X128992190Y-93178380D01*
X128896952Y-93321238D01*
X128801714Y-93416476D01*
X128706476Y-93464095D01*
X166878095Y-102752380D02*
X166878095Y-103561904D01*
X166925714Y-103657142D01*
X166973333Y-103704761D01*
X167068571Y-103752380D01*
X167259047Y-103752380D01*
X167354285Y-103704761D01*
X167401904Y-103657142D01*
X167449523Y-103561904D01*
X167449523Y-102752380D01*
X167830476Y-102752380D02*
X168449523Y-102752380D01*
X168116190Y-103133333D01*
X168259047Y-103133333D01*
X168354285Y-103180952D01*
X168401904Y-103228571D01*
X168449523Y-103323809D01*
X168449523Y-103561904D01*
X168401904Y-103657142D01*
X168354285Y-103704761D01*
X168259047Y-103752380D01*
X167973333Y-103752380D01*
X167878095Y-103704761D01*
X167830476Y-103657142D01*
X156837142Y-108021380D02*
X156503809Y-107545190D01*
X156265714Y-108021380D02*
X156265714Y-107021380D01*
X156646666Y-107021380D01*
X156741904Y-107069000D01*
X156789523Y-107116619D01*
X156837142Y-107211857D01*
X156837142Y-107354714D01*
X156789523Y-107449952D01*
X156741904Y-107497571D01*
X156646666Y-107545190D01*
X156265714Y-107545190D01*
X157789523Y-108021380D02*
X157218095Y-108021380D01*
X157503809Y-108021380D02*
X157503809Y-107021380D01*
X157408571Y-107164238D01*
X157313333Y-107259476D01*
X157218095Y-107307095D01*
X158122857Y-107021380D02*
X158741904Y-107021380D01*
X158408571Y-107402333D01*
X158551428Y-107402333D01*
X158646666Y-107449952D01*
X158694285Y-107497571D01*
X158741904Y-107592809D01*
X158741904Y-107830904D01*
X158694285Y-107926142D01*
X158646666Y-107973761D01*
X158551428Y-108021380D01*
X158265714Y-108021380D01*
X158170476Y-107973761D01*
X158122857Y-107926142D01*
X115768380Y-86145666D02*
X115292190Y-86479000D01*
X115768380Y-86717095D02*
X114768380Y-86717095D01*
X114768380Y-86336142D01*
X114816000Y-86240904D01*
X114863619Y-86193285D01*
X114958857Y-86145666D01*
X115101714Y-86145666D01*
X115196952Y-86193285D01*
X115244571Y-86240904D01*
X115292190Y-86336142D01*
X115292190Y-86717095D01*
X114768380Y-85240904D02*
X114768380Y-85717095D01*
X115244571Y-85764714D01*
X115196952Y-85717095D01*
X115149333Y-85621857D01*
X115149333Y-85383761D01*
X115196952Y-85288523D01*
X115244571Y-85240904D01*
X115339809Y-85193285D01*
X115577904Y-85193285D01*
X115673142Y-85240904D01*
X115720761Y-85288523D01*
X115768380Y-85383761D01*
X115768380Y-85621857D01*
X115720761Y-85717095D01*
X115673142Y-85764714D01*
X110834579Y-98316880D02*
X110834579Y-99126404D01*
X110882198Y-99221642D01*
X110929817Y-99269261D01*
X111025055Y-99316880D01*
X111215531Y-99316880D01*
X111310769Y-99269261D01*
X111358388Y-99221642D01*
X111406007Y-99126404D01*
X111406007Y-98316880D01*
X112310769Y-98316880D02*
X112120293Y-98316880D01*
X112025055Y-98364500D01*
X111977436Y-98412119D01*
X111882198Y-98554976D01*
X111834579Y-98745452D01*
X111834579Y-99126404D01*
X111882198Y-99221642D01*
X111929817Y-99269261D01*
X112025055Y-99316880D01*
X112215531Y-99316880D01*
X112310769Y-99269261D01*
X112358388Y-99221642D01*
X112406007Y-99126404D01*
X112406007Y-98888309D01*
X112358388Y-98793071D01*
X112310769Y-98745452D01*
X112215531Y-98697833D01*
X112025055Y-98697833D01*
X111929817Y-98745452D01*
X111882198Y-98793071D01*
X111834579Y-98888309D01*
X110196333Y-109545380D02*
X109863000Y-109069190D01*
X109624904Y-109545380D02*
X109624904Y-108545380D01*
X110005857Y-108545380D01*
X110101095Y-108593000D01*
X110148714Y-108640619D01*
X110196333Y-108735857D01*
X110196333Y-108878714D01*
X110148714Y-108973952D01*
X110101095Y-109021571D01*
X110005857Y-109069190D01*
X109624904Y-109069190D01*
X110577285Y-108640619D02*
X110624904Y-108593000D01*
X110720142Y-108545380D01*
X110958238Y-108545380D01*
X111053476Y-108593000D01*
X111101095Y-108640619D01*
X111148714Y-108735857D01*
X111148714Y-108831095D01*
X111101095Y-108973952D01*
X110529666Y-109545380D01*
X111148714Y-109545380D01*
X157726142Y-109926380D02*
X157392809Y-109450190D01*
X157154714Y-109926380D02*
X157154714Y-108926380D01*
X157535666Y-108926380D01*
X157630904Y-108974000D01*
X157678523Y-109021619D01*
X157726142Y-109116857D01*
X157726142Y-109259714D01*
X157678523Y-109354952D01*
X157630904Y-109402571D01*
X157535666Y-109450190D01*
X157154714Y-109450190D01*
X158678523Y-109926380D02*
X158107095Y-109926380D01*
X158392809Y-109926380D02*
X158392809Y-108926380D01*
X158297571Y-109069238D01*
X158202333Y-109164476D01*
X158107095Y-109212095D01*
X159535666Y-109259714D02*
X159535666Y-109926380D01*
X159297571Y-108878761D02*
X159059476Y-109593047D01*
X159678523Y-109593047D01*
X117800380Y-76397857D02*
X117324190Y-76731190D01*
X117800380Y-76969285D02*
X116800380Y-76969285D01*
X116800380Y-76588333D01*
X116848000Y-76493095D01*
X116895619Y-76445476D01*
X116990857Y-76397857D01*
X117133714Y-76397857D01*
X117228952Y-76445476D01*
X117276571Y-76493095D01*
X117324190Y-76588333D01*
X117324190Y-76969285D01*
X117800380Y-75445476D02*
X117800380Y-76016904D01*
X117800380Y-75731190D02*
X116800380Y-75731190D01*
X116943238Y-75826428D01*
X117038476Y-75921666D01*
X117086095Y-76016904D01*
X116800380Y-74588333D02*
X116800380Y-74778809D01*
X116848000Y-74874047D01*
X116895619Y-74921666D01*
X117038476Y-75016904D01*
X117228952Y-75064523D01*
X117609904Y-75064523D01*
X117705142Y-75016904D01*
X117752761Y-74969285D01*
X117800380Y-74874047D01*
X117800380Y-74683571D01*
X117752761Y-74588333D01*
X117705142Y-74540714D01*
X117609904Y-74493095D01*
X117371809Y-74493095D01*
X117276571Y-74540714D01*
X117228952Y-74588333D01*
X117181333Y-74683571D01*
X117181333Y-74874047D01*
X117228952Y-74969285D01*
X117276571Y-75016904D01*
X117371809Y-75064523D01*
X164742904Y-67381380D02*
X164742904Y-66381380D01*
X164981000Y-66381380D01*
X165123857Y-66429000D01*
X165219095Y-66524238D01*
X165266714Y-66619476D01*
X165314333Y-66809952D01*
X165314333Y-66952809D01*
X165266714Y-67143285D01*
X165219095Y-67238523D01*
X165123857Y-67333761D01*
X164981000Y-67381380D01*
X164742904Y-67381380D01*
X165885761Y-66809952D02*
X165790523Y-66762333D01*
X165742904Y-66714714D01*
X165695285Y-66619476D01*
X165695285Y-66571857D01*
X165742904Y-66476619D01*
X165790523Y-66429000D01*
X165885761Y-66381380D01*
X166076238Y-66381380D01*
X166171476Y-66429000D01*
X166219095Y-66476619D01*
X166266714Y-66571857D01*
X166266714Y-66619476D01*
X166219095Y-66714714D01*
X166171476Y-66762333D01*
X166076238Y-66809952D01*
X165885761Y-66809952D01*
X165790523Y-66857571D01*
X165742904Y-66905190D01*
X165695285Y-67000428D01*
X165695285Y-67190904D01*
X165742904Y-67286142D01*
X165790523Y-67333761D01*
X165885761Y-67381380D01*
X166076238Y-67381380D01*
X166171476Y-67333761D01*
X166219095Y-67286142D01*
X166266714Y-67190904D01*
X166266714Y-67000428D01*
X166219095Y-66905190D01*
X166171476Y-66857571D01*
X166076238Y-66809952D01*
X118562380Y-94654666D02*
X118086190Y-94988000D01*
X118562380Y-95226095D02*
X117562380Y-95226095D01*
X117562380Y-94845142D01*
X117610000Y-94749904D01*
X117657619Y-94702285D01*
X117752857Y-94654666D01*
X117895714Y-94654666D01*
X117990952Y-94702285D01*
X118038571Y-94749904D01*
X118086190Y-94845142D01*
X118086190Y-95226095D01*
X117895714Y-93797523D02*
X118562380Y-93797523D01*
X117514761Y-94035619D02*
X118229047Y-94273714D01*
X118229047Y-93654666D01*
X150217142Y-76493666D02*
X150264761Y-76541285D01*
X150312380Y-76684142D01*
X150312380Y-76779380D01*
X150264761Y-76922238D01*
X150169523Y-77017476D01*
X150074285Y-77065095D01*
X149883809Y-77112714D01*
X149740952Y-77112714D01*
X149550476Y-77065095D01*
X149455238Y-77017476D01*
X149360000Y-76922238D01*
X149312380Y-76779380D01*
X149312380Y-76684142D01*
X149360000Y-76541285D01*
X149407619Y-76493666D01*
X150312380Y-75541285D02*
X150312380Y-76112714D01*
X150312380Y-75827000D02*
X149312380Y-75827000D01*
X149455238Y-75922238D01*
X149550476Y-76017476D01*
X149598095Y-76112714D01*
X114117380Y-92114666D02*
X113641190Y-92448000D01*
X114117380Y-92686095D02*
X113117380Y-92686095D01*
X113117380Y-92305142D01*
X113165000Y-92209904D01*
X113212619Y-92162285D01*
X113307857Y-92114666D01*
X113450714Y-92114666D01*
X113545952Y-92162285D01*
X113593571Y-92209904D01*
X113641190Y-92305142D01*
X113641190Y-92686095D01*
X113117380Y-91257523D02*
X113117380Y-91448000D01*
X113165000Y-91543238D01*
X113212619Y-91590857D01*
X113355476Y-91686095D01*
X113545952Y-91733714D01*
X113926904Y-91733714D01*
X114022142Y-91686095D01*
X114069761Y-91638476D01*
X114117380Y-91543238D01*
X114117380Y-91352761D01*
X114069761Y-91257523D01*
X114022142Y-91209904D01*
X113926904Y-91162285D01*
X113688809Y-91162285D01*
X113593571Y-91209904D01*
X113545952Y-91257523D01*
X113498333Y-91352761D01*
X113498333Y-91543238D01*
X113545952Y-91638476D01*
X113593571Y-91686095D01*
X113688809Y-91733714D01*
X173364142Y-106179857D02*
X173411761Y-106227476D01*
X173459380Y-106370333D01*
X173459380Y-106465571D01*
X173411761Y-106608428D01*
X173316523Y-106703666D01*
X173221285Y-106751285D01*
X173030809Y-106798904D01*
X172887952Y-106798904D01*
X172697476Y-106751285D01*
X172602238Y-106703666D01*
X172507000Y-106608428D01*
X172459380Y-106465571D01*
X172459380Y-106370333D01*
X172507000Y-106227476D01*
X172554619Y-106179857D01*
X173459380Y-105227476D02*
X173459380Y-105798904D01*
X173459380Y-105513190D02*
X172459380Y-105513190D01*
X172602238Y-105608428D01*
X172697476Y-105703666D01*
X172745095Y-105798904D01*
X172554619Y-104846523D02*
X172507000Y-104798904D01*
X172459380Y-104703666D01*
X172459380Y-104465571D01*
X172507000Y-104370333D01*
X172554619Y-104322714D01*
X172649857Y-104275095D01*
X172745095Y-104275095D01*
X172887952Y-104322714D01*
X173459380Y-104894142D01*
X173459380Y-104275095D01*
X120499142Y-65285857D02*
X120546761Y-65333476D01*
X120594380Y-65476333D01*
X120594380Y-65571571D01*
X120546761Y-65714428D01*
X120451523Y-65809666D01*
X120356285Y-65857285D01*
X120165809Y-65904904D01*
X120022952Y-65904904D01*
X119832476Y-65857285D01*
X119737238Y-65809666D01*
X119642000Y-65714428D01*
X119594380Y-65571571D01*
X119594380Y-65476333D01*
X119642000Y-65333476D01*
X119689619Y-65285857D01*
X119927714Y-64428714D02*
X120594380Y-64428714D01*
X119546761Y-64666809D02*
X120261047Y-64904904D01*
X120261047Y-64285857D01*
X119594380Y-63714428D02*
X119594380Y-63619190D01*
X119642000Y-63523952D01*
X119689619Y-63476333D01*
X119784857Y-63428714D01*
X119975333Y-63381095D01*
X120213428Y-63381095D01*
X120403904Y-63428714D01*
X120499142Y-63476333D01*
X120546761Y-63523952D01*
X120594380Y-63619190D01*
X120594380Y-63714428D01*
X120546761Y-63809666D01*
X120499142Y-63857285D01*
X120403904Y-63904904D01*
X120213428Y-63952523D01*
X119975333Y-63952523D01*
X119784857Y-63904904D01*
X119689619Y-63857285D01*
X119642000Y-63809666D01*
X119594380Y-63714428D01*
X115546142Y-80652857D02*
X115593761Y-80700476D01*
X115641380Y-80843333D01*
X115641380Y-80938571D01*
X115593761Y-81081428D01*
X115498523Y-81176666D01*
X115403285Y-81224285D01*
X115212809Y-81271904D01*
X115069952Y-81271904D01*
X114879476Y-81224285D01*
X114784238Y-81176666D01*
X114689000Y-81081428D01*
X114641380Y-80938571D01*
X114641380Y-80843333D01*
X114689000Y-80700476D01*
X114736619Y-80652857D01*
X114974714Y-79795714D02*
X115641380Y-79795714D01*
X114593761Y-80033809D02*
X115308047Y-80271904D01*
X115308047Y-79652857D01*
X115641380Y-78748095D02*
X115641380Y-79319523D01*
X115641380Y-79033809D02*
X114641380Y-79033809D01*
X114784238Y-79129047D01*
X114879476Y-79224285D01*
X114927095Y-79319523D01*
X109886761Y-105957619D02*
X109791523Y-105910000D01*
X109696285Y-105814761D01*
X109553428Y-105671904D01*
X109458190Y-105624285D01*
X109362952Y-105624285D01*
X109410571Y-105862380D02*
X109315333Y-105814761D01*
X109220095Y-105719523D01*
X109172476Y-105529047D01*
X109172476Y-105195714D01*
X109220095Y-105005238D01*
X109315333Y-104910000D01*
X109410571Y-104862380D01*
X109601047Y-104862380D01*
X109696285Y-104910000D01*
X109791523Y-105005238D01*
X109839142Y-105195714D01*
X109839142Y-105529047D01*
X109791523Y-105719523D01*
X109696285Y-105814761D01*
X109601047Y-105862380D01*
X109410571Y-105862380D01*
X110791523Y-105862380D02*
X110220095Y-105862380D01*
X110505809Y-105862380D02*
X110505809Y-104862380D01*
X110410571Y-105005238D01*
X110315333Y-105100476D01*
X110220095Y-105148095D01*
X112466380Y-86717095D02*
X111466380Y-86717095D01*
X111466380Y-86479000D01*
X111514000Y-86336142D01*
X111609238Y-86240904D01*
X111704476Y-86193285D01*
X111894952Y-86145666D01*
X112037809Y-86145666D01*
X112228285Y-86193285D01*
X112323523Y-86240904D01*
X112418761Y-86336142D01*
X112466380Y-86479000D01*
X112466380Y-86717095D01*
X111466380Y-85812333D02*
X111466380Y-85145666D01*
X112466380Y-85574238D01*
X171410333Y-76430142D02*
X171362714Y-76477761D01*
X171219857Y-76525380D01*
X171124619Y-76525380D01*
X170981761Y-76477761D01*
X170886523Y-76382523D01*
X170838904Y-76287285D01*
X170791285Y-76096809D01*
X170791285Y-75953952D01*
X170838904Y-75763476D01*
X170886523Y-75668238D01*
X170981761Y-75573000D01*
X171124619Y-75525380D01*
X171219857Y-75525380D01*
X171362714Y-75573000D01*
X171410333Y-75620619D01*
X171886523Y-76525380D02*
X172077000Y-76525380D01*
X172172238Y-76477761D01*
X172219857Y-76430142D01*
X172315095Y-76287285D01*
X172362714Y-76096809D01*
X172362714Y-75715857D01*
X172315095Y-75620619D01*
X172267476Y-75573000D01*
X172172238Y-75525380D01*
X171981761Y-75525380D01*
X171886523Y-75573000D01*
X171838904Y-75620619D01*
X171791285Y-75715857D01*
X171791285Y-75953952D01*
X171838904Y-76049190D01*
X171886523Y-76096809D01*
X171981761Y-76144428D01*
X172172238Y-76144428D01*
X172267476Y-76096809D01*
X172315095Y-76049190D01*
X172362714Y-75953952D01*
X140073142Y-71826380D02*
X139739809Y-71350190D01*
X139501714Y-71826380D02*
X139501714Y-70826380D01*
X139882666Y-70826380D01*
X139977904Y-70874000D01*
X140025523Y-70921619D01*
X140073142Y-71016857D01*
X140073142Y-71159714D01*
X140025523Y-71254952D01*
X139977904Y-71302571D01*
X139882666Y-71350190D01*
X139501714Y-71350190D01*
X141025523Y-71826380D02*
X140454095Y-71826380D01*
X140739809Y-71826380D02*
X140739809Y-70826380D01*
X140644571Y-70969238D01*
X140549333Y-71064476D01*
X140454095Y-71112095D01*
X141930285Y-70826380D02*
X141454095Y-70826380D01*
X141406476Y-71302571D01*
X141454095Y-71254952D01*
X141549333Y-71207333D01*
X141787428Y-71207333D01*
X141882666Y-71254952D01*
X141930285Y-71302571D01*
X141977904Y-71397809D01*
X141977904Y-71635904D01*
X141930285Y-71731142D01*
X141882666Y-71778761D01*
X141787428Y-71826380D01*
X141549333Y-71826380D01*
X141454095Y-71778761D01*
X141406476Y-71731142D01*
X156932333Y-68015142D02*
X156884714Y-68062761D01*
X156741857Y-68110380D01*
X156646619Y-68110380D01*
X156503761Y-68062761D01*
X156408523Y-67967523D01*
X156360904Y-67872285D01*
X156313285Y-67681809D01*
X156313285Y-67538952D01*
X156360904Y-67348476D01*
X156408523Y-67253238D01*
X156503761Y-67158000D01*
X156646619Y-67110380D01*
X156741857Y-67110380D01*
X156884714Y-67158000D01*
X156932333Y-67205619D01*
X157265666Y-67110380D02*
X157884714Y-67110380D01*
X157551380Y-67491333D01*
X157694238Y-67491333D01*
X157789476Y-67538952D01*
X157837095Y-67586571D01*
X157884714Y-67681809D01*
X157884714Y-67919904D01*
X157837095Y-68015142D01*
X157789476Y-68062761D01*
X157694238Y-68110380D01*
X157408523Y-68110380D01*
X157313285Y-68062761D01*
X157265666Y-68015142D01*
X164425333Y-86209142D02*
X164377714Y-86256761D01*
X164234857Y-86304380D01*
X164139619Y-86304380D01*
X163996761Y-86256761D01*
X163901523Y-86161523D01*
X163853904Y-86066285D01*
X163806285Y-85875809D01*
X163806285Y-85732952D01*
X163853904Y-85542476D01*
X163901523Y-85447238D01*
X163996761Y-85352000D01*
X164139619Y-85304380D01*
X164234857Y-85304380D01*
X164377714Y-85352000D01*
X164425333Y-85399619D01*
X164806285Y-85399619D02*
X164853904Y-85352000D01*
X164949142Y-85304380D01*
X165187238Y-85304380D01*
X165282476Y-85352000D01*
X165330095Y-85399619D01*
X165377714Y-85494857D01*
X165377714Y-85590095D01*
X165330095Y-85732952D01*
X164758666Y-86304380D01*
X165377714Y-86304380D01*
X114038142Y-107419380D02*
X113704809Y-106943190D01*
X113466714Y-107419380D02*
X113466714Y-106419380D01*
X113847666Y-106419380D01*
X113942904Y-106467000D01*
X113990523Y-106514619D01*
X114038142Y-106609857D01*
X114038142Y-106752714D01*
X113990523Y-106847952D01*
X113942904Y-106895571D01*
X113847666Y-106943190D01*
X113466714Y-106943190D01*
X114990523Y-107419380D02*
X114419095Y-107419380D01*
X114704809Y-107419380D02*
X114704809Y-106419380D01*
X114609571Y-106562238D01*
X114514333Y-106657476D01*
X114419095Y-106705095D01*
X115371476Y-106514619D02*
X115419095Y-106467000D01*
X115514333Y-106419380D01*
X115752428Y-106419380D01*
X115847666Y-106467000D01*
X115895285Y-106514619D01*
X115942904Y-106609857D01*
X115942904Y-106705095D01*
X115895285Y-106847952D01*
X115323857Y-107419380D01*
X115942904Y-107419380D01*
X168886142Y-73572666D02*
X168933761Y-73620285D01*
X168981380Y-73763142D01*
X168981380Y-73858380D01*
X168933761Y-74001238D01*
X168838523Y-74096476D01*
X168743285Y-74144095D01*
X168552809Y-74191714D01*
X168409952Y-74191714D01*
X168219476Y-74144095D01*
X168124238Y-74096476D01*
X168029000Y-74001238D01*
X167981380Y-73858380D01*
X167981380Y-73763142D01*
X168029000Y-73620285D01*
X168076619Y-73572666D01*
X167981380Y-72715523D02*
X167981380Y-72906000D01*
X168029000Y-73001238D01*
X168076619Y-73048857D01*
X168219476Y-73144095D01*
X168409952Y-73191714D01*
X168790904Y-73191714D01*
X168886142Y-73144095D01*
X168933761Y-73096476D01*
X168981380Y-73001238D01*
X168981380Y-72810761D01*
X168933761Y-72715523D01*
X168886142Y-72667904D01*
X168790904Y-72620285D01*
X168552809Y-72620285D01*
X168457571Y-72667904D01*
X168409952Y-72715523D01*
X168362333Y-72810761D01*
X168362333Y-73001238D01*
X168409952Y-73096476D01*
X168457571Y-73144095D01*
X168552809Y-73191714D01*
X141962142Y-109100857D02*
X142009761Y-109148476D01*
X142057380Y-109291333D01*
X142057380Y-109386571D01*
X142009761Y-109529428D01*
X141914523Y-109624666D01*
X141819285Y-109672285D01*
X141628809Y-109719904D01*
X141485952Y-109719904D01*
X141295476Y-109672285D01*
X141200238Y-109624666D01*
X141105000Y-109529428D01*
X141057380Y-109386571D01*
X141057380Y-109291333D01*
X141105000Y-109148476D01*
X141152619Y-109100857D01*
X141152619Y-108719904D02*
X141105000Y-108672285D01*
X141057380Y-108577047D01*
X141057380Y-108338952D01*
X141105000Y-108243714D01*
X141152619Y-108196095D01*
X141247857Y-108148476D01*
X141343095Y-108148476D01*
X141485952Y-108196095D01*
X142057380Y-108767523D01*
X142057380Y-108148476D01*
X141390714Y-107291333D02*
X142057380Y-107291333D01*
X141009761Y-107529428D02*
X141724047Y-107767523D01*
X141724047Y-107148476D01*
X162155142Y-99575857D02*
X162202761Y-99623476D01*
X162250380Y-99766333D01*
X162250380Y-99861571D01*
X162202761Y-100004428D01*
X162107523Y-100099666D01*
X162012285Y-100147285D01*
X161821809Y-100194904D01*
X161678952Y-100194904D01*
X161488476Y-100147285D01*
X161393238Y-100099666D01*
X161298000Y-100004428D01*
X161250380Y-99861571D01*
X161250380Y-99766333D01*
X161298000Y-99623476D01*
X161345619Y-99575857D01*
X162250380Y-98623476D02*
X162250380Y-99194904D01*
X162250380Y-98909190D02*
X161250380Y-98909190D01*
X161393238Y-99004428D01*
X161488476Y-99099666D01*
X161536095Y-99194904D01*
X161250380Y-98004428D02*
X161250380Y-97909190D01*
X161298000Y-97813952D01*
X161345619Y-97766333D01*
X161440857Y-97718714D01*
X161631333Y-97671095D01*
X161869428Y-97671095D01*
X162059904Y-97718714D01*
X162155142Y-97766333D01*
X162202761Y-97813952D01*
X162250380Y-97909190D01*
X162250380Y-98004428D01*
X162202761Y-98099666D01*
X162155142Y-98147285D01*
X162059904Y-98194904D01*
X161869428Y-98242523D01*
X161631333Y-98242523D01*
X161440857Y-98194904D01*
X161345619Y-98147285D01*
X161298000Y-98099666D01*
X161250380Y-98004428D01*
X135612142Y-106179857D02*
X135659761Y-106227476D01*
X135707380Y-106370333D01*
X135707380Y-106465571D01*
X135659761Y-106608428D01*
X135564523Y-106703666D01*
X135469285Y-106751285D01*
X135278809Y-106798904D01*
X135135952Y-106798904D01*
X134945476Y-106751285D01*
X134850238Y-106703666D01*
X134755000Y-106608428D01*
X134707380Y-106465571D01*
X134707380Y-106370333D01*
X134755000Y-106227476D01*
X134802619Y-106179857D01*
X135707380Y-105227476D02*
X135707380Y-105798904D01*
X135707380Y-105513190D02*
X134707380Y-105513190D01*
X134850238Y-105608428D01*
X134945476Y-105703666D01*
X134993095Y-105798904D01*
X135135952Y-104656047D02*
X135088333Y-104751285D01*
X135040714Y-104798904D01*
X134945476Y-104846523D01*
X134897857Y-104846523D01*
X134802619Y-104798904D01*
X134755000Y-104751285D01*
X134707380Y-104656047D01*
X134707380Y-104465571D01*
X134755000Y-104370333D01*
X134802619Y-104322714D01*
X134897857Y-104275095D01*
X134945476Y-104275095D01*
X135040714Y-104322714D01*
X135088333Y-104370333D01*
X135135952Y-104465571D01*
X135135952Y-104656047D01*
X135183571Y-104751285D01*
X135231190Y-104798904D01*
X135326428Y-104846523D01*
X135516904Y-104846523D01*
X135612142Y-104798904D01*
X135659761Y-104751285D01*
X135707380Y-104656047D01*
X135707380Y-104465571D01*
X135659761Y-104370333D01*
X135612142Y-104322714D01*
X135516904Y-104275095D01*
X135326428Y-104275095D01*
X135231190Y-104322714D01*
X135183571Y-104370333D01*
X135135952Y-104465571D01*
X127398095Y-80462380D02*
X127398095Y-81271904D01*
X127445714Y-81367142D01*
X127493333Y-81414761D01*
X127588571Y-81462380D01*
X127779047Y-81462380D01*
X127874285Y-81414761D01*
X127921904Y-81367142D01*
X127969523Y-81271904D01*
X127969523Y-80462380D01*
X128588571Y-80890952D02*
X128493333Y-80843333D01*
X128445714Y-80795714D01*
X128398095Y-80700476D01*
X128398095Y-80652857D01*
X128445714Y-80557619D01*
X128493333Y-80510000D01*
X128588571Y-80462380D01*
X128779047Y-80462380D01*
X128874285Y-80510000D01*
X128921904Y-80557619D01*
X128969523Y-80652857D01*
X128969523Y-80700476D01*
X128921904Y-80795714D01*
X128874285Y-80843333D01*
X128779047Y-80890952D01*
X128588571Y-80890952D01*
X128493333Y-80938571D01*
X128445714Y-80986190D01*
X128398095Y-81081428D01*
X128398095Y-81271904D01*
X128445714Y-81367142D01*
X128493333Y-81414761D01*
X128588571Y-81462380D01*
X128779047Y-81462380D01*
X128874285Y-81414761D01*
X128921904Y-81367142D01*
X128969523Y-81271904D01*
X128969523Y-81081428D01*
X128921904Y-80986190D01*
X128874285Y-80938571D01*
X128779047Y-80890952D01*
X152852380Y-69064095D02*
X151852380Y-69064095D01*
X151852380Y-68826000D01*
X151900000Y-68683142D01*
X151995238Y-68587904D01*
X152090476Y-68540285D01*
X152280952Y-68492666D01*
X152423809Y-68492666D01*
X152614285Y-68540285D01*
X152709523Y-68587904D01*
X152804761Y-68683142D01*
X152852380Y-68826000D01*
X152852380Y-69064095D01*
X151852380Y-67635523D02*
X151852380Y-67826000D01*
X151900000Y-67921238D01*
X151947619Y-67968857D01*
X152090476Y-68064095D01*
X152280952Y-68111714D01*
X152661904Y-68111714D01*
X152757142Y-68064095D01*
X152804761Y-68016476D01*
X152852380Y-67921238D01*
X152852380Y-67730761D01*
X152804761Y-67635523D01*
X152757142Y-67587904D01*
X152661904Y-67540285D01*
X152423809Y-67540285D01*
X152328571Y-67587904D01*
X152280952Y-67635523D01*
X152233333Y-67730761D01*
X152233333Y-67921238D01*
X152280952Y-68016476D01*
X152328571Y-68064095D01*
X152423809Y-68111714D01*
X148423333Y-74366380D02*
X148090000Y-73890190D01*
X147851904Y-74366380D02*
X147851904Y-73366380D01*
X148232857Y-73366380D01*
X148328095Y-73414000D01*
X148375714Y-73461619D01*
X148423333Y-73556857D01*
X148423333Y-73699714D01*
X148375714Y-73794952D01*
X148328095Y-73842571D01*
X148232857Y-73890190D01*
X147851904Y-73890190D01*
X149375714Y-74366380D02*
X148804285Y-74366380D01*
X149090000Y-74366380D02*
X149090000Y-73366380D01*
X148994761Y-73509238D01*
X148899523Y-73604476D01*
X148804285Y-73652095D01*
X144121142Y-76588857D02*
X144168761Y-76636476D01*
X144216380Y-76779333D01*
X144216380Y-76874571D01*
X144168761Y-77017428D01*
X144073523Y-77112666D01*
X143978285Y-77160285D01*
X143787809Y-77207904D01*
X143644952Y-77207904D01*
X143454476Y-77160285D01*
X143359238Y-77112666D01*
X143264000Y-77017428D01*
X143216380Y-76874571D01*
X143216380Y-76779333D01*
X143264000Y-76636476D01*
X143311619Y-76588857D01*
X143216380Y-76255523D02*
X143216380Y-75636476D01*
X143597333Y-75969809D01*
X143597333Y-75826952D01*
X143644952Y-75731714D01*
X143692571Y-75684095D01*
X143787809Y-75636476D01*
X144025904Y-75636476D01*
X144121142Y-75684095D01*
X144168761Y-75731714D01*
X144216380Y-75826952D01*
X144216380Y-76112666D01*
X144168761Y-76207904D01*
X144121142Y-76255523D01*
X143311619Y-75255523D02*
X143264000Y-75207904D01*
X143216380Y-75112666D01*
X143216380Y-74874571D01*
X143264000Y-74779333D01*
X143311619Y-74731714D01*
X143406857Y-74684095D01*
X143502095Y-74684095D01*
X143644952Y-74731714D01*
X144216380Y-75303142D01*
X144216380Y-74684095D01*
X147772380Y-69921285D02*
X146772380Y-69921285D01*
X146772380Y-69683190D01*
X146820000Y-69540333D01*
X146915238Y-69445095D01*
X147010476Y-69397476D01*
X147200952Y-69349857D01*
X147343809Y-69349857D01*
X147534285Y-69397476D01*
X147629523Y-69445095D01*
X147724761Y-69540333D01*
X147772380Y-69683190D01*
X147772380Y-69921285D01*
X147772380Y-68397476D02*
X147772380Y-68968904D01*
X147772380Y-68683190D02*
X146772380Y-68683190D01*
X146915238Y-68778428D01*
X147010476Y-68873666D01*
X147058095Y-68968904D01*
X147772380Y-67445095D02*
X147772380Y-68016523D01*
X147772380Y-67730809D02*
X146772380Y-67730809D01*
X146915238Y-67826047D01*
X147010476Y-67921285D01*
X147058095Y-68016523D01*
X108467142Y-100845857D02*
X108514761Y-100893476D01*
X108562380Y-101036333D01*
X108562380Y-101131571D01*
X108514761Y-101274428D01*
X108419523Y-101369666D01*
X108324285Y-101417285D01*
X108133809Y-101464904D01*
X107990952Y-101464904D01*
X107800476Y-101417285D01*
X107705238Y-101369666D01*
X107610000Y-101274428D01*
X107562380Y-101131571D01*
X107562380Y-101036333D01*
X107610000Y-100893476D01*
X107657619Y-100845857D01*
X108562380Y-99893476D02*
X108562380Y-100464904D01*
X108562380Y-100179190D02*
X107562380Y-100179190D01*
X107705238Y-100274428D01*
X107800476Y-100369666D01*
X107848095Y-100464904D01*
X107562380Y-98988714D02*
X107562380Y-99464904D01*
X108038571Y-99512523D01*
X107990952Y-99464904D01*
X107943333Y-99369666D01*
X107943333Y-99131571D01*
X107990952Y-99036333D01*
X108038571Y-98988714D01*
X108133809Y-98941095D01*
X108371904Y-98941095D01*
X108467142Y-98988714D01*
X108514761Y-99036333D01*
X108562380Y-99131571D01*
X108562380Y-99369666D01*
X108514761Y-99464904D01*
X108467142Y-99512523D01*
X158091142Y-88939666D02*
X158138761Y-88987285D01*
X158186380Y-89130142D01*
X158186380Y-89225380D01*
X158138761Y-89368238D01*
X158043523Y-89463476D01*
X157948285Y-89511095D01*
X157757809Y-89558714D01*
X157614952Y-89558714D01*
X157424476Y-89511095D01*
X157329238Y-89463476D01*
X157234000Y-89368238D01*
X157186380Y-89225380D01*
X157186380Y-89130142D01*
X157234000Y-88987285D01*
X157281619Y-88939666D01*
X157186380Y-88606333D02*
X157186380Y-87939666D01*
X158186380Y-88368238D01*
X175133095Y-91273380D02*
X175133095Y-92082904D01*
X175180714Y-92178142D01*
X175228333Y-92225761D01*
X175323571Y-92273380D01*
X175514047Y-92273380D01*
X175609285Y-92225761D01*
X175656904Y-92178142D01*
X175704523Y-92082904D01*
X175704523Y-91273380D01*
X176133095Y-91368619D02*
X176180714Y-91321000D01*
X176275952Y-91273380D01*
X176514047Y-91273380D01*
X176609285Y-91321000D01*
X176656904Y-91368619D01*
X176704523Y-91463857D01*
X176704523Y-91559095D01*
X176656904Y-91701952D01*
X176085476Y-92273380D01*
X176704523Y-92273380D01*
X120372142Y-77604857D02*
X120419761Y-77652476D01*
X120467380Y-77795333D01*
X120467380Y-77890571D01*
X120419761Y-78033428D01*
X120324523Y-78128666D01*
X120229285Y-78176285D01*
X120038809Y-78223904D01*
X119895952Y-78223904D01*
X119705476Y-78176285D01*
X119610238Y-78128666D01*
X119515000Y-78033428D01*
X119467380Y-77890571D01*
X119467380Y-77795333D01*
X119515000Y-77652476D01*
X119562619Y-77604857D01*
X119467380Y-77271523D02*
X119467380Y-76652476D01*
X119848333Y-76985809D01*
X119848333Y-76842952D01*
X119895952Y-76747714D01*
X119943571Y-76700095D01*
X120038809Y-76652476D01*
X120276904Y-76652476D01*
X120372142Y-76700095D01*
X120419761Y-76747714D01*
X120467380Y-76842952D01*
X120467380Y-77128666D01*
X120419761Y-77223904D01*
X120372142Y-77271523D01*
X120467380Y-76176285D02*
X120467380Y-75985809D01*
X120419761Y-75890571D01*
X120372142Y-75842952D01*
X120229285Y-75747714D01*
X120038809Y-75700095D01*
X119657857Y-75700095D01*
X119562619Y-75747714D01*
X119515000Y-75795333D01*
X119467380Y-75890571D01*
X119467380Y-76081047D01*
X119515000Y-76176285D01*
X119562619Y-76223904D01*
X119657857Y-76271523D01*
X119895952Y-76271523D01*
X119991190Y-76223904D01*
X120038809Y-76176285D01*
X120086428Y-76081047D01*
X120086428Y-75890571D01*
X120038809Y-75795333D01*
X119991190Y-75747714D01*
X119895952Y-75700095D01*
X136374142Y-65158857D02*
X136421761Y-65206476D01*
X136469380Y-65349333D01*
X136469380Y-65444571D01*
X136421761Y-65587428D01*
X136326523Y-65682666D01*
X136231285Y-65730285D01*
X136040809Y-65777904D01*
X135897952Y-65777904D01*
X135707476Y-65730285D01*
X135612238Y-65682666D01*
X135517000Y-65587428D01*
X135469380Y-65444571D01*
X135469380Y-65349333D01*
X135517000Y-65206476D01*
X135564619Y-65158857D01*
X135469380Y-64825523D02*
X135469380Y-64206476D01*
X135850333Y-64539809D01*
X135850333Y-64396952D01*
X135897952Y-64301714D01*
X135945571Y-64254095D01*
X136040809Y-64206476D01*
X136278904Y-64206476D01*
X136374142Y-64254095D01*
X136421761Y-64301714D01*
X136469380Y-64396952D01*
X136469380Y-64682666D01*
X136421761Y-64777904D01*
X136374142Y-64825523D01*
X135469380Y-63873142D02*
X135469380Y-63206476D01*
X136469380Y-63635047D01*
X152757142Y-98940857D02*
X152804761Y-98988476D01*
X152852380Y-99131333D01*
X152852380Y-99226571D01*
X152804761Y-99369428D01*
X152709523Y-99464666D01*
X152614285Y-99512285D01*
X152423809Y-99559904D01*
X152280952Y-99559904D01*
X152090476Y-99512285D01*
X151995238Y-99464666D01*
X151900000Y-99369428D01*
X151852380Y-99226571D01*
X151852380Y-99131333D01*
X151900000Y-98988476D01*
X151947619Y-98940857D01*
X151947619Y-98559904D02*
X151900000Y-98512285D01*
X151852380Y-98417047D01*
X151852380Y-98178952D01*
X151900000Y-98083714D01*
X151947619Y-98036095D01*
X152042857Y-97988476D01*
X152138095Y-97988476D01*
X152280952Y-98036095D01*
X152852380Y-98607523D01*
X152852380Y-97988476D01*
X152280952Y-97417047D02*
X152233333Y-97512285D01*
X152185714Y-97559904D01*
X152090476Y-97607523D01*
X152042857Y-97607523D01*
X151947619Y-97559904D01*
X151900000Y-97512285D01*
X151852380Y-97417047D01*
X151852380Y-97226571D01*
X151900000Y-97131333D01*
X151947619Y-97083714D01*
X152042857Y-97036095D01*
X152090476Y-97036095D01*
X152185714Y-97083714D01*
X152233333Y-97131333D01*
X152280952Y-97226571D01*
X152280952Y-97417047D01*
X152328571Y-97512285D01*
X152376190Y-97559904D01*
X152471428Y-97607523D01*
X152661904Y-97607523D01*
X152757142Y-97559904D01*
X152804761Y-97512285D01*
X152852380Y-97417047D01*
X152852380Y-97226571D01*
X152804761Y-97131333D01*
X152757142Y-97083714D01*
X152661904Y-97036095D01*
X152471428Y-97036095D01*
X152376190Y-97083714D01*
X152328571Y-97131333D01*
X152280952Y-97226571D01*
X157583142Y-97924857D02*
X157630761Y-97972476D01*
X157678380Y-98115333D01*
X157678380Y-98210571D01*
X157630761Y-98353428D01*
X157535523Y-98448666D01*
X157440285Y-98496285D01*
X157249809Y-98543904D01*
X157106952Y-98543904D01*
X156916476Y-98496285D01*
X156821238Y-98448666D01*
X156726000Y-98353428D01*
X156678380Y-98210571D01*
X156678380Y-98115333D01*
X156726000Y-97972476D01*
X156773619Y-97924857D01*
X156773619Y-97543904D02*
X156726000Y-97496285D01*
X156678380Y-97401047D01*
X156678380Y-97162952D01*
X156726000Y-97067714D01*
X156773619Y-97020095D01*
X156868857Y-96972476D01*
X156964095Y-96972476D01*
X157106952Y-97020095D01*
X157678380Y-97591523D01*
X157678380Y-96972476D01*
X157678380Y-96496285D02*
X157678380Y-96305809D01*
X157630761Y-96210571D01*
X157583142Y-96162952D01*
X157440285Y-96067714D01*
X157249809Y-96020095D01*
X156868857Y-96020095D01*
X156773619Y-96067714D01*
X156726000Y-96115333D01*
X156678380Y-96210571D01*
X156678380Y-96401047D01*
X156726000Y-96496285D01*
X156773619Y-96543904D01*
X156868857Y-96591523D01*
X157106952Y-96591523D01*
X157202190Y-96543904D01*
X157249809Y-96496285D01*
X157297428Y-96401047D01*
X157297428Y-96210571D01*
X157249809Y-96115333D01*
X157202190Y-96067714D01*
X157106952Y-96020095D01*
X160377142Y-98051857D02*
X160424761Y-98099476D01*
X160472380Y-98242333D01*
X160472380Y-98337571D01*
X160424761Y-98480428D01*
X160329523Y-98575666D01*
X160234285Y-98623285D01*
X160043809Y-98670904D01*
X159900952Y-98670904D01*
X159710476Y-98623285D01*
X159615238Y-98575666D01*
X159520000Y-98480428D01*
X159472380Y-98337571D01*
X159472380Y-98242333D01*
X159520000Y-98099476D01*
X159567619Y-98051857D01*
X159472380Y-97718523D02*
X159472380Y-97099476D01*
X159853333Y-97432809D01*
X159853333Y-97289952D01*
X159900952Y-97194714D01*
X159948571Y-97147095D01*
X160043809Y-97099476D01*
X160281904Y-97099476D01*
X160377142Y-97147095D01*
X160424761Y-97194714D01*
X160472380Y-97289952D01*
X160472380Y-97575666D01*
X160424761Y-97670904D01*
X160377142Y-97718523D01*
X159472380Y-96480428D02*
X159472380Y-96385190D01*
X159520000Y-96289952D01*
X159567619Y-96242333D01*
X159662857Y-96194714D01*
X159853333Y-96147095D01*
X160091428Y-96147095D01*
X160281904Y-96194714D01*
X160377142Y-96242333D01*
X160424761Y-96289952D01*
X160472380Y-96385190D01*
X160472380Y-96480428D01*
X160424761Y-96575666D01*
X160377142Y-96623285D01*
X160281904Y-96670904D01*
X160091428Y-96718523D01*
X159853333Y-96718523D01*
X159662857Y-96670904D01*
X159567619Y-96623285D01*
X159520000Y-96575666D01*
X159472380Y-96480428D01*
X115292142Y-66047857D02*
X115339761Y-66095476D01*
X115387380Y-66238333D01*
X115387380Y-66333571D01*
X115339761Y-66476428D01*
X115244523Y-66571666D01*
X115149285Y-66619285D01*
X114958809Y-66666904D01*
X114815952Y-66666904D01*
X114625476Y-66619285D01*
X114530238Y-66571666D01*
X114435000Y-66476428D01*
X114387380Y-66333571D01*
X114387380Y-66238333D01*
X114435000Y-66095476D01*
X114482619Y-66047857D01*
X114720714Y-65190714D02*
X115387380Y-65190714D01*
X114339761Y-65428809D02*
X115054047Y-65666904D01*
X115054047Y-65047857D01*
X114720714Y-64238333D02*
X115387380Y-64238333D01*
X114339761Y-64476428D02*
X115054047Y-64714523D01*
X115054047Y-64095476D01*
X151288809Y-86463190D02*
X151288809Y-86939380D01*
X150955476Y-85939380D02*
X151288809Y-86463190D01*
X151622142Y-85939380D01*
X152479285Y-86939380D02*
X151907857Y-86939380D01*
X152193571Y-86939380D02*
X152193571Y-85939380D01*
X152098333Y-86082238D01*
X152003095Y-86177476D01*
X151907857Y-86225095D01*
X126285666Y-101150571D02*
X125952333Y-101150571D01*
X125952333Y-101674380D02*
X125952333Y-100674380D01*
X126428523Y-100674380D01*
X127333285Y-101674380D02*
X126761857Y-101674380D01*
X127047571Y-101674380D02*
X127047571Y-100674380D01*
X126952333Y-100817238D01*
X126857095Y-100912476D01*
X126761857Y-100960095D01*
X166878095Y-96112380D02*
X166878095Y-96921904D01*
X166925714Y-97017142D01*
X166973333Y-97064761D01*
X167068571Y-97112380D01*
X167259047Y-97112380D01*
X167354285Y-97064761D01*
X167401904Y-97017142D01*
X167449523Y-96921904D01*
X167449523Y-96112380D01*
X168354285Y-96445714D02*
X168354285Y-97112380D01*
X168116190Y-96064761D02*
X167878095Y-96779047D01*
X168497142Y-96779047D01*
X169846666Y-61682380D02*
X169846666Y-62396666D01*
X169799047Y-62539523D01*
X169703809Y-62634761D01*
X169560952Y-62682380D01*
X169465714Y-62682380D01*
X170227619Y-61682380D02*
X170846666Y-61682380D01*
X170513333Y-62063333D01*
X170656190Y-62063333D01*
X170751428Y-62110952D01*
X170799047Y-62158571D01*
X170846666Y-62253809D01*
X170846666Y-62491904D01*
X170799047Y-62587142D01*
X170751428Y-62634761D01*
X170656190Y-62682380D01*
X170370476Y-62682380D01*
X170275238Y-62634761D01*
X170227619Y-62587142D01*
X103552666Y-63587380D02*
X103552666Y-64301666D01*
X103505047Y-64444523D01*
X103409809Y-64539761D01*
X103266952Y-64587380D01*
X103171714Y-64587380D01*
X104552666Y-64587380D02*
X103981238Y-64587380D01*
X104266952Y-64587380D02*
X104266952Y-63587380D01*
X104171714Y-63730238D01*
X104076476Y-63825476D01*
X103981238Y-63873095D01*
X136501142Y-77477857D02*
X136548761Y-77525476D01*
X136596380Y-77668333D01*
X136596380Y-77763571D01*
X136548761Y-77906428D01*
X136453523Y-78001666D01*
X136358285Y-78049285D01*
X136167809Y-78096904D01*
X136024952Y-78096904D01*
X135834476Y-78049285D01*
X135739238Y-78001666D01*
X135644000Y-77906428D01*
X135596380Y-77763571D01*
X135596380Y-77668333D01*
X135644000Y-77525476D01*
X135691619Y-77477857D01*
X135596380Y-77144523D02*
X135596380Y-76525476D01*
X135977333Y-76858809D01*
X135977333Y-76715952D01*
X136024952Y-76620714D01*
X136072571Y-76573095D01*
X136167809Y-76525476D01*
X136405904Y-76525476D01*
X136501142Y-76573095D01*
X136548761Y-76620714D01*
X136596380Y-76715952D01*
X136596380Y-77001666D01*
X136548761Y-77096904D01*
X136501142Y-77144523D01*
X136024952Y-75954047D02*
X135977333Y-76049285D01*
X135929714Y-76096904D01*
X135834476Y-76144523D01*
X135786857Y-76144523D01*
X135691619Y-76096904D01*
X135644000Y-76049285D01*
X135596380Y-75954047D01*
X135596380Y-75763571D01*
X135644000Y-75668333D01*
X135691619Y-75620714D01*
X135786857Y-75573095D01*
X135834476Y-75573095D01*
X135929714Y-75620714D01*
X135977333Y-75668333D01*
X136024952Y-75763571D01*
X136024952Y-75954047D01*
X136072571Y-76049285D01*
X136120190Y-76096904D01*
X136215428Y-76144523D01*
X136405904Y-76144523D01*
X136501142Y-76096904D01*
X136548761Y-76049285D01*
X136596380Y-75954047D01*
X136596380Y-75763571D01*
X136548761Y-75668333D01*
X136501142Y-75620714D01*
X136405904Y-75573095D01*
X136215428Y-75573095D01*
X136120190Y-75620714D01*
X136072571Y-75668333D01*
X136024952Y-75763571D01*
X149606095Y-99655380D02*
X149606095Y-100464904D01*
X149653714Y-100560142D01*
X149701333Y-100607761D01*
X149796571Y-100655380D01*
X149987047Y-100655380D01*
X150082285Y-100607761D01*
X150129904Y-100560142D01*
X150177523Y-100464904D01*
X150177523Y-99655380D01*
X150558476Y-99655380D02*
X151225142Y-99655380D01*
X150796571Y-100655380D01*
D14*
X102551484Y-103584742D02*
X102551484Y-104059258D01*
X103596484Y-103584742D02*
X103596484Y-104059258D01*
X159790000Y-67890000D02*
X162340000Y-67890000D01*
X159790000Y-67890000D02*
X159790000Y-69590000D01*
X159790000Y-69590000D02*
X162340000Y-69590000D01*
X150735420Y-109476000D02*
X151016580Y-109476000D01*
X150735420Y-108456000D02*
X151016580Y-108456000D01*
X156160000Y-72810000D02*
X156160000Y-72360000D01*
X156160000Y-79580000D02*
X156610000Y-79580000D01*
X156160000Y-72360000D02*
X156610000Y-72360000D01*
X163380000Y-79580000D02*
X162930000Y-79580000D01*
X156160000Y-79130000D02*
X156160000Y-79580000D01*
X163380000Y-79130000D02*
X163380000Y-79580000D01*
X163380000Y-72360000D02*
X162930000Y-72360000D01*
X156610000Y-79580000D02*
X156610000Y-80870000D01*
X163380000Y-72810000D02*
X163380000Y-72360000D01*
X146824516Y-87860000D02*
X148524516Y-87860000D01*
X148524516Y-87860000D02*
X148524516Y-85310000D01*
X146824516Y-87860000D02*
X146824516Y-85310000D01*
X154445580Y-82425000D02*
X154164420Y-82425000D01*
X154445580Y-81405000D02*
X154164420Y-81405000D01*
X152910000Y-101205420D02*
X152910000Y-101486580D01*
X151890000Y-101205420D02*
X151890000Y-101486580D01*
X153037000Y-79140580D02*
X153037000Y-78859420D01*
X152017000Y-79140580D02*
X152017000Y-78859420D01*
X156716000Y-104607840D02*
X156716000Y-104889000D01*
X157736000Y-104607840D02*
X157736000Y-104889000D01*
X138170000Y-79728840D02*
X138170000Y-80010000D01*
X139190000Y-79728840D02*
X139190000Y-80010000D01*
X155196000Y-104607840D02*
X155196000Y-104889000D01*
X154176000Y-104607840D02*
X154176000Y-104889000D01*
X113075580Y-73687900D02*
X112794420Y-73687900D01*
X113075580Y-74707900D02*
X112794420Y-74707900D01*
X171215000Y-69600000D02*
X171215000Y-67900000D01*
X171215000Y-69600000D02*
X168665000Y-69600000D01*
X171215000Y-67900000D02*
X168665000Y-67900000D01*
X153730000Y-59690000D02*
X153730000Y-62350000D01*
X143510000Y-59690000D02*
X143510000Y-62350000D01*
X155000000Y-59690000D02*
X156330000Y-59690000D01*
X153730000Y-59690000D02*
X143510000Y-59690000D01*
X153730000Y-62350000D02*
X143510000Y-62350000D01*
X156330000Y-59690000D02*
X156330000Y-61020000D01*
X141730000Y-79728840D02*
X141730000Y-80010000D01*
X140710000Y-79728840D02*
X140710000Y-80010000D01*
X151890000Y-104646920D02*
X151890000Y-104928080D01*
X152910000Y-104646920D02*
X152910000Y-104928080D01*
X102551484Y-100028742D02*
X102551484Y-100503258D01*
X103596484Y-100028742D02*
X103596484Y-100503258D01*
X172087000Y-98792420D02*
X172087000Y-99073580D01*
X171067000Y-98792420D02*
X171067000Y-99073580D01*
X139956000Y-102348420D02*
X139956000Y-102629580D01*
X138936000Y-102348420D02*
X138936000Y-102629580D01*
X116980000Y-68720580D02*
X116980000Y-68439420D01*
X118000000Y-68720580D02*
X118000000Y-68439420D01*
X112835000Y-76177900D02*
X111135000Y-76177900D01*
X111135000Y-76177900D02*
X111135000Y-78727900D01*
X112835000Y-76177900D02*
X112835000Y-78727900D01*
X114742984Y-95012742D02*
X114742984Y-95487258D01*
X115787984Y-95012742D02*
X115787984Y-95487258D01*
X123653484Y-91825710D02*
X123653484Y-91725710D01*
X121253484Y-88625710D02*
X120453484Y-88625710D01*
X122853484Y-91825710D02*
X123653484Y-91825710D01*
X120453484Y-88725710D02*
X120053484Y-88725710D01*
X123653484Y-88625710D02*
X123653484Y-88725710D01*
X120453484Y-91825710D02*
X121253484Y-91825710D01*
X122853484Y-88625710D02*
X123653484Y-88625710D01*
X120453484Y-91725710D02*
X120453484Y-91825710D01*
X120453484Y-88625710D02*
X120453484Y-88725710D01*
X137924000Y-102629580D02*
X137924000Y-102348420D01*
X136904000Y-102629580D02*
X136904000Y-102348420D01*
X117650984Y-88395130D02*
X117650984Y-88676290D01*
X118670984Y-88395130D02*
X118670984Y-88676290D01*
X116317500Y-72627258D02*
X116317500Y-72152742D01*
X115272500Y-72627258D02*
X115272500Y-72152742D01*
X144670000Y-69150672D02*
X144670000Y-67728168D01*
X142850000Y-69150672D02*
X142850000Y-67728168D01*
X141095000Y-101613580D02*
X141095000Y-101332420D01*
X142115000Y-101613580D02*
X142115000Y-101332420D01*
X149010000Y-66270000D02*
X149010000Y-63720000D01*
X150710000Y-66270000D02*
X150710000Y-63720000D01*
X149010000Y-66270000D02*
X150710000Y-66270000D01*
X111135000Y-72827900D02*
X111135000Y-70277900D01*
X112835000Y-72827900D02*
X112835000Y-70277900D01*
X111135000Y-72827900D02*
X112835000Y-72827900D01*
X142930000Y-88930000D02*
X142930000Y-86330000D01*
X142930000Y-84400000D02*
X142930000Y-84430000D01*
X136470000Y-90860000D02*
X136470000Y-90830000D01*
X136470000Y-88930000D02*
X136470000Y-86330000D01*
X142930000Y-90830000D02*
X142930000Y-90860000D01*
X142930000Y-90860000D02*
X136470000Y-90860000D01*
X136470000Y-84400000D02*
X136470000Y-84430000D01*
X142930000Y-84400000D02*
X136470000Y-84400000D01*
X126253484Y-89875130D02*
X126253484Y-90156290D01*
X125233484Y-89875130D02*
X125233484Y-90156290D01*
X139190000Y-68580000D02*
X139190000Y-68298840D01*
X138170000Y-68580000D02*
X138170000Y-68298840D01*
X146677748Y-97696000D02*
X147200252Y-97696000D01*
X146677748Y-99916000D02*
X147200252Y-99916000D01*
X163832000Y-105396420D02*
X163832000Y-105677580D01*
X162812000Y-105396420D02*
X162812000Y-105677580D01*
X122061500Y-94725258D02*
X122061500Y-94250742D01*
X121016500Y-94725258D02*
X121016500Y-94250742D01*
X141730000Y-68580000D02*
X141730000Y-68298840D01*
X140710000Y-68580000D02*
X140710000Y-68298840D01*
X102551484Y-107092242D02*
X102551484Y-107566758D01*
X103596484Y-107092242D02*
X103596484Y-107566758D01*
X161430580Y-83187000D02*
X161149420Y-83187000D01*
X161430580Y-82167000D02*
X161149420Y-82167000D01*
X155790000Y-66270000D02*
X155790000Y-63720000D01*
X154090000Y-66270000D02*
X154090000Y-63720000D01*
X154090000Y-66270000D02*
X155790000Y-66270000D01*
X115986484Y-101333920D02*
X115986484Y-101615080D01*
X114966484Y-101333920D02*
X114966484Y-101615080D01*
X125205258Y-94248500D02*
X124730742Y-94248500D01*
X125205258Y-93203500D02*
X124730742Y-93203500D01*
X167640000Y-107260000D02*
X168440000Y-107260000D01*
X167640000Y-107260000D02*
X166840000Y-107260000D01*
X167640000Y-104140000D02*
X168440000Y-104140000D01*
X167640000Y-104140000D02*
X165840000Y-104140000D01*
X154732258Y-106919500D02*
X154257742Y-106919500D01*
X154732258Y-107964500D02*
X154257742Y-107964500D01*
X115787984Y-88298452D02*
X115787984Y-88772968D01*
X114742984Y-88298452D02*
X114742984Y-88772968D01*
X113196484Y-103364500D02*
X113196484Y-103264500D01*
X109996484Y-103364500D02*
X110796484Y-103364500D01*
X112396484Y-103364500D02*
X113196484Y-103364500D01*
X110796484Y-100164500D02*
X109996484Y-100164500D01*
X113196484Y-100164500D02*
X113196484Y-100264500D01*
X109996484Y-100164500D02*
X109996484Y-100264500D01*
X109996484Y-100264500D02*
X109596484Y-100264500D01*
X112396484Y-100164500D02*
X113196484Y-100164500D01*
X109996484Y-103264500D02*
X109996484Y-103364500D01*
X106696742Y-109549500D02*
X107171258Y-109549500D01*
X106696742Y-108504500D02*
X107171258Y-108504500D01*
X154257742Y-109996500D02*
X154732258Y-109996500D01*
X154257742Y-108951500D02*
X154732258Y-108951500D01*
X115272500Y-75992258D02*
X115272500Y-75517742D01*
X116317500Y-75992258D02*
X116317500Y-75517742D01*
X166950000Y-69590000D02*
X164400000Y-69590000D01*
X166950000Y-69590000D02*
X166950000Y-67890000D01*
X166950000Y-67890000D02*
X164400000Y-67890000D01*
X119035016Y-94250742D02*
X119035016Y-94725258D01*
X120080016Y-94250742D02*
X120080016Y-94725258D01*
X150370000Y-79134580D02*
X150370000Y-78853420D01*
X149350000Y-79134580D02*
X149350000Y-78853420D01*
X114742984Y-91710742D02*
X114742984Y-92185258D01*
X115787984Y-91710742D02*
X115787984Y-92185258D01*
X171067000Y-105396420D02*
X171067000Y-105677580D01*
X172087000Y-105396420D02*
X172087000Y-105677580D01*
X120540000Y-68720580D02*
X120540000Y-68439420D01*
X119520000Y-68720580D02*
X119520000Y-68439420D01*
X118000000Y-79991520D02*
X118000000Y-80272680D01*
X116980000Y-79991520D02*
X116980000Y-80272680D01*
X108591484Y-105791000D02*
X108591484Y-106591000D01*
X108591484Y-105791000D02*
X108591484Y-104991000D01*
X105471484Y-105791000D02*
X105471484Y-104991000D01*
X105471484Y-105791000D02*
X105471484Y-107591000D01*
X111164000Y-90146000D02*
X112864000Y-90146000D01*
X112864000Y-90146000D02*
X112864000Y-87596000D01*
X111164000Y-90146000D02*
X111164000Y-87596000D01*
X174384580Y-75655000D02*
X174103420Y-75655000D01*
X174384580Y-76675000D02*
X174103420Y-76675000D01*
X137143258Y-70851500D02*
X136668742Y-70851500D01*
X137143258Y-71896500D02*
X136668742Y-71896500D01*
X156958420Y-68578000D02*
X157239580Y-68578000D01*
X156958420Y-69598000D02*
X157239580Y-69598000D01*
X161149420Y-86362000D02*
X161430580Y-86362000D01*
X161149420Y-85342000D02*
X161430580Y-85342000D01*
X114918258Y-106059500D02*
X114443742Y-106059500D01*
X114918258Y-105014500D02*
X114443742Y-105014500D01*
X166753000Y-73265420D02*
X166753000Y-73546580D01*
X165733000Y-73265420D02*
X165733000Y-73546580D01*
X142115000Y-105269420D02*
X142115000Y-105550580D01*
X141095000Y-105269420D02*
X141095000Y-105550580D01*
X163832000Y-98778840D02*
X163832000Y-99060000D01*
X162812000Y-98778840D02*
X162812000Y-99060000D01*
X135765000Y-102629580D02*
X135765000Y-102348420D01*
X134745000Y-102629580D02*
X134745000Y-102348420D01*
X128160000Y-67150000D02*
X124300000Y-67150000D01*
X128160000Y-80170000D02*
X132020000Y-80170000D01*
X124300000Y-80170000D02*
X124300000Y-79935000D01*
X132020000Y-79935000D02*
X133835000Y-79935000D01*
X124300000Y-67150000D02*
X124300000Y-67385000D01*
X132020000Y-67150000D02*
X132020000Y-67385000D01*
X128160000Y-80170000D02*
X124300000Y-80170000D01*
X132020000Y-80170000D02*
X132020000Y-79935000D01*
X128160000Y-67150000D02*
X132020000Y-67150000D01*
X151550000Y-66270000D02*
X151550000Y-63720000D01*
X153250000Y-66270000D02*
X153250000Y-63720000D01*
X151550000Y-66270000D02*
X153250000Y-66270000D01*
X152002258Y-73391500D02*
X151527742Y-73391500D01*
X152002258Y-74436500D02*
X151527742Y-74436500D01*
X142850000Y-79158168D02*
X142850000Y-80580672D01*
X144670000Y-79158168D02*
X144670000Y-80580672D01*
X146470000Y-66270000D02*
X146470000Y-63720000D01*
X146470000Y-66270000D02*
X148170000Y-66270000D01*
X148170000Y-66270000D02*
X148170000Y-63720000D01*
X107190000Y-100062420D02*
X107190000Y-100343580D01*
X106170000Y-100062420D02*
X106170000Y-100343580D01*
X158244000Y-85203420D02*
X158244000Y-85484580D01*
X157224000Y-85203420D02*
X157224000Y-85484580D01*
X166504516Y-83785000D02*
X166504516Y-79925000D01*
X177024516Y-79925000D02*
X176769516Y-79925000D01*
X177024516Y-83785000D02*
X177024516Y-79925000D01*
X166504516Y-83785000D02*
X166504516Y-87645000D01*
X166504516Y-87645000D02*
X166759516Y-87645000D01*
X177024516Y-87645000D02*
X176769516Y-87645000D01*
X176769516Y-79925000D02*
X176769516Y-78110000D01*
X177024516Y-83785000D02*
X177024516Y-87645000D01*
X166504516Y-79925000D02*
X166759516Y-79925000D01*
X120540000Y-79991520D02*
X120540000Y-80272680D01*
X119520000Y-79991520D02*
X119520000Y-80272680D01*
X136650000Y-68580000D02*
X136650000Y-68298840D01*
X135630000Y-68580000D02*
X135630000Y-68298840D01*
X154176000Y-101486580D02*
X154176000Y-101205420D01*
X155196000Y-101486580D02*
X155196000Y-101205420D01*
X157736000Y-101416000D02*
X157736000Y-101134840D01*
X156716000Y-101416000D02*
X156716000Y-101134840D01*
X160276000Y-101416580D02*
X160276000Y-101135420D01*
X159256000Y-101416580D02*
X159256000Y-101135420D01*
X114440000Y-68720580D02*
X114440000Y-68439420D01*
X115460000Y-68720580D02*
X115460000Y-68439420D01*
X152905000Y-83948000D02*
X152905000Y-87248000D01*
X155705000Y-83948000D02*
X152905000Y-83948000D01*
X124415248Y-107572000D02*
X128822752Y-107572000D01*
X124415248Y-102232000D02*
X128822752Y-102232000D01*
X167640000Y-100620000D02*
X168440000Y-100620000D01*
X167640000Y-97500000D02*
X165840000Y-97500000D01*
X167640000Y-97500000D02*
X168440000Y-97500000D01*
X167640000Y-100620000D02*
X166840000Y-100620000D01*
D13*
X164905000Y-64795000D02*
X165630000Y-64795000D01*
X167680000Y-58670000D02*
X167680000Y-58220000D01*
X167980000Y-58820000D02*
X167980000Y-58670000D01*
X167980000Y-62620000D02*
X167980000Y-61220000D01*
X159680000Y-61220000D02*
X159680000Y-62620000D01*
X167980000Y-58670000D02*
X167680000Y-58670000D01*
X162030000Y-64370000D02*
X161305000Y-64370000D01*
X165630000Y-64370000D02*
X166355000Y-64370000D01*
X159980000Y-58670000D02*
X159680000Y-58670000D01*
X159680000Y-58670000D02*
X159680000Y-58820000D01*
X165630000Y-64795000D02*
X165630000Y-64370000D01*
X159980000Y-58220000D02*
X159980000Y-58670000D01*
D14*
X100342441Y-73388530D02*
X105442441Y-74287798D01*
X97354185Y-65770000D02*
X107854185Y-65770000D01*
X96294185Y-95680000D02*
X96294185Y-66830000D01*
X95399847Y-87045000D02*
X95399847Y-86545000D01*
X100342441Y-89121470D02*
X105442441Y-88222202D01*
X95832860Y-86795000D02*
X95399847Y-87045000D01*
X108914185Y-66830000D02*
X108914185Y-95680000D01*
X98394185Y-87486689D02*
X98394185Y-75023311D01*
X106814185Y-86587421D02*
X106814185Y-75922579D01*
X95399847Y-86545000D02*
X95832860Y-86795000D01*
X107854185Y-96740000D02*
X97354185Y-96740000D01*
X97354185Y-65770000D02*
G75*
G03*
X96294185Y-66830000I0J-1060000D01*
G01*
X98394185Y-87486689D02*
G75*
G03*
X100342441Y-89121470I1659999J-1D01*
G01*
X107854185Y-96740000D02*
G75*
G03*
X108914185Y-95680000I-1J1060001D01*
G01*
X96294185Y-95680000D02*
G75*
G03*
X97354185Y-96740000I1060001J1D01*
G01*
X105442441Y-88222202D02*
G75*
G03*
X106814185Y-86587421I-288259J1634783D01*
G01*
X108914185Y-66830000D02*
G75*
G03*
X107854185Y-65770000I-1060000J0D01*
G01*
X106814186Y-75922579D02*
G75*
G03*
X105442441Y-74287798I-1660001J-1D01*
G01*
X100342443Y-73388519D02*
G75*
G03*
X98394185Y-75023311I-288258J-1634781D01*
G01*
X136620000Y-79728840D02*
X136620000Y-80010000D01*
X135600000Y-79728840D02*
X135600000Y-80010000D01*
X149410000Y-101094420D02*
X143240000Y-101094420D01*
X149410000Y-107894420D02*
X144790000Y-107894420D01*
%LPC*%
D15*
X103073984Y-102997000D03*
X103073984Y-104647000D03*
D16*
X160240000Y-68740000D03*
X162340000Y-68740000D03*
D17*
X150101000Y-108966000D03*
X151651000Y-108966000D03*
D18*
X157020000Y-80132500D03*
X157520000Y-80132500D03*
X158020000Y-80132500D03*
X158520000Y-80132500D03*
X159020000Y-80132500D03*
X159520000Y-80132500D03*
X160020000Y-80132500D03*
X160520000Y-80132500D03*
X161020000Y-80132500D03*
X161520000Y-80132500D03*
X162020000Y-80132500D03*
X162520000Y-80132500D03*
D19*
X163932500Y-78720000D03*
X163932500Y-78220000D03*
X163932500Y-77720000D03*
X163932500Y-77220000D03*
X163932500Y-76720000D03*
X163932500Y-76220000D03*
X163932500Y-75720000D03*
X163932500Y-75220000D03*
X163932500Y-74720000D03*
X163932500Y-74220000D03*
X163932500Y-73720000D03*
X163932500Y-73220000D03*
D18*
X162520000Y-71807500D03*
X162020000Y-71807500D03*
X161520000Y-71807500D03*
X161020000Y-71807500D03*
X160520000Y-71807500D03*
X160020000Y-71807500D03*
X159520000Y-71807500D03*
X159020000Y-71807500D03*
X158520000Y-71807500D03*
X158020000Y-71807500D03*
X157520000Y-71807500D03*
X157020000Y-71807500D03*
D19*
X155607500Y-73220000D03*
X155607500Y-73720000D03*
X155607500Y-74220000D03*
X155607500Y-74720000D03*
X155607500Y-75220000D03*
X155607500Y-75720000D03*
X155607500Y-76220000D03*
X155607500Y-76720000D03*
X155607500Y-77220000D03*
X155607500Y-77720000D03*
X155607500Y-78220000D03*
X155607500Y-78720000D03*
D20*
X147674516Y-87410000D03*
X147674516Y-85310000D03*
D21*
X155080000Y-81915000D03*
X153530000Y-81915000D03*
D22*
X152400000Y-100571000D03*
X152400000Y-102121000D03*
D23*
X152527000Y-79775000D03*
X152527000Y-78225000D03*
D22*
X157226000Y-103973420D03*
X157226000Y-105523420D03*
X138680000Y-79094420D03*
X138680000Y-80644420D03*
X154686000Y-103973420D03*
X154686000Y-105523420D03*
D21*
X113710000Y-74197900D03*
X112160000Y-74197900D03*
D16*
X170765000Y-68750000D03*
X168665000Y-68750000D03*
D24*
X155000000Y-61020000D03*
D25*
X152460000Y-61020000D03*
X149920000Y-61020000D03*
X147380000Y-61020000D03*
X144840000Y-61020000D03*
D22*
X141220000Y-79094420D03*
X141220000Y-80644420D03*
X152400000Y-104012500D03*
X152400000Y-105562500D03*
D15*
X103073984Y-99441000D03*
X103073984Y-101091000D03*
D22*
X171577000Y-98158000D03*
X171577000Y-99708000D03*
X139446000Y-101714000D03*
X139446000Y-103264000D03*
D23*
X117490000Y-69355000D03*
X117490000Y-67805000D03*
D20*
X111985000Y-76627900D03*
X111985000Y-78727900D03*
D15*
X115265484Y-94425000D03*
X115265484Y-96075000D03*
D26*
X120578484Y-89225710D03*
X120578484Y-89725710D03*
X120578484Y-90225710D03*
X120578484Y-90725710D03*
X120578484Y-91225710D03*
X123528484Y-91225710D03*
X123528484Y-90725710D03*
X123528484Y-90225710D03*
X123528484Y-89725710D03*
X123528484Y-89225710D03*
D27*
X122303484Y-88675710D03*
X122303484Y-91775710D03*
X121803484Y-91775710D03*
X121803484Y-88675710D03*
D28*
X122053484Y-90225710D03*
D23*
X137414000Y-103264000D03*
X137414000Y-101714000D03*
D22*
X118160984Y-87760710D03*
X118160984Y-89310710D03*
D29*
X115795000Y-73215000D03*
X115795000Y-71565000D03*
D30*
X143760000Y-69914420D03*
X143760000Y-66964420D03*
D23*
X141605000Y-102248000D03*
X141605000Y-100698000D03*
D20*
X149860000Y-65820000D03*
X149860000Y-63720000D03*
X111985000Y-72377900D03*
X111985000Y-70277900D03*
D31*
X143675000Y-89880000D03*
X135725000Y-89880000D03*
X135725000Y-85380000D03*
X143675000Y-85380000D03*
D22*
X125743484Y-89240710D03*
X125743484Y-90790710D03*
D23*
X138680000Y-69214420D03*
X138680000Y-67664420D03*
D32*
X145864000Y-98806000D03*
X148014000Y-98806000D03*
D22*
X163322000Y-104762000D03*
X163322000Y-106312000D03*
D29*
X121539000Y-95313000D03*
X121539000Y-93663000D03*
D23*
X141220000Y-69214420D03*
X141220000Y-67664420D03*
D15*
X103073984Y-106504500D03*
X103073984Y-108154500D03*
D21*
X162065000Y-82677000D03*
X160515000Y-82677000D03*
D20*
X154940000Y-65820000D03*
X154940000Y-63720000D03*
D22*
X115476484Y-100699500D03*
X115476484Y-102249500D03*
D33*
X125793000Y-93726000D03*
X124143000Y-93726000D03*
D34*
X166502500Y-104750000D03*
X166502500Y-105700000D03*
X166502500Y-106650000D03*
X168777500Y-106650000D03*
X168777500Y-104750000D03*
D33*
X155320000Y-107442000D03*
X153670000Y-107442000D03*
D15*
X115265484Y-87710710D03*
X115265484Y-89360710D03*
D26*
X110121484Y-100764500D03*
X110121484Y-101264500D03*
X110121484Y-101764500D03*
X110121484Y-102264500D03*
X110121484Y-102764500D03*
X113071484Y-102764500D03*
X113071484Y-102264500D03*
X113071484Y-101764500D03*
X113071484Y-101264500D03*
X113071484Y-100764500D03*
D27*
X111846484Y-103314500D03*
X111846484Y-100214500D03*
X111346484Y-103314500D03*
X111346484Y-100214500D03*
D28*
X111596484Y-101764500D03*
D35*
X106109000Y-109027000D03*
X107759000Y-109027000D03*
X153670000Y-109474000D03*
X155320000Y-109474000D03*
D29*
X115795000Y-76580000D03*
X115795000Y-74930000D03*
D16*
X166500000Y-68740000D03*
X164400000Y-68740000D03*
D15*
X119557516Y-93663000D03*
X119557516Y-95313000D03*
D23*
X149860000Y-79769000D03*
X149860000Y-78219000D03*
D15*
X115265484Y-91123000D03*
X115265484Y-92773000D03*
D22*
X171577000Y-104762000D03*
X171577000Y-106312000D03*
D23*
X120030000Y-69355000D03*
X120030000Y-67805000D03*
D22*
X117490000Y-79357100D03*
X117490000Y-80907100D03*
D36*
X106081484Y-106928500D03*
X107981484Y-106928500D03*
X107031484Y-104653500D03*
D20*
X112014000Y-89696000D03*
X112014000Y-87596000D03*
D21*
X175019000Y-76165000D03*
X173469000Y-76165000D03*
D33*
X137731000Y-71374000D03*
X136081000Y-71374000D03*
D17*
X156324000Y-69088000D03*
X157874000Y-69088000D03*
X160515000Y-85852000D03*
X162065000Y-85852000D03*
D33*
X115506000Y-105537000D03*
X113856000Y-105537000D03*
D22*
X166243000Y-72631000D03*
X166243000Y-74181000D03*
X141605000Y-104635000D03*
X141605000Y-106185000D03*
X163322000Y-98144420D03*
X163322000Y-99694420D03*
D23*
X135255000Y-103264000D03*
X135255000Y-101714000D03*
D37*
X132810000Y-79375000D03*
X132810000Y-78105000D03*
X132810000Y-76835000D03*
X132810000Y-75565000D03*
X132810000Y-74295000D03*
X132810000Y-73025000D03*
X132810000Y-71755000D03*
X132810000Y-70485000D03*
X132810000Y-69215000D03*
X132810000Y-67945000D03*
X123510000Y-67945000D03*
X123510000Y-69215000D03*
X123510000Y-70485000D03*
X123510000Y-71755000D03*
X123510000Y-73025000D03*
X123510000Y-74295000D03*
X123510000Y-75565000D03*
X123510000Y-76835000D03*
X123510000Y-78105000D03*
X123510000Y-79375000D03*
D20*
X152400000Y-65820000D03*
X152400000Y-63720000D03*
D33*
X152590000Y-73914000D03*
X150940000Y-73914000D03*
D38*
X143760000Y-78394420D03*
X143760000Y-81344420D03*
D20*
X147320000Y-65820000D03*
X147320000Y-63720000D03*
D39*
X97790000Y-60580000D03*
X96623274Y-61063274D03*
X99440000Y-62230000D03*
D40*
X97790000Y-62230000D03*
D39*
X96623274Y-63396726D03*
X98956726Y-63396726D03*
X96140000Y-62230000D03*
X98956726Y-61063274D03*
X97790000Y-63880000D03*
D22*
X106680000Y-99428000D03*
X106680000Y-100978000D03*
X157734000Y-84569000D03*
X157734000Y-86119000D03*
D41*
X176209516Y-79135000D03*
X174939516Y-79135000D03*
X173669516Y-79135000D03*
X172399516Y-79135000D03*
X171129516Y-79135000D03*
X169859516Y-79135000D03*
X168589516Y-79135000D03*
X167319516Y-79135000D03*
X167319516Y-88435000D03*
X168589516Y-88435000D03*
X169859516Y-88435000D03*
X171129516Y-88435000D03*
X172399516Y-88435000D03*
X173669516Y-88435000D03*
X174939516Y-88435000D03*
X176209516Y-88435000D03*
D22*
X120030000Y-79357100D03*
X120030000Y-80907100D03*
D23*
X136140000Y-69214420D03*
X136140000Y-67664420D03*
X154686000Y-102121000D03*
X154686000Y-100571000D03*
X157226000Y-102050420D03*
X157226000Y-100500420D03*
D39*
X174814516Y-62230000D03*
X175297790Y-61063274D03*
X178114516Y-62230000D03*
D40*
X176464516Y-62230000D03*
D39*
X177631242Y-63396726D03*
X176464516Y-60580000D03*
X177631242Y-61063274D03*
X175297790Y-63396726D03*
X176464516Y-63880000D03*
D23*
X159766000Y-102051000D03*
X159766000Y-100501000D03*
X114950000Y-69355000D03*
X114950000Y-67805000D03*
D39*
X97724516Y-105960000D03*
X96074516Y-107610000D03*
X98891242Y-106443274D03*
X96557790Y-106443274D03*
X99374516Y-107610000D03*
X97724516Y-109260000D03*
X98891242Y-108776726D03*
D40*
X97724516Y-107610000D03*
D39*
X96557790Y-108776726D03*
D42*
X153605000Y-84723000D03*
X153605000Y-86473000D03*
X155005000Y-86473000D03*
X155005000Y-84723000D03*
D43*
X123231500Y-104902000D03*
X130006500Y-104902000D03*
D34*
X166502500Y-98110000D03*
X166502500Y-99060000D03*
X166502500Y-100010000D03*
X168777500Y-100010000D03*
X168777500Y-98110000D03*
D39*
X177631242Y-106193274D03*
X174814516Y-107360000D03*
X175297790Y-106193274D03*
X177631242Y-108526726D03*
X178114516Y-107360000D03*
D40*
X176464516Y-107360000D03*
D39*
X175297790Y-108526726D03*
X176464516Y-109010000D03*
X176464516Y-105710000D03*
D44*
X161330000Y-62770000D03*
X166330000Y-62770000D03*
D45*
X165130000Y-63870000D03*
X164480000Y-63870000D03*
X163830000Y-63870000D03*
X163180000Y-63870000D03*
X162530000Y-63870000D03*
D46*
X160105000Y-63820000D03*
D47*
X159955000Y-60020000D03*
D46*
X167555000Y-63820000D03*
D47*
X167705000Y-60020000D03*
D48*
X102604185Y-93755000D03*
X102604185Y-68755000D03*
D49*
X101184185Y-86795000D03*
D50*
X101184185Y-84025000D03*
X101184185Y-81255000D03*
X101184185Y-78485000D03*
X101184185Y-75715000D03*
X104024185Y-85410000D03*
X104024185Y-82640000D03*
X104024185Y-79870000D03*
X104024185Y-77100000D03*
D22*
X136110000Y-79094420D03*
X136110000Y-80644420D03*
D51*
X144130000Y-101569420D03*
X144130000Y-102219420D03*
X144130000Y-102869420D03*
X144130000Y-103519420D03*
X144130000Y-104169420D03*
X144130000Y-104819420D03*
X144130000Y-105469420D03*
X144130000Y-106119420D03*
X144130000Y-106769420D03*
X144130000Y-107419420D03*
X150070000Y-107419420D03*
X150070000Y-106769420D03*
X150070000Y-106119420D03*
X150070000Y-105469420D03*
X150070000Y-104819420D03*
X150070000Y-104169420D03*
X150070000Y-103519420D03*
X150070000Y-102869420D03*
X150070000Y-102219420D03*
X150070000Y-101569420D03*
D52*
X147100000Y-104494420D03*
M02*
