G04 #@! TF.GenerationSoftware,KiCad,Pcbnew,6.0.11+dfsg-1*
G04 #@! TF.CreationDate,2024-04-01T21:29:23-07:00*
G04 #@! TF.ProjectId,car-logger,6361722d-6c6f-4676-9765-722e6b696361,v1*
G04 #@! TF.SameCoordinates,Original*
G04 #@! TF.FileFunction,Copper,L2,Inr*
G04 #@! TF.FilePolarity,Positive*
%FSLAX46Y46*%
G04 Gerber Fmt 4.6, Leading zero omitted, Abs format (unit mm)*
G04 Created by KiCad (PCBNEW 6.0.11+dfsg-1) date 2024-04-01 21:29:23*
%MOMM*%
%LPD*%
G01*
G04 APERTURE LIST*
G04 #@! TA.AperFunction,ComponentPad*
%ADD10R,1.700000X1.700000*%
G04 #@! TD*
G04 #@! TA.AperFunction,ComponentPad*
%ADD11O,1.700000X1.700000*%
G04 #@! TD*
G04 #@! TA.AperFunction,ComponentPad*
%ADD12C,0.700000*%
G04 #@! TD*
G04 #@! TA.AperFunction,ComponentPad*
%ADD13C,4.400000*%
G04 #@! TD*
G04 #@! TA.AperFunction,ComponentPad*
%ADD14C,2.000000*%
G04 #@! TD*
G04 #@! TA.AperFunction,ComponentPad*
%ADD15C,1.800000*%
G04 #@! TD*
G04 #@! TA.AperFunction,ComponentPad*
%ADD16C,4.000000*%
G04 #@! TD*
G04 #@! TA.AperFunction,ComponentPad*
%ADD17R,1.600000X1.600000*%
G04 #@! TD*
G04 #@! TA.AperFunction,ComponentPad*
%ADD18C,1.600000*%
G04 #@! TD*
G04 #@! TA.AperFunction,ViaPad*
%ADD19C,0.800000*%
G04 #@! TD*
G04 APERTURE END LIST*
D10*
X155000000Y-61020000D03*
D11*
X152460000Y-61020000D03*
X149920000Y-61020000D03*
X147380000Y-61020000D03*
X144840000Y-61020000D03*
D12*
X97790000Y-60580000D03*
X96623274Y-61063274D03*
X99440000Y-62230000D03*
D13*
X97790000Y-62230000D03*
D12*
X96623274Y-63396726D03*
X98956726Y-63396726D03*
X96140000Y-62230000D03*
X98956726Y-61063274D03*
X97790000Y-63880000D03*
X174814516Y-62230000D03*
X175297790Y-61063274D03*
X178114516Y-62230000D03*
D13*
X176464516Y-62230000D03*
D12*
X177631242Y-63396726D03*
X176464516Y-60580000D03*
X177631242Y-61063274D03*
X175297790Y-63396726D03*
X176464516Y-63880000D03*
X97724516Y-105960000D03*
X96074516Y-107610000D03*
X98891242Y-106443274D03*
X96557790Y-106443274D03*
X99374516Y-107610000D03*
X97724516Y-109260000D03*
X98891242Y-108776726D03*
D13*
X97724516Y-107610000D03*
D12*
X96557790Y-108776726D03*
X177631242Y-106193274D03*
X174814516Y-107360000D03*
X175297790Y-106193274D03*
X177631242Y-108526726D03*
X178114516Y-107360000D03*
D13*
X176464516Y-107360000D03*
D12*
X175297790Y-108526726D03*
X176464516Y-109010000D03*
X176464516Y-105710000D03*
D14*
X160105000Y-63820000D03*
D15*
X159955000Y-60020000D03*
D14*
X167555000Y-63820000D03*
D15*
X167705000Y-60020000D03*
D16*
X102604185Y-93755000D03*
X102604185Y-68755000D03*
D17*
X101184185Y-86795000D03*
D18*
X101184185Y-84025000D03*
X101184185Y-81255000D03*
X101184185Y-78485000D03*
X101184185Y-75715000D03*
X104024185Y-85410000D03*
X104024185Y-82640000D03*
X104024185Y-79870000D03*
X104024185Y-77100000D03*
D19*
X145542000Y-78232000D03*
X155194000Y-69342000D03*
X167386000Y-72644000D03*
X175006000Y-74930000D03*
X138811000Y-71374000D03*
X162052000Y-83820000D03*
X148590000Y-67818000D03*
X165227000Y-95123000D03*
X148717000Y-79756000D03*
X144780000Y-83820000D03*
X152400000Y-91440000D03*
X132080000Y-63500000D03*
X167386000Y-74168000D03*
X175006000Y-90170000D03*
X177800000Y-76200000D03*
X136144000Y-66548000D03*
X148590000Y-91440000D03*
X121920000Y-60960000D03*
X106680000Y-60960000D03*
X132080000Y-93980000D03*
X177800000Y-86360000D03*
X97790000Y-78740000D03*
X137160000Y-91440000D03*
X177800000Y-71120000D03*
X141224000Y-81788000D03*
X157734000Y-87249000D03*
X160528000Y-83820000D03*
X136110000Y-81754000D03*
X127000000Y-86360000D03*
X140970000Y-96520000D03*
X107950000Y-88900000D03*
X159766000Y-99441000D03*
X109347000Y-106934000D03*
X177800000Y-91440000D03*
X173482000Y-74930000D03*
X160020000Y-77470000D03*
X105410000Y-100965000D03*
X116840000Y-60960000D03*
X148082000Y-104902000D03*
X167640000Y-86360000D03*
X132080000Y-86360000D03*
X172720000Y-60960000D03*
X149860000Y-66802000D03*
X153670000Y-87757000D03*
X171577000Y-100838000D03*
X172720000Y-63500000D03*
X159004000Y-69088000D03*
X121920000Y-99060000D03*
X97790000Y-73660000D03*
X152400000Y-96520000D03*
X111760000Y-63500000D03*
X135255000Y-100584000D03*
X171577000Y-107442000D03*
X148590000Y-96520000D03*
X113665000Y-103759000D03*
X169799000Y-68707000D03*
X161163000Y-68707000D03*
X144780000Y-91440000D03*
X101600000Y-60960000D03*
X132080000Y-83820000D03*
X127000000Y-90805000D03*
X149860000Y-73914000D03*
X134493000Y-73025000D03*
X134493000Y-75565000D03*
X101600000Y-63500000D03*
X158750000Y-96520000D03*
X137160000Y-99060000D03*
X163195000Y-85852000D03*
X165100000Y-91440000D03*
X121920000Y-63500000D03*
X140335000Y-106159000D03*
X152400000Y-66802000D03*
X137414000Y-100584000D03*
X158242000Y-105537000D03*
X154686000Y-99441000D03*
X111760000Y-96520000D03*
X97790000Y-83820000D03*
X121920000Y-83820000D03*
X175260000Y-82550000D03*
X139700000Y-83820000D03*
X116967000Y-89281000D03*
X162179000Y-106299000D03*
X118110000Y-105410000D03*
X147696701Y-86491299D03*
X106680000Y-63500000D03*
X163322000Y-100838000D03*
X177800000Y-96520000D03*
X99060000Y-91440000D03*
X112014000Y-77597000D03*
X134239000Y-89916000D03*
X137160000Y-96520000D03*
X97790000Y-88900000D03*
X99060000Y-68580000D03*
X145669000Y-101600000D03*
X145288000Y-66929000D03*
X119634000Y-96393000D03*
X145415000Y-81280000D03*
X112014000Y-71374000D03*
X108839000Y-109093000D03*
X147320000Y-66802000D03*
X177800000Y-66040000D03*
X170180000Y-63500000D03*
X157226000Y-99441000D03*
X146050000Y-104902000D03*
X162560000Y-96520000D03*
X118110000Y-99060000D03*
X154940000Y-66802000D03*
X177800000Y-81280000D03*
X152400000Y-81915000D03*
X116840000Y-83820000D03*
X148717000Y-78232000D03*
X99060000Y-99060000D03*
X138684000Y-81788000D03*
X99060000Y-104140000D03*
X145034000Y-89916000D03*
X156337000Y-109474000D03*
X127000000Y-63500000D03*
X147066000Y-106045000D03*
X134620000Y-83820000D03*
X141224000Y-66548000D03*
X132080000Y-96520000D03*
X151638000Y-110109000D03*
X172720000Y-69850000D03*
X146050000Y-102870000D03*
X170180000Y-109220000D03*
X96520000Y-104140000D03*
X111760000Y-83820000D03*
X96520000Y-99060000D03*
X147066000Y-103886000D03*
X124079000Y-92456000D03*
X148082000Y-102870000D03*
X115570000Y-103378000D03*
X111760000Y-60960000D03*
X116840000Y-63500000D03*
X170180000Y-60960000D03*
X127000000Y-83820000D03*
X106680000Y-91440000D03*
X139446000Y-100584000D03*
X175260000Y-86360000D03*
X167640000Y-82550000D03*
X139700000Y-87630000D03*
X144780000Y-96520000D03*
X155909500Y-105537000D03*
X153543000Y-105537000D03*
X165481000Y-68834000D03*
X112014000Y-88773000D03*
X138684000Y-66548000D03*
X137160000Y-63500000D03*
X177800000Y-101600000D03*
X156210000Y-83820000D03*
X151384000Y-78232000D03*
X140970000Y-91440000D03*
X121920000Y-86360000D03*
X132080000Y-99060000D03*
X152781000Y-71628000D03*
X160020000Y-78486000D03*
X145415000Y-69850000D03*
X167005000Y-102235000D03*
X110270000Y-87664000D03*
X122936000Y-95250000D03*
X104902000Y-109093000D03*
X169926000Y-70231000D03*
X106680000Y-98044000D03*
X113665000Y-69342000D03*
X116332000Y-79248000D03*
X110998000Y-74168000D03*
X121793000Y-75565000D03*
X116362000Y-80899000D03*
X121793000Y-74295000D03*
X113665000Y-67818000D03*
X120015000Y-82042000D03*
X117475000Y-66675000D03*
X121793000Y-73025000D03*
X120015000Y-66675000D03*
X153670000Y-67818000D03*
X155629079Y-71827921D03*
X168656000Y-77343000D03*
X164592000Y-80010000D03*
X168656000Y-90551000D03*
X165481000Y-76327000D03*
G04 #@! TA.AperFunction,Conductor*
G36*
X179773621Y-58440502D02*
G01*
X179820114Y-58494158D01*
X179831500Y-58546500D01*
X179831500Y-111125500D01*
X179811498Y-111193621D01*
X179757842Y-111240114D01*
X179705500Y-111251500D01*
X94614500Y-111251500D01*
X94546379Y-111231498D01*
X94499886Y-111177842D01*
X94488500Y-111125500D01*
X94488500Y-109093000D01*
X103988496Y-109093000D01*
X104008458Y-109282928D01*
X104067473Y-109464556D01*
X104162960Y-109629944D01*
X104290747Y-109771866D01*
X104445248Y-109884118D01*
X104451276Y-109886802D01*
X104451278Y-109886803D01*
X104613681Y-109959109D01*
X104619712Y-109961794D01*
X104713113Y-109981647D01*
X104800056Y-110000128D01*
X104800061Y-110000128D01*
X104806513Y-110001500D01*
X104997487Y-110001500D01*
X105003939Y-110000128D01*
X105003944Y-110000128D01*
X105090887Y-109981647D01*
X105184288Y-109961794D01*
X105190319Y-109959109D01*
X105352722Y-109886803D01*
X105352724Y-109886802D01*
X105358752Y-109884118D01*
X105513253Y-109771866D01*
X105641040Y-109629944D01*
X105736527Y-109464556D01*
X105795542Y-109282928D01*
X105815504Y-109093000D01*
X105795542Y-108903072D01*
X105736527Y-108721444D01*
X105641040Y-108556056D01*
X105513253Y-108414134D01*
X105358752Y-108301882D01*
X105352724Y-108299198D01*
X105352722Y-108299197D01*
X105190319Y-108226891D01*
X105190318Y-108226891D01*
X105184288Y-108224206D01*
X105090888Y-108204353D01*
X105003944Y-108185872D01*
X105003939Y-108185872D01*
X104997487Y-108184500D01*
X104806513Y-108184500D01*
X104800061Y-108185872D01*
X104800056Y-108185872D01*
X104713112Y-108204353D01*
X104619712Y-108224206D01*
X104613682Y-108226891D01*
X104613681Y-108226891D01*
X104451278Y-108299197D01*
X104451276Y-108299198D01*
X104445248Y-108301882D01*
X104290747Y-108414134D01*
X104162960Y-108556056D01*
X104067473Y-108721444D01*
X104008458Y-108903072D01*
X103988496Y-109093000D01*
X94488500Y-109093000D01*
X94488500Y-102235000D01*
X166091496Y-102235000D01*
X166111458Y-102424928D01*
X166170473Y-102606556D01*
X166265960Y-102771944D01*
X166393747Y-102913866D01*
X166548248Y-103026118D01*
X166554276Y-103028802D01*
X166554278Y-103028803D01*
X166716681Y-103101109D01*
X166722712Y-103103794D01*
X166816113Y-103123647D01*
X166903056Y-103142128D01*
X166903061Y-103142128D01*
X166909513Y-103143500D01*
X167100487Y-103143500D01*
X167106939Y-103142128D01*
X167106944Y-103142128D01*
X167193888Y-103123647D01*
X167287288Y-103103794D01*
X167293319Y-103101109D01*
X167455722Y-103028803D01*
X167455724Y-103028802D01*
X167461752Y-103026118D01*
X167616253Y-102913866D01*
X167744040Y-102771944D01*
X167839527Y-102606556D01*
X167898542Y-102424928D01*
X167918504Y-102235000D01*
X167898542Y-102045072D01*
X167839527Y-101863444D01*
X167744040Y-101698056D01*
X167616253Y-101556134D01*
X167461752Y-101443882D01*
X167455724Y-101441198D01*
X167455722Y-101441197D01*
X167293319Y-101368891D01*
X167293318Y-101368891D01*
X167287288Y-101366206D01*
X167193887Y-101346353D01*
X167106944Y-101327872D01*
X167106939Y-101327872D01*
X167100487Y-101326500D01*
X166909513Y-101326500D01*
X166903061Y-101327872D01*
X166903056Y-101327872D01*
X166816113Y-101346353D01*
X166722712Y-101366206D01*
X166716682Y-101368891D01*
X166716681Y-101368891D01*
X166554278Y-101441197D01*
X166554276Y-101441198D01*
X166548248Y-101443882D01*
X166393747Y-101556134D01*
X166265960Y-101698056D01*
X166170473Y-101863444D01*
X166111458Y-102045072D01*
X166091496Y-102235000D01*
X94488500Y-102235000D01*
X94488500Y-98044000D01*
X105766496Y-98044000D01*
X105786458Y-98233928D01*
X105845473Y-98415556D01*
X105940960Y-98580944D01*
X106068747Y-98722866D01*
X106223248Y-98835118D01*
X106229276Y-98837802D01*
X106229278Y-98837803D01*
X106391681Y-98910109D01*
X106397712Y-98912794D01*
X106491112Y-98932647D01*
X106578056Y-98951128D01*
X106578061Y-98951128D01*
X106584513Y-98952500D01*
X106775487Y-98952500D01*
X106781939Y-98951128D01*
X106781944Y-98951128D01*
X106868888Y-98932647D01*
X106962288Y-98912794D01*
X106968319Y-98910109D01*
X107130722Y-98837803D01*
X107130724Y-98837802D01*
X107136752Y-98835118D01*
X107291253Y-98722866D01*
X107419040Y-98580944D01*
X107514527Y-98415556D01*
X107573542Y-98233928D01*
X107593504Y-98044000D01*
X107573542Y-97854072D01*
X107514527Y-97672444D01*
X107419040Y-97507056D01*
X107291253Y-97365134D01*
X107136752Y-97252882D01*
X107130724Y-97250198D01*
X107130722Y-97250197D01*
X106968319Y-97177891D01*
X106968318Y-97177891D01*
X106962288Y-97175206D01*
X106868888Y-97155353D01*
X106781944Y-97136872D01*
X106781939Y-97136872D01*
X106775487Y-97135500D01*
X106584513Y-97135500D01*
X106578061Y-97136872D01*
X106578056Y-97136872D01*
X106491113Y-97155353D01*
X106397712Y-97175206D01*
X106391682Y-97177891D01*
X106391681Y-97177891D01*
X106229278Y-97250197D01*
X106229276Y-97250198D01*
X106223248Y-97252882D01*
X106068747Y-97365134D01*
X105940960Y-97507056D01*
X105845473Y-97672444D01*
X105786458Y-97854072D01*
X105766496Y-98044000D01*
X94488500Y-98044000D01*
X94488500Y-93755000D01*
X100090725Y-93755000D01*
X100110544Y-94070020D01*
X100169690Y-94380072D01*
X100267229Y-94680266D01*
X100268916Y-94683852D01*
X100268918Y-94683856D01*
X100399935Y-94962283D01*
X100399939Y-94962290D01*
X100401623Y-94965869D01*
X100570753Y-95232375D01*
X100771952Y-95475582D01*
X101002045Y-95691654D01*
X101257406Y-95877184D01*
X101260875Y-95879091D01*
X101260878Y-95879093D01*
X101468375Y-95993166D01*
X101534006Y-96029247D01*
X101537675Y-96030700D01*
X101537680Y-96030702D01*
X101823813Y-96143990D01*
X101827483Y-96145443D01*
X102133210Y-96223940D01*
X102446364Y-96263500D01*
X102762006Y-96263500D01*
X103075160Y-96223940D01*
X103380887Y-96145443D01*
X103384557Y-96143990D01*
X103670690Y-96030702D01*
X103670695Y-96030700D01*
X103674364Y-96029247D01*
X103739995Y-95993166D01*
X103947492Y-95879093D01*
X103947495Y-95879091D01*
X103950964Y-95877184D01*
X104206325Y-95691654D01*
X104436418Y-95475582D01*
X104623036Y-95250000D01*
X122022496Y-95250000D01*
X122042458Y-95439928D01*
X122101473Y-95621556D01*
X122196960Y-95786944D01*
X122324747Y-95928866D01*
X122407664Y-95989109D01*
X122464912Y-96030702D01*
X122479248Y-96041118D01*
X122485276Y-96043802D01*
X122485278Y-96043803D01*
X122647681Y-96116109D01*
X122653712Y-96118794D01*
X122747112Y-96138647D01*
X122834056Y-96157128D01*
X122834061Y-96157128D01*
X122840513Y-96158500D01*
X123031487Y-96158500D01*
X123037939Y-96157128D01*
X123037944Y-96157128D01*
X123124887Y-96138647D01*
X123218288Y-96118794D01*
X123224319Y-96116109D01*
X123386722Y-96043803D01*
X123386724Y-96043802D01*
X123392752Y-96041118D01*
X123407089Y-96030702D01*
X123464336Y-95989109D01*
X123547253Y-95928866D01*
X123675040Y-95786944D01*
X123770527Y-95621556D01*
X123829542Y-95439928D01*
X123849504Y-95250000D01*
X123836156Y-95123000D01*
X164313496Y-95123000D01*
X164333458Y-95312928D01*
X164392473Y-95494556D01*
X164487960Y-95659944D01*
X164615747Y-95801866D01*
X164770248Y-95914118D01*
X164776276Y-95916802D01*
X164776278Y-95916803D01*
X164812094Y-95932749D01*
X164944712Y-95991794D01*
X165038112Y-96011647D01*
X165125056Y-96030128D01*
X165125061Y-96030128D01*
X165131513Y-96031500D01*
X165322487Y-96031500D01*
X165328939Y-96030128D01*
X165328944Y-96030128D01*
X165415887Y-96011647D01*
X165509288Y-95991794D01*
X165641906Y-95932749D01*
X165677722Y-95916803D01*
X165677724Y-95916802D01*
X165683752Y-95914118D01*
X165838253Y-95801866D01*
X165966040Y-95659944D01*
X166061527Y-95494556D01*
X166120542Y-95312928D01*
X166140504Y-95123000D01*
X166120542Y-94933072D01*
X166061527Y-94751444D01*
X165966040Y-94586056D01*
X165838253Y-94444134D01*
X165739157Y-94372136D01*
X165689094Y-94335763D01*
X165689093Y-94335762D01*
X165683752Y-94331882D01*
X165677724Y-94329198D01*
X165677722Y-94329197D01*
X165515319Y-94256891D01*
X165515318Y-94256891D01*
X165509288Y-94254206D01*
X165415888Y-94234353D01*
X165328944Y-94215872D01*
X165328939Y-94215872D01*
X165322487Y-94214500D01*
X165131513Y-94214500D01*
X165125061Y-94215872D01*
X165125056Y-94215872D01*
X165038112Y-94234353D01*
X164944712Y-94254206D01*
X164938682Y-94256891D01*
X164938681Y-94256891D01*
X164776278Y-94329197D01*
X164776276Y-94329198D01*
X164770248Y-94331882D01*
X164764907Y-94335762D01*
X164764906Y-94335763D01*
X164714843Y-94372136D01*
X164615747Y-94444134D01*
X164487960Y-94586056D01*
X164392473Y-94751444D01*
X164333458Y-94933072D01*
X164313496Y-95123000D01*
X123836156Y-95123000D01*
X123829542Y-95060072D01*
X123770527Y-94878444D01*
X123675040Y-94713056D01*
X123547253Y-94571134D01*
X123392752Y-94458882D01*
X123386724Y-94456198D01*
X123386722Y-94456197D01*
X123224319Y-94383891D01*
X123224318Y-94383891D01*
X123218288Y-94381206D01*
X123124888Y-94361353D01*
X123037944Y-94342872D01*
X123037939Y-94342872D01*
X123031487Y-94341500D01*
X122840513Y-94341500D01*
X122834061Y-94342872D01*
X122834056Y-94342872D01*
X122747112Y-94361353D01*
X122653712Y-94381206D01*
X122647682Y-94383891D01*
X122647681Y-94383891D01*
X122485278Y-94456197D01*
X122485276Y-94456198D01*
X122479248Y-94458882D01*
X122324747Y-94571134D01*
X122196960Y-94713056D01*
X122101473Y-94878444D01*
X122042458Y-95060072D01*
X122022496Y-95250000D01*
X104623036Y-95250000D01*
X104637617Y-95232375D01*
X104806747Y-94965869D01*
X104808431Y-94962290D01*
X104808435Y-94962283D01*
X104939452Y-94683856D01*
X104939454Y-94683852D01*
X104941141Y-94680266D01*
X105038680Y-94380072D01*
X105097826Y-94070020D01*
X105117645Y-93755000D01*
X105097826Y-93439980D01*
X105038680Y-93129928D01*
X104941141Y-92829734D01*
X104939452Y-92826144D01*
X104808435Y-92547717D01*
X104808431Y-92547710D01*
X104806747Y-92544131D01*
X104637617Y-92277625D01*
X104436418Y-92034418D01*
X104206325Y-91818346D01*
X103950964Y-91632816D01*
X103674364Y-91480753D01*
X103670695Y-91479300D01*
X103670690Y-91479298D01*
X103384557Y-91366010D01*
X103384556Y-91366010D01*
X103380887Y-91364557D01*
X103075160Y-91286060D01*
X102762006Y-91246500D01*
X102446364Y-91246500D01*
X102133210Y-91286060D01*
X101827483Y-91364557D01*
X101823814Y-91366010D01*
X101823813Y-91366010D01*
X101537680Y-91479298D01*
X101537675Y-91479300D01*
X101534006Y-91480753D01*
X101257406Y-91632816D01*
X101002045Y-91818346D01*
X100771952Y-92034418D01*
X100570753Y-92277625D01*
X100401623Y-92544131D01*
X100399939Y-92547710D01*
X100399935Y-92547717D01*
X100268918Y-92826144D01*
X100267229Y-92829734D01*
X100169690Y-93129928D01*
X100110544Y-93439980D01*
X100090725Y-93755000D01*
X94488500Y-93755000D01*
X94488500Y-90551000D01*
X167742496Y-90551000D01*
X167762458Y-90740928D01*
X167821473Y-90922556D01*
X167916960Y-91087944D01*
X168044747Y-91229866D01*
X168199248Y-91342118D01*
X168205276Y-91344802D01*
X168205278Y-91344803D01*
X168367681Y-91417109D01*
X168373712Y-91419794D01*
X168467113Y-91439647D01*
X168554056Y-91458128D01*
X168554061Y-91458128D01*
X168560513Y-91459500D01*
X168751487Y-91459500D01*
X168757939Y-91458128D01*
X168757944Y-91458128D01*
X168844888Y-91439647D01*
X168938288Y-91419794D01*
X168944319Y-91417109D01*
X169106722Y-91344803D01*
X169106724Y-91344802D01*
X169112752Y-91342118D01*
X169267253Y-91229866D01*
X169395040Y-91087944D01*
X169490527Y-90922556D01*
X169549542Y-90740928D01*
X169569504Y-90551000D01*
X169549542Y-90361072D01*
X169490527Y-90179444D01*
X169395040Y-90014056D01*
X169267253Y-89872134D01*
X169112752Y-89759882D01*
X169106724Y-89757198D01*
X169106722Y-89757197D01*
X168944319Y-89684891D01*
X168944318Y-89684891D01*
X168938288Y-89682206D01*
X168844887Y-89662353D01*
X168757944Y-89643872D01*
X168757939Y-89643872D01*
X168751487Y-89642500D01*
X168560513Y-89642500D01*
X168554061Y-89643872D01*
X168554056Y-89643872D01*
X168467113Y-89662353D01*
X168373712Y-89682206D01*
X168367682Y-89684891D01*
X168367681Y-89684891D01*
X168205278Y-89757197D01*
X168205276Y-89757198D01*
X168199248Y-89759882D01*
X168044747Y-89872134D01*
X167916960Y-90014056D01*
X167821473Y-90179444D01*
X167762458Y-90361072D01*
X167742496Y-90551000D01*
X94488500Y-90551000D01*
X94488500Y-87577810D01*
X98546500Y-87577810D01*
X98549441Y-87632692D01*
X98552320Y-87659475D01*
X98552588Y-87661132D01*
X98552590Y-87661143D01*
X98560125Y-87707640D01*
X98560126Y-87707645D01*
X98561116Y-87713752D01*
X98612194Y-87850693D01*
X98614347Y-87854636D01*
X98614348Y-87854638D01*
X98644064Y-87909057D01*
X98646220Y-87913005D01*
X98648915Y-87916605D01*
X98731109Y-88026402D01*
X98731113Y-88026406D01*
X98733806Y-88030004D01*
X99929996Y-89226194D01*
X99970877Y-89262917D01*
X99991851Y-89279820D01*
X99993224Y-89280810D01*
X100031430Y-89308362D01*
X100031435Y-89308365D01*
X100036451Y-89311982D01*
X100169400Y-89372698D01*
X100193154Y-89379673D01*
X100233198Y-89391431D01*
X100233202Y-89391432D01*
X100237521Y-89392700D01*
X100241970Y-89393340D01*
X100241976Y-89393341D01*
X100377743Y-89412861D01*
X100377748Y-89412861D01*
X100382190Y-89413500D01*
X104087810Y-89413500D01*
X104114385Y-89412076D01*
X104140999Y-89410650D01*
X104141009Y-89410649D01*
X104142692Y-89410559D01*
X104169475Y-89407680D01*
X104171132Y-89407412D01*
X104171143Y-89407410D01*
X104217640Y-89399875D01*
X104217645Y-89399874D01*
X104223752Y-89398884D01*
X104229549Y-89396722D01*
X104229552Y-89396721D01*
X104356479Y-89349378D01*
X104356481Y-89349377D01*
X104360693Y-89347806D01*
X104423005Y-89313780D01*
X104467047Y-89280810D01*
X104536402Y-89228891D01*
X104536406Y-89228887D01*
X104540004Y-89226194D01*
X106102198Y-87664000D01*
X109356496Y-87664000D01*
X109376458Y-87853928D01*
X109435473Y-88035556D01*
X109530960Y-88200944D01*
X109658747Y-88342866D01*
X109813248Y-88455118D01*
X109819276Y-88457802D01*
X109819278Y-88457803D01*
X109981681Y-88530109D01*
X109987712Y-88532794D01*
X110081112Y-88552647D01*
X110168056Y-88571128D01*
X110168061Y-88571128D01*
X110174513Y-88572500D01*
X110365487Y-88572500D01*
X110371939Y-88571128D01*
X110371944Y-88571128D01*
X110458888Y-88552647D01*
X110552288Y-88532794D01*
X110558319Y-88530109D01*
X110720722Y-88457803D01*
X110720724Y-88457802D01*
X110726752Y-88455118D01*
X110881253Y-88342866D01*
X111009040Y-88200944D01*
X111104527Y-88035556D01*
X111163542Y-87853928D01*
X111183504Y-87664000D01*
X111180213Y-87632692D01*
X111164232Y-87480635D01*
X111164232Y-87480633D01*
X111163542Y-87474072D01*
X111104527Y-87292444D01*
X111009040Y-87127056D01*
X110881253Y-86985134D01*
X110726752Y-86872882D01*
X110720724Y-86870198D01*
X110720722Y-86870197D01*
X110558319Y-86797891D01*
X110558318Y-86797891D01*
X110552288Y-86795206D01*
X110458887Y-86775353D01*
X110371944Y-86756872D01*
X110371939Y-86756872D01*
X110365487Y-86755500D01*
X110174513Y-86755500D01*
X110168061Y-86756872D01*
X110168056Y-86756872D01*
X110081113Y-86775353D01*
X109987712Y-86795206D01*
X109981682Y-86797891D01*
X109981681Y-86797891D01*
X109819278Y-86870197D01*
X109819276Y-86870198D01*
X109813248Y-86872882D01*
X109658747Y-86985134D01*
X109530960Y-87127056D01*
X109435473Y-87292444D01*
X109376458Y-87474072D01*
X109375768Y-87480633D01*
X109375768Y-87480635D01*
X109359787Y-87632692D01*
X109356496Y-87664000D01*
X106102198Y-87664000D01*
X109946198Y-83820000D01*
X161138496Y-83820000D01*
X161139186Y-83826565D01*
X161150237Y-83931705D01*
X161158458Y-84009928D01*
X161217473Y-84191556D01*
X161312960Y-84356944D01*
X161317378Y-84361851D01*
X161317379Y-84361852D01*
X161368554Y-84418688D01*
X161440747Y-84498866D01*
X161595248Y-84611118D01*
X161601276Y-84613802D01*
X161601278Y-84613803D01*
X161763681Y-84686109D01*
X161769712Y-84688794D01*
X161863113Y-84708647D01*
X161950056Y-84727128D01*
X161950061Y-84727128D01*
X161956513Y-84728500D01*
X162147487Y-84728500D01*
X162153939Y-84727128D01*
X162153944Y-84727128D01*
X162240887Y-84708647D01*
X162334288Y-84688794D01*
X162340319Y-84686109D01*
X162502722Y-84613803D01*
X162502724Y-84613802D01*
X162508752Y-84611118D01*
X162663253Y-84498866D01*
X162735446Y-84418688D01*
X162786621Y-84361852D01*
X162786622Y-84361851D01*
X162791040Y-84356944D01*
X162886527Y-84191556D01*
X162945542Y-84009928D01*
X162953764Y-83931705D01*
X162964814Y-83826565D01*
X162965504Y-83820000D01*
X162945542Y-83630072D01*
X162886527Y-83448444D01*
X162791040Y-83283056D01*
X162663253Y-83141134D01*
X162552477Y-83060650D01*
X162514094Y-83032763D01*
X162514093Y-83032762D01*
X162508752Y-83028882D01*
X162502724Y-83026198D01*
X162502722Y-83026197D01*
X162340319Y-82953891D01*
X162340318Y-82953891D01*
X162334288Y-82951206D01*
X162240888Y-82931353D01*
X162153944Y-82912872D01*
X162153939Y-82912872D01*
X162147487Y-82911500D01*
X161956513Y-82911500D01*
X161950061Y-82912872D01*
X161950056Y-82912872D01*
X161863112Y-82931353D01*
X161769712Y-82951206D01*
X161763682Y-82953891D01*
X161763681Y-82953891D01*
X161601278Y-83026197D01*
X161601276Y-83026198D01*
X161595248Y-83028882D01*
X161589907Y-83032762D01*
X161589906Y-83032763D01*
X161551523Y-83060650D01*
X161440747Y-83141134D01*
X161312960Y-83283056D01*
X161217473Y-83448444D01*
X161158458Y-83630072D01*
X161138496Y-83820000D01*
X109946198Y-83820000D01*
X110665793Y-83100405D01*
X110728105Y-83066379D01*
X110754888Y-83063500D01*
X124407810Y-83063500D01*
X124434385Y-83062076D01*
X124460999Y-83060650D01*
X124461009Y-83060649D01*
X124462692Y-83060559D01*
X124489475Y-83057680D01*
X124491132Y-83057412D01*
X124491143Y-83057410D01*
X124537640Y-83049875D01*
X124537645Y-83049874D01*
X124543752Y-83048884D01*
X124549549Y-83046722D01*
X124549552Y-83046721D01*
X124676479Y-82999378D01*
X124676481Y-82999377D01*
X124680693Y-82997806D01*
X124743005Y-82963780D01*
X124812842Y-82911500D01*
X124856402Y-82878891D01*
X124856406Y-82878887D01*
X124860004Y-82876194D01*
X127980198Y-79756000D01*
X147803496Y-79756000D01*
X147823458Y-79945928D01*
X147882473Y-80127556D01*
X147977960Y-80292944D01*
X147982378Y-80297851D01*
X147982379Y-80297852D01*
X148101325Y-80429955D01*
X148105747Y-80434866D01*
X148260248Y-80547118D01*
X148266276Y-80549802D01*
X148266278Y-80549803D01*
X148428681Y-80622109D01*
X148434712Y-80624794D01*
X148528112Y-80644647D01*
X148615056Y-80663128D01*
X148615061Y-80663128D01*
X148621513Y-80664500D01*
X148812487Y-80664500D01*
X148818939Y-80663128D01*
X148818944Y-80663128D01*
X148905888Y-80644647D01*
X148999288Y-80624794D01*
X149005319Y-80622109D01*
X149167722Y-80549803D01*
X149167724Y-80549802D01*
X149173752Y-80547118D01*
X149328253Y-80434866D01*
X149332675Y-80429955D01*
X149451621Y-80297852D01*
X149451622Y-80297851D01*
X149456040Y-80292944D01*
X149551527Y-80127556D01*
X149589724Y-80010000D01*
X163678496Y-80010000D01*
X163698458Y-80199928D01*
X163757473Y-80381556D01*
X163852960Y-80546944D01*
X163980747Y-80688866D01*
X164135248Y-80801118D01*
X164141276Y-80803802D01*
X164141278Y-80803803D01*
X164303681Y-80876109D01*
X164309712Y-80878794D01*
X164403112Y-80898647D01*
X164490056Y-80917128D01*
X164490061Y-80917128D01*
X164496513Y-80918500D01*
X164687487Y-80918500D01*
X164693939Y-80917128D01*
X164693944Y-80917128D01*
X164780888Y-80898647D01*
X164874288Y-80878794D01*
X164880319Y-80876109D01*
X165042722Y-80803803D01*
X165042724Y-80803802D01*
X165048752Y-80801118D01*
X165203253Y-80688866D01*
X165331040Y-80546944D01*
X165426527Y-80381556D01*
X165485542Y-80199928D01*
X165505504Y-80010000D01*
X165485542Y-79820072D01*
X165426527Y-79638444D01*
X165331040Y-79473056D01*
X165251254Y-79384444D01*
X165207675Y-79336045D01*
X165207674Y-79336044D01*
X165203253Y-79331134D01*
X165048752Y-79218882D01*
X165042724Y-79216198D01*
X165042722Y-79216197D01*
X164880319Y-79143891D01*
X164880318Y-79143891D01*
X164874288Y-79141206D01*
X164780887Y-79121353D01*
X164693944Y-79102872D01*
X164693939Y-79102872D01*
X164687487Y-79101500D01*
X164496513Y-79101500D01*
X164490061Y-79102872D01*
X164490056Y-79102872D01*
X164403113Y-79121353D01*
X164309712Y-79141206D01*
X164303682Y-79143891D01*
X164303681Y-79143891D01*
X164141278Y-79216197D01*
X164141276Y-79216198D01*
X164135248Y-79218882D01*
X163980747Y-79331134D01*
X163976326Y-79336044D01*
X163976325Y-79336045D01*
X163932747Y-79384444D01*
X163852960Y-79473056D01*
X163757473Y-79638444D01*
X163698458Y-79820072D01*
X163678496Y-80010000D01*
X149589724Y-80010000D01*
X149610542Y-79945928D01*
X149630504Y-79756000D01*
X149610542Y-79566072D01*
X149551527Y-79384444D01*
X149456040Y-79219056D01*
X149410744Y-79168749D01*
X149332675Y-79082045D01*
X149332674Y-79082044D01*
X149328253Y-79077134D01*
X149173752Y-78964882D01*
X149167724Y-78962198D01*
X149167722Y-78962197D01*
X149005319Y-78889891D01*
X149005318Y-78889891D01*
X148999288Y-78887206D01*
X148886721Y-78863279D01*
X148818944Y-78848872D01*
X148818939Y-78848872D01*
X148812487Y-78847500D01*
X148621513Y-78847500D01*
X148615061Y-78848872D01*
X148615056Y-78848872D01*
X148547279Y-78863279D01*
X148434712Y-78887206D01*
X148428682Y-78889891D01*
X148428681Y-78889891D01*
X148266278Y-78962197D01*
X148266276Y-78962198D01*
X148260248Y-78964882D01*
X148105747Y-79077134D01*
X148101326Y-79082044D01*
X148101325Y-79082045D01*
X148023257Y-79168749D01*
X147977960Y-79219056D01*
X147882473Y-79384444D01*
X147823458Y-79566072D01*
X147803496Y-79756000D01*
X127980198Y-79756000D01*
X128596194Y-79140004D01*
X128632917Y-79099123D01*
X128649820Y-79078149D01*
X128654034Y-79072306D01*
X128678362Y-79038570D01*
X128678365Y-79038565D01*
X128681982Y-79033549D01*
X128742698Y-78900600D01*
X128757887Y-78848872D01*
X128761431Y-78836802D01*
X128761432Y-78836798D01*
X128762700Y-78832479D01*
X128771130Y-78773852D01*
X128782861Y-78692257D01*
X128782861Y-78692252D01*
X128783500Y-78687810D01*
X128783500Y-78232000D01*
X144628496Y-78232000D01*
X144629186Y-78238565D01*
X144630546Y-78251500D01*
X144648458Y-78421928D01*
X144707473Y-78603556D01*
X144802960Y-78768944D01*
X144807378Y-78773851D01*
X144807379Y-78773852D01*
X144921503Y-78900600D01*
X144930747Y-78910866D01*
X145085248Y-79023118D01*
X145091276Y-79025802D01*
X145091278Y-79025803D01*
X145253681Y-79098109D01*
X145259712Y-79100794D01*
X145353113Y-79120647D01*
X145440056Y-79139128D01*
X145440061Y-79139128D01*
X145446513Y-79140500D01*
X145637487Y-79140500D01*
X145643939Y-79139128D01*
X145643944Y-79139128D01*
X145730887Y-79120647D01*
X145824288Y-79100794D01*
X145830319Y-79098109D01*
X145992722Y-79025803D01*
X145992724Y-79025802D01*
X145998752Y-79023118D01*
X146153253Y-78910866D01*
X146162497Y-78900600D01*
X146276621Y-78773852D01*
X146276622Y-78773851D01*
X146281040Y-78768944D01*
X146376527Y-78603556D01*
X146414724Y-78486000D01*
X159106496Y-78486000D01*
X159126458Y-78675928D01*
X159185473Y-78857556D01*
X159188776Y-78863278D01*
X159188777Y-78863279D01*
X159212687Y-78904692D01*
X159280960Y-79022944D01*
X159285378Y-79027851D01*
X159285379Y-79027852D01*
X159329430Y-79076776D01*
X159408747Y-79164866D01*
X159563248Y-79277118D01*
X159569276Y-79279802D01*
X159569278Y-79279803D01*
X159731681Y-79352109D01*
X159737712Y-79354794D01*
X159831113Y-79374647D01*
X159918056Y-79393128D01*
X159918061Y-79393128D01*
X159924513Y-79394500D01*
X160115487Y-79394500D01*
X160121939Y-79393128D01*
X160121944Y-79393128D01*
X160208887Y-79374647D01*
X160302288Y-79354794D01*
X160308319Y-79352109D01*
X160470722Y-79279803D01*
X160470724Y-79279802D01*
X160476752Y-79277118D01*
X160631253Y-79164866D01*
X160710570Y-79076776D01*
X160754621Y-79027852D01*
X160754622Y-79027851D01*
X160759040Y-79022944D01*
X160827313Y-78904692D01*
X160851223Y-78863279D01*
X160851224Y-78863278D01*
X160854527Y-78857556D01*
X160913542Y-78675928D01*
X160933504Y-78486000D01*
X160913542Y-78296072D01*
X160854527Y-78114444D01*
X160759040Y-77949056D01*
X160679254Y-77860444D01*
X160635675Y-77812045D01*
X160635674Y-77812044D01*
X160631253Y-77807134D01*
X160501411Y-77712798D01*
X160482094Y-77698763D01*
X160482093Y-77698762D01*
X160476752Y-77694882D01*
X160470724Y-77692198D01*
X160470722Y-77692197D01*
X160308319Y-77619891D01*
X160308318Y-77619891D01*
X160302288Y-77617206D01*
X160200222Y-77595511D01*
X160121944Y-77578872D01*
X160121939Y-77578872D01*
X160115487Y-77577500D01*
X159924513Y-77577500D01*
X159918061Y-77578872D01*
X159918056Y-77578872D01*
X159839778Y-77595511D01*
X159737712Y-77617206D01*
X159731682Y-77619891D01*
X159731681Y-77619891D01*
X159569278Y-77692197D01*
X159569276Y-77692198D01*
X159563248Y-77694882D01*
X159557907Y-77698762D01*
X159557906Y-77698763D01*
X159538589Y-77712798D01*
X159408747Y-77807134D01*
X159404326Y-77812044D01*
X159404325Y-77812045D01*
X159360747Y-77860444D01*
X159280960Y-77949056D01*
X159185473Y-78114444D01*
X159126458Y-78296072D01*
X159106496Y-78486000D01*
X146414724Y-78486000D01*
X146435542Y-78421928D01*
X146453455Y-78251500D01*
X146454814Y-78238565D01*
X146455504Y-78232000D01*
X146454814Y-78225435D01*
X146436232Y-78048635D01*
X146436232Y-78048633D01*
X146435542Y-78042072D01*
X146376527Y-77860444D01*
X146281040Y-77695056D01*
X146250824Y-77661497D01*
X146157675Y-77558045D01*
X146157674Y-77558044D01*
X146153253Y-77553134D01*
X145998752Y-77440882D01*
X145992724Y-77438198D01*
X145992722Y-77438197D01*
X145830319Y-77365891D01*
X145830318Y-77365891D01*
X145824288Y-77363206D01*
X145729227Y-77343000D01*
X167742496Y-77343000D01*
X167743186Y-77349565D01*
X167753192Y-77444763D01*
X167762458Y-77532928D01*
X167821473Y-77714556D01*
X167916960Y-77879944D01*
X168044747Y-78021866D01*
X168143843Y-78093864D01*
X168180820Y-78120729D01*
X168199248Y-78134118D01*
X168205276Y-78136802D01*
X168205278Y-78136803D01*
X168367681Y-78209109D01*
X168373712Y-78211794D01*
X168437888Y-78225435D01*
X168554056Y-78250128D01*
X168554061Y-78250128D01*
X168560513Y-78251500D01*
X168751487Y-78251500D01*
X168757939Y-78250128D01*
X168757944Y-78250128D01*
X168874112Y-78225435D01*
X168938288Y-78211794D01*
X168944319Y-78209109D01*
X169106722Y-78136803D01*
X169106724Y-78136802D01*
X169112752Y-78134118D01*
X169131181Y-78120729D01*
X169168157Y-78093864D01*
X169267253Y-78021866D01*
X169395040Y-77879944D01*
X169490527Y-77714556D01*
X169549542Y-77532928D01*
X169558809Y-77444763D01*
X169568814Y-77349565D01*
X169569504Y-77343000D01*
X169567599Y-77324872D01*
X169550232Y-77159635D01*
X169550232Y-77159633D01*
X169549542Y-77153072D01*
X169490527Y-76971444D01*
X169395040Y-76806056D01*
X169267253Y-76664134D01*
X169112752Y-76551882D01*
X169106724Y-76549198D01*
X169106722Y-76549197D01*
X168944319Y-76476891D01*
X168944318Y-76476891D01*
X168938288Y-76474206D01*
X168844888Y-76454353D01*
X168757944Y-76435872D01*
X168757939Y-76435872D01*
X168751487Y-76434500D01*
X168560513Y-76434500D01*
X168554061Y-76435872D01*
X168554056Y-76435872D01*
X168467112Y-76454353D01*
X168373712Y-76474206D01*
X168367682Y-76476891D01*
X168367681Y-76476891D01*
X168205278Y-76549197D01*
X168205276Y-76549198D01*
X168199248Y-76551882D01*
X168044747Y-76664134D01*
X167916960Y-76806056D01*
X167821473Y-76971444D01*
X167762458Y-77153072D01*
X167761768Y-77159633D01*
X167761768Y-77159635D01*
X167744401Y-77324872D01*
X167742496Y-77343000D01*
X145729227Y-77343000D01*
X145643944Y-77324872D01*
X145643939Y-77324872D01*
X145637487Y-77323500D01*
X145446513Y-77323500D01*
X145440061Y-77324872D01*
X145440056Y-77324872D01*
X145354773Y-77343000D01*
X145259712Y-77363206D01*
X145253682Y-77365891D01*
X145253681Y-77365891D01*
X145091278Y-77438197D01*
X145091276Y-77438198D01*
X145085248Y-77440882D01*
X144930747Y-77553134D01*
X144926326Y-77558044D01*
X144926325Y-77558045D01*
X144833177Y-77661497D01*
X144802960Y-77695056D01*
X144707473Y-77860444D01*
X144648458Y-78042072D01*
X144647768Y-78048633D01*
X144647768Y-78048635D01*
X144629186Y-78225435D01*
X144628496Y-78232000D01*
X128783500Y-78232000D01*
X128783500Y-76327000D01*
X164567496Y-76327000D01*
X164568186Y-76333565D01*
X164582824Y-76472834D01*
X164587458Y-76516928D01*
X164646473Y-76698556D01*
X164741960Y-76863944D01*
X164869747Y-77005866D01*
X165024248Y-77118118D01*
X165030276Y-77120802D01*
X165030278Y-77120803D01*
X165102756Y-77153072D01*
X165198712Y-77195794D01*
X165292113Y-77215647D01*
X165379056Y-77234128D01*
X165379061Y-77234128D01*
X165385513Y-77235500D01*
X165576487Y-77235500D01*
X165582939Y-77234128D01*
X165582944Y-77234128D01*
X165669887Y-77215647D01*
X165763288Y-77195794D01*
X165859244Y-77153072D01*
X165931722Y-77120803D01*
X165931724Y-77120802D01*
X165937752Y-77118118D01*
X166092253Y-77005866D01*
X166220040Y-76863944D01*
X166315527Y-76698556D01*
X166374542Y-76516928D01*
X166379177Y-76472834D01*
X166393814Y-76333565D01*
X166394504Y-76327000D01*
X166374542Y-76137072D01*
X166315527Y-75955444D01*
X166220040Y-75790056D01*
X166092253Y-75648134D01*
X165937752Y-75535882D01*
X165931724Y-75533198D01*
X165931722Y-75533197D01*
X165769319Y-75460891D01*
X165769318Y-75460891D01*
X165763288Y-75458206D01*
X165669888Y-75438353D01*
X165582944Y-75419872D01*
X165582939Y-75419872D01*
X165576487Y-75418500D01*
X165385513Y-75418500D01*
X165379061Y-75419872D01*
X165379056Y-75419872D01*
X165292112Y-75438353D01*
X165198712Y-75458206D01*
X165192682Y-75460891D01*
X165192681Y-75460891D01*
X165030278Y-75533197D01*
X165030276Y-75533198D01*
X165024248Y-75535882D01*
X164869747Y-75648134D01*
X164741960Y-75790056D01*
X164646473Y-75955444D01*
X164587458Y-76137072D01*
X164567496Y-76327000D01*
X128783500Y-76327000D01*
X128783500Y-74930000D01*
X174092496Y-74930000D01*
X174112458Y-75119928D01*
X174171473Y-75301556D01*
X174266960Y-75466944D01*
X174394747Y-75608866D01*
X174549248Y-75721118D01*
X174555276Y-75723802D01*
X174555278Y-75723803D01*
X174693062Y-75785148D01*
X174723712Y-75798794D01*
X174817112Y-75818647D01*
X174904056Y-75837128D01*
X174904061Y-75837128D01*
X174910513Y-75838500D01*
X175101487Y-75838500D01*
X175107939Y-75837128D01*
X175107944Y-75837128D01*
X175194888Y-75818647D01*
X175288288Y-75798794D01*
X175318938Y-75785148D01*
X175456722Y-75723803D01*
X175456724Y-75723802D01*
X175462752Y-75721118D01*
X175617253Y-75608866D01*
X175745040Y-75466944D01*
X175840527Y-75301556D01*
X175899542Y-75119928D01*
X175919504Y-74930000D01*
X175918814Y-74923435D01*
X175900232Y-74746635D01*
X175900232Y-74746633D01*
X175899542Y-74740072D01*
X175840527Y-74558444D01*
X175823405Y-74528787D01*
X175748341Y-74398774D01*
X175745040Y-74393056D01*
X175617253Y-74251134D01*
X175462752Y-74138882D01*
X175456724Y-74136198D01*
X175456722Y-74136197D01*
X175294319Y-74063891D01*
X175294318Y-74063891D01*
X175288288Y-74061206D01*
X175194887Y-74041353D01*
X175107944Y-74022872D01*
X175107939Y-74022872D01*
X175101487Y-74021500D01*
X174910513Y-74021500D01*
X174904061Y-74022872D01*
X174904056Y-74022872D01*
X174817113Y-74041353D01*
X174723712Y-74061206D01*
X174717682Y-74063891D01*
X174717681Y-74063891D01*
X174555278Y-74136197D01*
X174555276Y-74136198D01*
X174549248Y-74138882D01*
X174394747Y-74251134D01*
X174266960Y-74393056D01*
X174263659Y-74398774D01*
X174188596Y-74528787D01*
X174171473Y-74558444D01*
X174112458Y-74740072D01*
X174111768Y-74746633D01*
X174111768Y-74746635D01*
X174093186Y-74923435D01*
X174092496Y-74930000D01*
X128783500Y-74930000D01*
X128783500Y-71374000D01*
X137897496Y-71374000D01*
X137898186Y-71380565D01*
X137911379Y-71506085D01*
X137917458Y-71563928D01*
X137976473Y-71745556D01*
X138071960Y-71910944D01*
X138076378Y-71915851D01*
X138076379Y-71915852D01*
X138173870Y-72024127D01*
X138199747Y-72052866D01*
X138354248Y-72165118D01*
X138360276Y-72167802D01*
X138360278Y-72167803D01*
X138444274Y-72205200D01*
X138528712Y-72242794D01*
X138622113Y-72262647D01*
X138709056Y-72281128D01*
X138709061Y-72281128D01*
X138715513Y-72282500D01*
X138906487Y-72282500D01*
X138912939Y-72281128D01*
X138912944Y-72281128D01*
X138999887Y-72262647D01*
X139093288Y-72242794D01*
X139177726Y-72205200D01*
X139261722Y-72167803D01*
X139261724Y-72167802D01*
X139267752Y-72165118D01*
X139422253Y-72052866D01*
X139448130Y-72024127D01*
X139545621Y-71915852D01*
X139545622Y-71915851D01*
X139550040Y-71910944D01*
X139645527Y-71745556D01*
X139683724Y-71628000D01*
X151867496Y-71628000D01*
X151868186Y-71634565D01*
X151882824Y-71773834D01*
X151887458Y-71817928D01*
X151946473Y-71999556D01*
X152041960Y-72164944D01*
X152046378Y-72169851D01*
X152046379Y-72169852D01*
X152109639Y-72240109D01*
X152169747Y-72306866D01*
X152324248Y-72419118D01*
X152330276Y-72421802D01*
X152330278Y-72421803D01*
X152402756Y-72454072D01*
X152498712Y-72496794D01*
X152592112Y-72516647D01*
X152679056Y-72535128D01*
X152679061Y-72535128D01*
X152685513Y-72536500D01*
X152876487Y-72536500D01*
X152882939Y-72535128D01*
X152882944Y-72535128D01*
X152969888Y-72516647D01*
X153063288Y-72496794D01*
X153159244Y-72454072D01*
X153231722Y-72421803D01*
X153231724Y-72421802D01*
X153237752Y-72419118D01*
X153392253Y-72306866D01*
X153452361Y-72240109D01*
X153515621Y-72169852D01*
X153515622Y-72169851D01*
X153520040Y-72164944D01*
X153615527Y-71999556D01*
X153671295Y-71827921D01*
X154715575Y-71827921D01*
X154716265Y-71834486D01*
X154730513Y-71970045D01*
X154735537Y-72017849D01*
X154794552Y-72199477D01*
X154890039Y-72364865D01*
X154894457Y-72369772D01*
X154894458Y-72369773D01*
X155006411Y-72494109D01*
X155017826Y-72506787D01*
X155172327Y-72619039D01*
X155178355Y-72621723D01*
X155178357Y-72621724D01*
X155340760Y-72694030D01*
X155346791Y-72696715D01*
X155440191Y-72716568D01*
X155527135Y-72735049D01*
X155527140Y-72735049D01*
X155533592Y-72736421D01*
X155724566Y-72736421D01*
X155731018Y-72735049D01*
X155731023Y-72735049D01*
X155817967Y-72716568D01*
X155911367Y-72696715D01*
X155917398Y-72694030D01*
X156029768Y-72644000D01*
X166472496Y-72644000D01*
X166473186Y-72650565D01*
X166482066Y-72735049D01*
X166492458Y-72833928D01*
X166551473Y-73015556D01*
X166646960Y-73180944D01*
X166774747Y-73322866D01*
X166929248Y-73435118D01*
X166935276Y-73437802D01*
X166935278Y-73437803D01*
X167097681Y-73510109D01*
X167103712Y-73512794D01*
X167197112Y-73532647D01*
X167284056Y-73551128D01*
X167284061Y-73551128D01*
X167290513Y-73552500D01*
X167481487Y-73552500D01*
X167487939Y-73551128D01*
X167487944Y-73551128D01*
X167574888Y-73532647D01*
X167668288Y-73512794D01*
X167674319Y-73510109D01*
X167836722Y-73437803D01*
X167836724Y-73437802D01*
X167842752Y-73435118D01*
X167997253Y-73322866D01*
X168125040Y-73180944D01*
X168220527Y-73015556D01*
X168279542Y-72833928D01*
X168289935Y-72735049D01*
X168298814Y-72650565D01*
X168299504Y-72644000D01*
X168296473Y-72615158D01*
X168280232Y-72460635D01*
X168280232Y-72460633D01*
X168279542Y-72454072D01*
X168220527Y-72272444D01*
X168125040Y-72107056D01*
X168079744Y-72056749D01*
X168001675Y-71970045D01*
X168001674Y-71970044D01*
X167997253Y-71965134D01*
X167842752Y-71852882D01*
X167836724Y-71850198D01*
X167836722Y-71850197D01*
X167674319Y-71777891D01*
X167674318Y-71777891D01*
X167668288Y-71775206D01*
X167555721Y-71751279D01*
X167487944Y-71736872D01*
X167487939Y-71736872D01*
X167481487Y-71735500D01*
X167290513Y-71735500D01*
X167284061Y-71736872D01*
X167284056Y-71736872D01*
X167216279Y-71751279D01*
X167103712Y-71775206D01*
X167097682Y-71777891D01*
X167097681Y-71777891D01*
X166935278Y-71850197D01*
X166935276Y-71850198D01*
X166929248Y-71852882D01*
X166774747Y-71965134D01*
X166770326Y-71970044D01*
X166770325Y-71970045D01*
X166692257Y-72056749D01*
X166646960Y-72107056D01*
X166551473Y-72272444D01*
X166492458Y-72454072D01*
X166491768Y-72460633D01*
X166491768Y-72460635D01*
X166475527Y-72615158D01*
X166472496Y-72644000D01*
X156029768Y-72644000D01*
X156079801Y-72621724D01*
X156079803Y-72621723D01*
X156085831Y-72619039D01*
X156240332Y-72506787D01*
X156251747Y-72494109D01*
X156363700Y-72369773D01*
X156363701Y-72369772D01*
X156368119Y-72364865D01*
X156463606Y-72199477D01*
X156522621Y-72017849D01*
X156527646Y-71970045D01*
X156541893Y-71834486D01*
X156542583Y-71827921D01*
X156537325Y-71777891D01*
X156523311Y-71644556D01*
X156523311Y-71644554D01*
X156522621Y-71637993D01*
X156463606Y-71456365D01*
X156368119Y-71290977D01*
X156357285Y-71278944D01*
X156244754Y-71153966D01*
X156244753Y-71153965D01*
X156240332Y-71149055D01*
X156085831Y-71036803D01*
X156079803Y-71034119D01*
X156079801Y-71034118D01*
X155917398Y-70961812D01*
X155917397Y-70961812D01*
X155911367Y-70959127D01*
X155817966Y-70939274D01*
X155731023Y-70920793D01*
X155731018Y-70920793D01*
X155724566Y-70919421D01*
X155533592Y-70919421D01*
X155527140Y-70920793D01*
X155527135Y-70920793D01*
X155440192Y-70939274D01*
X155346791Y-70959127D01*
X155340761Y-70961812D01*
X155340760Y-70961812D01*
X155178357Y-71034118D01*
X155178355Y-71034119D01*
X155172327Y-71036803D01*
X155017826Y-71149055D01*
X155013405Y-71153965D01*
X155013404Y-71153966D01*
X154900874Y-71278944D01*
X154890039Y-71290977D01*
X154794552Y-71456365D01*
X154735537Y-71637993D01*
X154734847Y-71644554D01*
X154734847Y-71644556D01*
X154720833Y-71777891D01*
X154715575Y-71827921D01*
X153671295Y-71827921D01*
X153674542Y-71817928D01*
X153679177Y-71773834D01*
X153693814Y-71634565D01*
X153694504Y-71628000D01*
X153681856Y-71507662D01*
X153675232Y-71444635D01*
X153675232Y-71444633D01*
X153674542Y-71438072D01*
X153615527Y-71256444D01*
X153611679Y-71249778D01*
X153553526Y-71149055D01*
X153520040Y-71091056D01*
X153471191Y-71036803D01*
X153396675Y-70954045D01*
X153396674Y-70954044D01*
X153392253Y-70949134D01*
X153237752Y-70836882D01*
X153231724Y-70834198D01*
X153231722Y-70834197D01*
X153069319Y-70761891D01*
X153069318Y-70761891D01*
X153063288Y-70759206D01*
X152969888Y-70739353D01*
X152882944Y-70720872D01*
X152882939Y-70720872D01*
X152876487Y-70719500D01*
X152685513Y-70719500D01*
X152679061Y-70720872D01*
X152679056Y-70720872D01*
X152592112Y-70739353D01*
X152498712Y-70759206D01*
X152492682Y-70761891D01*
X152492681Y-70761891D01*
X152330278Y-70834197D01*
X152330276Y-70834198D01*
X152324248Y-70836882D01*
X152169747Y-70949134D01*
X152165326Y-70954044D01*
X152165325Y-70954045D01*
X152090810Y-71036803D01*
X152041960Y-71091056D01*
X152008474Y-71149055D01*
X151950322Y-71249778D01*
X151946473Y-71256444D01*
X151887458Y-71438072D01*
X151886768Y-71444633D01*
X151886768Y-71444635D01*
X151880144Y-71507662D01*
X151867496Y-71628000D01*
X139683724Y-71628000D01*
X139704542Y-71563928D01*
X139710622Y-71506085D01*
X139723814Y-71380565D01*
X139724504Y-71374000D01*
X139704542Y-71184072D01*
X139645527Y-71002444D01*
X139550040Y-70837056D01*
X139422253Y-70695134D01*
X139294831Y-70602556D01*
X139273094Y-70586763D01*
X139273093Y-70586762D01*
X139267752Y-70582882D01*
X139261724Y-70580198D01*
X139261722Y-70580197D01*
X139099319Y-70507891D01*
X139099318Y-70507891D01*
X139093288Y-70505206D01*
X138999888Y-70485353D01*
X138912944Y-70466872D01*
X138912939Y-70466872D01*
X138906487Y-70465500D01*
X138715513Y-70465500D01*
X138709061Y-70466872D01*
X138709056Y-70466872D01*
X138622112Y-70485353D01*
X138528712Y-70505206D01*
X138522682Y-70507891D01*
X138522681Y-70507891D01*
X138360278Y-70580197D01*
X138360276Y-70580198D01*
X138354248Y-70582882D01*
X138348907Y-70586762D01*
X138348906Y-70586763D01*
X138327169Y-70602556D01*
X138199747Y-70695134D01*
X138071960Y-70837056D01*
X137976473Y-71002444D01*
X137917458Y-71184072D01*
X137897496Y-71374000D01*
X128783500Y-71374000D01*
X128783500Y-69850000D01*
X144501496Y-69850000D01*
X144502186Y-69856565D01*
X144519863Y-70024749D01*
X144521458Y-70039928D01*
X144580473Y-70221556D01*
X144583776Y-70227278D01*
X144583777Y-70227279D01*
X144586719Y-70232375D01*
X144675960Y-70386944D01*
X144680378Y-70391851D01*
X144680379Y-70391852D01*
X144781208Y-70503834D01*
X144803747Y-70528866D01*
X144958248Y-70641118D01*
X144964276Y-70643802D01*
X144964278Y-70643803D01*
X145126681Y-70716109D01*
X145132712Y-70718794D01*
X145226113Y-70738647D01*
X145313056Y-70757128D01*
X145313061Y-70757128D01*
X145319513Y-70758500D01*
X145510487Y-70758500D01*
X145516939Y-70757128D01*
X145516944Y-70757128D01*
X145603887Y-70738647D01*
X145697288Y-70718794D01*
X145703319Y-70716109D01*
X145865722Y-70643803D01*
X145865724Y-70643802D01*
X145871752Y-70641118D01*
X146026253Y-70528866D01*
X146048792Y-70503834D01*
X146149621Y-70391852D01*
X146149622Y-70391851D01*
X146154040Y-70386944D01*
X146243281Y-70232375D01*
X146246223Y-70227279D01*
X146246224Y-70227278D01*
X146249527Y-70221556D01*
X146308542Y-70039928D01*
X146310138Y-70024749D01*
X146327814Y-69856565D01*
X146328504Y-69850000D01*
X146311042Y-69683856D01*
X146309232Y-69666635D01*
X146309232Y-69666633D01*
X146308542Y-69660072D01*
X146249527Y-69478444D01*
X146170751Y-69342000D01*
X154280496Y-69342000D01*
X154281186Y-69348565D01*
X154291192Y-69443763D01*
X154300458Y-69531928D01*
X154359473Y-69713556D01*
X154454960Y-69878944D01*
X154459378Y-69883851D01*
X154459379Y-69883852D01*
X154536241Y-69969216D01*
X154582747Y-70020866D01*
X154737248Y-70133118D01*
X154743276Y-70135802D01*
X154743278Y-70135803D01*
X154905681Y-70208109D01*
X154911712Y-70210794D01*
X154997477Y-70229024D01*
X155092056Y-70249128D01*
X155092061Y-70249128D01*
X155098513Y-70250500D01*
X155289487Y-70250500D01*
X155295939Y-70249128D01*
X155295944Y-70249128D01*
X155381227Y-70231000D01*
X169012496Y-70231000D01*
X169013186Y-70237565D01*
X169014546Y-70250500D01*
X169032458Y-70420928D01*
X169091473Y-70602556D01*
X169186960Y-70767944D01*
X169314747Y-70909866D01*
X169329787Y-70920793D01*
X169450820Y-71008729D01*
X169469248Y-71022118D01*
X169475276Y-71024802D01*
X169475278Y-71024803D01*
X169502231Y-71036803D01*
X169643712Y-71099794D01*
X169737112Y-71119647D01*
X169824056Y-71138128D01*
X169824061Y-71138128D01*
X169830513Y-71139500D01*
X170021487Y-71139500D01*
X170027939Y-71138128D01*
X170027944Y-71138128D01*
X170114888Y-71119647D01*
X170208288Y-71099794D01*
X170349769Y-71036803D01*
X170376722Y-71024803D01*
X170376724Y-71024802D01*
X170382752Y-71022118D01*
X170401181Y-71008729D01*
X170522213Y-70920793D01*
X170537253Y-70909866D01*
X170665040Y-70767944D01*
X170760527Y-70602556D01*
X170819542Y-70420928D01*
X170837455Y-70250500D01*
X170838814Y-70237565D01*
X170839504Y-70231000D01*
X170837851Y-70215271D01*
X170820232Y-70047635D01*
X170820232Y-70047633D01*
X170819542Y-70041072D01*
X170760527Y-69859444D01*
X170755075Y-69850000D01*
X170723314Y-69794990D01*
X170665040Y-69694056D01*
X170652624Y-69680266D01*
X170541675Y-69557045D01*
X170541674Y-69557044D01*
X170537253Y-69552134D01*
X170382752Y-69439882D01*
X170376724Y-69437198D01*
X170376722Y-69437197D01*
X170214319Y-69364891D01*
X170214318Y-69364891D01*
X170208288Y-69362206D01*
X170113227Y-69342000D01*
X170027944Y-69323872D01*
X170027939Y-69323872D01*
X170021487Y-69322500D01*
X169830513Y-69322500D01*
X169824061Y-69323872D01*
X169824056Y-69323872D01*
X169738773Y-69342000D01*
X169643712Y-69362206D01*
X169637682Y-69364891D01*
X169637681Y-69364891D01*
X169475278Y-69437197D01*
X169475276Y-69437198D01*
X169469248Y-69439882D01*
X169314747Y-69552134D01*
X169310326Y-69557044D01*
X169310325Y-69557045D01*
X169199377Y-69680266D01*
X169186960Y-69694056D01*
X169128686Y-69794990D01*
X169096926Y-69850000D01*
X169091473Y-69859444D01*
X169032458Y-70041072D01*
X169031768Y-70047633D01*
X169031768Y-70047635D01*
X169014149Y-70215271D01*
X169012496Y-70231000D01*
X155381227Y-70231000D01*
X155390523Y-70229024D01*
X155476288Y-70210794D01*
X155482319Y-70208109D01*
X155644722Y-70135803D01*
X155644724Y-70135802D01*
X155650752Y-70133118D01*
X155805253Y-70020866D01*
X155851759Y-69969216D01*
X155928621Y-69883852D01*
X155928622Y-69883851D01*
X155933040Y-69878944D01*
X156028527Y-69713556D01*
X156087542Y-69531928D01*
X156096809Y-69443763D01*
X156106814Y-69348565D01*
X156107504Y-69342000D01*
X156105599Y-69323872D01*
X156088232Y-69158635D01*
X156088232Y-69158633D01*
X156087542Y-69152072D01*
X156028527Y-68970444D01*
X155933040Y-68805056D01*
X155887970Y-68755000D01*
X155809675Y-68668045D01*
X155809674Y-68668044D01*
X155805253Y-68663134D01*
X155687124Y-68577308D01*
X155656094Y-68554763D01*
X155656093Y-68554762D01*
X155650752Y-68550882D01*
X155644724Y-68548198D01*
X155644722Y-68548197D01*
X155482319Y-68475891D01*
X155482318Y-68475891D01*
X155476288Y-68473206D01*
X155382888Y-68453353D01*
X155295944Y-68434872D01*
X155295939Y-68434872D01*
X155289487Y-68433500D01*
X155098513Y-68433500D01*
X155092061Y-68434872D01*
X155092056Y-68434872D01*
X155005112Y-68453353D01*
X154911712Y-68473206D01*
X154905682Y-68475891D01*
X154905681Y-68475891D01*
X154743278Y-68548197D01*
X154743276Y-68548198D01*
X154737248Y-68550882D01*
X154731907Y-68554762D01*
X154731906Y-68554763D01*
X154700876Y-68577308D01*
X154582747Y-68663134D01*
X154578326Y-68668044D01*
X154578325Y-68668045D01*
X154500031Y-68755000D01*
X154454960Y-68805056D01*
X154359473Y-68970444D01*
X154300458Y-69152072D01*
X154299768Y-69158633D01*
X154299768Y-69158635D01*
X154282401Y-69323872D01*
X154280496Y-69342000D01*
X146170751Y-69342000D01*
X146154040Y-69313056D01*
X146026253Y-69171134D01*
X145871752Y-69058882D01*
X145865724Y-69056198D01*
X145865722Y-69056197D01*
X145703319Y-68983891D01*
X145703318Y-68983891D01*
X145697288Y-68981206D01*
X145603888Y-68961353D01*
X145516944Y-68942872D01*
X145516939Y-68942872D01*
X145510487Y-68941500D01*
X145319513Y-68941500D01*
X145313061Y-68942872D01*
X145313056Y-68942872D01*
X145226112Y-68961353D01*
X145132712Y-68981206D01*
X145126682Y-68983891D01*
X145126681Y-68983891D01*
X144964278Y-69056197D01*
X144964276Y-69056198D01*
X144958248Y-69058882D01*
X144803747Y-69171134D01*
X144675960Y-69313056D01*
X144580473Y-69478444D01*
X144521458Y-69660072D01*
X144520768Y-69666633D01*
X144520768Y-69666635D01*
X144518958Y-69683856D01*
X144501496Y-69850000D01*
X128783500Y-69850000D01*
X128783500Y-68632190D01*
X128780559Y-68577308D01*
X128777680Y-68550525D01*
X128777303Y-68548197D01*
X128769875Y-68502360D01*
X128769874Y-68502355D01*
X128768884Y-68496248D01*
X128747897Y-68439980D01*
X128719378Y-68363521D01*
X128719377Y-68363519D01*
X128717806Y-68359307D01*
X128683780Y-68296995D01*
X128603351Y-68189556D01*
X128598891Y-68183598D01*
X128598887Y-68183594D01*
X128596194Y-68179996D01*
X128234198Y-67818000D01*
X147676496Y-67818000D01*
X147696458Y-68007928D01*
X147755473Y-68189556D01*
X147850960Y-68354944D01*
X147978747Y-68496866D01*
X148133248Y-68609118D01*
X148139276Y-68611802D01*
X148139278Y-68611803D01*
X148301681Y-68684109D01*
X148307712Y-68686794D01*
X148401112Y-68706647D01*
X148488056Y-68725128D01*
X148488061Y-68725128D01*
X148494513Y-68726500D01*
X148685487Y-68726500D01*
X148691939Y-68725128D01*
X148691944Y-68725128D01*
X148778888Y-68706647D01*
X148872288Y-68686794D01*
X148878319Y-68684109D01*
X149040722Y-68611803D01*
X149040724Y-68611802D01*
X149046752Y-68609118D01*
X149201253Y-68496866D01*
X149329040Y-68354944D01*
X149424527Y-68189556D01*
X149483542Y-68007928D01*
X149503504Y-67818000D01*
X152756496Y-67818000D01*
X152776458Y-68007928D01*
X152835473Y-68189556D01*
X152930960Y-68354944D01*
X153058747Y-68496866D01*
X153213248Y-68609118D01*
X153219276Y-68611802D01*
X153219278Y-68611803D01*
X153381681Y-68684109D01*
X153387712Y-68686794D01*
X153481112Y-68706647D01*
X153568056Y-68725128D01*
X153568061Y-68725128D01*
X153574513Y-68726500D01*
X153765487Y-68726500D01*
X153771939Y-68725128D01*
X153771944Y-68725128D01*
X153858888Y-68706647D01*
X153952288Y-68686794D01*
X153958319Y-68684109D01*
X154120722Y-68611803D01*
X154120724Y-68611802D01*
X154126752Y-68609118D01*
X154281253Y-68496866D01*
X154409040Y-68354944D01*
X154504527Y-68189556D01*
X154563542Y-68007928D01*
X154583504Y-67818000D01*
X154563542Y-67628072D01*
X154504527Y-67446444D01*
X154409040Y-67281056D01*
X154281253Y-67139134D01*
X154141325Y-67037470D01*
X154132094Y-67030763D01*
X154132093Y-67030762D01*
X154126752Y-67026882D01*
X154120724Y-67024198D01*
X154120722Y-67024197D01*
X153958319Y-66951891D01*
X153958318Y-66951891D01*
X153952288Y-66949206D01*
X153858888Y-66929353D01*
X153771944Y-66910872D01*
X153771939Y-66910872D01*
X153765487Y-66909500D01*
X153574513Y-66909500D01*
X153568061Y-66910872D01*
X153568056Y-66910872D01*
X153481112Y-66929353D01*
X153387712Y-66949206D01*
X153381682Y-66951891D01*
X153381681Y-66951891D01*
X153219278Y-67024197D01*
X153219276Y-67024198D01*
X153213248Y-67026882D01*
X153207907Y-67030762D01*
X153207906Y-67030763D01*
X153198675Y-67037470D01*
X153058747Y-67139134D01*
X152930960Y-67281056D01*
X152835473Y-67446444D01*
X152776458Y-67628072D01*
X152756496Y-67818000D01*
X149503504Y-67818000D01*
X149483542Y-67628072D01*
X149424527Y-67446444D01*
X149329040Y-67281056D01*
X149201253Y-67139134D01*
X149061325Y-67037470D01*
X149052094Y-67030763D01*
X149052093Y-67030762D01*
X149046752Y-67026882D01*
X149040724Y-67024198D01*
X149040722Y-67024197D01*
X148878319Y-66951891D01*
X148878318Y-66951891D01*
X148872288Y-66949206D01*
X148778888Y-66929353D01*
X148691944Y-66910872D01*
X148691939Y-66910872D01*
X148685487Y-66909500D01*
X148494513Y-66909500D01*
X148488061Y-66910872D01*
X148488056Y-66910872D01*
X148401112Y-66929353D01*
X148307712Y-66949206D01*
X148301682Y-66951891D01*
X148301681Y-66951891D01*
X148139278Y-67024197D01*
X148139276Y-67024198D01*
X148133248Y-67026882D01*
X148127907Y-67030762D01*
X148127906Y-67030763D01*
X148118675Y-67037470D01*
X147978747Y-67139134D01*
X147850960Y-67281056D01*
X147755473Y-67446444D01*
X147696458Y-67628072D01*
X147676496Y-67818000D01*
X128234198Y-67818000D01*
X126130004Y-65713806D01*
X126089123Y-65677083D01*
X126068149Y-65660180D01*
X126062306Y-65655966D01*
X126028570Y-65631638D01*
X126028565Y-65631635D01*
X126023549Y-65628018D01*
X125890600Y-65567302D01*
X125866846Y-65560327D01*
X125826802Y-65548569D01*
X125826798Y-65548568D01*
X125822479Y-65547300D01*
X125818030Y-65546660D01*
X125818024Y-65546659D01*
X125682257Y-65527139D01*
X125682252Y-65527139D01*
X125677810Y-65526500D01*
X111812190Y-65526500D01*
X111785615Y-65527924D01*
X111759001Y-65529350D01*
X111758991Y-65529351D01*
X111757308Y-65529441D01*
X111730525Y-65532320D01*
X111728868Y-65532588D01*
X111728857Y-65532590D01*
X111682360Y-65540125D01*
X111682355Y-65540126D01*
X111676248Y-65541116D01*
X111670451Y-65543278D01*
X111670448Y-65543279D01*
X111543521Y-65590622D01*
X111543519Y-65590623D01*
X111539307Y-65592194D01*
X111476995Y-65626220D01*
X111473395Y-65628915D01*
X111363598Y-65711109D01*
X111363594Y-65711113D01*
X111359996Y-65713806D01*
X106504207Y-70569595D01*
X106441895Y-70603621D01*
X106415112Y-70606500D01*
X104595878Y-70606500D01*
X104527757Y-70586498D01*
X104481264Y-70532842D01*
X104471160Y-70462568D01*
X104498793Y-70400184D01*
X104635092Y-70235427D01*
X104637617Y-70232375D01*
X104806747Y-69965869D01*
X104808431Y-69962290D01*
X104808435Y-69962283D01*
X104939452Y-69683856D01*
X104939454Y-69683852D01*
X104941141Y-69680266D01*
X105038680Y-69380072D01*
X105097826Y-69070020D01*
X105117645Y-68755000D01*
X105097826Y-68439980D01*
X105038680Y-68129928D01*
X104941141Y-67829734D01*
X104938709Y-67824565D01*
X104808435Y-67547717D01*
X104808431Y-67547710D01*
X104806747Y-67544131D01*
X104637617Y-67277625D01*
X104436418Y-67034418D01*
X104206325Y-66818346D01*
X103950964Y-66632816D01*
X103674364Y-66480753D01*
X103670695Y-66479300D01*
X103670690Y-66479298D01*
X103384557Y-66366010D01*
X103384556Y-66366010D01*
X103380887Y-66364557D01*
X103075160Y-66286060D01*
X102762006Y-66246500D01*
X102446364Y-66246500D01*
X102133210Y-66286060D01*
X101827483Y-66364557D01*
X101823814Y-66366010D01*
X101823813Y-66366010D01*
X101537680Y-66479298D01*
X101537675Y-66479300D01*
X101534006Y-66480753D01*
X101257406Y-66632816D01*
X101002045Y-66818346D01*
X100771952Y-67034418D01*
X100570753Y-67277625D01*
X100401623Y-67544131D01*
X100399939Y-67547710D01*
X100399935Y-67547717D01*
X100269661Y-67824565D01*
X100267229Y-67829734D01*
X100169690Y-68129928D01*
X100110544Y-68439980D01*
X100090725Y-68755000D01*
X100110544Y-69070020D01*
X100169690Y-69380072D01*
X100267229Y-69680266D01*
X100268916Y-69683852D01*
X100268918Y-69683856D01*
X100399935Y-69962283D01*
X100399939Y-69962290D01*
X100401623Y-69965869D01*
X100570753Y-70232375D01*
X100771952Y-70475582D01*
X101002045Y-70691654D01*
X101005247Y-70693981D01*
X101005249Y-70693982D01*
X101042260Y-70720872D01*
X101257406Y-70877184D01*
X101260875Y-70879091D01*
X101260878Y-70879093D01*
X101397215Y-70954045D01*
X101534006Y-71029247D01*
X101537675Y-71030700D01*
X101537680Y-71030702D01*
X101677721Y-71086148D01*
X101827483Y-71145443D01*
X101831309Y-71146425D01*
X101831314Y-71146427D01*
X101844969Y-71149933D01*
X101905976Y-71186246D01*
X101937666Y-71249778D01*
X101929978Y-71320357D01*
X101902732Y-71361070D01*
X98733806Y-74529996D01*
X98697083Y-74570877D01*
X98680180Y-74591851D01*
X98679190Y-74593224D01*
X98651638Y-74631430D01*
X98651635Y-74631435D01*
X98648018Y-74636451D01*
X98587302Y-74769400D01*
X98567300Y-74837521D01*
X98566660Y-74841970D01*
X98566659Y-74841976D01*
X98547139Y-74977743D01*
X98546500Y-74982190D01*
X98546500Y-87577810D01*
X94488500Y-87577810D01*
X94488500Y-62865487D01*
X160421500Y-62865487D01*
X160461206Y-63052288D01*
X160538882Y-63226752D01*
X160651134Y-63381253D01*
X160793056Y-63509040D01*
X160958444Y-63604527D01*
X161140072Y-63663542D01*
X161146633Y-63664232D01*
X161146635Y-63664232D01*
X161199889Y-63669829D01*
X161282390Y-63678500D01*
X161377610Y-63678500D01*
X161460111Y-63669829D01*
X161513365Y-63664232D01*
X161513367Y-63664232D01*
X161519928Y-63663542D01*
X161701556Y-63604527D01*
X161866944Y-63509040D01*
X162008866Y-63381253D01*
X162121118Y-63226752D01*
X162198794Y-63052288D01*
X162238500Y-62865487D01*
X165421500Y-62865487D01*
X165461206Y-63052288D01*
X165538882Y-63226752D01*
X165651134Y-63381253D01*
X165793056Y-63509040D01*
X165958444Y-63604527D01*
X166140072Y-63663542D01*
X166146633Y-63664232D01*
X166146635Y-63664232D01*
X166199889Y-63669829D01*
X166282390Y-63678500D01*
X166377610Y-63678500D01*
X166460111Y-63669829D01*
X166513365Y-63664232D01*
X166513367Y-63664232D01*
X166519928Y-63663542D01*
X166701556Y-63604527D01*
X166866944Y-63509040D01*
X167008866Y-63381253D01*
X167121118Y-63226752D01*
X167198794Y-63052288D01*
X167238500Y-62865487D01*
X167238500Y-62674513D01*
X167198794Y-62487712D01*
X167147514Y-62372534D01*
X167123803Y-62319278D01*
X167123802Y-62319276D01*
X167121118Y-62313248D01*
X167008866Y-62158747D01*
X167003955Y-62154325D01*
X166871852Y-62035379D01*
X166871851Y-62035378D01*
X166866944Y-62030960D01*
X166765619Y-61972460D01*
X166707279Y-61938777D01*
X166707278Y-61938776D01*
X166701556Y-61935473D01*
X166519928Y-61876458D01*
X166513367Y-61875768D01*
X166513365Y-61875768D01*
X166460111Y-61870171D01*
X166377610Y-61861500D01*
X166282390Y-61861500D01*
X166199889Y-61870171D01*
X166146635Y-61875768D01*
X166146633Y-61875768D01*
X166140072Y-61876458D01*
X165958444Y-61935473D01*
X165952722Y-61938776D01*
X165952721Y-61938777D01*
X165894381Y-61972460D01*
X165793056Y-62030960D01*
X165788149Y-62035378D01*
X165788148Y-62035379D01*
X165656045Y-62154325D01*
X165651134Y-62158747D01*
X165538882Y-62313248D01*
X165536198Y-62319276D01*
X165536197Y-62319278D01*
X165512486Y-62372534D01*
X165461206Y-62487712D01*
X165421500Y-62674513D01*
X165421500Y-62865487D01*
X162238500Y-62865487D01*
X162238500Y-62674513D01*
X162198794Y-62487712D01*
X162147514Y-62372534D01*
X162123803Y-62319278D01*
X162123802Y-62319276D01*
X162121118Y-62313248D01*
X162008866Y-62158747D01*
X162003955Y-62154325D01*
X161871852Y-62035379D01*
X161871851Y-62035378D01*
X161866944Y-62030960D01*
X161765619Y-61972460D01*
X161707279Y-61938777D01*
X161707278Y-61938776D01*
X161701556Y-61935473D01*
X161519928Y-61876458D01*
X161513367Y-61875768D01*
X161513365Y-61875768D01*
X161460111Y-61870171D01*
X161377610Y-61861500D01*
X161282390Y-61861500D01*
X161199889Y-61870171D01*
X161146635Y-61875768D01*
X161146633Y-61875768D01*
X161140072Y-61876458D01*
X160958444Y-61935473D01*
X160952722Y-61938776D01*
X160952721Y-61938777D01*
X160894381Y-61972460D01*
X160793056Y-62030960D01*
X160788149Y-62035378D01*
X160788148Y-62035379D01*
X160656045Y-62154325D01*
X160651134Y-62158747D01*
X160538882Y-62313248D01*
X160536198Y-62319276D01*
X160536197Y-62319278D01*
X160512486Y-62372534D01*
X160461206Y-62487712D01*
X160421500Y-62674513D01*
X160421500Y-62865487D01*
X94488500Y-62865487D01*
X94488500Y-60986695D01*
X146017251Y-60986695D01*
X146030110Y-61209715D01*
X146031247Y-61214761D01*
X146031248Y-61214767D01*
X146055304Y-61321508D01*
X146079222Y-61427639D01*
X146163266Y-61634616D01*
X146200685Y-61695678D01*
X146277291Y-61820688D01*
X146279987Y-61825088D01*
X146426250Y-61993938D01*
X146598126Y-62136632D01*
X146791000Y-62249338D01*
X146999692Y-62329030D01*
X147004760Y-62330061D01*
X147004763Y-62330062D01*
X147112017Y-62351883D01*
X147218597Y-62373567D01*
X147223772Y-62373757D01*
X147223774Y-62373757D01*
X147436673Y-62381564D01*
X147436677Y-62381564D01*
X147441837Y-62381753D01*
X147446957Y-62381097D01*
X147446959Y-62381097D01*
X147658288Y-62354025D01*
X147658289Y-62354025D01*
X147663416Y-62353368D01*
X147668366Y-62351883D01*
X147872429Y-62290661D01*
X147872434Y-62290659D01*
X147877384Y-62289174D01*
X148077994Y-62190896D01*
X148259860Y-62061173D01*
X148418096Y-61903489D01*
X148438016Y-61875768D01*
X148548453Y-61722077D01*
X148549776Y-61723028D01*
X148596645Y-61679857D01*
X148666580Y-61667625D01*
X148732026Y-61695144D01*
X148759875Y-61726994D01*
X148819987Y-61825088D01*
X148966250Y-61993938D01*
X149138126Y-62136632D01*
X149331000Y-62249338D01*
X149539692Y-62329030D01*
X149544760Y-62330061D01*
X149544763Y-62330062D01*
X149652017Y-62351883D01*
X149758597Y-62373567D01*
X149763772Y-62373757D01*
X149763774Y-62373757D01*
X149976673Y-62381564D01*
X149976677Y-62381564D01*
X149981837Y-62381753D01*
X149986957Y-62381097D01*
X149986959Y-62381097D01*
X150198288Y-62354025D01*
X150198289Y-62354025D01*
X150203416Y-62353368D01*
X150208366Y-62351883D01*
X150412429Y-62290661D01*
X150412434Y-62290659D01*
X150417384Y-62289174D01*
X150617994Y-62190896D01*
X150799860Y-62061173D01*
X150958096Y-61903489D01*
X150978016Y-61875768D01*
X151088453Y-61722077D01*
X151089776Y-61723028D01*
X151136645Y-61679857D01*
X151206580Y-61667625D01*
X151272026Y-61695144D01*
X151299875Y-61726994D01*
X151359987Y-61825088D01*
X151506250Y-61993938D01*
X151678126Y-62136632D01*
X151871000Y-62249338D01*
X152079692Y-62329030D01*
X152084760Y-62330061D01*
X152084763Y-62330062D01*
X152192017Y-62351883D01*
X152298597Y-62373567D01*
X152303772Y-62373757D01*
X152303774Y-62373757D01*
X152516673Y-62381564D01*
X152516677Y-62381564D01*
X152521837Y-62381753D01*
X152526957Y-62381097D01*
X152526959Y-62381097D01*
X152738288Y-62354025D01*
X152738289Y-62354025D01*
X152743416Y-62353368D01*
X152748366Y-62351883D01*
X152952429Y-62290661D01*
X152952434Y-62290659D01*
X152957384Y-62289174D01*
X153157994Y-62190896D01*
X153339860Y-62061173D01*
X153448091Y-61953319D01*
X153510462Y-61919404D01*
X153581268Y-61924592D01*
X153638030Y-61967238D01*
X153655012Y-61998341D01*
X153668897Y-62035379D01*
X153699385Y-62116705D01*
X153786739Y-62233261D01*
X153903295Y-62320615D01*
X154039684Y-62371745D01*
X154101866Y-62378500D01*
X155898134Y-62378500D01*
X155960316Y-62371745D01*
X156096705Y-62320615D01*
X156213261Y-62233261D01*
X156300615Y-62116705D01*
X156351745Y-61980316D01*
X156358500Y-61918134D01*
X156358500Y-60121866D01*
X156351745Y-60059684D01*
X156300615Y-59923295D01*
X156213261Y-59806739D01*
X156096705Y-59719385D01*
X155960316Y-59668255D01*
X155898134Y-59661500D01*
X154101866Y-59661500D01*
X154039684Y-59668255D01*
X153903295Y-59719385D01*
X153786739Y-59806739D01*
X153699385Y-59923295D01*
X153696233Y-59931703D01*
X153654919Y-60041907D01*
X153612277Y-60098671D01*
X153545716Y-60123371D01*
X153476367Y-60108163D01*
X153443743Y-60082476D01*
X153393151Y-60026875D01*
X153393142Y-60026866D01*
X153389670Y-60023051D01*
X153385619Y-60019852D01*
X153385615Y-60019848D01*
X153218414Y-59887800D01*
X153218410Y-59887798D01*
X153214359Y-59884598D01*
X153018789Y-59776638D01*
X153013920Y-59774914D01*
X153013916Y-59774912D01*
X152813087Y-59703795D01*
X152813083Y-59703794D01*
X152808212Y-59702069D01*
X152803119Y-59701162D01*
X152803116Y-59701161D01*
X152593373Y-59663800D01*
X152593367Y-59663799D01*
X152588284Y-59662894D01*
X152514452Y-59661992D01*
X152370081Y-59660228D01*
X152370079Y-59660228D01*
X152364911Y-59660165D01*
X152144091Y-59693955D01*
X151931756Y-59763357D01*
X151733607Y-59866507D01*
X151729474Y-59869610D01*
X151729471Y-59869612D01*
X151559100Y-59997530D01*
X151554965Y-60000635D01*
X151515525Y-60041907D01*
X151461280Y-60098671D01*
X151400629Y-60162138D01*
X151293201Y-60319621D01*
X151238293Y-60364621D01*
X151167768Y-60372792D01*
X151104021Y-60341538D01*
X151083324Y-60317054D01*
X151002822Y-60192617D01*
X151002820Y-60192614D01*
X151000014Y-60188277D01*
X150849670Y-60023051D01*
X150845619Y-60019852D01*
X150845615Y-60019848D01*
X150678414Y-59887800D01*
X150678410Y-59887798D01*
X150674359Y-59884598D01*
X150478789Y-59776638D01*
X150473920Y-59774914D01*
X150473916Y-59774912D01*
X150273087Y-59703795D01*
X150273083Y-59703794D01*
X150268212Y-59702069D01*
X150263119Y-59701162D01*
X150263116Y-59701161D01*
X150053373Y-59663800D01*
X150053367Y-59663799D01*
X150048284Y-59662894D01*
X149974452Y-59661992D01*
X149830081Y-59660228D01*
X149830079Y-59660228D01*
X149824911Y-59660165D01*
X149604091Y-59693955D01*
X149391756Y-59763357D01*
X149193607Y-59866507D01*
X149189474Y-59869610D01*
X149189471Y-59869612D01*
X149019100Y-59997530D01*
X149014965Y-60000635D01*
X148975525Y-60041907D01*
X148921280Y-60098671D01*
X148860629Y-60162138D01*
X148753201Y-60319621D01*
X148698293Y-60364621D01*
X148627768Y-60372792D01*
X148564021Y-60341538D01*
X148543324Y-60317054D01*
X148462822Y-60192617D01*
X148462820Y-60192614D01*
X148460014Y-60188277D01*
X148309670Y-60023051D01*
X148305619Y-60019852D01*
X148305615Y-60019848D01*
X148138414Y-59887800D01*
X148138410Y-59887798D01*
X148134359Y-59884598D01*
X147938789Y-59776638D01*
X147933920Y-59774914D01*
X147933916Y-59774912D01*
X147733087Y-59703795D01*
X147733083Y-59703794D01*
X147728212Y-59702069D01*
X147723119Y-59701162D01*
X147723116Y-59701161D01*
X147513373Y-59663800D01*
X147513367Y-59663799D01*
X147508284Y-59662894D01*
X147434452Y-59661992D01*
X147290081Y-59660228D01*
X147290079Y-59660228D01*
X147284911Y-59660165D01*
X147064091Y-59693955D01*
X146851756Y-59763357D01*
X146653607Y-59866507D01*
X146649474Y-59869610D01*
X146649471Y-59869612D01*
X146479100Y-59997530D01*
X146474965Y-60000635D01*
X146435525Y-60041907D01*
X146381280Y-60098671D01*
X146320629Y-60162138D01*
X146194743Y-60346680D01*
X146100688Y-60549305D01*
X146040989Y-60764570D01*
X146017251Y-60986695D01*
X94488500Y-60986695D01*
X94488500Y-58546500D01*
X94508502Y-58478379D01*
X94562158Y-58431886D01*
X94614500Y-58420500D01*
X179705500Y-58420500D01*
X179773621Y-58440502D01*
G37*
G04 #@! TD.AperFunction*
G04 #@! TA.AperFunction,Conductor*
G36*
X101200264Y-83482665D02*
G01*
X101281214Y-83491173D01*
X101305303Y-83496118D01*
X101383048Y-83520184D01*
X101405717Y-83529713D01*
X101477318Y-83568427D01*
X101497706Y-83582179D01*
X101560419Y-83634060D01*
X101577746Y-83651509D01*
X101629186Y-83714581D01*
X101642794Y-83735063D01*
X101681002Y-83806922D01*
X101690373Y-83829657D01*
X101713900Y-83907582D01*
X101718677Y-83931705D01*
X101727191Y-84018539D01*
X101726799Y-84046618D01*
X101715861Y-84133202D01*
X101710416Y-84157164D01*
X101687807Y-84225128D01*
X101684725Y-84234394D01*
X101674724Y-84256857D01*
X101634519Y-84327631D01*
X101620345Y-84347723D01*
X101581297Y-84392962D01*
X101567162Y-84409337D01*
X101549356Y-84426293D01*
X101501859Y-84463402D01*
X101485216Y-84476405D01*
X101464456Y-84489580D01*
X101397957Y-84523171D01*
X101391806Y-84526278D01*
X101368882Y-84535169D01*
X101290483Y-84557059D01*
X101266272Y-84561328D01*
X101213961Y-84565354D01*
X101185120Y-84567573D01*
X101160536Y-84567058D01*
X101104539Y-84560381D01*
X101079714Y-84557421D01*
X101055698Y-84552140D01*
X100978287Y-84526988D01*
X100955755Y-84517143D01*
X100884706Y-84477435D01*
X100864514Y-84463402D01*
X100820913Y-84426295D01*
X100802531Y-84410651D01*
X100785450Y-84392962D01*
X100734892Y-84329172D01*
X100721572Y-84308504D01*
X100684370Y-84236117D01*
X100675317Y-84213253D01*
X100673674Y-84207522D01*
X100652881Y-84135008D01*
X100648443Y-84110827D01*
X100643052Y-84046626D01*
X100641632Y-84029723D01*
X100641975Y-84005134D01*
X100642174Y-84003365D01*
X100651049Y-83924244D01*
X100656162Y-83900193D01*
X100680772Y-83822612D01*
X100690456Y-83800016D01*
X100729676Y-83728676D01*
X100743558Y-83708402D01*
X100795882Y-83646045D01*
X100813443Y-83628848D01*
X100876882Y-83577842D01*
X100897454Y-83564379D01*
X100963764Y-83529713D01*
X100969593Y-83526666D01*
X100992390Y-83517456D01*
X101070466Y-83494477D01*
X101094606Y-83489871D01*
X101175684Y-83482493D01*
X101200264Y-83482665D01*
G37*
G04 #@! TD.AperFunction*
G04 #@! TA.AperFunction,Conductor*
G36*
X125745931Y-66060002D02*
G01*
X125766905Y-66076905D01*
X128233095Y-68543095D01*
X128267121Y-68605407D01*
X128270000Y-68632190D01*
X128270000Y-78687810D01*
X128249998Y-78755931D01*
X128233095Y-78776905D01*
X124496905Y-82513095D01*
X124434593Y-82547121D01*
X124407810Y-82550000D01*
X110490000Y-82550000D01*
X104176905Y-88863095D01*
X104114593Y-88897121D01*
X104087810Y-88900000D01*
X100382190Y-88900000D01*
X100314069Y-88879998D01*
X100293095Y-88863095D01*
X99096905Y-87666905D01*
X99062879Y-87604593D01*
X99060000Y-87577810D01*
X99060000Y-85395206D01*
X102964686Y-85395206D01*
X102981991Y-85601278D01*
X103038992Y-85800066D01*
X103041810Y-85805548D01*
X103041811Y-85805552D01*
X103130699Y-85978509D01*
X103130702Y-85978513D01*
X103133519Y-85983995D01*
X103261971Y-86146061D01*
X103419456Y-86280091D01*
X103599974Y-86380980D01*
X103796651Y-86444884D01*
X104001994Y-86469370D01*
X104008129Y-86468898D01*
X104008131Y-86468898D01*
X104202041Y-86453977D01*
X104202045Y-86453976D01*
X104208183Y-86453504D01*
X104407363Y-86397892D01*
X104412867Y-86395112D01*
X104412869Y-86395111D01*
X104586447Y-86307431D01*
X104586449Y-86307430D01*
X104591948Y-86304652D01*
X104754907Y-86177334D01*
X104758933Y-86172670D01*
X104758936Y-86172667D01*
X104886004Y-86025457D01*
X104886005Y-86025455D01*
X104890033Y-86020789D01*
X104992180Y-85840979D01*
X105057455Y-85644753D01*
X105083374Y-85439586D01*
X105083787Y-85410000D01*
X105063607Y-85204189D01*
X105003836Y-85006217D01*
X104906750Y-84823625D01*
X104902859Y-84818855D01*
X104902857Y-84818851D01*
X104779943Y-84668143D01*
X104779940Y-84668140D01*
X104776048Y-84663368D01*
X104769151Y-84657662D01*
X104621456Y-84535478D01*
X104621451Y-84535475D01*
X104616707Y-84531550D01*
X104611288Y-84528620D01*
X104611285Y-84528618D01*
X104440217Y-84436122D01*
X104440212Y-84436120D01*
X104434797Y-84433192D01*
X104237248Y-84372040D01*
X104231123Y-84371396D01*
X104231122Y-84371396D01*
X104037711Y-84351068D01*
X104037709Y-84351068D01*
X104031582Y-84350424D01*
X103905414Y-84361906D01*
X103831776Y-84368607D01*
X103831775Y-84368607D01*
X103825635Y-84369166D01*
X103627251Y-84427554D01*
X103621786Y-84430411D01*
X103449446Y-84520508D01*
X103449442Y-84520511D01*
X103443986Y-84523363D01*
X103282820Y-84652943D01*
X103149893Y-84811360D01*
X103050267Y-84992578D01*
X102987738Y-85189696D01*
X102964686Y-85395206D01*
X99060000Y-85395206D01*
X99060000Y-84010206D01*
X100124686Y-84010206D01*
X100141991Y-84216278D01*
X100198992Y-84415066D01*
X100201810Y-84420548D01*
X100201811Y-84420552D01*
X100290699Y-84593509D01*
X100290702Y-84593513D01*
X100293519Y-84598995D01*
X100421971Y-84761061D01*
X100426664Y-84765055D01*
X100426665Y-84765056D01*
X100495484Y-84823625D01*
X100579456Y-84895091D01*
X100759974Y-84995980D01*
X100956651Y-85059884D01*
X101161994Y-85084370D01*
X101168129Y-85083898D01*
X101168131Y-85083898D01*
X101362041Y-85068977D01*
X101362045Y-85068976D01*
X101368183Y-85068504D01*
X101567363Y-85012892D01*
X101572867Y-85010112D01*
X101572869Y-85010111D01*
X101746447Y-84922431D01*
X101746449Y-84922430D01*
X101751948Y-84919652D01*
X101914907Y-84792334D01*
X101918933Y-84787670D01*
X101918936Y-84787667D01*
X102046004Y-84640457D01*
X102046005Y-84640455D01*
X102050033Y-84635789D01*
X102110915Y-84528618D01*
X102149135Y-84461340D01*
X102149137Y-84461336D01*
X102152180Y-84455979D01*
X102187293Y-84350424D01*
X102215510Y-84265601D01*
X102215511Y-84265598D01*
X102217455Y-84259753D01*
X102243374Y-84054586D01*
X102243787Y-84025000D01*
X102223607Y-83819189D01*
X102163836Y-83621217D01*
X102104749Y-83510091D01*
X102069644Y-83444067D01*
X102069642Y-83444064D01*
X102066750Y-83438625D01*
X102062859Y-83433855D01*
X102062857Y-83433851D01*
X101939943Y-83283143D01*
X101939940Y-83283140D01*
X101936048Y-83278368D01*
X101929151Y-83272662D01*
X101781456Y-83150478D01*
X101781451Y-83150475D01*
X101776707Y-83146550D01*
X101771288Y-83143620D01*
X101771285Y-83143618D01*
X101600217Y-83051122D01*
X101600212Y-83051120D01*
X101594797Y-83048192D01*
X101397248Y-82987040D01*
X101391123Y-82986396D01*
X101391122Y-82986396D01*
X101197711Y-82966068D01*
X101197709Y-82966068D01*
X101191582Y-82965424D01*
X101065414Y-82976906D01*
X100991776Y-82983607D01*
X100991775Y-82983607D01*
X100985635Y-82984166D01*
X100787251Y-83042554D01*
X100781786Y-83045411D01*
X100609446Y-83135508D01*
X100609442Y-83135511D01*
X100603986Y-83138363D01*
X100442820Y-83267943D01*
X100309893Y-83426360D01*
X100210267Y-83607578D01*
X100147738Y-83804696D01*
X100147052Y-83810813D01*
X100147051Y-83810817D01*
X100129134Y-83970553D01*
X100124686Y-84010206D01*
X99060000Y-84010206D01*
X99060000Y-82625206D01*
X102964686Y-82625206D01*
X102981991Y-82831278D01*
X103038992Y-83030066D01*
X103041810Y-83035548D01*
X103041811Y-83035552D01*
X103130699Y-83208509D01*
X103130702Y-83208513D01*
X103133519Y-83213995D01*
X103261971Y-83376061D01*
X103266664Y-83380055D01*
X103266665Y-83380056D01*
X103335484Y-83438625D01*
X103419456Y-83510091D01*
X103599974Y-83610980D01*
X103796651Y-83674884D01*
X104001994Y-83699370D01*
X104008129Y-83698898D01*
X104008131Y-83698898D01*
X104202041Y-83683977D01*
X104202045Y-83683976D01*
X104208183Y-83683504D01*
X104407363Y-83627892D01*
X104412867Y-83625112D01*
X104412869Y-83625111D01*
X104586447Y-83537431D01*
X104586449Y-83537430D01*
X104591948Y-83534652D01*
X104754907Y-83407334D01*
X104758933Y-83402670D01*
X104758936Y-83402667D01*
X104886004Y-83255457D01*
X104886005Y-83255455D01*
X104890033Y-83250789D01*
X104950915Y-83143618D01*
X104989135Y-83076340D01*
X104989137Y-83076336D01*
X104992180Y-83070979D01*
X105057455Y-82874753D01*
X105083374Y-82669586D01*
X105083787Y-82640000D01*
X105063607Y-82434189D01*
X105003836Y-82236217D01*
X104906750Y-82053625D01*
X104902859Y-82048855D01*
X104902857Y-82048851D01*
X104779943Y-81898143D01*
X104779940Y-81898140D01*
X104776048Y-81893368D01*
X104769151Y-81887662D01*
X104621456Y-81765478D01*
X104621451Y-81765475D01*
X104616707Y-81761550D01*
X104611288Y-81758620D01*
X104611285Y-81758618D01*
X104440217Y-81666122D01*
X104440212Y-81666120D01*
X104434797Y-81663192D01*
X104237248Y-81602040D01*
X104231123Y-81601396D01*
X104231122Y-81601396D01*
X104037711Y-81581068D01*
X104037709Y-81581068D01*
X104031582Y-81580424D01*
X103905414Y-81591906D01*
X103831776Y-81598607D01*
X103831775Y-81598607D01*
X103825635Y-81599166D01*
X103627251Y-81657554D01*
X103621786Y-81660411D01*
X103449446Y-81750508D01*
X103449442Y-81750511D01*
X103443986Y-81753363D01*
X103282820Y-81882943D01*
X103149893Y-82041360D01*
X103050267Y-82222578D01*
X102987738Y-82419696D01*
X102964686Y-82625206D01*
X99060000Y-82625206D01*
X99060000Y-81240206D01*
X100124686Y-81240206D01*
X100141991Y-81446278D01*
X100198992Y-81645066D01*
X100201810Y-81650548D01*
X100201811Y-81650552D01*
X100290699Y-81823509D01*
X100290702Y-81823513D01*
X100293519Y-81828995D01*
X100421971Y-81991061D01*
X100426664Y-81995055D01*
X100426665Y-81995056D01*
X100495484Y-82053625D01*
X100579456Y-82125091D01*
X100759974Y-82225980D01*
X100956651Y-82289884D01*
X101161994Y-82314370D01*
X101168129Y-82313898D01*
X101168131Y-82313898D01*
X101362041Y-82298977D01*
X101362045Y-82298976D01*
X101368183Y-82298504D01*
X101567363Y-82242892D01*
X101572867Y-82240112D01*
X101572869Y-82240111D01*
X101746447Y-82152431D01*
X101746449Y-82152430D01*
X101751948Y-82149652D01*
X101914907Y-82022334D01*
X101918933Y-82017670D01*
X101918936Y-82017667D01*
X102046004Y-81870457D01*
X102046005Y-81870455D01*
X102050033Y-81865789D01*
X102110915Y-81758618D01*
X102149135Y-81691340D01*
X102149137Y-81691336D01*
X102152180Y-81685979D01*
X102217455Y-81489753D01*
X102243374Y-81284586D01*
X102243787Y-81255000D01*
X102223607Y-81049189D01*
X102163836Y-80851217D01*
X102066750Y-80668625D01*
X102062859Y-80663855D01*
X102062857Y-80663851D01*
X101939943Y-80513143D01*
X101939940Y-80513140D01*
X101936048Y-80508368D01*
X101929151Y-80502662D01*
X101781456Y-80380478D01*
X101781451Y-80380475D01*
X101776707Y-80376550D01*
X101771288Y-80373620D01*
X101771285Y-80373618D01*
X101600217Y-80281122D01*
X101600212Y-80281120D01*
X101594797Y-80278192D01*
X101397248Y-80217040D01*
X101391123Y-80216396D01*
X101391122Y-80216396D01*
X101197711Y-80196068D01*
X101197709Y-80196068D01*
X101191582Y-80195424D01*
X101065414Y-80206906D01*
X100991776Y-80213607D01*
X100991775Y-80213607D01*
X100985635Y-80214166D01*
X100787251Y-80272554D01*
X100781786Y-80275411D01*
X100609446Y-80365508D01*
X100609442Y-80365511D01*
X100603986Y-80368363D01*
X100442820Y-80497943D01*
X100309893Y-80656360D01*
X100210267Y-80837578D01*
X100147738Y-81034696D01*
X100124686Y-81240206D01*
X99060000Y-81240206D01*
X99060000Y-79855206D01*
X102964686Y-79855206D01*
X102981991Y-80061278D01*
X103038992Y-80260066D01*
X103041810Y-80265548D01*
X103041811Y-80265552D01*
X103130699Y-80438509D01*
X103130702Y-80438513D01*
X103133519Y-80443995D01*
X103261971Y-80606061D01*
X103266664Y-80610055D01*
X103266665Y-80610056D01*
X103335484Y-80668625D01*
X103419456Y-80740091D01*
X103599974Y-80840980D01*
X103796651Y-80904884D01*
X104001994Y-80929370D01*
X104008129Y-80928898D01*
X104008131Y-80928898D01*
X104202041Y-80913977D01*
X104202045Y-80913976D01*
X104208183Y-80913504D01*
X104407363Y-80857892D01*
X104412867Y-80855112D01*
X104412869Y-80855111D01*
X104586447Y-80767431D01*
X104586449Y-80767430D01*
X104591948Y-80764652D01*
X104754907Y-80637334D01*
X104758933Y-80632670D01*
X104758936Y-80632667D01*
X104886004Y-80485457D01*
X104886005Y-80485455D01*
X104890033Y-80480789D01*
X104950915Y-80373618D01*
X104989135Y-80306340D01*
X104989137Y-80306336D01*
X104992180Y-80300979D01*
X105057455Y-80104753D01*
X105083374Y-79899586D01*
X105083787Y-79870000D01*
X105063607Y-79664189D01*
X105003836Y-79466217D01*
X104906750Y-79283625D01*
X104902859Y-79278855D01*
X104902857Y-79278851D01*
X104872065Y-79241096D01*
X115672729Y-79241096D01*
X115678025Y-79289067D01*
X115685315Y-79355091D01*
X115690113Y-79398553D01*
X115692723Y-79405684D01*
X115692723Y-79405686D01*
X115737668Y-79528504D01*
X115744553Y-79547319D01*
X115748789Y-79553622D01*
X115748789Y-79553623D01*
X115827208Y-79670322D01*
X115832908Y-79678805D01*
X115838527Y-79683918D01*
X115838528Y-79683919D01*
X115849903Y-79694269D01*
X115950076Y-79785419D01*
X116089293Y-79861008D01*
X116242522Y-79901207D01*
X116326477Y-79902526D01*
X116393319Y-79903576D01*
X116393322Y-79903576D01*
X116400916Y-79903695D01*
X116555332Y-79868329D01*
X116625742Y-79832917D01*
X116690072Y-79800563D01*
X116690075Y-79800561D01*
X116696855Y-79797151D01*
X116702626Y-79792222D01*
X116702629Y-79792220D01*
X116811536Y-79699204D01*
X116811536Y-79699203D01*
X116817314Y-79694269D01*
X116909755Y-79565624D01*
X116968842Y-79418641D01*
X116977886Y-79355091D01*
X116990581Y-79265891D01*
X116990581Y-79265888D01*
X116991162Y-79261807D01*
X116991231Y-79255265D01*
X116991264Y-79252134D01*
X116991264Y-79252128D01*
X116991307Y-79248000D01*
X116972276Y-79090733D01*
X116916280Y-78942546D01*
X116873673Y-78880552D01*
X116830855Y-78818251D01*
X116830854Y-78818249D01*
X116826553Y-78811992D01*
X116708275Y-78706611D01*
X116700889Y-78702700D01*
X116574988Y-78636039D01*
X116574989Y-78636039D01*
X116568274Y-78632484D01*
X116414633Y-78593892D01*
X116407034Y-78593852D01*
X116407033Y-78593852D01*
X116341181Y-78593507D01*
X116256221Y-78593062D01*
X116248841Y-78594834D01*
X116248839Y-78594834D01*
X116109563Y-78628271D01*
X116109560Y-78628272D01*
X116102184Y-78630043D01*
X115961414Y-78702700D01*
X115842039Y-78806838D01*
X115750950Y-78936444D01*
X115748190Y-78943524D01*
X115701286Y-79063827D01*
X115693406Y-79084037D01*
X115692414Y-79091570D01*
X115692414Y-79091571D01*
X115674841Y-79225056D01*
X115672729Y-79241096D01*
X104872065Y-79241096D01*
X104779943Y-79128143D01*
X104779940Y-79128140D01*
X104776048Y-79123368D01*
X104769151Y-79117662D01*
X104621456Y-78995478D01*
X104621451Y-78995475D01*
X104616707Y-78991550D01*
X104611288Y-78988620D01*
X104611285Y-78988618D01*
X104440217Y-78896122D01*
X104440212Y-78896120D01*
X104434797Y-78893192D01*
X104237248Y-78832040D01*
X104231123Y-78831396D01*
X104231122Y-78831396D01*
X104037711Y-78811068D01*
X104037709Y-78811068D01*
X104031582Y-78810424D01*
X103905414Y-78821906D01*
X103831776Y-78828607D01*
X103831775Y-78828607D01*
X103825635Y-78829166D01*
X103627251Y-78887554D01*
X103621786Y-78890411D01*
X103449446Y-78980508D01*
X103449442Y-78980511D01*
X103443986Y-78983363D01*
X103282820Y-79112943D01*
X103149893Y-79271360D01*
X103050267Y-79452578D01*
X102987738Y-79649696D01*
X102987052Y-79655813D01*
X102987051Y-79655817D01*
X102971751Y-79792220D01*
X102964686Y-79855206D01*
X99060000Y-79855206D01*
X99060000Y-78470206D01*
X100124686Y-78470206D01*
X100125928Y-78485000D01*
X100137960Y-78628271D01*
X100141991Y-78676278D01*
X100198992Y-78875066D01*
X100201810Y-78880548D01*
X100201811Y-78880552D01*
X100290699Y-79053509D01*
X100290702Y-79053513D01*
X100293519Y-79058995D01*
X100421971Y-79221061D01*
X100426664Y-79225055D01*
X100426665Y-79225056D01*
X100495484Y-79283625D01*
X100579456Y-79355091D01*
X100759974Y-79455980D01*
X100956651Y-79519884D01*
X101161994Y-79544370D01*
X101168129Y-79543898D01*
X101168131Y-79543898D01*
X101362041Y-79528977D01*
X101362045Y-79528976D01*
X101368183Y-79528504D01*
X101567363Y-79472892D01*
X101572867Y-79470112D01*
X101572869Y-79470111D01*
X101746447Y-79382431D01*
X101746449Y-79382430D01*
X101751948Y-79379652D01*
X101914907Y-79252334D01*
X101918933Y-79247670D01*
X101918936Y-79247667D01*
X102046004Y-79100457D01*
X102046005Y-79100455D01*
X102050033Y-79095789D01*
X102110915Y-78988618D01*
X102149135Y-78921340D01*
X102149137Y-78921336D01*
X102152180Y-78915979D01*
X102186419Y-78813052D01*
X102215510Y-78725601D01*
X102215511Y-78725598D01*
X102217455Y-78719753D01*
X102243374Y-78514586D01*
X102243787Y-78485000D01*
X102223607Y-78279189D01*
X102163836Y-78081217D01*
X102066750Y-77898625D01*
X102062859Y-77893855D01*
X102062857Y-77893851D01*
X101939943Y-77743143D01*
X101939940Y-77743140D01*
X101936048Y-77738368D01*
X101929151Y-77732662D01*
X101781456Y-77610478D01*
X101781451Y-77610475D01*
X101776707Y-77606550D01*
X101771288Y-77603620D01*
X101771285Y-77603618D01*
X101600217Y-77511122D01*
X101600212Y-77511120D01*
X101594797Y-77508192D01*
X101397248Y-77447040D01*
X101391123Y-77446396D01*
X101391122Y-77446396D01*
X101197711Y-77426068D01*
X101197709Y-77426068D01*
X101191582Y-77425424D01*
X101065414Y-77436906D01*
X100991776Y-77443607D01*
X100991775Y-77443607D01*
X100985635Y-77444166D01*
X100787251Y-77502554D01*
X100781786Y-77505411D01*
X100609446Y-77595508D01*
X100609442Y-77595511D01*
X100603986Y-77598363D01*
X100442820Y-77727943D01*
X100309893Y-77886360D01*
X100210267Y-78067578D01*
X100147738Y-78264696D01*
X100124686Y-78470206D01*
X99060000Y-78470206D01*
X99060000Y-77085206D01*
X102964686Y-77085206D01*
X102981991Y-77291278D01*
X103038992Y-77490066D01*
X103041810Y-77495548D01*
X103041811Y-77495552D01*
X103130699Y-77668509D01*
X103130702Y-77668513D01*
X103133519Y-77673995D01*
X103261971Y-77836061D01*
X103266664Y-77840055D01*
X103266665Y-77840056D01*
X103335484Y-77898625D01*
X103419456Y-77970091D01*
X103599974Y-78070980D01*
X103796651Y-78134884D01*
X104001994Y-78159370D01*
X104008129Y-78158898D01*
X104008131Y-78158898D01*
X104202041Y-78143977D01*
X104202045Y-78143976D01*
X104208183Y-78143504D01*
X104407363Y-78087892D01*
X104412867Y-78085112D01*
X104412869Y-78085111D01*
X104586447Y-77997431D01*
X104586449Y-77997430D01*
X104591948Y-77994652D01*
X104754907Y-77867334D01*
X104758933Y-77862670D01*
X104758936Y-77862667D01*
X104886004Y-77715457D01*
X104886005Y-77715455D01*
X104890033Y-77710789D01*
X104950915Y-77603618D01*
X104958597Y-77590096D01*
X111354729Y-77590096D01*
X111363386Y-77668509D01*
X111371099Y-77738368D01*
X111372113Y-77747553D01*
X111374723Y-77754684D01*
X111374723Y-77754686D01*
X111422909Y-77886360D01*
X111426553Y-77896319D01*
X111430789Y-77902622D01*
X111430789Y-77902623D01*
X111494498Y-77997431D01*
X111514908Y-78027805D01*
X111520527Y-78032918D01*
X111520528Y-78032919D01*
X111573607Y-78081217D01*
X111632076Y-78134419D01*
X111771293Y-78210008D01*
X111924522Y-78250207D01*
X112008477Y-78251526D01*
X112075319Y-78252576D01*
X112075322Y-78252576D01*
X112082916Y-78252695D01*
X112237332Y-78217329D01*
X112352572Y-78159370D01*
X112372072Y-78149563D01*
X112372075Y-78149561D01*
X112378855Y-78146151D01*
X112384626Y-78141222D01*
X112384629Y-78141220D01*
X112493536Y-78048204D01*
X112493536Y-78048203D01*
X112499314Y-78043269D01*
X112591755Y-77914624D01*
X112650842Y-77767641D01*
X112673162Y-77610807D01*
X112673231Y-77604265D01*
X112673264Y-77601134D01*
X112673264Y-77601128D01*
X112673307Y-77597000D01*
X112654276Y-77439733D01*
X112598280Y-77291546D01*
X112508553Y-77160992D01*
X112390275Y-77055611D01*
X112382889Y-77051700D01*
X112256988Y-76985039D01*
X112256989Y-76985039D01*
X112250274Y-76981484D01*
X112096633Y-76942892D01*
X112089034Y-76942852D01*
X112089033Y-76942852D01*
X112023181Y-76942507D01*
X111938221Y-76942062D01*
X111930841Y-76943834D01*
X111930839Y-76943834D01*
X111791563Y-76977271D01*
X111791560Y-76977272D01*
X111784184Y-76979043D01*
X111643414Y-77051700D01*
X111524039Y-77155838D01*
X111432950Y-77285444D01*
X111375406Y-77433037D01*
X111374414Y-77440570D01*
X111374414Y-77440571D01*
X111362512Y-77530979D01*
X111354729Y-77590096D01*
X104958597Y-77590096D01*
X104989135Y-77536340D01*
X104989137Y-77536336D01*
X104992180Y-77530979D01*
X105057455Y-77334753D01*
X105083374Y-77129586D01*
X105083787Y-77100000D01*
X105063607Y-76894189D01*
X105003836Y-76696217D01*
X104906750Y-76513625D01*
X104902859Y-76508855D01*
X104902857Y-76508851D01*
X104779943Y-76358143D01*
X104779940Y-76358140D01*
X104776048Y-76353368D01*
X104769151Y-76347662D01*
X104621456Y-76225478D01*
X104621451Y-76225475D01*
X104616707Y-76221550D01*
X104611288Y-76218620D01*
X104611285Y-76218618D01*
X104440217Y-76126122D01*
X104440212Y-76126120D01*
X104434797Y-76123192D01*
X104237248Y-76062040D01*
X104231123Y-76061396D01*
X104231122Y-76061396D01*
X104037711Y-76041068D01*
X104037709Y-76041068D01*
X104031582Y-76040424D01*
X103905414Y-76051906D01*
X103831776Y-76058607D01*
X103831775Y-76058607D01*
X103825635Y-76059166D01*
X103627251Y-76117554D01*
X103621786Y-76120411D01*
X103449446Y-76210508D01*
X103449442Y-76210511D01*
X103443986Y-76213363D01*
X103282820Y-76342943D01*
X103149893Y-76501360D01*
X103050267Y-76682578D01*
X102987738Y-76879696D01*
X102987052Y-76885813D01*
X102987051Y-76885817D01*
X102968006Y-77055611D01*
X102964686Y-77085206D01*
X99060000Y-77085206D01*
X99060000Y-75700206D01*
X100124686Y-75700206D01*
X100141991Y-75906278D01*
X100198992Y-76105066D01*
X100201810Y-76110548D01*
X100201811Y-76110552D01*
X100290699Y-76283509D01*
X100290702Y-76283513D01*
X100293519Y-76288995D01*
X100421971Y-76451061D01*
X100426664Y-76455055D01*
X100426665Y-76455056D01*
X100495484Y-76513625D01*
X100579456Y-76585091D01*
X100759974Y-76685980D01*
X100956651Y-76749884D01*
X101161994Y-76774370D01*
X101168129Y-76773898D01*
X101168131Y-76773898D01*
X101362041Y-76758977D01*
X101362045Y-76758976D01*
X101368183Y-76758504D01*
X101567363Y-76702892D01*
X101572867Y-76700112D01*
X101572869Y-76700111D01*
X101746447Y-76612431D01*
X101746449Y-76612430D01*
X101751948Y-76609652D01*
X101914907Y-76482334D01*
X101918933Y-76477670D01*
X101918936Y-76477667D01*
X102046004Y-76330457D01*
X102046005Y-76330455D01*
X102050033Y-76325789D01*
X102110915Y-76218618D01*
X102149135Y-76151340D01*
X102149137Y-76151336D01*
X102152180Y-76145979D01*
X102217455Y-75949753D01*
X102243374Y-75744586D01*
X102243787Y-75715000D01*
X102223607Y-75509189D01*
X102163836Y-75311217D01*
X102066750Y-75128625D01*
X102062859Y-75123855D01*
X102062857Y-75123851D01*
X101939943Y-74973143D01*
X101939940Y-74973140D01*
X101936048Y-74968368D01*
X101929151Y-74962662D01*
X101781456Y-74840478D01*
X101781451Y-74840475D01*
X101776707Y-74836550D01*
X101771288Y-74833620D01*
X101771285Y-74833618D01*
X101600217Y-74741122D01*
X101600212Y-74741120D01*
X101594797Y-74738192D01*
X101397248Y-74677040D01*
X101391123Y-74676396D01*
X101391122Y-74676396D01*
X101197711Y-74656068D01*
X101197709Y-74656068D01*
X101191582Y-74655424D01*
X101065414Y-74666906D01*
X100991776Y-74673607D01*
X100991775Y-74673607D01*
X100985635Y-74674166D01*
X100787251Y-74732554D01*
X100781786Y-74735411D01*
X100609446Y-74825508D01*
X100609442Y-74825511D01*
X100603986Y-74828363D01*
X100442820Y-74957943D01*
X100309893Y-75116360D01*
X100210267Y-75297578D01*
X100147738Y-75494696D01*
X100124686Y-75700206D01*
X99060000Y-75700206D01*
X99060000Y-74982190D01*
X99080002Y-74914069D01*
X99096905Y-74893095D01*
X102622904Y-71367096D01*
X111354729Y-71367096D01*
X111372113Y-71524553D01*
X111426553Y-71673319D01*
X111514908Y-71804805D01*
X111520527Y-71809918D01*
X111520528Y-71809919D01*
X111531903Y-71820269D01*
X111632076Y-71911419D01*
X111771293Y-71987008D01*
X111924522Y-72027207D01*
X112008477Y-72028526D01*
X112075319Y-72029576D01*
X112075322Y-72029576D01*
X112082916Y-72029695D01*
X112237332Y-71994329D01*
X112307742Y-71958917D01*
X112372072Y-71926563D01*
X112372075Y-71926561D01*
X112378855Y-71923151D01*
X112384626Y-71918222D01*
X112384629Y-71918220D01*
X112493536Y-71825204D01*
X112493536Y-71825203D01*
X112499314Y-71820269D01*
X112591755Y-71691624D01*
X112650842Y-71544641D01*
X112673162Y-71387807D01*
X112673307Y-71374000D01*
X112654276Y-71216733D01*
X112598280Y-71068546D01*
X112508553Y-70937992D01*
X112390275Y-70832611D01*
X112382889Y-70828700D01*
X112256988Y-70762039D01*
X112256989Y-70762039D01*
X112250274Y-70758484D01*
X112096633Y-70719892D01*
X112089034Y-70719852D01*
X112089033Y-70719852D01*
X112023181Y-70719507D01*
X111938221Y-70719062D01*
X111930841Y-70720834D01*
X111930839Y-70720834D01*
X111791563Y-70754271D01*
X111791560Y-70754272D01*
X111784184Y-70756043D01*
X111643414Y-70828700D01*
X111524039Y-70932838D01*
X111432950Y-71062444D01*
X111375406Y-71210037D01*
X111354729Y-71367096D01*
X102622904Y-71367096D01*
X102833095Y-71156905D01*
X102895407Y-71122879D01*
X102922190Y-71120000D01*
X106680000Y-71120000D01*
X108464904Y-69335096D01*
X113005729Y-69335096D01*
X113023113Y-69492553D01*
X113077553Y-69641319D01*
X113165908Y-69772805D01*
X113171527Y-69777918D01*
X113171528Y-69777919D01*
X113182903Y-69788269D01*
X113283076Y-69879419D01*
X113422293Y-69955008D01*
X113575522Y-69995207D01*
X113659477Y-69996526D01*
X113726319Y-69997576D01*
X113726322Y-69997576D01*
X113733916Y-69997695D01*
X113888332Y-69962329D01*
X113958742Y-69926917D01*
X114023072Y-69894563D01*
X114023075Y-69894561D01*
X114029855Y-69891151D01*
X114035626Y-69886222D01*
X114035629Y-69886220D01*
X114144536Y-69793204D01*
X114144536Y-69793203D01*
X114150314Y-69788269D01*
X114242755Y-69659624D01*
X114301842Y-69512641D01*
X114324162Y-69355807D01*
X114324307Y-69342000D01*
X114305276Y-69184733D01*
X114249280Y-69036546D01*
X114159553Y-68905992D01*
X114041275Y-68800611D01*
X114033889Y-68796700D01*
X113907988Y-68730039D01*
X113907989Y-68730039D01*
X113901274Y-68726484D01*
X113747633Y-68687892D01*
X113740034Y-68687852D01*
X113740033Y-68687852D01*
X113674181Y-68687507D01*
X113589221Y-68687062D01*
X113581841Y-68688834D01*
X113581839Y-68688834D01*
X113442563Y-68722271D01*
X113442560Y-68722272D01*
X113435184Y-68724043D01*
X113294414Y-68796700D01*
X113175039Y-68900838D01*
X113083950Y-69030444D01*
X113026406Y-69178037D01*
X113005729Y-69335096D01*
X108464904Y-69335096D01*
X111723095Y-66076905D01*
X111785407Y-66042879D01*
X111812190Y-66040000D01*
X125677810Y-66040000D01*
X125745931Y-66060002D01*
G37*
G04 #@! TD.AperFunction*
M02*
